<?xml version="1.0" encoding="UTF-8" standalone="no"?>
<!DOCTYPE svg PUBLIC "-//W3C//DTD SVG 1.1//EN"
 "http://www.w3.org/Graphics/SVG/1.1/DTD/svg11.dtd">
<!-- Generated by graphviz version 14.1.5 (0)
 -->
<!-- Title: dependency&#45;cruiser output Pages: 1 -->
<svg width="876pt" height="1652pt"
 viewBox="0.00 0.00 876.00 1652.00" xmlns="http://www.w3.org/2000/svg" xmlns:xlink="http://www.w3.org/1999/xlink">
<g id="graph0" class="graph" transform="scale(1 1) rotate(0) translate(4 1648)">
<title>dependency&#45;cruiser output</title>
<polygon fill="white" stroke="none" points="-4,4 -4,-1648 872,-1648 872,4 -4,4"/>
<g id="clust1" class="cluster">
<title>cluster_src</title>
<path fill="#ffffff" stroke="black" stroke-width="2" d="M20,-8C20,-8 848,-8 848,-8 854,-8 860,-14 860,-20 860,-20 860,-1624 860,-1624 860,-1630 854,-1636 848,-1636 848,-1636 20,-1636 20,-1636 14,-1636 8,-1630 8,-1624 8,-1624 8,-20 8,-20 8,-14 14,-8 20,-8"/>
<text xml:space="preserve" text-anchor="middle" x="434" y="-1623.45" font-family="Helvetica,sans-Serif" font-weight="bold" font-size="9.00">src</text>
</g>
<g id="clust2" class="cluster">
<title>cluster_src/adapters</title>
<path fill="#ffffff" stroke="black" stroke-width="2" d="M317,-274C317,-274 643.62,-274 643.62,-274 649.62,-274 655.62,-280 655.62,-286 655.62,-286 655.62,-802 655.62,-802 655.62,-808 649.62,-814 643.62,-814 643.62,-814 317,-814 317,-814 311,-814 305,-808 305,-802 305,-802 305,-286 305,-286 305,-280 311,-274 317,-274"/>
<text xml:space="preserve" text-anchor="middle" x="480.31" y="-801.45" font-family="Helvetica,sans-Serif" font-weight="bold" font-size="9.00">adapters</text>
</g>
<g id="clust3" class="cluster">
<title>cluster_src/adapters/codex</title>
<path fill="#ffffff" stroke="black" stroke-width="2" d="M331.75,-282C331.75,-282 635.62,-282 635.62,-282 641.62,-282 647.62,-288 647.62,-294 647.62,-294 647.62,-487 647.62,-487 647.62,-493 641.62,-499 635.62,-499 635.62,-499 331.75,-499 331.75,-499 325.75,-499 319.75,-493 319.75,-487 319.75,-487 319.75,-294 319.75,-294 319.75,-288 325.75,-282 331.75,-282"/>
<text xml:space="preserve" text-anchor="middle" x="483.69" y="-486.45" font-family="Helvetica,sans-Serif" font-weight="bold" font-size="9.00">codex</text>
</g>
<g id="clust4" class="cluster">
<title>cluster_src/adapters/codex/auth</title>
<path fill="#ffffff" stroke="black" stroke-width="2" d="M341.62,-290C341.62,-290 436.62,-290 436.62,-290 442.62,-290 448.62,-296 448.62,-302 448.62,-302 448.62,-365 448.62,-365 448.62,-371 442.62,-377 436.62,-377 436.62,-377 341.62,-377 341.62,-377 335.62,-377 329.62,-371 329.62,-365 329.62,-365 329.62,-302 329.62,-302 329.62,-296 335.62,-290 341.62,-290"/>
<text xml:space="preserve" text-anchor="middle" x="389.12" y="-364.45" font-family="Helvetica,sans-Serif" font-weight="bold" font-size="9.00">auth</text>
</g>
<g id="clust5" class="cluster">
<title>cluster_src/adapters/codex/responses</title>
<path fill="#ffffff" stroke="black" stroke-width="2" d="M339.75,-385C339.75,-385 627.62,-385 627.62,-385 633.62,-385 639.62,-391 639.62,-397 639.62,-397 639.62,-460 639.62,-460 639.62,-466 633.62,-472 627.62,-472 627.62,-472 339.75,-472 339.75,-472 333.75,-472 327.75,-466 327.75,-460 327.75,-460 327.75,-397 327.75,-397 327.75,-391 333.75,-385 339.75,-385"/>
<text xml:space="preserve" text-anchor="middle" x="483.69" y="-459.45" font-family="Helvetica,sans-Serif" font-weight="bold" font-size="9.00">responses</text>
</g>
<g id="clust6" class="cluster">
<title>cluster_src/adapters/file&#45;system</title>
<path fill="#ffffff" stroke="black" stroke-width="2" d="M327.75,-507C327.75,-507 450.5,-507 450.5,-507 456.5,-507 462.5,-513 462.5,-519 462.5,-519 462.5,-614 462.5,-614 462.5,-620 456.5,-626 450.5,-626 450.5,-626 327.75,-626 327.75,-626 321.75,-626 315.75,-620 315.75,-614 315.75,-614 315.75,-519 315.75,-519 315.75,-513 321.75,-507 327.75,-507"/>
<text xml:space="preserve" text-anchor="middle" x="389.12" y="-613.45" font-family="Helvetica,sans-Serif" font-weight="bold" font-size="9.00">file&#45;system</text>
</g>
<g id="clust7" class="cluster">
<title>cluster_src/adapters/memory</title>
<path fill="#ffffff" stroke="black" stroke-width="2" d="M325,-634C325,-634 453.25,-634 453.25,-634 459.25,-634 465.25,-640 465.25,-646 465.25,-646 465.25,-712 465.25,-712 465.25,-718 459.25,-724 453.25,-724 453.25,-724 325,-724 325,-724 319,-724 313,-718 313,-712 313,-712 313,-646 313,-646 313,-640 319,-634 325,-634"/>
<text xml:space="preserve" text-anchor="middle" x="389.12" y="-711.45" font-family="Helvetica,sans-Serif" font-weight="bold" font-size="9.00">memory</text>
</g>
<g id="clust8" class="cluster">
<title>cluster_src/adapters/memory/simple&#45;linear</title>
<path fill="#ffffff" stroke="black" stroke-width="2" d="M333,-642C333,-642 445.25,-642 445.25,-642 451.25,-642 457.25,-648 457.25,-654 457.25,-654 457.25,-685 457.25,-685 457.25,-691 451.25,-697 445.25,-697 445.25,-697 333,-697 333,-697 327,-697 321,-691 321,-685 321,-685 321,-654 321,-654 321,-648 327,-642 333,-642"/>
<text xml:space="preserve" text-anchor="middle" x="389.12" y="-684.45" font-family="Helvetica,sans-Serif" font-weight="bold" font-size="9.00">simple&#45;linear</text>
</g>
<g id="clust9" class="cluster">
<title>cluster_src/adapters/tools</title>
<path fill="#ffffff" stroke="black" stroke-width="2" d="M360,-732C360,-732 418.25,-732 418.25,-732 424.25,-732 430.25,-738 430.25,-744 430.25,-744 430.25,-775 430.25,-775 430.25,-781 424.25,-787 418.25,-787 418.25,-787 360,-787 360,-787 354,-787 348,-781 348,-775 348,-775 348,-744 348,-744 348,-738 354,-732 360,-732"/>
<text xml:space="preserve" text-anchor="middle" x="389.12" y="-774.45" font-family="Helvetica,sans-Serif" font-weight="bold" font-size="9.00">tools</text>
</g>
<g id="clust10" class="cluster">
<title>cluster_src/apps</title>
<path fill="#ffffff" stroke="black" stroke-width="2" d="M28,-16C28,-16 457.75,-16 457.75,-16 463.75,-16 469.75,-22 469.75,-28 469.75,-28 469.75,-254 469.75,-254 469.75,-260 463.75,-266 457.75,-266 457.75,-266 28,-266 28,-266 22,-266 16,-260 16,-254 16,-254 16,-28 16,-28 16,-22 22,-16 28,-16"/>
<text xml:space="preserve" text-anchor="middle" x="242.88" y="-253.45" font-family="Helvetica,sans-Serif" font-weight="bold" font-size="9.00">apps</text>
</g>
<g id="clust11" class="cluster">
<title>cluster_src/apps/cli</title>
<path fill="#ffffff" stroke="black" stroke-width="2" d="M36,-24C36,-24 449.75,-24 449.75,-24 455.75,-24 461.75,-30 461.75,-36 461.75,-36 461.75,-227 461.75,-227 461.75,-233 455.75,-239 449.75,-239 449.75,-239 36,-239 36,-239 30,-239 24,-233 24,-227 24,-227 24,-36 24,-36 24,-30 30,-24 36,-24"/>
<text xml:space="preserve" text-anchor="middle" x="242.88" y="-226.45" font-family="Helvetica,sans-Serif" font-weight="bold" font-size="9.00">cli</text>
</g>
<g id="clust12" class="cluster">
<title>cluster_src/core</title>
<path fill="#ffffff" stroke="black" stroke-width="2" d="M489.75,-822C489.75,-822 840,-822 840,-822 846,-822 852,-828 852,-834 852,-834 852,-1597 852,-1597 852,-1603 846,-1609 840,-1609 840,-1609 489.75,-1609 489.75,-1609 483.75,-1609 477.75,-1603 477.75,-1597 477.75,-1597 477.75,-834 477.75,-834 477.75,-828 483.75,-822 489.75,-822"/>
<text xml:space="preserve" text-anchor="middle" x="664.88" y="-1596.45" font-family="Helvetica,sans-Serif" font-weight="bold" font-size="9.00">core</text>
</g>
<g id="clust13" class="cluster">
<title>cluster_src/core/agent</title>
<path fill="#ffffff" stroke="black" stroke-width="2" d="M552.5,-830C552.5,-830 601.75,-830 601.75,-830 607.75,-830 613.75,-836 613.75,-842 613.75,-842 613.75,-905 613.75,-905 613.75,-911 607.75,-917 601.75,-917 601.75,-917 552.5,-917 552.5,-917 546.5,-917 540.5,-911 540.5,-905 540.5,-905 540.5,-842 540.5,-842 540.5,-836 546.5,-830 552.5,-830"/>
<text xml:space="preserve" text-anchor="middle" x="577.12" y="-904.45" font-family="Helvetica,sans-Serif" font-weight="bold" font-size="9.00">agent</text>
</g>
<g id="clust14" class="cluster">
<title>cluster_src/core/auth</title>
<path fill="#ffffff" stroke="black" stroke-width="2" d="M521.38,-925C521.38,-925 632.88,-925 632.88,-925 638.88,-925 644.88,-931 644.88,-937 644.88,-937 644.88,-1000 644.88,-1000 644.88,-1006 638.88,-1012 632.88,-1012 632.88,-1012 521.38,-1012 521.38,-1012 515.38,-1012 509.38,-1006 509.38,-1000 509.38,-1000 509.38,-937 509.38,-937 509.38,-931 515.38,-925 521.38,-925"/>
<text xml:space="preserve" text-anchor="middle" x="577.12" y="-999.45" font-family="Helvetica,sans-Serif" font-weight="bold" font-size="9.00">auth</text>
</g>
<g id="clust15" class="cluster">
<title>cluster_src/core/config</title>
<path fill="#ffffff" stroke="black" stroke-width="2" d="M506,-1020C506,-1020 648.25,-1020 648.25,-1020 654.25,-1020 660.25,-1026 660.25,-1032 660.25,-1032 660.25,-1095 660.25,-1095 660.25,-1101 654.25,-1107 648.25,-1107 648.25,-1107 506,-1107 506,-1107 500,-1107 494,-1101 494,-1095 494,-1095 494,-1032 494,-1032 494,-1026 500,-1020 506,-1020"/>
<text xml:space="preserve" text-anchor="middle" x="577.12" y="-1094.45" font-family="Helvetica,sans-Serif" font-weight="bold" font-size="9.00">config</text>
</g>
<g id="clust16" class="cluster">
<title>cluster_src/core/conversations</title>
<path fill="#ffffff" stroke="black" stroke-width="2" d="M497.75,-1115C497.75,-1115 832,-1115 832,-1115 838,-1115 844,-1121 844,-1127 844,-1127 844,-1254 844,-1254 844,-1260 838,-1266 832,-1266 832,-1266 497.75,-1266 497.75,-1266 491.75,-1266 485.75,-1260 485.75,-1254 485.75,-1254 485.75,-1127 485.75,-1127 485.75,-1121 491.75,-1115 497.75,-1115"/>
<text xml:space="preserve" text-anchor="middle" x="664.88" y="-1253.45" font-family="Helvetica,sans-Serif" font-weight="bold" font-size="9.00">conversations</text>
</g>
<g id="clust17" class="cluster">
<title>cluster_src/core/errors</title>
<path fill="#ffffff" stroke="black" stroke-width="2" d="M724.25,-830C724.25,-830 792.25,-830 792.25,-830 798.25,-830 804.25,-836 804.25,-842 804.25,-842 804.25,-873 804.25,-873 804.25,-879 798.25,-885 792.25,-885 792.25,-885 724.25,-885 724.25,-885 718.25,-885 712.25,-879 712.25,-873 712.25,-873 712.25,-842 712.25,-842 712.25,-836 718.25,-830 724.25,-830"/>
<text xml:space="preserve" text-anchor="middle" x="758.25" y="-872.45" font-family="Helvetica,sans-Serif" font-weight="bold" font-size="9.00">errors</text>
</g>
<g id="clust18" class="cluster">
<title>cluster_src/core/memory</title>
<path fill="#ffffff" stroke="black" stroke-width="2" d="M515.38,-1274C515.38,-1274 638.88,-1274 638.88,-1274 644.88,-1274 650.88,-1280 650.88,-1286 650.88,-1286 650.88,-1317 650.88,-1317 650.88,-1323 644.88,-1329 638.88,-1329 638.88,-1329 515.38,-1329 515.38,-1329 509.38,-1329 503.38,-1323 503.38,-1317 503.38,-1317 503.38,-1286 503.38,-1286 503.38,-1280 509.38,-1274 515.38,-1274"/>
<text xml:space="preserve" text-anchor="middle" x="577.12" y="-1316.45" font-family="Helvetica,sans-Serif" font-weight="bold" font-size="9.00">memory</text>
</g>
<g id="clust19" class="cluster">
<title>cluster_src/core/model</title>
<path fill="#ffffff" stroke="black" stroke-width="2" d="M520.25,-1337C520.25,-1337 634,-1337 634,-1337 640,-1337 646,-1343 646,-1349 646,-1349 646,-1380 646,-1380 646,-1386 640,-1392 634,-1392 634,-1392 520.25,-1392 520.25,-1392 514.25,-1392 508.25,-1386 508.25,-1380 508.25,-1380 508.25,-1349 508.25,-1349 508.25,-1343 514.25,-1337 520.25,-1337"/>
<text xml:space="preserve" text-anchor="middle" x="577.12" y="-1379.45" font-family="Helvetica,sans-Serif" font-weight="bold" font-size="9.00">model</text>
</g>
<g id="clust20" class="cluster">
<title>cluster_src/core/settings</title>
<path fill="#ffffff" stroke="black" stroke-width="2" d="M506,-1400C506,-1400 648.25,-1400 648.25,-1400 654.25,-1400 660.25,-1406 660.25,-1412 660.25,-1412 660.25,-1443 660.25,-1443 660.25,-1449 654.25,-1455 648.25,-1455 648.25,-1455 506,-1455 506,-1455 500,-1455 494,-1449 494,-1443 494,-1443 494,-1412 494,-1412 494,-1406 500,-1400 506,-1400"/>
<text xml:space="preserve" text-anchor="middle" x="577.12" y="-1442.45" font-family="Helvetica,sans-Serif" font-weight="bold" font-size="9.00">settings</text>
</g>
<g id="clust21" class="cluster">
<title>cluster_src/core/tools</title>
<path fill="#ffffff" stroke="black" stroke-width="2" d="M518.75,-1463C518.75,-1463 635.5,-1463 635.5,-1463 641.5,-1463 647.5,-1469 647.5,-1475 647.5,-1475 647.5,-1570 647.5,-1570 647.5,-1576 641.5,-1582 635.5,-1582 635.5,-1582 518.75,-1582 518.75,-1582 512.75,-1582 506.75,-1576 506.75,-1570 506.75,-1570 506.75,-1475 506.75,-1475 506.75,-1469 512.75,-1463 518.75,-1463"/>
<text xml:space="preserve" text-anchor="middle" x="577.12" y="-1569.45" font-family="Helvetica,sans-Serif" font-weight="bold" font-size="9.00">tools</text>
</g>
<!-- src/adapters/codex/auth/CodexAuthClient.ts -->
<g id="node1" class="node">
<title>src/adapters/codex/auth/CodexAuthClient.ts</title>
<g id="a_node1"><a xlink:href="src/adapters/codex/auth/CodexAuthClient.ts" xlink:title="CodexAuthClient.ts">
<path fill="#ddfeff" stroke="black" d="M433.83,-317.62C433.83,-317.62 344.42,-317.62 344.42,-317.62 341.21,-317.62 338,-314.42 338,-311.21 338,-311.21 338,-304.79 338,-304.79 338,-301.58 341.21,-298.38 344.42,-298.38 344.42,-298.38 433.83,-298.38 433.83,-298.38 437.04,-298.38 440.25,-301.58 440.25,-304.79 440.25,-304.79 440.25,-311.21 440.25,-311.21 440.25,-314.42 437.04,-317.62 433.83,-317.62"/>
<text xml:space="preserve" text-anchor="start" x="346" y="-304.62" font-family="Helvetica,sans-Serif" font-size="9.00">CodexAuthClient.ts</text>
</a>
</g>
</g>
<!-- src/core/errors/AgentError.ts -->
<g id="node2" class="node">
<title>src/core/errors/AgentError.ts</title>
<g id="a_node2"><a xlink:href="src/core/errors/AgentError.ts" xlink:title="AgentError.ts">
<path fill="#ddfeff" stroke="black" d="M789.83,-857.62C789.83,-857.62 726.67,-857.62 726.67,-857.62 723.46,-857.62 720.25,-854.42 720.25,-851.21 720.25,-851.21 720.25,-844.79 720.25,-844.79 720.25,-841.58 723.46,-838.38 726.67,-838.38 726.67,-838.38 789.83,-838.38 789.83,-838.38 793.04,-838.38 796.25,-841.58 796.25,-844.79 796.25,-844.79 796.25,-851.21 796.25,-851.21 796.25,-854.42 793.04,-857.62 789.83,-857.62"/>
<text xml:space="preserve" text-anchor="start" x="728.25" y="-844.62" font-family="Helvetica,sans-Serif" font-size="9.00">AgentError.ts</text>
</a>
</g>
</g>
<!-- src/adapters/codex/auth/CodexAuthClient.ts&#45;&gt;src/core/errors/AgentError.ts -->
<g id="edge1" class="edge">
<title>src/adapters/codex/auth/CodexAuthClient.ts&#45;&gt;src/core/errors/AgentError.ts</title>
<path fill="none" stroke="#000000" stroke-width="2" stroke-opacity="0.200000" d="M440.75,-308C547.78,-308 784,-308 784,-308 784,-308 784,-829.14 784,-829.14"/>
<polygon fill="#000000" fill-opacity="0.200000" stroke="#000000" stroke-width="2" stroke-opacity="0.200000" points="781.9,-829.14 784,-835.14 786.1,-829.14 781.9,-829.14"/>
</g>
<!-- src/adapters/codex/auth/CodexOAuthFlow.ts -->
<g id="node3" class="node">
<title>src/adapters/codex/auth/CodexOAuthFlow.ts</title>
<g id="a_node3"><a xlink:href="src/adapters/codex/auth/CodexOAuthFlow.ts" xlink:title="CodexOAuthFlow.ts">
<path fill="#ddfeff" stroke="black" d="M434.21,-349.62C434.21,-349.62 344.04,-349.62 344.04,-349.62 340.83,-349.62 337.62,-346.42 337.62,-343.21 337.62,-343.21 337.62,-336.79 337.62,-336.79 337.62,-333.58 340.83,-330.38 344.04,-330.38 344.04,-330.38 434.21,-330.38 434.21,-330.38 437.42,-330.38 440.62,-333.58 440.62,-336.79 440.62,-336.79 440.62,-343.21 440.62,-343.21 440.62,-346.42 437.42,-349.62 434.21,-349.62"/>
<text xml:space="preserve" text-anchor="start" x="345.62" y="-336.62" font-family="Helvetica,sans-Serif" font-size="9.00">CodexOAuthFlow.ts</text>
</a>
</g>
</g>
<!-- src/adapters/codex/responses/CodexModelClient.ts -->
<g id="node4" class="node">
<title>src/adapters/codex/responses/CodexModelClient.ts</title>
<g id="a_node4"><a xlink:href="src/adapters/codex/responses/CodexModelClient.ts" xlink:title="CodexModelClient.ts">
<path fill="#ddfeff" stroke="black" d="M436.08,-412.62C436.08,-412.62 342.17,-412.62 342.17,-412.62 338.96,-412.62 335.75,-409.42 335.75,-406.21 335.75,-406.21 335.75,-399.79 335.75,-399.79 335.75,-396.58 338.96,-393.38 342.17,-393.38 342.17,-393.38 436.08,-393.38 436.08,-393.38 439.29,-393.38 442.5,-396.58 442.5,-399.79 442.5,-399.79 442.5,-406.21 442.5,-406.21 442.5,-409.42 439.29,-412.62 436.08,-412.62"/>
<text xml:space="preserve" text-anchor="start" x="343.75" y="-399.62" font-family="Helvetica,sans-Serif" font-size="9.00">CodexModelClient.ts</text>
</a>
</g>
</g>
<!-- src/adapters/codex/responses/CodexModelClient.ts&#45;&gt;src/core/errors/AgentError.ts -->
<g id="edge2" class="edge">
<title>src/adapters/codex/responses/CodexModelClient.ts&#45;&gt;src/core/errors/AgentError.ts</title>
<path fill="none" stroke="#000000" stroke-width="2" stroke-opacity="0.200000" d="M371,-413.07C371,-433.94 371,-480 371,-480 371,-480 771,-480 771,-480 771,-480 771,-829.13 771,-829.13"/>
<polygon fill="#000000" fill-opacity="0.200000" stroke="#000000" stroke-width="2" stroke-opacity="0.200000" points="768.9,-829.13 771,-835.13 773.1,-829.13 768.9,-829.13"/>
</g>
<!-- src/adapters/codex/responses/responsesEvents.ts -->
<g id="node5" class="node">
<title>src/adapters/codex/responses/responsesEvents.ts</title>
<g id="a_node5"><a xlink:href="src/adapters/codex/responses/responsesEvents.ts" xlink:title="responsesEvents.ts">
<path fill="#ddfeff" stroke="black" d="M622.21,-412.62C622.21,-412.62 532.04,-412.62 532.04,-412.62 528.83,-412.62 525.62,-409.42 525.62,-406.21 525.62,-406.21 525.62,-399.79 525.62,-399.79 525.62,-396.58 528.83,-393.38 532.04,-393.38 532.04,-393.38 622.21,-393.38 622.21,-393.38 625.42,-393.38 628.62,-396.58 628.62,-399.79 628.62,-399.79 628.62,-406.21 628.62,-406.21 628.62,-409.42 625.42,-412.62 622.21,-412.62"/>
<text xml:space="preserve" text-anchor="start" x="533.62" y="-399.62" font-family="Helvetica,sans-Serif" font-size="9.00">responsesEvents.ts</text>
</a>
</g>
</g>
<!-- src/adapters/codex/responses/CodexModelClient.ts&#45;&gt;src/adapters/codex/responses/responsesEvents.ts -->
<g id="edge3" class="edge">
<title>src/adapters/codex/responses/CodexModelClient.ts&#45;&gt;src/adapters/codex/responses/responsesEvents.ts</title>
<path fill="none" stroke="#000000" stroke-width="2" stroke-opacity="0.200000" d="M443,-403C443,-403 516.16,-403 516.16,-403"/>
<polygon fill="#000000" fill-opacity="0.200000" stroke="#000000" stroke-width="2" stroke-opacity="0.200000" points="516.16,-405.1 522.16,-403 516.16,-400.9 516.16,-405.1"/>
</g>
<!-- src/adapters/codex/responses/responsesRequest.ts -->
<g id="node6" class="node">
<title>src/adapters/codex/responses/responsesRequest.ts</title>
<g id="a_node6"><a xlink:href="src/adapters/codex/responses/responsesRequest.ts" xlink:title="responsesRequest.ts">
<path fill="#ddfeff" stroke="black" d="M625.21,-444.62C625.21,-444.62 529.04,-444.62 529.04,-444.62 525.83,-444.62 522.62,-441.42 522.62,-438.21 522.62,-438.21 522.62,-431.79 522.62,-431.79 522.62,-428.58 525.83,-425.38 529.04,-425.38 529.04,-425.38 625.21,-425.38 625.21,-425.38 628.42,-425.38 631.62,-428.58 631.62,-431.79 631.62,-431.79 631.62,-438.21 631.62,-438.21 631.62,-441.42 628.42,-444.62 625.21,-444.62"/>
<text xml:space="preserve" text-anchor="start" x="530.62" y="-431.62" font-family="Helvetica,sans-Serif" font-size="9.00">responsesRequest.ts</text>
</a>
</g>
</g>
<!-- src/adapters/codex/responses/CodexModelClient.ts&#45;&gt;src/adapters/codex/responses/responsesRequest.ts -->
<g id="edge4" class="edge">
<title>src/adapters/codex/responses/CodexModelClient.ts&#45;&gt;src/adapters/codex/responses/responsesRequest.ts</title>
<path fill="none" stroke="#000000" stroke-width="2" stroke-opacity="0.200000" d="M407,-413.12C407,-422.5 407,-435 407,-435 407,-435 513.33,-435 513.33,-435"/>
<polygon fill="#000000" fill-opacity="0.200000" stroke="#000000" stroke-width="2" stroke-opacity="0.200000" points="513.33,-437.1 519.33,-435 513.33,-432.9 513.33,-437.1"/>
</g>
<!-- src/adapters/file&#45;system/JsonAgentConfigStore.ts -->
<g id="node7" class="node">
<title>src/adapters/file&#45;system/JsonAgentConfigStore.ts</title>
<g id="a_node7"><a xlink:href="src/adapters/file-system/JsonAgentConfigStore.ts" xlink:title="JsonAgentConfigStore.ts">
<path fill="#ddfeff" stroke="black" d="M445.83,-566.62C445.83,-566.62 332.42,-566.62 332.42,-566.62 329.21,-566.62 326,-563.42 326,-560.21 326,-560.21 326,-553.79 326,-553.79 326,-550.58 329.21,-547.38 332.42,-547.38 332.42,-547.38 445.83,-547.38 445.83,-547.38 449.04,-547.38 452.25,-550.58 452.25,-553.79 452.25,-553.79 452.25,-560.21 452.25,-560.21 452.25,-563.42 449.04,-566.62 445.83,-566.62"/>
<text xml:space="preserve" text-anchor="start" x="334" y="-553.62" font-family="Helvetica,sans-Serif" font-size="9.00">JsonAgentConfigStore.ts</text>
</a>
</g>
</g>
<!-- src/adapters/file&#45;system/JsonAgentConfigStore.ts&#45;&gt;src/core/errors/AgentError.ts -->
<g id="edge6" class="edge">
<title>src/adapters/file&#45;system/JsonAgentConfigStore.ts&#45;&gt;src/core/errors/AgentError.ts</title>
<path fill="none" stroke="#000000" stroke-width="2" stroke-opacity="0.200000" d="M452.52,-553.79C555.07,-553.79 746,-553.79 746,-553.79 746,-553.79 746,-829.18 746,-829.18"/>
<polygon fill="#000000" fill-opacity="0.200000" stroke="#000000" stroke-width="2" stroke-opacity="0.200000" points="743.9,-829.18 746,-835.18 748.1,-829.18 743.9,-829.18"/>
</g>
<!-- src/core/config/AgentConfig.schema.ts -->
<g id="node8" class="node">
<title>src/core/config/AgentConfig.schema.ts</title>
<g id="a_node8"><a xlink:href="src/core/config/AgentConfig.schema.ts" xlink:title="AgentConfig.schema.ts">
<path fill="#ddfeff" stroke="black" d="M631.58,-1047.62C631.58,-1047.62 522.67,-1047.62 522.67,-1047.62 519.46,-1047.62 516.25,-1044.42 516.25,-1041.21 516.25,-1041.21 516.25,-1034.79 516.25,-1034.79 516.25,-1031.58 519.46,-1028.38 522.67,-1028.38 522.67,-1028.38 631.58,-1028.38 631.58,-1028.38 634.79,-1028.38 638,-1031.58 638,-1034.79 638,-1034.79 638,-1041.21 638,-1041.21 638,-1044.42 634.79,-1047.62 631.58,-1047.62"/>
<text xml:space="preserve" text-anchor="start" x="524.25" y="-1034.62" font-family="Helvetica,sans-Serif" font-size="9.00">AgentConfig.schema.ts</text>
</a>
</g>
</g>
<!-- src/adapters/file&#45;system/JsonAgentConfigStore.ts&#45;&gt;src/core/config/AgentConfig.schema.ts -->
<g id="edge5" class="edge">
<title>src/adapters/file&#45;system/JsonAgentConfigStore.ts&#45;&gt;src/core/config/AgentConfig.schema.ts</title>
<path fill="none" stroke="#000000" stroke-width="2" stroke-opacity="0.200000" d="M452.57,-560.21C481.33,-560.21 509,-560.21 509,-560.21 509,-560.21 509,-1038 509,-1038 509,-1038 509.68,-1038 509.68,-1038"/>
<polygon fill="#000000" fill-opacity="0.200000" stroke="#000000" stroke-width="2" stroke-opacity="0.200000" points="506.75,-1040.1 512.75,-1038 506.75,-1035.9 506.75,-1040.1"/>
</g>
<!-- src/adapters/file&#45;system/JsonFileTokenStore.ts -->
<g id="node9" class="node">
<title>src/adapters/file&#45;system/JsonFileTokenStore.ts</title>
<g id="a_node9"><a xlink:href="src/adapters/file-system/JsonFileTokenStore.ts" xlink:title="JsonFileTokenStore.ts">
<path fill="#ddfeff" stroke="black" d="M437.58,-534.62C437.58,-534.62 340.67,-534.62 340.67,-534.62 337.46,-534.62 334.25,-531.42 334.25,-528.21 334.25,-528.21 334.25,-521.79 334.25,-521.79 334.25,-518.58 337.46,-515.38 340.67,-515.38 340.67,-515.38 437.58,-515.38 437.58,-515.38 440.79,-515.38 444,-518.58 444,-521.79 444,-521.79 444,-528.21 444,-528.21 444,-531.42 440.79,-534.62 437.58,-534.62"/>
<text xml:space="preserve" text-anchor="start" x="342.25" y="-521.62" font-family="Helvetica,sans-Serif" font-size="9.00">JsonFileTokenStore.ts</text>
</a>
</g>
</g>
<!-- src/adapters/file&#45;system/JsonFileTokenStore.ts&#45;&gt;src/core/errors/AgentError.ts -->
<g id="edge7" class="edge">
<title>src/adapters/file&#45;system/JsonFileTokenStore.ts&#45;&gt;src/core/errors/AgentError.ts</title>
<path fill="none" stroke="#000000" stroke-width="2" stroke-opacity="0.200000" d="M444.35,-525C547.25,-525 758,-525 758,-525 758,-525 758,-828.95 758,-828.95"/>
<polygon fill="#000000" fill-opacity="0.200000" stroke="#000000" stroke-width="2" stroke-opacity="0.200000" points="755.9,-828.95 758,-834.95 760.1,-828.95 755.9,-828.95"/>
</g>
<!-- src/adapters/file&#45;system/JsonlConversationStore.ts -->
<g id="node10" class="node">
<title>src/adapters/file&#45;system/JsonlConversationStore.ts</title>
<g id="a_node10"><a xlink:href="src/adapters/file-system/JsonlConversationStore.ts" xlink:title="JsonlConversationStore.ts">
<path fill="#ddfeff" stroke="black" d="M448.08,-598.62C448.08,-598.62 330.17,-598.62 330.17,-598.62 326.96,-598.62 323.75,-595.42 323.75,-592.21 323.75,-592.21 323.75,-585.79 323.75,-585.79 323.75,-582.58 326.96,-579.38 330.17,-579.38 330.17,-579.38 448.08,-579.38 448.08,-579.38 451.29,-579.38 454.5,-582.58 454.5,-585.79 454.5,-585.79 454.5,-592.21 454.5,-592.21 454.5,-595.42 451.29,-598.62 448.08,-598.62"/>
<text xml:space="preserve" text-anchor="start" x="331.75" y="-585.62" font-family="Helvetica,sans-Serif" font-size="9.00">JsonlConversationStore.ts</text>
</a>
</g>
</g>
<!-- src/adapters/file&#45;system/JsonlConversationStore.ts&#45;&gt;src/core/errors/AgentError.ts -->
<g id="edge9" class="edge">
<title>src/adapters/file&#45;system/JsonlConversationStore.ts&#45;&gt;src/core/errors/AgentError.ts</title>
<path fill="none" stroke="#000000" stroke-width="2" stroke-opacity="0.200000" d="M454.61,-585.79C554.39,-585.79 733,-585.79 733,-585.79 733,-585.79 733,-829.01 733,-829.01"/>
<polygon fill="#000000" fill-opacity="0.200000" stroke="#000000" stroke-width="2" stroke-opacity="0.200000" points="730.9,-829.01 733,-835.01 735.1,-829.01 730.9,-829.01"/>
</g>
<!-- src/core/conversations/ConversationRecord.schema.ts -->
<g id="node11" class="node">
<title>src/core/conversations/ConversationRecord.schema.ts</title>
<g id="a_node11"><a xlink:href="src/core/conversations/ConversationRecord.schema.ts" xlink:title="ConversationRecord.schema.ts">
<path fill="#ddfeff" stroke="black" d="M829.58,-1142.62C829.58,-1142.62 686.92,-1142.62 686.92,-1142.62 683.71,-1142.62 680.5,-1139.42 680.5,-1136.21 680.5,-1136.21 680.5,-1129.79 680.5,-1129.79 680.5,-1126.58 683.71,-1123.38 686.92,-1123.38 686.92,-1123.38 829.58,-1123.38 829.58,-1123.38 832.79,-1123.38 836,-1126.58 836,-1129.79 836,-1129.79 836,-1136.21 836,-1136.21 836,-1139.42 832.79,-1142.62 829.58,-1142.62"/>
<text xml:space="preserve" text-anchor="start" x="688.5" y="-1129.62" font-family="Helvetica,sans-Serif" font-size="9.00">ConversationRecord.schema.ts</text>
</a>
</g>
</g>
<!-- src/adapters/file&#45;system/JsonlConversationStore.ts&#45;&gt;src/core/conversations/ConversationRecord.schema.ts -->
<g id="edge8" class="edge">
<title>src/adapters/file&#45;system/JsonlConversationStore.ts&#45;&gt;src/core/conversations/ConversationRecord.schema.ts</title>
<path fill="none" stroke="#000000" stroke-width="2" stroke-opacity="0.200000" d="M454.67,-592.21C545.88,-592.21 700,-592.21 700,-592.21 700,-592.21 700,-1114.12 700,-1114.12"/>
<polygon fill="#000000" fill-opacity="0.200000" stroke="#000000" stroke-width="2" stroke-opacity="0.200000" points="697.9,-1114.12 700,-1120.12 702.1,-1114.12 697.9,-1114.12"/>
</g>
<!-- src/adapters/memory/simple&#45;linear/SimpleLinearMemory.ts -->
<g id="node12" class="node">
<title>src/adapters/memory/simple&#45;linear/SimpleLinearMemory.ts</title>
<g id="a_node12"><a xlink:href="src/adapters/memory/simple-linear/SimpleLinearMemory.ts" xlink:title="SimpleLinearMemory.ts">
<path fill="#ddfeff" stroke="black" d="M442.83,-669.62C442.83,-669.62 335.42,-669.62 335.42,-669.62 332.21,-669.62 329,-666.42 329,-663.21 329,-663.21 329,-656.79 329,-656.79 329,-653.58 332.21,-650.38 335.42,-650.38 335.42,-650.38 442.83,-650.38 442.83,-650.38 446.04,-650.38 449.25,-653.58 449.25,-656.79 449.25,-656.79 449.25,-663.21 449.25,-663.21 449.25,-666.42 446.04,-669.62 442.83,-669.62"/>
<text xml:space="preserve" text-anchor="start" x="337" y="-656.62" font-family="Helvetica,sans-Serif" font-size="9.00">SimpleLinearMemory.ts</text>
</a>
</g>
</g>
<!-- src/adapters/tools/MathTool.ts -->
<g id="node13" class="node">
<title>src/adapters/tools/MathTool.ts</title>
<g id="a_node13"><a xlink:href="src/adapters/tools/MathTool.ts" xlink:title="MathTool.ts">
<path fill="#ddfeff" stroke="black" d="M415.83,-759.62C415.83,-759.62 362.42,-759.62 362.42,-759.62 359.21,-759.62 356,-756.42 356,-753.21 356,-753.21 356,-746.79 356,-746.79 356,-743.58 359.21,-740.38 362.42,-740.38 362.42,-740.38 415.83,-740.38 415.83,-740.38 419.04,-740.38 422.25,-743.58 422.25,-746.79 422.25,-746.79 422.25,-753.21 422.25,-753.21 422.25,-756.42 419.04,-759.62 415.83,-759.62"/>
<text xml:space="preserve" text-anchor="start" x="364" y="-746.62" font-family="Helvetica,sans-Serif" font-size="9.00">MathTool.ts</text>
</a>
</g>
</g>
<!-- src/apps/cli/CliRuntime.interface.ts -->
<g id="node14" class="node">
<title>src/apps/cli/CliRuntime.interface.ts</title>
<g id="a_node14"><a xlink:href="src/apps/cli/CliRuntime.interface.ts" xlink:title="CliRuntime.interface.ts">
<path fill="#ccffcc" stroke="black" d="M144.33,-83.62C144.33,-83.62 38.42,-83.62 38.42,-83.62 35.21,-83.62 32,-80.42 32,-77.21 32,-77.21 32,-70.79 32,-70.79 32,-67.58 35.21,-64.38 38.42,-64.38 38.42,-64.38 144.33,-64.38 144.33,-64.38 147.54,-64.38 150.75,-67.58 150.75,-70.79 150.75,-70.79 150.75,-77.21 150.75,-77.21 150.75,-80.42 147.54,-83.62 144.33,-83.62"/>
<text xml:space="preserve" text-anchor="start" x="40" y="-70.62" font-family="Helvetica,sans-Serif" font-size="9.00">CliRuntime.interface.ts</text>
</a>
</g>
</g>
<!-- src/apps/cli/auth.ts -->
<g id="node15" class="node">
<title>src/apps/cli/auth.ts</title>
<g id="a_node15"><a xlink:href="src/apps/cli/auth.ts" xlink:title="auth.ts">
<path fill="#ddfeff" stroke="black" d="M409.71,-67.62C409.71,-67.62 368.54,-67.62 368.54,-67.62 365.33,-67.62 362.12,-64.42 362.12,-61.21 362.12,-61.21 362.12,-54.79 362.12,-54.79 362.12,-51.58 365.33,-48.38 368.54,-48.38 368.54,-48.38 409.71,-48.38 409.71,-48.38 412.92,-48.38 416.12,-51.58 416.12,-54.79 416.12,-54.79 416.12,-61.21 416.12,-61.21 416.12,-64.42 412.92,-67.62 409.71,-67.62"/>
<text xml:space="preserve" text-anchor="start" x="373" y="-54.62" font-family="Helvetica,sans-Serif" font-size="9.00">auth.ts</text>
</a>
</g>
</g>
<!-- src/apps/cli/commands.ts -->
<g id="node16" class="node">
<title>src/apps/cli/commands.ts</title>
<g id="a_node16"><a xlink:href="src/apps/cli/commands.ts" xlink:title="commands.ts">
<path fill="#ddfeff" stroke="black" d="M266.21,-51.62C266.21,-51.62 201.54,-51.62 201.54,-51.62 198.33,-51.62 195.12,-48.42 195.12,-45.21 195.12,-45.21 195.12,-38.79 195.12,-38.79 195.12,-35.58 198.33,-32.38 201.54,-32.38 201.54,-32.38 266.21,-32.38 266.21,-32.38 269.42,-32.38 272.62,-35.58 272.62,-38.79 272.62,-38.79 272.62,-45.21 272.62,-45.21 272.62,-48.42 269.42,-51.62 266.21,-51.62"/>
<text xml:space="preserve" text-anchor="start" x="203.12" y="-38.62" font-family="Helvetica,sans-Serif" font-size="9.00">commands.ts</text>
</a>
</g>
</g>
<!-- src/apps/cli/composeCliRuntime.ts -->
<g id="node17" class="node">
<title>src/apps/cli/composeCliRuntime.ts</title>
<g id="a_node17"><a xlink:href="src/apps/cli/composeCliRuntime.ts" xlink:title="composeCliRuntime.ts">
<path fill="#ddfeff" stroke="black" d="M285.71,-83.62C285.71,-83.62 182.04,-83.62 182.04,-83.62 178.83,-83.62 175.62,-80.42 175.62,-77.21 175.62,-77.21 175.62,-70.79 175.62,-70.79 175.62,-67.58 178.83,-64.38 182.04,-64.38 182.04,-64.38 285.71,-64.38 285.71,-64.38 288.92,-64.38 292.12,-67.58 292.12,-70.79 292.12,-70.79 292.12,-77.21 292.12,-77.21 292.12,-80.42 288.92,-83.62 285.71,-83.62"/>
<text xml:space="preserve" text-anchor="start" x="183.62" y="-70.62" font-family="Helvetica,sans-Serif" font-size="9.00">composeCliRuntime.ts</text>
</a>
</g>
</g>
<!-- src/apps/cli/composeCliRuntime.ts&#45;&gt;src/adapters/codex/auth/CodexAuthClient.ts -->
<g id="edge10" class="edge">
<title>src/apps/cli/composeCliRuntime.ts&#45;&gt;src/adapters/codex/auth/CodexAuthClient.ts</title>
<path fill="none" stroke="#000000" stroke-width="2" stroke-opacity="0.200000" d="M292.3,-71.88C306.66,-71.88 318,-71.88 318,-71.88 318,-71.88 318,-308 318,-308 318,-308 328.79,-308 328.79,-308"/>
<polygon fill="#000000" fill-opacity="0.200000" stroke="#000000" stroke-width="2" stroke-opacity="0.200000" points="328.79,-310.1 334.79,-308 328.79,-305.9 328.79,-310.1"/>
</g>
<!-- src/apps/cli/composeCliRuntime.ts&#45;&gt;src/adapters/codex/auth/CodexOAuthFlow.ts -->
<g id="edge11" class="edge">
<title>src/apps/cli/composeCliRuntime.ts&#45;&gt;src/adapters/codex/auth/CodexOAuthFlow.ts</title>
<path fill="none" stroke="#000000" stroke-width="2" stroke-opacity="0.200000" d="M292.62,-74C304.28,-74 313,-74 313,-74 313,-74 313,-340 313,-340 313,-340 328.48,-340 328.48,-340"/>
<polygon fill="#000000" fill-opacity="0.200000" stroke="#000000" stroke-width="2" stroke-opacity="0.200000" points="328.48,-342.1 334.48,-340 328.48,-337.9 328.48,-342.1"/>
</g>
<!-- src/apps/cli/composeCliRuntime.ts&#45;&gt;src/adapters/codex/responses/CodexModelClient.ts -->
<g id="edge12" class="edge">
<title>src/apps/cli/composeCliRuntime.ts&#45;&gt;src/adapters/codex/responses/CodexModelClient.ts</title>
<path fill="none" stroke="#000000" stroke-width="2" stroke-opacity="0.200000" d="M292.28,-76.12C301.47,-76.12 308,-76.12 308,-76.12 308,-76.12 308,-403 308,-403 308,-403 326.44,-403 326.44,-403"/>
<polygon fill="#000000" fill-opacity="0.200000" stroke="#000000" stroke-width="2" stroke-opacity="0.200000" points="326.44,-405.1 332.44,-403 326.44,-400.9 326.44,-405.1"/>
</g>
<!-- src/apps/cli/composeCliRuntime.ts&#45;&gt;src/adapters/file&#45;system/JsonAgentConfigStore.ts -->
<g id="edge13" class="edge">
<title>src/apps/cli/composeCliRuntime.ts&#45;&gt;src/adapters/file&#45;system/JsonAgentConfigStore.ts</title>
<path fill="none" stroke="#000000" stroke-width="2" stroke-opacity="0.200000" d="M175.46,-81.49C171.47,-81.49 169,-81.49 169,-81.49 169,-81.49 169,-557 169,-557 169,-557 316.72,-557 316.72,-557"/>
<polygon fill="#000000" fill-opacity="0.200000" stroke="#000000" stroke-width="2" stroke-opacity="0.200000" points="316.72,-559.1 322.72,-557 316.72,-554.9 316.72,-559.1"/>
</g>
<!-- src/apps/cli/composeCliRuntime.ts&#45;&gt;src/adapters/file&#45;system/JsonFileTokenStore.ts -->
<g id="edge14" class="edge">
<title>src/apps/cli/composeCliRuntime.ts&#45;&gt;src/adapters/file&#45;system/JsonFileTokenStore.ts</title>
<path fill="none" stroke="#000000" stroke-width="2" stroke-opacity="0.200000" d="M292.53,-78.25C298.26,-78.25 302,-78.25 302,-78.25 302,-78.25 302,-525 302,-525 302,-525 324.92,-525 324.92,-525"/>
<polygon fill="#000000" fill-opacity="0.200000" stroke="#000000" stroke-width="2" stroke-opacity="0.200000" points="324.92,-527.1 330.92,-525 324.92,-522.9 324.92,-527.1"/>
</g>
<!-- src/apps/cli/composeCliRuntime.ts&#45;&gt;src/adapters/file&#45;system/JsonlConversationStore.ts -->
<g id="edge15" class="edge">
<title>src/apps/cli/composeCliRuntime.ts&#45;&gt;src/adapters/file&#45;system/JsonlConversationStore.ts</title>
<path fill="none" stroke="#000000" stroke-width="2" stroke-opacity="0.200000" d="M175.2,-79.35C170.2,-79.35 167,-79.35 167,-79.35 167,-79.35 167,-589 167,-589 167,-589 314.35,-589 314.35,-589"/>
<polygon fill="#000000" fill-opacity="0.200000" stroke="#000000" stroke-width="2" stroke-opacity="0.200000" points="314.35,-591.1 320.35,-589 314.35,-586.9 314.35,-591.1"/>
</g>
<!-- src/apps/cli/composeCliRuntime.ts&#45;&gt;src/adapters/memory/simple&#45;linear/SimpleLinearMemory.ts -->
<g id="edge16" class="edge">
<title>src/apps/cli/composeCliRuntime.ts&#45;&gt;src/adapters/memory/simple&#45;linear/SimpleLinearMemory.ts</title>
<path fill="none" stroke="#000000" stroke-width="2" stroke-opacity="0.200000" d="M175.16,-77.21C169.04,-77.21 165,-77.21 165,-77.21 165,-77.21 165,-660 165,-660 165,-660 319.74,-660 319.74,-660"/>
<polygon fill="#000000" fill-opacity="0.200000" stroke="#000000" stroke-width="2" stroke-opacity="0.200000" points="319.74,-662.1 325.74,-660 319.74,-657.9 319.74,-662.1"/>
</g>
<!-- src/apps/cli/composeCliRuntime.ts&#45;&gt;src/adapters/tools/MathTool.ts -->
<g id="edge17" class="edge">
<title>src/apps/cli/composeCliRuntime.ts&#45;&gt;src/adapters/tools/MathTool.ts</title>
<path fill="none" stroke="#000000" stroke-width="2" stroke-opacity="0.200000" d="M175.35,-75.07C168,-75.07 163,-75.07 163,-75.07 163,-75.07 163,-750 163,-750 163,-750 346.73,-750 346.73,-750"/>
<polygon fill="#000000" fill-opacity="0.200000" stroke="#000000" stroke-width="2" stroke-opacity="0.200000" points="346.73,-752.1 352.73,-750 346.73,-747.9 346.73,-752.1"/>
</g>
<!-- src/apps/cli/composeCliRuntime.ts&#45;&gt;src/apps/cli/auth.ts -->
<g id="edge21" class="edge">
<title>src/apps/cli/composeCliRuntime.ts&#45;&gt;src/apps/cli/auth.ts</title>
<path fill="none" stroke="#000000" stroke-width="2" stroke-opacity="0.200000" d="M282,-64.14C282,-60.85 282,-58 282,-58 282,-58 352.79,-58 352.79,-58"/>
<polygon fill="#000000" fill-opacity="0.200000" stroke="#000000" stroke-width="2" stroke-opacity="0.200000" points="352.79,-60.1 358.79,-58 352.79,-55.9 352.79,-60.1"/>
</g>
<!-- src/core/agent/Agent.ts -->
<g id="node18" class="node">
<title>src/core/agent/Agent.ts</title>
<g id="a_node18"><a xlink:href="src/core/agent/Agent.ts" xlink:title="Agent.ts">
<path fill="#ddfeff" stroke="black" d="M597.83,-857.62C597.83,-857.62 556.42,-857.62 556.42,-857.62 553.21,-857.62 550,-854.42 550,-851.21 550,-851.21 550,-844.79 550,-844.79 550,-841.58 553.21,-838.38 556.42,-838.38 556.42,-838.38 597.83,-838.38 597.83,-838.38 601.04,-838.38 604.25,-841.58 604.25,-844.79 604.25,-844.79 604.25,-851.21 604.25,-851.21 604.25,-854.42 601.04,-857.62 597.83,-857.62"/>
<text xml:space="preserve" text-anchor="start" x="558" y="-844.62" font-family="Helvetica,sans-Serif" font-size="9.00">Agent.ts</text>
</a>
</g>
</g>
<!-- src/apps/cli/composeCliRuntime.ts&#45;&gt;src/core/agent/Agent.ts -->
<g id="edge18" class="edge">
<title>src/apps/cli/composeCliRuntime.ts&#45;&gt;src/core/agent/Agent.ts</title>
<path fill="none" stroke="#000000" stroke-width="2" stroke-opacity="0.200000" d="M175.4,-72.93C166.93,-72.93 161,-72.93 161,-72.93 161,-72.93 161,-848 161,-848 161,-848 540.79,-848 540.79,-848"/>
<polygon fill="#000000" fill-opacity="0.200000" stroke="#000000" stroke-width="2" stroke-opacity="0.200000" points="540.79,-850.1 546.79,-848 540.79,-845.9 540.79,-850.1"/>
</g>
<!-- src/core/conversations/ConversationManager.ts -->
<g id="node19" class="node">
<title>src/core/conversations/ConversationManager.ts</title>
<g id="a_node19"><a xlink:href="src/core/conversations/ConversationManager.ts" xlink:title="ConversationManager.ts">
<path fill="#ddfeff" stroke="black" d="M632.71,-1142.62C632.71,-1142.62 521.54,-1142.62 521.54,-1142.62 518.33,-1142.62 515.12,-1139.42 515.12,-1136.21 515.12,-1136.21 515.12,-1129.79 515.12,-1129.79 515.12,-1126.58 518.33,-1123.38 521.54,-1123.38 521.54,-1123.38 632.71,-1123.38 632.71,-1123.38 635.92,-1123.38 639.12,-1126.58 639.12,-1129.79 639.12,-1129.79 639.12,-1136.21 639.12,-1136.21 639.12,-1139.42 635.92,-1142.62 632.71,-1142.62"/>
<text xml:space="preserve" text-anchor="start" x="523.12" y="-1129.62" font-family="Helvetica,sans-Serif" font-size="9.00">ConversationManager.ts</text>
</a>
</g>
</g>
<!-- src/apps/cli/composeCliRuntime.ts&#45;&gt;src/core/conversations/ConversationManager.ts -->
<g id="edge19" class="edge">
<title>src/apps/cli/composeCliRuntime.ts&#45;&gt;src/core/conversations/ConversationManager.ts</title>
<path fill="none" stroke="#000000" stroke-width="2" stroke-opacity="0.200000" d="M175.25,-70.79C165.77,-70.79 159,-70.79 159,-70.79 159,-70.79 159,-1133 159,-1133 159,-1133 505.95,-1133 505.95,-1133"/>
<polygon fill="#000000" fill-opacity="0.200000" stroke="#000000" stroke-width="2" stroke-opacity="0.200000" points="505.95,-1135.1 511.95,-1133 505.95,-1130.9 505.95,-1135.1"/>
</g>
<!-- src/core/tools/ToolRegistry.ts -->
<g id="node20" class="node">
<title>src/core/tools/ToolRegistry.ts</title>
<g id="a_node20"><a xlink:href="src/core/tools/ToolRegistry.ts" xlink:title="ToolRegistry.ts">
<path fill="#ddfeff" stroke="black" d="M610.21,-1490.62C610.21,-1490.62 544.04,-1490.62 544.04,-1490.62 540.83,-1490.62 537.62,-1487.42 537.62,-1484.21 537.62,-1484.21 537.62,-1477.79 537.62,-1477.79 537.62,-1474.58 540.83,-1471.38 544.04,-1471.38 544.04,-1471.38 610.21,-1471.38 610.21,-1471.38 613.42,-1471.38 616.62,-1474.58 616.62,-1477.79 616.62,-1477.79 616.62,-1484.21 616.62,-1484.21 616.62,-1487.42 613.42,-1490.62 610.21,-1490.62"/>
<text xml:space="preserve" text-anchor="start" x="545.62" y="-1477.62" font-family="Helvetica,sans-Serif" font-size="9.00">ToolRegistry.ts</text>
</a>
</g>
</g>
<!-- src/apps/cli/composeCliRuntime.ts&#45;&gt;src/core/tools/ToolRegistry.ts -->
<g id="edge20" class="edge">
<title>src/apps/cli/composeCliRuntime.ts&#45;&gt;src/core/tools/ToolRegistry.ts</title>
<path fill="none" stroke="#000000" stroke-width="2" stroke-opacity="0.200000" d="M175.22,-68.65C164.7,-68.65 157,-68.65 157,-68.65 157,-68.65 157,-1481 157,-1481 157,-1481 528.19,-1481 528.19,-1481"/>
<polygon fill="#000000" fill-opacity="0.200000" stroke="#000000" stroke-width="2" stroke-opacity="0.200000" points="528.19,-1483.1 534.19,-1481 528.19,-1478.9 528.19,-1483.1"/>
</g>
<!-- src/apps/cli/createSettingsUpdater.ts -->
<g id="node21" class="node">
<title>src/apps/cli/createSettingsUpdater.ts</title>
<g id="a_node21"><a xlink:href="src/apps/cli/createSettingsUpdater.ts" xlink:title="createSettingsUpdater.ts">
<path fill="#ddfeff" stroke="black" d="M447.33,-99.62C447.33,-99.62 330.92,-99.62 330.92,-99.62 327.71,-99.62 324.5,-96.42 324.5,-93.21 324.5,-93.21 324.5,-86.79 324.5,-86.79 324.5,-83.58 327.71,-80.38 330.92,-80.38 330.92,-80.38 447.33,-80.38 447.33,-80.38 450.54,-80.38 453.75,-83.58 453.75,-86.79 453.75,-86.79 453.75,-93.21 453.75,-93.21 453.75,-96.42 450.54,-99.62 447.33,-99.62"/>
<text xml:space="preserve" text-anchor="start" x="332.5" y="-86.62" font-family="Helvetica,sans-Serif" font-size="9.00">createSettingsUpdater.ts</text>
</a>
</g>
</g>
<!-- src/apps/cli/composeCliRuntime.ts&#45;&gt;src/apps/cli/createSettingsUpdater.ts -->
<g id="edge22" class="edge">
<title>src/apps/cli/composeCliRuntime.ts&#45;&gt;src/apps/cli/createSettingsUpdater.ts</title>
<path fill="none" stroke="#000000" stroke-width="2" stroke-opacity="0.200000" d="M292.59,-69.75C318.42,-69.75 343,-69.75 343,-69.75 343,-69.75 343,-70.85 343,-70.85"/>
<polygon fill="#000000" fill-opacity="0.200000" stroke="#000000" stroke-width="2" stroke-opacity="0.200000" points="340.9,-70.85 343,-76.85 345.1,-70.85 340.9,-70.85"/>
</g>
<!-- src/core/conversations/ConversationManager.ts&#45;&gt;src/core/errors/AgentError.ts -->
<g id="edge29" class="edge">
<title>src/core/conversations/ConversationManager.ts&#45;&gt;src/core/errors/AgentError.ts</title>
<path fill="none" stroke="#000000" stroke-width="2" stroke-opacity="0.200000" d="M639.58,-1128.19C653.9,-1128.19 665,-1128.19 665,-1128.19 665,-1128.19 665,-844.79 665,-844.79 665,-844.79 710.76,-844.79 710.76,-844.79"/>
<polygon fill="#000000" fill-opacity="0.200000" stroke="#000000" stroke-width="2" stroke-opacity="0.200000" points="710.76,-846.89 716.76,-844.79 710.76,-842.69 710.76,-846.89"/>
</g>
<!-- src/core/conversations/ConversationManager.ts&#45;&gt;src/core/conversations/ConversationRecord.schema.ts -->
<g id="edge30" class="edge">
<title>src/core/conversations/ConversationManager.ts&#45;&gt;src/core/conversations/ConversationRecord.schema.ts</title>
<path fill="none" stroke="#000000" stroke-width="2" stroke-opacity="0.200000" d="M639.46,-1133C639.46,-1133 671.1,-1133 671.1,-1133"/>
<polygon fill="#000000" fill-opacity="0.200000" stroke="#000000" stroke-width="2" stroke-opacity="0.200000" points="671.1,-1135.1 677.1,-1133 671.1,-1130.9 671.1,-1135.1"/>
</g>
<!-- src/core/conversations/ids.ts -->
<g id="node31" class="node">
<title>src/core/conversations/ids.ts</title>
<g id="a_node31"><a xlink:href="src/core/conversations/ids.ts" xlink:title="ids.ts">
<path fill="#ddfeff" stroke="black" d="M778.83,-1174.62C778.83,-1174.62 737.67,-1174.62 737.67,-1174.62 734.46,-1174.62 731.25,-1171.42 731.25,-1168.21 731.25,-1168.21 731.25,-1161.79 731.25,-1161.79 731.25,-1158.58 734.46,-1155.38 737.67,-1155.38 737.67,-1155.38 778.83,-1155.38 778.83,-1155.38 782.04,-1155.38 785.25,-1158.58 785.25,-1161.79 785.25,-1161.79 785.25,-1168.21 785.25,-1168.21 785.25,-1171.42 782.04,-1174.62 778.83,-1174.62"/>
<text xml:space="preserve" text-anchor="start" x="746.25" y="-1161.62" font-family="Helvetica,sans-Serif" font-size="9.00">ids.ts</text>
</a>
</g>
</g>
<!-- src/core/conversations/ConversationManager.ts&#45;&gt;src/core/conversations/ids.ts -->
<g id="edge31" class="edge">
<title>src/core/conversations/ConversationManager.ts&#45;&gt;src/core/conversations/ids.ts</title>
<path fill="none" stroke="#000000" stroke-width="2" stroke-opacity="0.200000" d="M639.39,-1137.81C658.69,-1137.81 675,-1137.81 675,-1137.81 675,-1137.81 675,-1165 675,-1165 675,-1165 721.96,-1165 721.96,-1165"/>
<polygon fill="#000000" fill-opacity="0.200000" stroke="#000000" stroke-width="2" stroke-opacity="0.200000" points="721.96,-1167.1 727.96,-1165 721.96,-1162.9 721.96,-1167.1"/>
</g>
<!-- src/core/tools/ToolRegistry.ts&#45;&gt;src/core/errors/AgentError.ts -->
<g id="edge32" class="edge">
<title>src/core/tools/ToolRegistry.ts&#45;&gt;src/core/errors/AgentError.ts</title>
<path fill="none" stroke="#000000" stroke-width="2" stroke-opacity="0.200000" d="M617.05,-1481C642.22,-1481 670,-1481 670,-1481 670,-1481 670,-851.21 670,-851.21 670,-851.21 710.77,-851.21 710.77,-851.21"/>
<polygon fill="#000000" fill-opacity="0.200000" stroke="#000000" stroke-width="2" stroke-opacity="0.200000" points="710.77,-853.31 716.77,-851.21 710.77,-849.11 710.77,-853.31"/>
</g>
<!-- src/apps/cli/conversationHistory.ts -->
<g id="node22" class="node">
<title>src/apps/cli/conversationHistory.ts</title>
<g id="a_node22"><a xlink:href="src/apps/cli/conversationHistory.ts" xlink:title="conversationHistory.ts">
<path fill="#ddfeff" stroke="black" d="M284.96,-115.62C284.96,-115.62 182.79,-115.62 182.79,-115.62 179.58,-115.62 176.38,-112.42 176.38,-109.21 176.38,-109.21 176.38,-102.79 176.38,-102.79 176.38,-99.58 179.58,-96.38 182.79,-96.38 182.79,-96.38 284.96,-96.38 284.96,-96.38 288.17,-96.38 291.38,-99.58 291.38,-102.79 291.38,-102.79 291.38,-109.21 291.38,-109.21 291.38,-112.42 288.17,-115.62 284.96,-115.62"/>
<text xml:space="preserve" text-anchor="start" x="184.38" y="-102.62" font-family="Helvetica,sans-Serif" font-size="9.00">conversationHistory.ts</text>
</a>
</g>
</g>
<!-- src/apps/cli/conversationSelection.ts -->
<g id="node23" class="node">
<title>src/apps/cli/conversationSelection.ts</title>
<g id="a_node23"><a xlink:href="src/apps/cli/conversationSelection.ts" xlink:title="conversationSelection.ts">
<path fill="#ddfeff" stroke="black" d="M290.58,-147.62C290.58,-147.62 177.17,-147.62 177.17,-147.62 173.96,-147.62 170.75,-144.42 170.75,-141.21 170.75,-141.21 170.75,-134.79 170.75,-134.79 170.75,-131.58 173.96,-128.38 177.17,-128.38 177.17,-128.38 290.58,-128.38 290.58,-128.38 293.79,-128.38 297,-131.58 297,-134.79 297,-134.79 297,-141.21 297,-141.21 297,-144.42 293.79,-147.62 290.58,-147.62"/>
<text xml:space="preserve" text-anchor="start" x="178.75" y="-134.62" font-family="Helvetica,sans-Serif" font-size="9.00">conversationSelection.ts</text>
</a>
</g>
</g>
<!-- src/apps/cli/main.ts -->
<g id="node24" class="node">
<title>src/apps/cli/main.ts</title>
<g id="a_node24"><a xlink:href="src/apps/cli/main.ts" xlink:title="main.ts">
<path fill="#ddfeff" stroke="black" d="M111.96,-131.62C111.96,-131.62 70.79,-131.62 70.79,-131.62 67.58,-131.62 64.38,-128.42 64.38,-125.21 64.38,-125.21 64.38,-118.79 64.38,-118.79 64.38,-115.58 67.58,-112.38 70.79,-112.38 70.79,-112.38 111.96,-112.38 111.96,-112.38 115.17,-112.38 118.38,-115.58 118.38,-118.79 118.38,-118.79 118.38,-125.21 118.38,-125.21 118.38,-128.42 115.17,-131.62 111.96,-131.62"/>
<text xml:space="preserve" text-anchor="start" x="74.5" y="-118.62" font-family="Helvetica,sans-Serif" font-size="9.00">main.ts</text>
</a>
</g>
</g>
<!-- src/apps/cli/main.ts&#45;&gt;src/apps/cli/commands.ts -->
<g id="edge23" class="edge">
<title>src/apps/cli/main.ts&#45;&gt;src/apps/cli/commands.ts</title>
<path fill="none" stroke="#000000" stroke-width="2" stroke-opacity="0.200000" d="M118.58,-119.88C135.09,-119.88 153,-119.88 153,-119.88 153,-119.88 153,-42 153,-42 153,-42 185.83,-42 185.83,-42"/>
<polygon fill="#000000" fill-opacity="0.200000" stroke="#000000" stroke-width="2" stroke-opacity="0.200000" points="185.83,-44.1 191.83,-42 185.83,-39.9 185.83,-44.1"/>
</g>
<!-- src/apps/cli/main.ts&#45;&gt;src/apps/cli/composeCliRuntime.ts -->
<g id="edge24" class="edge">
<title>src/apps/cli/main.ts&#45;&gt;src/apps/cli/composeCliRuntime.ts</title>
<path fill="none" stroke="#000000" stroke-width="2" stroke-opacity="0.200000" d="M118.73,-124.12C135.97,-124.12 155,-124.12 155,-124.12 155,-124.12 155,-66.51 155,-66.51 155,-66.51 166.29,-66.51 166.29,-66.51"/>
<polygon fill="#000000" fill-opacity="0.200000" stroke="#000000" stroke-width="2" stroke-opacity="0.200000" points="166.29,-68.61 172.29,-66.51 166.29,-64.41 166.29,-68.61"/>
</g>
<!-- src/apps/cli/main.ts&#45;&gt;src/apps/cli/conversationHistory.ts -->
<g id="edge25" class="edge">
<title>src/apps/cli/main.ts&#45;&gt;src/apps/cli/conversationHistory.ts</title>
<path fill="none" stroke="#000000" stroke-width="2" stroke-opacity="0.200000" d="M91,-111.95C91,-107.99 91,-104.38 91,-104.38 91,-104.38 167.15,-104.38 167.15,-104.38"/>
<polygon fill="#000000" fill-opacity="0.200000" stroke="#000000" stroke-width="2" stroke-opacity="0.200000" points="167.15,-106.48 173.15,-104.38 167.15,-102.28 167.15,-106.48"/>
</g>
<!-- src/apps/cli/main.ts&#45;&gt;src/apps/cli/conversationSelection.ts -->
<g id="edge26" class="edge">
<title>src/apps/cli/main.ts&#45;&gt;src/apps/cli/conversationSelection.ts</title>
<path fill="none" stroke="#000000" stroke-width="2" stroke-opacity="0.200000" d="M105,-132.05C105,-136.01 105,-139.62 105,-139.62 105,-139.62 161.54,-139.62 161.54,-139.62"/>
<polygon fill="#000000" fill-opacity="0.200000" stroke="#000000" stroke-width="2" stroke-opacity="0.200000" points="161.54,-141.73 167.54,-139.63 161.54,-137.53 161.54,-141.73"/>
</g>
<!-- src/apps/cli/readline.ts -->
<g id="node25" class="node">
<title>src/apps/cli/readline.ts</title>
<g id="a_node25"><a xlink:href="src/apps/cli/readline.ts" xlink:title="readline.ts">
<path fill="#ddfeff" stroke="black" d="M259.08,-179.62C259.08,-179.62 208.67,-179.62 208.67,-179.62 205.46,-179.62 202.25,-176.42 202.25,-173.21 202.25,-173.21 202.25,-166.79 202.25,-166.79 202.25,-163.58 205.46,-160.38 208.67,-160.38 208.67,-160.38 259.08,-160.38 259.08,-160.38 262.29,-160.38 265.5,-163.58 265.5,-166.79 265.5,-166.79 265.5,-173.21 265.5,-173.21 265.5,-176.42 262.29,-179.62 259.08,-179.62"/>
<text xml:space="preserve" text-anchor="start" x="210.25" y="-166.62" font-family="Helvetica,sans-Serif" font-size="9.00">readline.ts</text>
</a>
</g>
</g>
<!-- src/apps/cli/main.ts&#45;&gt;src/apps/cli/readline.ts -->
<g id="edge27" class="edge">
<title>src/apps/cli/main.ts&#45;&gt;src/apps/cli/readline.ts</title>
<path fill="none" stroke="#000000" stroke-width="2" stroke-opacity="0.200000" d="M91,-131.71C91,-145.74 91,-170 91,-170 91,-170 192.78,-170 192.78,-170"/>
<polygon fill="#000000" fill-opacity="0.200000" stroke="#000000" stroke-width="2" stroke-opacity="0.200000" points="192.78,-172.1 198.78,-170 192.78,-167.9 192.78,-172.1"/>
</g>
<!-- src/apps/cli/render.ts -->
<g id="node26" class="node">
<title>src/apps/cli/render.ts</title>
<g id="a_node26"><a xlink:href="src/apps/cli/render.ts" xlink:title="render.ts">
<path fill="#ddfeff" stroke="black" d="M255.71,-211.62C255.71,-211.62 212.04,-211.62 212.04,-211.62 208.83,-211.62 205.62,-208.42 205.62,-205.21 205.62,-205.21 205.62,-198.79 205.62,-198.79 205.62,-195.58 208.83,-192.38 212.04,-192.38 212.04,-192.38 255.71,-192.38 255.71,-192.38 258.92,-192.38 262.12,-195.58 262.12,-198.79 262.12,-198.79 262.12,-205.21 262.12,-205.21 262.12,-208.42 258.92,-211.62 255.71,-211.62"/>
<text xml:space="preserve" text-anchor="start" x="213.62" y="-198.62" font-family="Helvetica,sans-Serif" font-size="9.00">render.ts</text>
</a>
</g>
</g>
<!-- src/apps/cli/main.ts&#45;&gt;src/apps/cli/render.ts -->
<g id="edge28" class="edge">
<title>src/apps/cli/main.ts&#45;&gt;src/apps/cli/render.ts</title>
<path fill="none" stroke="#000000" stroke-width="2" stroke-opacity="0.200000" d="M78,-131.81C78,-153.17 78,-202 78,-202 78,-202 196.26,-202 196.26,-202"/>
<polygon fill="#000000" fill-opacity="0.200000" stroke="#000000" stroke-width="2" stroke-opacity="0.200000" points="196.26,-204.1 202.26,-202 196.26,-199.9 196.26,-204.1"/>
</g>
<!-- src/core/agent/events.ts -->
<g id="node27" class="node">
<title>src/core/agent/events.ts</title>
<g id="a_node27"><a xlink:href="src/core/agent/events.ts" xlink:title="events.ts">
<path fill="#ccffcc" stroke="black" d="M599.33,-889.62C599.33,-889.62 554.92,-889.62 554.92,-889.62 551.71,-889.62 548.5,-886.42 548.5,-883.21 548.5,-883.21 548.5,-876.79 548.5,-876.79 548.5,-873.58 551.71,-870.38 554.92,-870.38 554.92,-870.38 599.33,-870.38 599.33,-870.38 602.54,-870.38 605.75,-873.58 605.75,-876.79 605.75,-876.79 605.75,-883.21 605.75,-883.21 605.75,-886.42 602.54,-889.62 599.33,-889.62"/>
<text xml:space="preserve" text-anchor="start" x="556.5" y="-876.62" font-family="Helvetica,sans-Serif" font-size="9.00">events.ts</text>
</a>
</g>
</g>
<!-- src/core/auth/OAuthFlow.interface.ts -->
<g id="node28" class="node">
<title>src/core/auth/OAuthFlow.interface.ts</title>
<g id="a_node28"><a xlink:href="src/core/auth/OAuthFlow.interface.ts" xlink:title="OAuthFlow.interface.ts">
<path fill="#ccffcc" stroke="black" d="M629.71,-952.62C629.71,-952.62 524.54,-952.62 524.54,-952.62 521.33,-952.62 518.12,-949.42 518.12,-946.21 518.12,-946.21 518.12,-939.79 518.12,-939.79 518.12,-936.58 521.33,-933.38 524.54,-933.38 524.54,-933.38 629.71,-933.38 629.71,-933.38 632.92,-933.38 636.12,-936.58 636.12,-939.79 636.12,-939.79 636.12,-946.21 636.12,-946.21 636.12,-949.42 632.92,-952.62 629.71,-952.62"/>
<text xml:space="preserve" text-anchor="start" x="526.12" y="-939.62" font-family="Helvetica,sans-Serif" font-size="9.00">OAuthFlow.interface.ts</text>
</a>
</g>
</g>
<!-- src/core/auth/TokenStore.interface.ts -->
<g id="node29" class="node">
<title>src/core/auth/TokenStore.interface.ts</title>
<g id="a_node29"><a xlink:href="src/core/auth/TokenStore.interface.ts" xlink:title="TokenStore.interface.ts">
<path fill="#ccffcc" stroke="black" d="M630.46,-984.62C630.46,-984.62 523.79,-984.62 523.79,-984.62 520.58,-984.62 517.38,-981.42 517.38,-978.21 517.38,-978.21 517.38,-971.79 517.38,-971.79 517.38,-968.58 520.58,-965.38 523.79,-965.38 523.79,-965.38 630.46,-965.38 630.46,-965.38 633.67,-965.38 636.88,-968.58 636.88,-971.79 636.88,-971.79 636.88,-978.21 636.88,-978.21 636.88,-981.42 633.67,-984.62 630.46,-984.62"/>
<text xml:space="preserve" text-anchor="start" x="525.38" y="-971.62" font-family="Helvetica,sans-Serif" font-size="9.00">TokenStore.interface.ts</text>
</a>
</g>
</g>
<!-- src/core/config/AgentConfigStore.interface.ts -->
<g id="node30" class="node">
<title>src/core/config/AgentConfigStore.interface.ts</title>
<g id="a_node30"><a xlink:href="src/core/config/AgentConfigStore.interface.ts" xlink:title="AgentConfigStore.interface.ts">
<path fill="#ccffcc" stroke="black" d="M645.83,-1079.62C645.83,-1079.62 508.42,-1079.62 508.42,-1079.62 505.21,-1079.62 502,-1076.42 502,-1073.21 502,-1073.21 502,-1066.79 502,-1066.79 502,-1063.58 505.21,-1060.38 508.42,-1060.38 508.42,-1060.38 645.83,-1060.38 645.83,-1060.38 649.04,-1060.38 652.25,-1063.58 652.25,-1066.79 652.25,-1066.79 652.25,-1073.21 652.25,-1073.21 652.25,-1076.42 649.04,-1079.62 645.83,-1079.62"/>
<text xml:space="preserve" text-anchor="start" x="510" y="-1066.62" font-family="Helvetica,sans-Serif" font-size="9.00">AgentConfigStore.interface.ts</text>
</a>
</g>
</g>
<!-- src/core/conversations/ConversationRecord.interface.ts -->
<g id="node32" class="node">
<title>src/core/conversations/ConversationRecord.interface.ts</title>
<g id="a_node32"><a xlink:href="src/core/conversations/ConversationRecord.interface.ts" xlink:title="ConversationRecord.interface.ts">
<path fill="#ccffcc" stroke="black" d="M650.71,-1174.62C650.71,-1174.62 503.54,-1174.62 503.54,-1174.62 500.33,-1174.62 497.12,-1171.42 497.12,-1168.21 497.12,-1168.21 497.12,-1161.79 497.12,-1161.79 497.12,-1158.58 500.33,-1155.38 503.54,-1155.38 503.54,-1155.38 650.71,-1155.38 650.71,-1155.38 653.92,-1155.38 657.12,-1158.58 657.12,-1161.79 657.12,-1161.79 657.12,-1168.21 657.12,-1168.21 657.12,-1171.42 653.92,-1174.62 650.71,-1174.62"/>
<text xml:space="preserve" text-anchor="start" x="505.12" y="-1161.62" font-family="Helvetica,sans-Serif" font-size="9.00">ConversationRecord.interface.ts</text>
</a>
</g>
</g>
<!-- src/core/conversations/ConversationRuntime.interface.ts -->
<g id="node33" class="node">
<title>src/core/conversations/ConversationRuntime.interface.ts</title>
<g id="a_node33"><a xlink:href="src/core/conversations/ConversationRuntime.interface.ts" xlink:title="ConversationRuntime.interface.ts">
<path fill="#ccffcc" stroke="black" d="M654.08,-1206.62C654.08,-1206.62 500.17,-1206.62 500.17,-1206.62 496.96,-1206.62 493.75,-1203.42 493.75,-1200.21 493.75,-1200.21 493.75,-1193.79 493.75,-1193.79 493.75,-1190.58 496.96,-1187.38 500.17,-1187.38 500.17,-1187.38 654.08,-1187.38 654.08,-1187.38 657.29,-1187.38 660.5,-1190.58 660.5,-1193.79 660.5,-1193.79 660.5,-1200.21 660.5,-1200.21 660.5,-1203.42 657.29,-1206.62 654.08,-1206.62"/>
<text xml:space="preserve" text-anchor="start" x="501.75" y="-1193.62" font-family="Helvetica,sans-Serif" font-size="9.00">ConversationRuntime.interface.ts</text>
</a>
</g>
</g>
<!-- src/core/conversations/ConversationStore.interface.ts -->
<g id="node34" class="node">
<title>src/core/conversations/ConversationStore.interface.ts</title>
<g id="a_node34"><a xlink:href="src/core/conversations/ConversationStore.interface.ts" xlink:title="ConversationStore.interface.ts">
<path fill="#ccffcc" stroke="black" d="M646.96,-1238.62C646.96,-1238.62 507.29,-1238.62 507.29,-1238.62 504.08,-1238.62 500.88,-1235.42 500.88,-1232.21 500.88,-1232.21 500.88,-1225.79 500.88,-1225.79 500.88,-1222.58 504.08,-1219.38 507.29,-1219.38 507.29,-1219.38 646.96,-1219.38 646.96,-1219.38 650.17,-1219.38 653.38,-1222.58 653.38,-1225.79 653.38,-1225.79 653.38,-1232.21 653.38,-1232.21 653.38,-1235.42 650.17,-1238.62 646.96,-1238.62"/>
<text xml:space="preserve" text-anchor="start" x="508.88" y="-1225.62" font-family="Helvetica,sans-Serif" font-size="9.00">ConversationStore.interface.ts</text>
</a>
</g>
</g>
<!-- src/core/memory/AgentMemory.interface.ts -->
<g id="node35" class="node">
<title>src/core/memory/AgentMemory.interface.ts</title>
<g id="a_node35"><a xlink:href="src/core/memory/AgentMemory.interface.ts" xlink:title="AgentMemory.interface.ts">
<path fill="#ccffcc" stroke="black" d="M636.46,-1301.62C636.46,-1301.62 517.79,-1301.62 517.79,-1301.62 514.58,-1301.62 511.38,-1298.42 511.38,-1295.21 511.38,-1295.21 511.38,-1288.79 511.38,-1288.79 511.38,-1285.58 514.58,-1282.38 517.79,-1282.38 517.79,-1282.38 636.46,-1282.38 636.46,-1282.38 639.67,-1282.38 642.88,-1285.58 642.88,-1288.79 642.88,-1288.79 642.88,-1295.21 642.88,-1295.21 642.88,-1298.42 639.67,-1301.62 636.46,-1301.62"/>
<text xml:space="preserve" text-anchor="start" x="519.38" y="-1288.62" font-family="Helvetica,sans-Serif" font-size="9.00">AgentMemory.interface.ts</text>
</a>
</g>
</g>
<!-- src/core/model/ModelClient.interface.ts -->
<g id="node36" class="node">
<title>src/core/model/ModelClient.interface.ts</title>
<g id="a_node36"><a xlink:href="src/core/model/ModelClient.interface.ts" xlink:title="ModelClient.interface.ts">
<path fill="#ccffcc" stroke="black" d="M631.58,-1364.62C631.58,-1364.62 522.67,-1364.62 522.67,-1364.62 519.46,-1364.62 516.25,-1361.42 516.25,-1358.21 516.25,-1358.21 516.25,-1351.79 516.25,-1351.79 516.25,-1348.58 519.46,-1345.38 522.67,-1345.38 522.67,-1345.38 631.58,-1345.38 631.58,-1345.38 634.79,-1345.38 638,-1348.58 638,-1351.79 638,-1351.79 638,-1358.21 638,-1358.21 638,-1361.42 634.79,-1364.62 631.58,-1364.62"/>
<text xml:space="preserve" text-anchor="start" x="524.25" y="-1351.62" font-family="Helvetica,sans-Serif" font-size="9.00">ModelClient.interface.ts</text>
</a>
</g>
</g>
<!-- src/core/settings/ResponseSettings.interface.ts -->
<g id="node37" class="node">
<title>src/core/settings/ResponseSettings.interface.ts</title>
<g id="a_node37"><a xlink:href="src/core/settings/ResponseSettings.interface.ts" xlink:title="ResponseSettings.interface.ts">
<path fill="#ccffcc" stroke="black" d="M645.83,-1427.62C645.83,-1427.62 508.42,-1427.62 508.42,-1427.62 505.21,-1427.62 502,-1424.42 502,-1421.21 502,-1421.21 502,-1414.79 502,-1414.79 502,-1411.58 505.21,-1408.38 508.42,-1408.38 508.42,-1408.38 645.83,-1408.38 645.83,-1408.38 649.04,-1408.38 652.25,-1411.58 652.25,-1414.79 652.25,-1414.79 652.25,-1421.21 652.25,-1421.21 652.25,-1424.42 649.04,-1427.62 645.83,-1427.62"/>
<text xml:space="preserve" text-anchor="start" x="510" y="-1414.62" font-family="Helvetica,sans-Serif" font-size="9.00">ResponseSettings.interface.ts</text>
</a>
</g>
</g>
<!-- src/core/tools/Tool.interface.ts -->
<g id="node38" class="node">
<title>src/core/tools/Tool.interface.ts</title>
<g id="a_node38"><a xlink:href="src/core/tools/Tool.interface.ts" xlink:title="Tool.interface.ts">
<path fill="#ccffcc" stroke="black" d="M613.96,-1522.62C613.96,-1522.62 540.29,-1522.62 540.29,-1522.62 537.08,-1522.62 533.88,-1519.42 533.88,-1516.21 533.88,-1516.21 533.88,-1509.79 533.88,-1509.79 533.88,-1506.58 537.08,-1503.38 540.29,-1503.38 540.29,-1503.38 613.96,-1503.38 613.96,-1503.38 617.17,-1503.38 620.38,-1506.58 620.38,-1509.79 620.38,-1509.79 620.38,-1516.21 620.38,-1516.21 620.38,-1519.42 617.17,-1522.62 613.96,-1522.62"/>
<text xml:space="preserve" text-anchor="start" x="541.88" y="-1509.62" font-family="Helvetica,sans-Serif" font-size="9.00">Tool.interface.ts</text>
</a>
</g>
</g>
<!-- src/core/tools/ToolRuntime.interface.ts -->
<g id="node39" class="node">
<title>src/core/tools/ToolRuntime.interface.ts</title>
<g id="a_node39"><a xlink:href="src/core/tools/ToolRuntime.interface.ts" xlink:title="ToolRuntime.interface.ts">
<path fill="#ccffcc" stroke="black" d="M633.08,-1554.62C633.08,-1554.62 521.17,-1554.62 521.17,-1554.62 517.96,-1554.62 514.75,-1551.42 514.75,-1548.21 514.75,-1548.21 514.75,-1541.79 514.75,-1541.79 514.75,-1538.58 517.96,-1535.38 521.17,-1535.38 521.17,-1535.38 633.08,-1535.38 633.08,-1535.38 636.29,-1535.38 639.5,-1538.58 639.5,-1541.79 639.5,-1541.79 639.5,-1548.21 639.5,-1548.21 639.5,-1551.42 636.29,-1554.62 633.08,-1554.62"/>
<text xml:space="preserve" text-anchor="start" x="522.75" y="-1541.62" font-family="Helvetica,sans-Serif" font-size="9.00">ToolRuntime.interface.ts</text>
</a>
</g>
</g>
</g>
</svg>
