<?xml version="1.0" encoding="UTF-8" standalone="no"?>
<!DOCTYPE svg PUBLIC "-//W3C//DTD SVG 1.1//EN"
 "http://www.w3.org/Graphics/SVG/1.1/DTD/svg11.dtd">
<!-- Generated by graphviz version 14.1.5 (0)
 -->
<!-- Title: dependency&#45;cruiser output Pages: 1 -->
<svg width="1087pt" height="991pt"
 viewBox="0.00 0.00 1087.00 991.00" xmlns="http://www.w3.org/2000/svg" xmlns:xlink="http://www.w3.org/1999/xlink">
<g id="graph0" class="graph" transform="scale(1 1) rotate(0) translate(4 987)">
<title>dependency&#45;cruiser output</title>
<polygon fill="white" stroke="none" points="-4,4 -4,-987 1082.5,-987 1082.5,4 -4,4"/>
<g id="clust1" class="cluster">
<title>cluster_src</title>
<path fill="#ffffff" stroke="black" stroke-width="2" d="M20,-8C20,-8 1058.5,-8 1058.5,-8 1064.5,-8 1070.5,-14 1070.5,-20 1070.5,-20 1070.5,-963 1070.5,-963 1070.5,-969 1064.5,-975 1058.5,-975 1058.5,-975 20,-975 20,-975 14,-975 8,-969 8,-963 8,-963 8,-20 8,-20 8,-14 14,-8 20,-8"/>
<text xml:space="preserve" text-anchor="middle" x="539.25" y="-962.45" font-family="Helvetica,sans-Serif" font-weight="bold" font-size="9.00">src</text>
</g>
<g id="clust2" class="cluster">
<title>cluster_src/adapters</title>
<path fill="#ffffff" stroke="black" stroke-width="2" d="M28,-16C28,-16 172.25,-16 172.25,-16 178.25,-16 184.25,-22 184.25,-28 184.25,-28 184.25,-576 184.25,-576 184.25,-582 178.25,-588 172.25,-588 172.25,-588 28,-588 28,-588 22,-588 16,-582 16,-576 16,-576 16,-28 16,-28 16,-22 22,-16 28,-16"/>
<text xml:space="preserve" text-anchor="middle" x="100.12" y="-575.45" font-family="Helvetica,sans-Serif" font-weight="bold" font-size="9.00">adapters</text>
</g>
<g id="clust3" class="cluster">
<title>cluster_src/adapters/codex</title>
<path fill="#ffffff" stroke="black" stroke-width="2" d="M41.62,-87C41.62,-87 158.62,-87 158.62,-87 164.62,-87 170.62,-93 170.62,-99 170.62,-99 170.62,-324 170.62,-324 170.62,-330 164.62,-336 158.62,-336 158.62,-336 41.62,-336 41.62,-336 35.62,-336 29.62,-330 29.62,-324 29.62,-324 29.62,-99 29.62,-99 29.62,-93 35.62,-87 41.62,-87"/>
<text xml:space="preserve" text-anchor="middle" x="100.12" y="-323.45" font-family="Helvetica,sans-Serif" font-weight="bold" font-size="9.00">codex</text>
</g>
<g id="clust4" class="cluster">
<title>cluster_src/adapters/codex/auth</title>
<path fill="#ffffff" stroke="black" stroke-width="2" d="M52.62,-222C52.62,-222 147.62,-222 147.62,-222 153.62,-222 159.62,-228 159.62,-234 159.62,-234 159.62,-297 159.62,-297 159.62,-303 153.62,-309 147.62,-309 147.62,-309 52.62,-309 52.62,-309 46.62,-309 40.62,-303 40.62,-297 40.62,-297 40.62,-234 40.62,-234 40.62,-228 46.62,-222 52.62,-222"/>
<text xml:space="preserve" text-anchor="middle" x="100.12" y="-296.45" font-family="Helvetica,sans-Serif" font-weight="bold" font-size="9.00">auth</text>
</g>
<g id="clust5" class="cluster">
<title>cluster_src/adapters/codex/responses</title>
<path fill="#ffffff" stroke="black" stroke-width="2" d="M49.62,-95C49.62,-95 150.62,-95 150.62,-95 156.62,-95 162.62,-101 162.62,-107 162.62,-107 162.62,-202 162.62,-202 162.62,-208 156.62,-214 150.62,-214 150.62,-214 49.62,-214 49.62,-214 43.62,-214 37.62,-208 37.62,-202 37.62,-202 37.62,-107 37.62,-107 37.62,-101 43.62,-95 49.62,-95"/>
<text xml:space="preserve" text-anchor="middle" x="100.12" y="-201.45" font-family="Helvetica,sans-Serif" font-weight="bold" font-size="9.00">responses</text>
</g>
<g id="clust6" class="cluster">
<title>cluster_src/adapters/file&#45;system</title>
<path fill="#ffffff" stroke="black" stroke-width="2" d="M38.75,-442C38.75,-442 161.5,-442 161.5,-442 167.5,-442 173.5,-448 173.5,-454 173.5,-454 173.5,-549 173.5,-549 173.5,-555 167.5,-561 161.5,-561 161.5,-561 38.75,-561 38.75,-561 32.75,-561 26.75,-555 26.75,-549 26.75,-549 26.75,-454 26.75,-454 26.75,-448 32.75,-442 38.75,-442"/>
<text xml:space="preserve" text-anchor="middle" x="100.12" y="-548.45" font-family="Helvetica,sans-Serif" font-weight="bold" font-size="9.00">file&#45;system</text>
</g>
<g id="clust7" class="cluster">
<title>cluster_src/adapters/memory</title>
<path fill="#ffffff" stroke="black" stroke-width="2" d="M36,-344C36,-344 164.25,-344 164.25,-344 170.25,-344 176.25,-350 176.25,-356 176.25,-356 176.25,-422 176.25,-422 176.25,-428 170.25,-434 164.25,-434 164.25,-434 36,-434 36,-434 30,-434 24,-428 24,-422 24,-422 24,-356 24,-356 24,-350 30,-344 36,-344"/>
<text xml:space="preserve" text-anchor="middle" x="100.12" y="-421.45" font-family="Helvetica,sans-Serif" font-weight="bold" font-size="9.00">memory</text>
</g>
<g id="clust8" class="cluster">
<title>cluster_src/adapters/memory/simple&#45;linear</title>
<path fill="#ffffff" stroke="black" stroke-width="2" d="M44,-352C44,-352 156.25,-352 156.25,-352 162.25,-352 168.25,-358 168.25,-364 168.25,-364 168.25,-395 168.25,-395 168.25,-401 162.25,-407 156.25,-407 156.25,-407 44,-407 44,-407 38,-407 32,-401 32,-395 32,-395 32,-364 32,-364 32,-358 38,-352 44,-352"/>
<text xml:space="preserve" text-anchor="middle" x="100.12" y="-394.45" font-family="Helvetica,sans-Serif" font-weight="bold" font-size="9.00">simple&#45;linear</text>
</g>
<g id="clust9" class="cluster">
<title>cluster_src/adapters/tools</title>
<path fill="#ffffff" stroke="black" stroke-width="2" d="M71,-24C71,-24 129.25,-24 129.25,-24 135.25,-24 141.25,-30 141.25,-36 141.25,-36 141.25,-67 141.25,-67 141.25,-73 135.25,-79 129.25,-79 129.25,-79 71,-79 71,-79 65,-79 59,-73 59,-67 59,-67 59,-36 59,-36 59,-30 65,-24 71,-24"/>
<text xml:space="preserve" text-anchor="middle" x="100.12" y="-66.45" font-family="Helvetica,sans-Serif" font-weight="bold" font-size="9.00">tools</text>
</g>
<g id="clust10" class="cluster">
<title>cluster_src/apps</title>
<path fill="#ffffff" stroke="black" stroke-width="2" d="M31.5,-602C31.5,-602 349.38,-602 349.38,-602 355.38,-602 361.38,-608 361.38,-614 361.38,-614 361.38,-936 361.38,-936 361.38,-942 355.38,-948 349.38,-948 349.38,-948 31.5,-948 31.5,-948 25.5,-948 19.5,-942 19.5,-936 19.5,-936 19.5,-614 19.5,-614 19.5,-608 25.5,-602 31.5,-602"/>
<text xml:space="preserve" text-anchor="middle" x="190.44" y="-935.45" font-family="Helvetica,sans-Serif" font-weight="bold" font-size="9.00">apps</text>
</g>
<g id="clust11" class="cluster">
<title>cluster_src/apps/cli</title>
<path fill="#ffffff" stroke="black" stroke-width="2" d="M39.5,-610C39.5,-610 341.38,-610 341.38,-610 347.38,-610 353.38,-616 353.38,-622 353.38,-622 353.38,-909 353.38,-909 353.38,-915 347.38,-921 341.38,-921 341.38,-921 39.5,-921 39.5,-921 33.5,-921 27.5,-915 27.5,-909 27.5,-909 27.5,-622 27.5,-622 27.5,-616 33.5,-610 39.5,-610"/>
<text xml:space="preserve" text-anchor="middle" x="190.44" y="-908.45" font-family="Helvetica,sans-Serif" font-weight="bold" font-size="9.00">cli</text>
</g>
<g id="clust12" class="cluster">
<title>cluster_src/core</title>
<path fill="#ffffff" stroke="black" stroke-width="2" d="M204.25,-68C204.25,-68 1050.5,-68 1050.5,-68 1056.5,-68 1062.5,-74 1062.5,-80 1062.5,-80 1062.5,-582 1062.5,-582 1062.5,-588 1056.5,-594 1050.5,-594 1050.5,-594 204.25,-594 204.25,-594 198.25,-594 192.25,-588 192.25,-582 192.25,-582 192.25,-80 192.25,-80 192.25,-74 198.25,-68 204.25,-68"/>
<text xml:space="preserve" text-anchor="middle" x="627.38" y="-581.45" font-family="Helvetica,sans-Serif" font-weight="bold" font-size="9.00">core</text>
</g>
<g id="clust13" class="cluster">
<title>cluster_src/core/agent</title>
<path fill="#ffffff" stroke="black" stroke-width="2" d="M262.88,-227C262.88,-227 491.75,-227 491.75,-227 497.75,-227 503.75,-233 503.75,-239 503.75,-239 503.75,-270 503.75,-270 503.75,-276 497.75,-282 491.75,-282 491.75,-282 262.88,-282 262.88,-282 256.88,-282 250.88,-276 250.88,-270 250.88,-270 250.88,-239 250.88,-239 250.88,-233 256.88,-227 262.88,-227"/>
<text xml:space="preserve" text-anchor="middle" x="377.31" y="-269.45" font-family="Helvetica,sans-Serif" font-weight="bold" font-size="9.00">agent</text>
</g>
<g id="clust14" class="cluster">
<title>cluster_src/core/auth</title>
<path fill="#ffffff" stroke="black" stroke-width="2" d="M230.25,-290C230.25,-290 341.75,-290 341.75,-290 347.75,-290 353.75,-296 353.75,-302 353.75,-302 353.75,-365 353.75,-365 353.75,-371 347.75,-377 341.75,-377 341.75,-377 230.25,-377 230.25,-377 224.25,-377 218.25,-371 218.25,-365 218.25,-365 218.25,-302 218.25,-302 218.25,-296 224.25,-290 230.25,-290"/>
<text xml:space="preserve" text-anchor="middle" x="286" y="-364.45" font-family="Helvetica,sans-Serif" font-weight="bold" font-size="9.00">auth</text>
</g>
<g id="clust15" class="cluster">
<title>cluster_src/core/config</title>
<path fill="#ffffff" stroke="black" stroke-width="2" d="M758.5,-512C758.5,-512 1042.5,-512 1042.5,-512 1048.5,-512 1054.5,-518 1054.5,-524 1054.5,-524 1054.5,-555 1054.5,-555 1054.5,-561 1048.5,-567 1042.5,-567 1042.5,-567 758.5,-567 758.5,-567 752.5,-567 746.5,-561 746.5,-555 746.5,-555 746.5,-524 746.5,-524 746.5,-518 752.5,-512 758.5,-512"/>
<text xml:space="preserve" text-anchor="middle" x="900.5" y="-554.45" font-family="Helvetica,sans-Serif" font-weight="bold" font-size="9.00">config</text>
</g>
<g id="clust16" class="cluster">
<title>cluster_src/core/conversations</title>
<path fill="#ffffff" stroke="black" stroke-width="2" d="M212.25,-385C212.25,-385 726.5,-385 726.5,-385 732.5,-385 738.5,-391 738.5,-397 738.5,-397 738.5,-492 738.5,-492 738.5,-498 732.5,-504 726.5,-504 726.5,-504 212.25,-504 212.25,-504 206.25,-504 200.25,-498 200.25,-492 200.25,-492 200.25,-397 200.25,-397 200.25,-391 206.25,-385 212.25,-385"/>
<text xml:space="preserve" text-anchor="middle" x="469.38" y="-491.45" font-family="Helvetica,sans-Serif" font-weight="bold" font-size="9.00">conversations</text>
</g>
<g id="clust17" class="cluster">
<title>cluster_src/core/errors</title>
<path fill="#ffffff" stroke="black" stroke-width="2" d="M252,-512C252,-512 320,-512 320,-512 326,-512 332,-518 332,-524 332,-524 332,-555 332,-555 332,-561 326,-567 320,-567 320,-567 252,-567 252,-567 246,-567 240,-561 240,-555 240,-555 240,-524 240,-524 240,-518 246,-512 252,-512"/>
<text xml:space="preserve" text-anchor="middle" x="286" y="-554.45" font-family="Helvetica,sans-Serif" font-weight="bold" font-size="9.00">errors</text>
</g>
<g id="clust18" class="cluster">
<title>cluster_src/core/memory</title>
<path fill="#ffffff" stroke="black" stroke-width="2" d="M405.38,-86C405.38,-86 528.88,-86 528.88,-86 534.88,-86 540.88,-92 540.88,-98 540.88,-98 540.88,-129 540.88,-129 540.88,-135 534.88,-141 528.88,-141 528.88,-141 405.38,-141 405.38,-141 399.38,-141 393.38,-135 393.38,-129 393.38,-129 393.38,-98 393.38,-98 393.38,-92 399.38,-86 405.38,-86"/>
<text xml:space="preserve" text-anchor="middle" x="467.12" y="-128.45" font-family="Helvetica,sans-Serif" font-weight="bold" font-size="9.00">memory</text>
</g>
<g id="clust19" class="cluster">
<title>cluster_src/core/model</title>
<path fill="#ffffff" stroke="black" stroke-width="2" d="M593.62,-77C593.62,-77 707.38,-77 707.38,-77 713.38,-77 719.38,-83 719.38,-89 719.38,-89 719.38,-120 719.38,-120 719.38,-126 713.38,-132 707.38,-132 707.38,-132 593.62,-132 593.62,-132 587.62,-132 581.62,-126 581.62,-120 581.62,-120 581.62,-89 581.62,-89 581.62,-83 587.62,-77 593.62,-77"/>
<text xml:space="preserve" text-anchor="middle" x="650.5" y="-119.45" font-family="Helvetica,sans-Serif" font-weight="bold" font-size="9.00">model</text>
</g>
<g id="clust20" class="cluster">
<title>cluster_src/core/settings</title>
<path fill="#ffffff" stroke="black" stroke-width="2" d="M758.5,-306C758.5,-306 900.75,-306 900.75,-306 906.75,-306 912.75,-312 912.75,-318 912.75,-318 912.75,-349 912.75,-349 912.75,-355 906.75,-361 900.75,-361 900.75,-361 758.5,-361 758.5,-361 752.5,-361 746.5,-355 746.5,-349 746.5,-349 746.5,-318 746.5,-318 746.5,-312 752.5,-306 758.5,-306"/>
<text xml:space="preserve" text-anchor="middle" x="829.62" y="-348.45" font-family="Helvetica,sans-Serif" font-weight="bold" font-size="9.00">settings</text>
</g>
<g id="clust21" class="cluster">
<title>cluster_src/core/tools</title>
<path fill="#ffffff" stroke="black" stroke-width="2" d="M431.62,-149C431.62,-149 868.88,-149 868.88,-149 874.88,-149 880.88,-155 880.88,-161 880.88,-161 880.88,-207 880.88,-207 880.88,-213 874.88,-219 868.88,-219 868.88,-219 431.62,-219 431.62,-219 425.62,-219 419.62,-213 419.62,-207 419.62,-207 419.62,-161 419.62,-161 419.62,-155 425.62,-149 431.62,-149"/>
<text xml:space="preserve" text-anchor="middle" x="650.25" y="-206.45" font-family="Helvetica,sans-Serif" font-weight="bold" font-size="9.00">tools</text>
</g>
<!-- src/adapters/codex/auth/CodexAuthClient.ts -->
<g id="node1" class="node">
<title>src/adapters/codex/auth/CodexAuthClient.ts</title>
<g id="a_node1"><a xlink:href="src/adapters/codex/auth/CodexAuthClient.ts" xlink:title="CodexAuthClient.ts">
<path fill="#ddfeff" stroke="black" d="M144.83,-281.62C144.83,-281.62 55.42,-281.62 55.42,-281.62 52.21,-281.62 49,-278.42 49,-275.21 49,-275.21 49,-268.79 49,-268.79 49,-265.58 52.21,-262.38 55.42,-262.38 55.42,-262.38 144.83,-262.38 144.83,-262.38 148.04,-262.38 151.25,-265.58 151.25,-268.79 151.25,-268.79 151.25,-275.21 151.25,-275.21 151.25,-278.42 148.04,-281.62 144.83,-281.62"/>
<text xml:space="preserve" text-anchor="start" x="57" y="-268.62" font-family="Helvetica,sans-Serif" font-size="9.00">CodexAuthClient.ts</text>
</a>
</g>
</g>
<!-- src/core/auth/TokenStore.interface.ts -->
<g id="node2" class="node">
<title>src/core/auth/TokenStore.interface.ts</title>
<g id="a_node2"><a xlink:href="src/core/auth/TokenStore.interface.ts" xlink:title="TokenStore.interface.ts">
<path fill="#ccffcc" stroke="black" d="M339.33,-349.62C339.33,-349.62 232.67,-349.62 232.67,-349.62 229.46,-349.62 226.25,-346.42 226.25,-343.21 226.25,-343.21 226.25,-336.79 226.25,-336.79 226.25,-333.58 229.46,-330.38 232.67,-330.38 232.67,-330.38 339.33,-330.38 339.33,-330.38 342.54,-330.38 345.75,-333.58 345.75,-336.79 345.75,-336.79 345.75,-343.21 345.75,-343.21 345.75,-346.42 342.54,-349.62 339.33,-349.62"/>
<text xml:space="preserve" text-anchor="start" x="234.25" y="-336.62" font-family="Helvetica,sans-Serif" font-size="9.00">TokenStore.interface.ts</text>
</a>
</g>
</g>
<!-- src/adapters/codex/auth/CodexAuthClient.ts&#45;&gt;src/core/auth/TokenStore.interface.ts -->
<g id="edge1" class="edge">
<title>src/adapters/codex/auth/CodexAuthClient.ts&#45;&gt;src/core/auth/TokenStore.interface.ts</title>
<path fill="none" stroke="#000000" stroke-opacity="0.200000" d="M100.5,-281.87C100.5,-299.64 100.5,-335.19 100.5,-335.19 100.5,-335.19 218.26,-335.19 218.26,-335.19"/>
<polygon fill="none" stroke="#000000" stroke-opacity="0.200000" points="218.26,-337.29 224.26,-335.19 218.26,-333.09 218.26,-337.29"/>
</g>
<!-- src/adapters/codex/auth/CodexOAuthFlow.ts -->
<g id="node3" class="node">
<title>src/adapters/codex/auth/CodexOAuthFlow.ts</title>
<g id="a_node3"><a xlink:href="src/adapters/codex/auth/CodexOAuthFlow.ts" xlink:title="CodexOAuthFlow.ts">
<path fill="#ddfeff" stroke="black" d="M145.21,-249.62C145.21,-249.62 55.04,-249.62 55.04,-249.62 51.83,-249.62 48.62,-246.42 48.62,-243.21 48.62,-243.21 48.62,-236.79 48.62,-236.79 48.62,-233.58 51.83,-230.38 55.04,-230.38 55.04,-230.38 145.21,-230.38 145.21,-230.38 148.42,-230.38 151.62,-233.58 151.62,-236.79 151.62,-236.79 151.62,-243.21 151.62,-243.21 151.62,-246.42 148.42,-249.62 145.21,-249.62"/>
<text xml:space="preserve" text-anchor="start" x="56.62" y="-236.62" font-family="Helvetica,sans-Serif" font-size="9.00">CodexOAuthFlow.ts</text>
</a>
</g>
</g>
<!-- src/core/auth/OAuthFlow.interface.ts -->
<g id="node4" class="node">
<title>src/core/auth/OAuthFlow.interface.ts</title>
<g id="a_node4"><a xlink:href="src/core/auth/OAuthFlow.interface.ts" xlink:title="OAuthFlow.interface.ts">
<path fill="#ccffcc" stroke="black" d="M338.58,-317.62C338.58,-317.62 233.42,-317.62 233.42,-317.62 230.21,-317.62 227,-314.42 227,-311.21 227,-311.21 227,-304.79 227,-304.79 227,-301.58 230.21,-298.38 233.42,-298.38 233.42,-298.38 338.58,-298.38 338.58,-298.38 341.79,-298.38 345,-301.58 345,-304.79 345,-304.79 345,-311.21 345,-311.21 345,-314.42 341.79,-317.62 338.58,-317.62"/>
<text xml:space="preserve" text-anchor="start" x="235" y="-304.62" font-family="Helvetica,sans-Serif" font-size="9.00">OAuthFlow.interface.ts</text>
</a>
</g>
</g>
<!-- src/adapters/codex/auth/CodexOAuthFlow.ts&#45;&gt;src/core/auth/OAuthFlow.interface.ts -->
<g id="edge2" class="edge">
<title>src/adapters/codex/auth/CodexOAuthFlow.ts&#45;&gt;src/core/auth/OAuthFlow.interface.ts</title>
<path fill="none" stroke="#000000" stroke-opacity="0.200000" d="M151.93,-242.5C192.64,-242.5 242.5,-242.5 242.5,-242.5 242.5,-242.5 242.5,-290.54 242.5,-290.54"/>
<polygon fill="none" stroke="#000000" stroke-opacity="0.200000" points="240.4,-290.54 242.5,-296.54 244.6,-290.54 240.4,-290.54"/>
</g>
<!-- src/adapters/codex/responses/CodexModelClient.ts -->
<g id="node5" class="node">
<title>src/adapters/codex/responses/CodexModelClient.ts</title>
<g id="a_node5"><a xlink:href="src/adapters/codex/responses/CodexModelClient.ts" xlink:title="CodexModelClient.ts">
<path fill="#ddfeff" stroke="black" d="M147.08,-122.62C147.08,-122.62 53.17,-122.62 53.17,-122.62 49.96,-122.62 46.75,-119.42 46.75,-116.21 46.75,-116.21 46.75,-109.79 46.75,-109.79 46.75,-106.58 49.96,-103.38 53.17,-103.38 53.17,-103.38 147.08,-103.38 147.08,-103.38 150.29,-103.38 153.5,-106.58 153.5,-109.79 153.5,-109.79 153.5,-116.21 153.5,-116.21 153.5,-119.42 150.29,-122.62 147.08,-122.62"/>
<text xml:space="preserve" text-anchor="start" x="54.75" y="-109.62" font-family="Helvetica,sans-Serif" font-size="9.00">CodexModelClient.ts</text>
</a>
</g>
</g>
<!-- src/core/model/ModelClient.interface.ts -->
<g id="node6" class="node">
<title>src/core/model/ModelClient.interface.ts</title>
<g id="a_node6"><a xlink:href="src/core/model/ModelClient.interface.ts" xlink:title="ModelClient.interface.ts">
<path fill="#ccffcc" stroke="black" d="M704.96,-104.62C704.96,-104.62 596.04,-104.62 596.04,-104.62 592.83,-104.62 589.62,-101.42 589.62,-98.21 589.62,-98.21 589.62,-91.79 589.62,-91.79 589.62,-88.58 592.83,-85.38 596.04,-85.38 596.04,-85.38 704.96,-85.38 704.96,-85.38 708.17,-85.38 711.38,-88.58 711.38,-91.79 711.38,-91.79 711.38,-98.21 711.38,-98.21 711.38,-101.42 708.17,-104.62 704.96,-104.62"/>
<text xml:space="preserve" text-anchor="start" x="597.62" y="-91.62" font-family="Helvetica,sans-Serif" font-size="9.00">ModelClient.interface.ts</text>
</a>
</g>
</g>
<!-- src/adapters/codex/responses/CodexModelClient.ts&#45;&gt;src/core/model/ModelClient.interface.ts -->
<g id="edge3" class="edge">
<title>src/adapters/codex/responses/CodexModelClient.ts&#45;&gt;src/core/model/ModelClient.interface.ts</title>
<path fill="none" stroke="#000000" stroke-opacity="0.200000" d="M143.5,-102.97C143.5,-95.88 143.5,-87.62 143.5,-87.62 143.5,-87.62 581.83,-87.62 581.83,-87.62"/>
<polygon fill="none" stroke="#000000" stroke-opacity="0.200000" points="581.83,-89.73 587.83,-87.63 581.83,-85.53 581.83,-89.73"/>
</g>
<!-- src/core/tools/Tool.interface.ts -->
<g id="node19" class="node">
<title>src/core/tools/Tool.interface.ts</title>
<g id="a_node19"><a xlink:href="src/core/tools/Tool.interface.ts" xlink:title="Tool.interface.ts">
<path fill="#ccffcc" stroke="black" d="M866.46,-176.62C866.46,-176.62 792.79,-176.62 792.79,-176.62 789.58,-176.62 786.38,-173.42 786.38,-170.21 786.38,-170.21 786.38,-163.79 786.38,-163.79 786.38,-160.58 789.58,-157.38 792.79,-157.38 792.79,-157.38 866.46,-157.38 866.46,-157.38 869.67,-157.38 872.88,-160.58 872.88,-163.79 872.88,-163.79 872.88,-170.21 872.88,-170.21 872.88,-173.42 869.67,-176.62 866.46,-176.62"/>
<text xml:space="preserve" text-anchor="start" x="794.38" y="-163.62" font-family="Helvetica,sans-Serif" font-size="9.00">Tool.interface.ts</text>
</a>
</g>
</g>
<!-- src/core/model/ModelClient.interface.ts&#45;&gt;src/core/tools/Tool.interface.ts -->
<g id="edge46" class="edge">
<title>src/core/model/ModelClient.interface.ts&#45;&gt;src/core/tools/Tool.interface.ts</title>
<path fill="none" stroke="#000000" stroke-opacity="0.200000" d="M711.85,-91.79C763.67,-91.79 829.5,-91.79 829.5,-91.79 829.5,-91.79 829.5,-149.65 829.5,-149.65"/>
<polygon fill="none" stroke="#000000" stroke-opacity="0.200000" points="827.4,-149.65 829.5,-155.65 831.6,-149.65 827.4,-149.65"/>
</g>
<!-- src/core/settings/ResponseSettings.interface.ts -->
<g id="node23" class="node">
<title>src/core/settings/ResponseSettings.interface.ts</title>
<g id="a_node23"><a xlink:href="src/core/settings/ResponseSettings.interface.ts" xlink:title="ResponseSettings.interface.ts">
<path fill="#ccffcc" stroke="black" d="M898.33,-333.62C898.33,-333.62 760.92,-333.62 760.92,-333.62 757.71,-333.62 754.5,-330.42 754.5,-327.21 754.5,-327.21 754.5,-320.79 754.5,-320.79 754.5,-317.58 757.71,-314.38 760.92,-314.38 760.92,-314.38 898.33,-314.38 898.33,-314.38 901.54,-314.38 904.75,-317.58 904.75,-320.79 904.75,-320.79 904.75,-327.21 904.75,-327.21 904.75,-330.42 901.54,-333.62 898.33,-333.62"/>
<text xml:space="preserve" text-anchor="start" x="762.5" y="-320.62" font-family="Helvetica,sans-Serif" font-size="9.00">ResponseSettings.interface.ts</text>
</a>
</g>
</g>
<!-- src/core/model/ModelClient.interface.ts&#45;&gt;src/core/settings/ResponseSettings.interface.ts -->
<g id="edge45" class="edge">
<title>src/core/model/ModelClient.interface.ts&#45;&gt;src/core/settings/ResponseSettings.interface.ts</title>
<path fill="none" stroke="#000000" stroke-opacity="0.200000" d="M711.54,-98.21C743.27,-98.21 775.5,-98.21 775.5,-98.21 775.5,-98.21 775.5,-306.49 775.5,-306.49"/>
<polygon fill="none" stroke="#000000" stroke-opacity="0.200000" points="773.4,-306.49 775.5,-312.49 777.6,-306.49 773.4,-306.49"/>
</g>
<!-- src/adapters/codex/responses/responsesEvents.ts -->
<g id="node7" class="node">
<title>src/adapters/codex/responses/responsesEvents.ts</title>
<g id="a_node7"><a xlink:href="src/adapters/codex/responses/responsesEvents.ts" xlink:title="responsesEvents.ts">
<path fill="#ddfeff" stroke="black" d="M145.21,-154.62C145.21,-154.62 55.04,-154.62 55.04,-154.62 51.83,-154.62 48.62,-151.42 48.62,-148.21 48.62,-148.21 48.62,-141.79 48.62,-141.79 48.62,-138.58 51.83,-135.38 55.04,-135.38 55.04,-135.38 145.21,-135.38 145.21,-135.38 148.42,-135.38 151.62,-138.58 151.62,-141.79 151.62,-141.79 151.62,-148.21 151.62,-148.21 151.62,-151.42 148.42,-154.62 145.21,-154.62"/>
<text xml:space="preserve" text-anchor="start" x="56.62" y="-141.62" font-family="Helvetica,sans-Serif" font-size="9.00">responsesEvents.ts</text>
</a>
</g>
</g>
<!-- src/adapters/codex/responses/responsesRequest.ts -->
<g id="node8" class="node">
<title>src/adapters/codex/responses/responsesRequest.ts</title>
<g id="a_node8"><a xlink:href="src/adapters/codex/responses/responsesRequest.ts" xlink:title="responsesRequest.ts">
<path fill="#ddfeff" stroke="black" d="M148.21,-186.62C148.21,-186.62 52.04,-186.62 52.04,-186.62 48.83,-186.62 45.62,-183.42 45.62,-180.21 45.62,-180.21 45.62,-173.79 45.62,-173.79 45.62,-170.58 48.83,-167.38 52.04,-167.38 52.04,-167.38 148.21,-167.38 148.21,-167.38 151.42,-167.38 154.62,-170.58 154.62,-173.79 154.62,-173.79 154.62,-180.21 154.62,-180.21 154.62,-183.42 151.42,-186.62 148.21,-186.62"/>
<text xml:space="preserve" text-anchor="start" x="53.62" y="-173.62" font-family="Helvetica,sans-Serif" font-size="9.00">responsesRequest.ts</text>
</a>
</g>
</g>
<!-- src/adapters/codex/responses/responsesRequest.ts&#45;&gt;src/core/model/ModelClient.interface.ts -->
<g id="edge4" class="edge">
<title>src/adapters/codex/responses/responsesRequest.ts&#45;&gt;src/core/model/ModelClient.interface.ts</title>
<path fill="none" stroke="#000000" stroke-opacity="0.200000" d="M154.98,-175.5C165.07,-175.5 172.5,-175.5 172.5,-175.5 172.5,-175.5 172.5,-89.88 172.5,-89.88 172.5,-89.88 581.96,-89.88 581.96,-89.88"/>
<polygon fill="none" stroke="#000000" stroke-opacity="0.200000" points="581.96,-91.98 587.96,-89.88 581.96,-87.78 581.96,-91.98"/>
</g>
<!-- src/adapters/file&#45;system/JsonAgentConfigStore.ts -->
<g id="node9" class="node">
<title>src/adapters/file&#45;system/JsonAgentConfigStore.ts</title>
<g id="a_node9"><a xlink:href="src/adapters/file-system/JsonAgentConfigStore.ts" xlink:title="JsonAgentConfigStore.ts">
<path fill="#ddfeff" stroke="black" d="M156.83,-533.62C156.83,-533.62 43.42,-533.62 43.42,-533.62 40.21,-533.62 37,-530.42 37,-527.21 37,-527.21 37,-520.79 37,-520.79 37,-517.58 40.21,-514.38 43.42,-514.38 43.42,-514.38 156.83,-514.38 156.83,-514.38 160.04,-514.38 163.25,-517.58 163.25,-520.79 163.25,-520.79 163.25,-527.21 163.25,-527.21 163.25,-530.42 160.04,-533.62 156.83,-533.62"/>
<text xml:space="preserve" text-anchor="start" x="45" y="-520.62" font-family="Helvetica,sans-Serif" font-size="9.00">JsonAgentConfigStore.ts</text>
</a>
</g>
</g>
<!-- src/core/config/AgentConfigStore.interface.ts -->
<g id="node10" class="node">
<title>src/core/config/AgentConfigStore.interface.ts</title>
<g id="a_node10"><a xlink:href="src/core/config/AgentConfigStore.interface.ts" xlink:title="AgentConfigStore.interface.ts">
<path fill="#ccffcc" stroke="black" d="M898.33,-539.62C898.33,-539.62 760.92,-539.62 760.92,-539.62 757.71,-539.62 754.5,-536.42 754.5,-533.21 754.5,-533.21 754.5,-526.79 754.5,-526.79 754.5,-523.58 757.71,-520.38 760.92,-520.38 760.92,-520.38 898.33,-520.38 898.33,-520.38 901.54,-520.38 904.75,-523.58 904.75,-526.79 904.75,-526.79 904.75,-533.21 904.75,-533.21 904.75,-536.42 901.54,-539.62 898.33,-539.62"/>
<text xml:space="preserve" text-anchor="start" x="762.5" y="-526.62" font-family="Helvetica,sans-Serif" font-size="9.00">AgentConfigStore.interface.ts</text>
</a>
</g>
</g>
<!-- src/adapters/file&#45;system/JsonAgentConfigStore.ts&#45;&gt;src/core/config/AgentConfigStore.interface.ts -->
<g id="edge5" class="edge">
<title>src/adapters/file&#45;system/JsonAgentConfigStore.ts&#45;&gt;src/core/config/AgentConfigStore.interface.ts</title>
<path fill="none" stroke="#000000" stroke-opacity="0.200000" d="M159.5,-514.14C159.5,-510.85 159.5,-508 159.5,-508 159.5,-508 829.5,-508 829.5,-508 829.5,-508 829.5,-512.52 829.5,-512.52"/>
<polygon fill="none" stroke="#000000" stroke-opacity="0.200000" points="827.4,-512.52 829.5,-518.52 831.6,-512.52 827.4,-512.52"/>
</g>
<!-- src/core/config/AgentConfig.schema.ts -->
<g id="node22" class="node">
<title>src/core/config/AgentConfig.schema.ts</title>
<g id="a_node22"><a xlink:href="src/core/config/AgentConfig.schema.ts" xlink:title="AgentConfig.schema.ts">
<path fill="#ddfeff" stroke="black" d="M1040.08,-539.62C1040.08,-539.62 931.17,-539.62 931.17,-539.62 927.96,-539.62 924.75,-536.42 924.75,-533.21 924.75,-533.21 924.75,-526.79 924.75,-526.79 924.75,-523.58 927.96,-520.38 931.17,-520.38 931.17,-520.38 1040.08,-520.38 1040.08,-520.38 1043.29,-520.38 1046.5,-523.58 1046.5,-526.79 1046.5,-526.79 1046.5,-533.21 1046.5,-533.21 1046.5,-536.42 1043.29,-539.62 1040.08,-539.62"/>
<text xml:space="preserve" text-anchor="start" x="932.75" y="-526.62" font-family="Helvetica,sans-Serif" font-size="9.00">AgentConfig.schema.ts</text>
</a>
</g>
</g>
<!-- src/core/config/AgentConfigStore.interface.ts&#45;&gt;src/core/config/AgentConfig.schema.ts -->
<g id="edge33" class="edge">
<title>src/core/config/AgentConfigStore.interface.ts&#45;&gt;src/core/config/AgentConfig.schema.ts</title>
<path fill="none" stroke="#000000" stroke-opacity="0.200000" d="M904.88,-530C904.88,-530 916.9,-530 916.9,-530"/>
<polygon fill="none" stroke="#000000" stroke-opacity="0.200000" points="916.9,-532.1 922.9,-530 916.9,-527.9 916.9,-532.1"/>
</g>
<!-- src/adapters/file&#45;system/JsonFileTokenStore.ts -->
<g id="node11" class="node">
<title>src/adapters/file&#45;system/JsonFileTokenStore.ts</title>
<g id="a_node11"><a xlink:href="src/adapters/file-system/JsonFileTokenStore.ts" xlink:title="JsonFileTokenStore.ts">
<path fill="#ddfeff" stroke="black" d="M148.58,-501.62C148.58,-501.62 51.67,-501.62 51.67,-501.62 48.46,-501.62 45.25,-498.42 45.25,-495.21 45.25,-495.21 45.25,-488.79 45.25,-488.79 45.25,-485.58 48.46,-482.38 51.67,-482.38 51.67,-482.38 148.58,-482.38 148.58,-482.38 151.79,-482.38 155,-485.58 155,-488.79 155,-488.79 155,-495.21 155,-495.21 155,-498.42 151.79,-501.62 148.58,-501.62"/>
<text xml:space="preserve" text-anchor="start" x="53.25" y="-488.62" font-family="Helvetica,sans-Serif" font-size="9.00">JsonFileTokenStore.ts</text>
</a>
</g>
</g>
<!-- src/adapters/file&#45;system/JsonFileTokenStore.ts&#45;&gt;src/core/auth/TokenStore.interface.ts -->
<g id="edge6" class="edge">
<title>src/adapters/file&#45;system/JsonFileTokenStore.ts&#45;&gt;src/core/auth/TokenStore.interface.ts</title>
<path fill="none" stroke="#000000" stroke-opacity="0.200000" d="M155.25,-492C175.47,-492 193.5,-492 193.5,-492 193.5,-492 193.5,-340 193.5,-340 193.5,-340 218.34,-340 218.34,-340"/>
<polygon fill="none" stroke="#000000" stroke-opacity="0.200000" points="218.34,-342.1 224.34,-340 218.34,-337.9 218.34,-342.1"/>
</g>
<!-- src/adapters/file&#45;system/JsonlConversationStore.ts -->
<g id="node12" class="node">
<title>src/adapters/file&#45;system/JsonlConversationStore.ts</title>
<g id="a_node12"><a xlink:href="src/adapters/file-system/JsonlConversationStore.ts" xlink:title="JsonlConversationStore.ts">
<path fill="#ddfeff" stroke="black" d="M159.08,-469.62C159.08,-469.62 41.17,-469.62 41.17,-469.62 37.96,-469.62 34.75,-466.42 34.75,-463.21 34.75,-463.21 34.75,-456.79 34.75,-456.79 34.75,-453.58 37.96,-450.38 41.17,-450.38 41.17,-450.38 159.08,-450.38 159.08,-450.38 162.29,-450.38 165.5,-453.58 165.5,-456.79 165.5,-456.79 165.5,-463.21 165.5,-463.21 165.5,-466.42 162.29,-469.62 159.08,-469.62"/>
<text xml:space="preserve" text-anchor="start" x="42.75" y="-456.62" font-family="Helvetica,sans-Serif" font-size="9.00">JsonlConversationStore.ts</text>
</a>
</g>
</g>
<!-- src/core/conversations/ConversationRecord.interface.ts -->
<g id="node13" class="node">
<title>src/core/conversations/ConversationRecord.interface.ts</title>
<g id="a_node13"><a xlink:href="src/core/conversations/ConversationRecord.interface.ts" xlink:title="ConversationRecord.interface.ts">
<path fill="#ccffcc" stroke="black" d="M724.08,-412.62C724.08,-412.62 576.92,-412.62 576.92,-412.62 573.71,-412.62 570.5,-409.42 570.5,-406.21 570.5,-406.21 570.5,-399.79 570.5,-399.79 570.5,-396.58 573.71,-393.38 576.92,-393.38 576.92,-393.38 724.08,-393.38 724.08,-393.38 727.29,-393.38 730.5,-396.58 730.5,-399.79 730.5,-399.79 730.5,-406.21 730.5,-406.21 730.5,-409.42 727.29,-412.62 724.08,-412.62"/>
<text xml:space="preserve" text-anchor="start" x="578.5" y="-399.62" font-family="Helvetica,sans-Serif" font-size="9.00">ConversationRecord.interface.ts</text>
</a>
</g>
</g>
<!-- src/adapters/file&#45;system/JsonlConversationStore.ts&#45;&gt;src/core/conversations/ConversationRecord.interface.ts -->
<g id="edge7" class="edge">
<title>src/adapters/file&#45;system/JsonlConversationStore.ts&#45;&gt;src/core/conversations/ConversationRecord.interface.ts</title>
<path fill="none" stroke="#000000" stroke-opacity="0.200000" d="M100.5,-450.09C100.5,-429.55 100.5,-384.21 100.5,-384.21 100.5,-384.21 583.5,-384.21 583.5,-384.21 583.5,-384.21 583.5,-385.65 583.5,-385.65"/>
<polygon fill="none" stroke="#000000" stroke-opacity="0.200000" points="581.4,-385.65 583.5,-391.65 585.6,-385.65 581.4,-385.65"/>
</g>
<!-- src/core/conversations/ConversationStore.interface.ts -->
<g id="node14" class="node">
<title>src/core/conversations/ConversationStore.interface.ts</title>
<g id="a_node14"><a xlink:href="src/core/conversations/ConversationStore.interface.ts" xlink:title="ConversationStore.interface.ts">
<path fill="#ccffcc" stroke="black" d="M536.96,-412.62C536.96,-412.62 397.29,-412.62 397.29,-412.62 394.08,-412.62 390.88,-409.42 390.88,-406.21 390.88,-406.21 390.88,-399.79 390.88,-399.79 390.88,-396.58 394.08,-393.38 397.29,-393.38 397.29,-393.38 536.96,-393.38 536.96,-393.38 540.17,-393.38 543.38,-396.58 543.38,-399.79 543.38,-399.79 543.38,-406.21 543.38,-406.21 543.38,-409.42 540.17,-412.62 536.96,-412.62"/>
<text xml:space="preserve" text-anchor="start" x="398.88" y="-399.62" font-family="Helvetica,sans-Serif" font-size="9.00">ConversationStore.interface.ts</text>
</a>
</g>
</g>
<!-- src/adapters/file&#45;system/JsonlConversationStore.ts&#45;&gt;src/core/conversations/ConversationStore.interface.ts -->
<g id="edge8" class="edge">
<title>src/adapters/file&#45;system/JsonlConversationStore.ts&#45;&gt;src/core/conversations/ConversationStore.interface.ts</title>
<path fill="none" stroke="#000000" stroke-opacity="0.200000" d="M165.98,-452.71C248.57,-452.71 379.5,-452.71 379.5,-452.71 379.5,-452.71 379.5,-408.77 379.5,-408.77 379.5,-408.77 383.08,-408.77 383.08,-408.77"/>
<polygon fill="none" stroke="#000000" stroke-opacity="0.200000" points="383.08,-410.88 389.08,-408.78 383.08,-406.68 383.08,-410.88"/>
</g>
<!-- src/core/conversations/ConversationRecord.interface.ts&#45;&gt;src/core/settings/ResponseSettings.interface.ts -->
<g id="edge38" class="edge">
<title>src/core/conversations/ConversationRecord.interface.ts&#45;&gt;src/core/settings/ResponseSettings.interface.ts</title>
<path fill="none" stroke="#000000" stroke-opacity="0.200000" d="M721.5,-393.17C721.5,-372.8 721.5,-327.82 721.5,-327.82 721.5,-327.82 746.72,-327.82 746.72,-327.82"/>
<polygon fill="none" stroke="#000000" stroke-opacity="0.200000" points="746.72,-329.93 752.72,-327.83 746.72,-325.73 746.72,-329.93"/>
</g>
<!-- src/core/conversations/ConversationStore.interface.ts&#45;&gt;src/core/conversations/ConversationRecord.interface.ts -->
<g id="edge41" class="edge">
<title>src/core/conversations/ConversationStore.interface.ts&#45;&gt;src/core/conversations/ConversationRecord.interface.ts</title>
<path fill="none" stroke="#000000" stroke-opacity="0.200000" d="M543.83,-399.79C543.83,-399.79 562.75,-399.79 562.75,-399.79"/>
<polygon fill="none" stroke="#000000" stroke-opacity="0.200000" points="562.75,-401.89 568.75,-399.79 562.75,-397.69 562.75,-401.89"/>
</g>
<!-- src/adapters/memory/simple&#45;linear/SimpleLinearMemory.ts -->
<g id="node15" class="node">
<title>src/adapters/memory/simple&#45;linear/SimpleLinearMemory.ts</title>
<g id="a_node15"><a xlink:href="src/adapters/memory/simple-linear/SimpleLinearMemory.ts" xlink:title="SimpleLinearMemory.ts">
<path fill="#ddfeff" stroke="black" d="M153.83,-379.62C153.83,-379.62 46.42,-379.62 46.42,-379.62 43.21,-379.62 40,-376.42 40,-373.21 40,-373.21 40,-366.79 40,-366.79 40,-363.58 43.21,-360.38 46.42,-360.38 46.42,-360.38 153.83,-360.38 153.83,-360.38 157.04,-360.38 160.25,-363.58 160.25,-366.79 160.25,-366.79 160.25,-373.21 160.25,-373.21 160.25,-376.42 157.04,-379.62 153.83,-379.62"/>
<text xml:space="preserve" text-anchor="start" x="48" y="-366.62" font-family="Helvetica,sans-Serif" font-size="9.00">SimpleLinearMemory.ts</text>
</a>
</g>
</g>
<!-- src/adapters/memory/simple&#45;linear/SimpleLinearMemory.ts&#45;&gt;src/core/model/ModelClient.interface.ts -->
<g id="edge12" class="edge">
<title>src/adapters/memory/simple&#45;linear/SimpleLinearMemory.ts&#45;&gt;src/core/model/ModelClient.interface.ts</title>
<path fill="none" stroke="#000000" stroke-opacity="0.200000" d="M160.62,-368.07C280.88,-368.07 538.5,-368.07 538.5,-368.07 538.5,-368.07 538.5,-101.21 538.5,-101.21 538.5,-101.21 581.74,-101.21 581.74,-101.21"/>
<polygon fill="none" stroke="#000000" stroke-opacity="0.200000" points="581.74,-103.31 587.74,-101.21 581.74,-99.11 581.74,-103.31"/>
</g>
<!-- src/adapters/memory/simple&#45;linear/SimpleLinearMemory.ts&#45;&gt;src/core/conversations/ConversationRecord.interface.ts -->
<g id="edge9" class="edge">
<title>src/adapters/memory/simple&#45;linear/SimpleLinearMemory.ts&#45;&gt;src/core/conversations/ConversationRecord.interface.ts</title>
<path fill="none" stroke="#000000" stroke-opacity="0.200000" d="M160.69,-371.93C288.57,-371.93 574.5,-371.93 574.5,-371.93 574.5,-371.93 574.5,-385.65 574.5,-385.65"/>
<polygon fill="none" stroke="#000000" stroke-opacity="0.200000" points="572.4,-385.65 574.5,-391.65 576.6,-385.65 572.4,-385.65"/>
</g>
<!-- src/core/conversations/ConversationRuntime.interface.ts -->
<g id="node16" class="node">
<title>src/core/conversations/ConversationRuntime.interface.ts</title>
<g id="a_node16"><a xlink:href="src/core/conversations/ConversationRuntime.interface.ts" xlink:title="ConversationRuntime.interface.ts">
<path fill="#ccffcc" stroke="black" d="M544.08,-460.62C544.08,-460.62 390.17,-460.62 390.17,-460.62 386.96,-460.62 383.75,-457.42 383.75,-454.21 383.75,-454.21 383.75,-447.79 383.75,-447.79 383.75,-444.58 386.96,-441.38 390.17,-441.38 390.17,-441.38 544.08,-441.38 544.08,-441.38 547.29,-441.38 550.5,-444.58 550.5,-447.79 550.5,-447.79 550.5,-454.21 550.5,-454.21 550.5,-457.42 547.29,-460.62 544.08,-460.62"/>
<text xml:space="preserve" text-anchor="start" x="391.75" y="-447.62" font-family="Helvetica,sans-Serif" font-size="9.00">ConversationRuntime.interface.ts</text>
</a>
</g>
</g>
<!-- src/adapters/memory/simple&#45;linear/SimpleLinearMemory.ts&#45;&gt;src/core/conversations/ConversationRuntime.interface.ts -->
<g id="edge10" class="edge">
<title>src/adapters/memory/simple&#45;linear/SimpleLinearMemory.ts&#45;&gt;src/core/conversations/ConversationRuntime.interface.ts</title>
<path fill="none" stroke="#000000" stroke-opacity="0.200000" d="M160.58,-375.77C245.14,-375.77 388.5,-375.77 388.5,-375.77 388.5,-375.77 388.5,-433.65 388.5,-433.65"/>
<polygon fill="none" stroke="#000000" stroke-opacity="0.200000" points="386.4,-433.65 388.5,-439.65 390.6,-433.65 386.4,-433.65"/>
</g>
<!-- src/core/memory/AgentMemory.interface.ts -->
<g id="node17" class="node">
<title>src/core/memory/AgentMemory.interface.ts</title>
<g id="a_node17"><a xlink:href="src/core/memory/AgentMemory.interface.ts" xlink:title="AgentMemory.interface.ts">
<path fill="#ccffcc" stroke="black" d="M526.46,-113.62C526.46,-113.62 407.79,-113.62 407.79,-113.62 404.58,-113.62 401.38,-110.42 401.38,-107.21 401.38,-107.21 401.38,-100.79 401.38,-100.79 401.38,-97.58 404.58,-94.38 407.79,-94.38 407.79,-94.38 526.46,-94.38 526.46,-94.38 529.67,-94.38 532.88,-97.58 532.88,-100.79 532.88,-100.79 532.88,-107.21 532.88,-107.21 532.88,-110.42 529.67,-113.62 526.46,-113.62"/>
<text xml:space="preserve" text-anchor="start" x="409.38" y="-100.62" font-family="Helvetica,sans-Serif" font-size="9.00">AgentMemory.interface.ts</text>
</a>
</g>
</g>
<!-- src/adapters/memory/simple&#45;linear/SimpleLinearMemory.ts&#45;&gt;src/core/memory/AgentMemory.interface.ts -->
<g id="edge11" class="edge">
<title>src/adapters/memory/simple&#45;linear/SimpleLinearMemory.ts&#45;&gt;src/core/memory/AgentMemory.interface.ts</title>
<path fill="none" stroke="#000000" stroke-opacity="0.200000" d="M160.38,-364.23C252.68,-364.23 418.5,-364.23 418.5,-364.23 418.5,-364.23 418.5,-121.4 418.5,-121.4"/>
<polygon fill="none" stroke="#000000" stroke-opacity="0.200000" points="420.6,-121.4 418.5,-115.4 416.4,-121.4 420.6,-121.4"/>
</g>
<!-- src/core/conversations/ConversationRuntime.interface.ts&#45;&gt;src/core/conversations/ConversationRecord.interface.ts -->
<g id="edge40" class="edge">
<title>src/core/conversations/ConversationRuntime.interface.ts&#45;&gt;src/core/conversations/ConversationRecord.interface.ts</title>
<path fill="none" stroke="#000000" stroke-opacity="0.200000" d="M548.5,-441.06C548.5,-427.86 548.5,-406.21 548.5,-406.21 548.5,-406.21 562.62,-406.21 562.62,-406.21"/>
<polygon fill="none" stroke="#000000" stroke-opacity="0.200000" points="562.62,-408.31 568.62,-406.21 562.62,-404.11 562.62,-408.31"/>
</g>
<!-- src/core/conversations/ConversationRuntime.interface.ts&#45;&gt;src/core/settings/ResponseSettings.interface.ts -->
<g id="edge39" class="edge">
<title>src/core/conversations/ConversationRuntime.interface.ts&#45;&gt;src/core/settings/ResponseSettings.interface.ts</title>
<path fill="none" stroke="#000000" stroke-opacity="0.200000" d="M545.5,-441.13C545.5,-411.5 545.5,-325.27 545.5,-325.27 545.5,-325.27 746.72,-325.27 746.72,-325.27"/>
<polygon fill="none" stroke="#000000" stroke-opacity="0.200000" points="746.72,-327.38 752.72,-325.28 746.72,-323.18 746.72,-327.38"/>
</g>
<!-- src/core/memory/AgentMemory.interface.ts&#45;&gt;src/core/model/ModelClient.interface.ts -->
<g id="edge42" class="edge">
<title>src/core/memory/AgentMemory.interface.ts&#45;&gt;src/core/model/ModelClient.interface.ts</title>
<path fill="none" stroke="#000000" stroke-opacity="0.200000" d="M533.33,-97.79C533.33,-97.79 581.77,-97.79 581.77,-97.79"/>
<polygon fill="none" stroke="#000000" stroke-opacity="0.200000" points="581.77,-99.89 587.77,-97.79 581.77,-95.69 581.77,-99.89"/>
</g>
<!-- src/core/memory/AgentMemory.interface.ts&#45;&gt;src/core/tools/Tool.interface.ts -->
<g id="edge44" class="edge">
<title>src/core/memory/AgentMemory.interface.ts&#45;&gt;src/core/tools/Tool.interface.ts</title>
<path fill="none" stroke="#000000" stroke-opacity="0.200000" d="M533.16,-107.62C632.14,-107.62 807.5,-107.62 807.5,-107.62 807.5,-107.62 807.5,-149.41 807.5,-149.41"/>
<polygon fill="none" stroke="#000000" stroke-opacity="0.200000" points="805.4,-149.41 807.5,-155.41 809.6,-149.41 805.4,-149.41"/>
</g>
<!-- src/core/memory/AgentMemory.interface.ts&#45;&gt;src/core/settings/ResponseSettings.interface.ts -->
<g id="edge43" class="edge">
<title>src/core/memory/AgentMemory.interface.ts&#45;&gt;src/core/settings/ResponseSettings.interface.ts</title>
<path fill="none" stroke="#000000" stroke-opacity="0.200000" d="M533.34,-110.62C621.25,-110.62 765.5,-110.62 765.5,-110.62 765.5,-110.62 765.5,-306.48 765.5,-306.48"/>
<polygon fill="none" stroke="#000000" stroke-opacity="0.200000" points="763.4,-306.48 765.5,-312.48 767.6,-306.48 763.4,-306.48"/>
</g>
<!-- src/adapters/tools/MathTool.ts -->
<g id="node18" class="node">
<title>src/adapters/tools/MathTool.ts</title>
<g id="a_node18"><a xlink:href="src/adapters/tools/MathTool.ts" xlink:title="MathTool.ts">
<path fill="#ddfeff" stroke="black" d="M126.83,-51.62C126.83,-51.62 73.42,-51.62 73.42,-51.62 70.21,-51.62 67,-48.42 67,-45.21 67,-45.21 67,-38.79 67,-38.79 67,-35.58 70.21,-32.38 73.42,-32.38 73.42,-32.38 126.83,-32.38 126.83,-32.38 130.04,-32.38 133.25,-35.58 133.25,-38.79 133.25,-38.79 133.25,-45.21 133.25,-45.21 133.25,-48.42 130.04,-51.62 126.83,-51.62"/>
<text xml:space="preserve" text-anchor="start" x="75" y="-38.62" font-family="Helvetica,sans-Serif" font-size="9.00">MathTool.ts</text>
</a>
</g>
</g>
<!-- src/adapters/tools/MathTool.ts&#45;&gt;src/core/tools/Tool.interface.ts -->
<g id="edge13" class="edge">
<title>src/adapters/tools/MathTool.ts&#45;&gt;src/core/tools/Tool.interface.ts</title>
<path fill="none" stroke="#000000" stroke-opacity="0.200000" d="M133.38,-42C278.79,-42 851.5,-42 851.5,-42 851.5,-42 851.5,-149.68 851.5,-149.68"/>
<polygon fill="none" stroke="#000000" stroke-opacity="0.200000" points="849.4,-149.68 851.5,-155.68 853.6,-149.68 849.4,-149.68"/>
</g>
<!-- src/apps/cli/CliRuntime.interface.ts -->
<g id="node20" class="node">
<title>src/apps/cli/CliRuntime.interface.ts</title>
<g id="a_node20"><a xlink:href="src/apps/cli/CliRuntime.interface.ts" xlink:title="CliRuntime.interface.ts">
<path fill="#ccffcc" stroke="black" d="M338.96,-685.62C338.96,-685.62 233.04,-685.62 233.04,-685.62 229.83,-685.62 226.62,-682.42 226.62,-679.21 226.62,-679.21 226.62,-672.79 226.62,-672.79 226.62,-669.58 229.83,-666.38 233.04,-666.38 233.04,-666.38 338.96,-666.38 338.96,-666.38 342.17,-666.38 345.38,-669.58 345.38,-672.79 345.38,-672.79 345.38,-679.21 345.38,-679.21 345.38,-682.42 342.17,-685.62 338.96,-685.62"/>
<text xml:space="preserve" text-anchor="start" x="234.62" y="-672.62" font-family="Helvetica,sans-Serif" font-size="9.00">CliRuntime.interface.ts</text>
</a>
</g>
</g>
<!-- src/apps/cli/CliRuntime.interface.ts&#45;&gt;src/core/conversations/ConversationRecord.interface.ts -->
<g id="edge16" class="edge">
<title>src/apps/cli/CliRuntime.interface.ts&#45;&gt;src/core/conversations/ConversationRecord.interface.ts</title>
<path fill="none" stroke="#000000" stroke-opacity="0.200000" d="M345.78,-677.92C449.19,-677.92 650.5,-677.92 650.5,-677.92 650.5,-677.92 650.5,-420.62 650.5,-420.62"/>
<polygon fill="none" stroke="#000000" stroke-opacity="0.200000" points="652.6,-420.62 650.5,-414.62 648.4,-420.62 652.6,-420.62"/>
</g>
<!-- src/apps/cli/CliRuntime.interface.ts&#45;&gt;src/core/conversations/ConversationRuntime.interface.ts -->
<g id="edge17" class="edge">
<title>src/apps/cli/CliRuntime.interface.ts&#45;&gt;src/core/conversations/ConversationRuntime.interface.ts</title>
<path fill="none" stroke="#000000" stroke-opacity="0.200000" d="M334.5,-665.93C334.5,-622.71 334.5,-455.04 334.5,-455.04 334.5,-455.04 375.99,-455.04 375.99,-455.04"/>
<polygon fill="none" stroke="#000000" stroke-opacity="0.200000" points="375.99,-457.14 381.99,-455.04 375.99,-452.94 375.99,-457.14"/>
</g>
<!-- src/core/agent/events.ts -->
<g id="node21" class="node">
<title>src/core/agent/events.ts</title>
<g id="a_node21"><a xlink:href="src/core/agent/events.ts" xlink:title="events.ts">
<path fill="#ddfeff" stroke="black" d="M489.33,-254.62C489.33,-254.62 444.92,-254.62 444.92,-254.62 441.71,-254.62 438.5,-251.42 438.5,-248.21 438.5,-248.21 438.5,-241.79 438.5,-241.79 438.5,-238.58 441.71,-235.38 444.92,-235.38 444.92,-235.38 489.33,-235.38 489.33,-235.38 492.54,-235.38 495.75,-238.58 495.75,-241.79 495.75,-241.79 495.75,-248.21 495.75,-248.21 495.75,-251.42 492.54,-254.62 489.33,-254.62"/>
<text xml:space="preserve" text-anchor="start" x="446.5" y="-241.62" font-family="Helvetica,sans-Serif" font-size="9.00">events.ts</text>
</a>
</g>
</g>
<!-- src/apps/cli/CliRuntime.interface.ts&#45;&gt;src/core/agent/events.ts -->
<g id="edge14" class="edge">
<title>src/apps/cli/CliRuntime.interface.ts&#45;&gt;src/core/agent/events.ts</title>
<path fill="none" stroke="#000000" stroke-opacity="0.200000" d="M345.85,-670.23C360.22,-670.23 371.5,-670.23 371.5,-670.23 371.5,-670.23 371.5,-249.81 371.5,-249.81 371.5,-249.81 430.66,-249.81 430.66,-249.81"/>
<polygon fill="none" stroke="#000000" stroke-opacity="0.200000" points="430.66,-251.91 436.66,-249.81 430.66,-247.71 430.66,-251.91"/>
</g>
<!-- src/apps/cli/CliRuntime.interface.ts&#45;&gt;src/core/config/AgentConfig.schema.ts -->
<g id="edge15" class="edge">
<title>src/apps/cli/CliRuntime.interface.ts&#45;&gt;src/core/config/AgentConfig.schema.ts</title>
<path fill="none" stroke="#000000" stroke-opacity="0.200000" d="M345.64,-681.77C514.8,-681.77 985.5,-681.77 985.5,-681.77 985.5,-681.77 985.5,-547.47 985.5,-547.47"/>
<polygon fill="none" stroke="#000000" stroke-opacity="0.200000" points="987.6,-547.47 985.5,-541.47 983.4,-547.47 987.6,-547.47"/>
</g>
<!-- src/apps/cli/CliRuntime.interface.ts&#45;&gt;src/core/settings/ResponseSettings.interface.ts -->
<g id="edge18" class="edge">
<title>src/apps/cli/CliRuntime.interface.ts&#45;&gt;src/core/settings/ResponseSettings.interface.ts</title>
<path fill="none" stroke="#000000" stroke-opacity="0.200000" d="M345.7,-674.08C362.12,-674.08 375.5,-674.08 375.5,-674.08 375.5,-674.08 375.5,-322.73 375.5,-322.73 375.5,-322.73 746.61,-322.73 746.61,-322.73"/>
<polygon fill="none" stroke="#000000" stroke-opacity="0.200000" points="746.61,-324.83 752.61,-322.73 746.61,-320.63 746.61,-324.83"/>
</g>
<!-- src/core/settings/ResponseSettings.interface.ts&#45;&gt;src/core/config/AgentConfig.schema.ts -->
<g id="edge47" class="edge">
<title>src/core/settings/ResponseSettings.interface.ts&#45;&gt;src/core/config/AgentConfig.schema.ts</title>
<path fill="none" stroke="#000000" stroke-opacity="0.200000" d="M904.82,-324C944.68,-324 985.5,-324 985.5,-324 985.5,-324 985.5,-512.55 985.5,-512.55"/>
<polygon fill="none" stroke="#000000" stroke-opacity="0.200000" points="983.4,-512.55 985.5,-518.55 987.6,-512.55 983.4,-512.55"/>
</g>
<!-- src/apps/cli/auth.ts -->
<g id="node24" class="node">
<title>src/apps/cli/auth.ts</title>
<g id="a_node24"><a xlink:href="src/apps/cli/auth.ts" xlink:title="auth.ts">
<path fill="#ddfeff" stroke="black" d="M120.71,-637.62C120.71,-637.62 79.54,-637.62 79.54,-637.62 76.33,-637.62 73.12,-634.42 73.12,-631.21 73.12,-631.21 73.12,-624.79 73.12,-624.79 73.12,-621.58 76.33,-618.38 79.54,-618.38 79.54,-618.38 120.71,-618.38 120.71,-618.38 123.92,-618.38 127.12,-621.58 127.12,-624.79 127.12,-624.79 127.12,-631.21 127.12,-631.21 127.12,-634.42 123.92,-637.62 120.71,-637.62"/>
<text xml:space="preserve" text-anchor="start" x="84" y="-624.62" font-family="Helvetica,sans-Serif" font-size="9.00">auth.ts</text>
</a>
</g>
</g>
<!-- src/apps/cli/auth.ts&#45;&gt;src/core/auth/TokenStore.interface.ts -->
<g id="edge20" class="edge">
<title>src/apps/cli/auth.ts&#45;&gt;src/core/auth/TokenStore.interface.ts</title>
<path fill="none" stroke="#000000" stroke-opacity="0.200000" d="M127.56,-631.21C157.58,-631.21 201.5,-631.21 201.5,-631.21 201.5,-631.21 201.5,-344.81 201.5,-344.81 201.5,-344.81 218.43,-344.81 218.43,-344.81"/>
<polygon fill="none" stroke="#000000" stroke-opacity="0.200000" points="218.43,-346.91 224.43,-344.81 218.43,-342.71 218.43,-346.91"/>
</g>
<!-- src/apps/cli/auth.ts&#45;&gt;src/core/auth/OAuthFlow.interface.ts -->
<g id="edge19" class="edge">
<title>src/apps/cli/auth.ts&#45;&gt;src/core/auth/OAuthFlow.interface.ts</title>
<path fill="none" stroke="#000000" stroke-opacity="0.200000" d="M127.45,-624.79C152.76,-624.79 186.5,-624.79 186.5,-624.79 186.5,-624.79 186.5,-308 186.5,-308 186.5,-308 219.17,-308 219.17,-308"/>
<polygon fill="none" stroke="#000000" stroke-opacity="0.200000" points="219.17,-310.1 225.17,-308 219.17,-305.9 219.17,-310.1"/>
</g>
<!-- src/apps/cli/commands.ts -->
<g id="node25" class="node">
<title>src/apps/cli/commands.ts</title>
<g id="a_node25"><a xlink:href="src/apps/cli/commands.ts" xlink:title="commands.ts">
<path fill="#ddfeff" stroke="black" d="M132.46,-765.62C132.46,-765.62 67.79,-765.62 67.79,-765.62 64.58,-765.62 61.38,-762.42 61.38,-759.21 61.38,-759.21 61.38,-752.79 61.38,-752.79 61.38,-749.58 64.58,-746.38 67.79,-746.38 67.79,-746.38 132.46,-746.38 132.46,-746.38 135.67,-746.38 138.88,-749.58 138.88,-752.79 138.88,-752.79 138.88,-759.21 138.88,-759.21 138.88,-762.42 135.67,-765.62 132.46,-765.62"/>
<text xml:space="preserve" text-anchor="start" x="69.38" y="-752.62" font-family="Helvetica,sans-Serif" font-size="9.00">commands.ts</text>
</a>
</g>
</g>
<!-- src/apps/cli/commands.ts&#45;&gt;src/apps/cli/CliRuntime.interface.ts -->
<g id="edge21" class="edge">
<title>src/apps/cli/commands.ts&#45;&gt;src/apps/cli/CliRuntime.interface.ts</title>
<path fill="none" stroke="#000000" stroke-opacity="0.200000" d="M138.99,-756C193.34,-756 285.5,-756 285.5,-756 285.5,-756 285.5,-693.32 285.5,-693.32"/>
<polygon fill="none" stroke="#000000" stroke-opacity="0.200000" points="287.6,-693.32 285.5,-687.32 283.4,-693.32 287.6,-693.32"/>
</g>
<!-- src/apps/cli/composeCliRuntime.ts -->
<g id="node26" class="node">
<title>src/apps/cli/composeCliRuntime.ts</title>
<g id="a_node26"><a xlink:href="src/apps/cli/composeCliRuntime.ts" xlink:title="composeCliRuntime.ts">
<path fill="#ddfeff" stroke="black" d="M151.96,-797.62C151.96,-797.62 48.29,-797.62 48.29,-797.62 45.08,-797.62 41.88,-794.42 41.88,-791.21 41.88,-791.21 41.88,-784.79 41.88,-784.79 41.88,-781.58 45.08,-778.38 48.29,-778.38 48.29,-778.38 151.96,-778.38 151.96,-778.38 155.17,-778.38 158.38,-781.58 158.38,-784.79 158.38,-784.79 158.38,-791.21 158.38,-791.21 158.38,-794.42 155.17,-797.62 151.96,-797.62"/>
<text xml:space="preserve" text-anchor="start" x="49.88" y="-784.62" font-family="Helvetica,sans-Serif" font-size="9.00">composeCliRuntime.ts</text>
</a>
</g>
</g>
<!-- src/apps/cli/composeCliRuntime.ts&#45;&gt;src/apps/cli/CliRuntime.interface.ts -->
<g id="edge22" class="edge">
<title>src/apps/cli/composeCliRuntime.ts&#45;&gt;src/apps/cli/CliRuntime.interface.ts</title>
<path fill="none" stroke="#000000" stroke-opacity="0.200000" d="M158.7,-788C219.41,-788 305.5,-788 305.5,-788 305.5,-788 305.5,-693.45 305.5,-693.45"/>
<polygon fill="none" stroke="#000000" stroke-opacity="0.200000" points="307.6,-693.45 305.5,-687.45 303.4,-693.45 307.6,-693.45"/>
</g>
<!-- src/apps/cli/conversationHistory.ts -->
<g id="node27" class="node">
<title>src/apps/cli/conversationHistory.ts</title>
<g id="a_node27"><a xlink:href="src/apps/cli/conversationHistory.ts" xlink:title="conversationHistory.ts">
<path fill="#ddfeff" stroke="black" d="M151.21,-893.62C151.21,-893.62 49.04,-893.62 49.04,-893.62 45.83,-893.62 42.62,-890.42 42.62,-887.21 42.62,-887.21 42.62,-880.79 42.62,-880.79 42.62,-877.58 45.83,-874.38 49.04,-874.38 49.04,-874.38 151.21,-874.38 151.21,-874.38 154.42,-874.38 157.62,-877.58 157.62,-880.79 157.62,-880.79 157.62,-887.21 157.62,-887.21 157.62,-890.42 154.42,-893.62 151.21,-893.62"/>
<text xml:space="preserve" text-anchor="start" x="50.62" y="-880.62" font-family="Helvetica,sans-Serif" font-size="9.00">conversationHistory.ts</text>
</a>
</g>
</g>
<!-- src/apps/cli/conversationHistory.ts&#45;&gt;src/apps/cli/CliRuntime.interface.ts -->
<g id="edge23" class="edge">
<title>src/apps/cli/conversationHistory.ts&#45;&gt;src/apps/cli/CliRuntime.interface.ts</title>
<path fill="none" stroke="#000000" stroke-opacity="0.200000" d="M157.87,-884C224.65,-884 325.5,-884 325.5,-884 325.5,-884 325.5,-693.55 325.5,-693.55"/>
<polygon fill="none" stroke="#000000" stroke-opacity="0.200000" points="327.6,-693.55 325.5,-687.55 323.4,-693.55 327.6,-693.55"/>
</g>
<!-- src/apps/cli/conversationSelection.ts -->
<g id="node28" class="node">
<title>src/apps/cli/conversationSelection.ts</title>
<g id="a_node28"><a xlink:href="src/apps/cli/conversationSelection.ts" xlink:title="conversationSelection.ts">
<path fill="#ddfeff" stroke="black" d="M156.83,-701.62C156.83,-701.62 43.42,-701.62 43.42,-701.62 40.21,-701.62 37,-698.42 37,-695.21 37,-695.21 37,-688.79 37,-688.79 37,-685.58 40.21,-682.38 43.42,-682.38 43.42,-682.38 156.83,-682.38 156.83,-682.38 160.04,-682.38 163.25,-685.58 163.25,-688.79 163.25,-688.79 163.25,-695.21 163.25,-695.21 163.25,-698.42 160.04,-701.62 156.83,-701.62"/>
<text xml:space="preserve" text-anchor="start" x="45" y="-688.62" font-family="Helvetica,sans-Serif" font-size="9.00">conversationSelection.ts</text>
</a>
</g>
</g>
<!-- src/apps/cli/conversationSelection.ts&#45;&gt;src/apps/cli/CliRuntime.interface.ts -->
<g id="edge24" class="edge">
<title>src/apps/cli/conversationSelection.ts&#45;&gt;src/apps/cli/CliRuntime.interface.ts</title>
<path fill="none" stroke="#000000" stroke-opacity="0.200000" d="M163.48,-693.62C203.04,-693.62 246.5,-693.62 246.5,-693.62 246.5,-693.62 246.5,-692.87 246.5,-692.87"/>
<polygon fill="none" stroke="#000000" stroke-opacity="0.200000" points="248.6,-693.56 246.5,-687.56 244.4,-693.56 248.6,-693.56"/>
</g>
<!-- src/apps/cli/createSettingsUpdater.ts -->
<g id="node29" class="node">
<title>src/apps/cli/createSettingsUpdater.ts</title>
<g id="a_node29"><a xlink:href="src/apps/cli/createSettingsUpdater.ts" xlink:title="createSettingsUpdater.ts">
<path fill="#ddfeff" stroke="black" d="M158.33,-669.62C158.33,-669.62 41.92,-669.62 41.92,-669.62 38.71,-669.62 35.5,-666.42 35.5,-663.21 35.5,-663.21 35.5,-656.79 35.5,-656.79 35.5,-653.58 38.71,-650.38 41.92,-650.38 41.92,-650.38 158.33,-650.38 158.33,-650.38 161.54,-650.38 164.75,-653.58 164.75,-656.79 164.75,-656.79 164.75,-663.21 164.75,-663.21 164.75,-666.42 161.54,-669.62 158.33,-669.62"/>
<text xml:space="preserve" text-anchor="start" x="43.5" y="-656.62" font-family="Helvetica,sans-Serif" font-size="9.00">createSettingsUpdater.ts</text>
</a>
</g>
</g>
<!-- src/apps/cli/createSettingsUpdater.ts&#45;&gt;src/core/memory/AgentMemory.interface.ts -->
<g id="edge25" class="edge">
<title>src/apps/cli/createSettingsUpdater.ts&#45;&gt;src/core/memory/AgentMemory.interface.ts</title>
<path fill="none" stroke="#000000" stroke-opacity="0.200000" d="M164.94,-655.71C173.57,-655.71 179.5,-655.71 179.5,-655.71 179.5,-655.71 179.5,-108.5 179.5,-108.5 179.5,-108.5 393.62,-108.5 393.62,-108.5"/>
<polygon fill="none" stroke="#000000" stroke-opacity="0.200000" points="393.62,-110.6 399.62,-108.5 393.62,-106.4 393.62,-110.6"/>
</g>
<!-- src/apps/cli/createSettingsUpdater.ts&#45;&gt;src/apps/cli/CliRuntime.interface.ts -->
<g id="edge26" class="edge">
<title>src/apps/cli/createSettingsUpdater.ts&#45;&gt;src/apps/cli/CliRuntime.interface.ts</title>
<path fill="none" stroke="#000000" stroke-opacity="0.200000" d="M165.19,-661.04C200.7,-661.04 237.5,-661.04 237.5,-661.04 237.5,-661.04 237.5,-661.55 237.5,-661.55"/>
<polygon fill="none" stroke="#000000" stroke-opacity="0.200000" points="235.4,-658.59 237.5,-664.59 239.6,-658.59 235.4,-658.59"/>
</g>
<!-- src/apps/cli/main.ts -->
<g id="node30" class="node">
<title>src/apps/cli/main.ts</title>
<g id="a_node30"><a xlink:href="src/apps/cli/main.ts" xlink:title="main.ts">
<path fill="#ddfeff" stroke="black" d="M120.71,-829.62C120.71,-829.62 79.54,-829.62 79.54,-829.62 76.33,-829.62 73.12,-826.42 73.12,-823.21 73.12,-823.21 73.12,-816.79 73.12,-816.79 73.12,-813.58 76.33,-810.38 79.54,-810.38 79.54,-810.38 120.71,-810.38 120.71,-810.38 123.92,-810.38 127.12,-813.58 127.12,-816.79 127.12,-816.79 127.12,-823.21 127.12,-823.21 127.12,-826.42 123.92,-829.62 120.71,-829.62"/>
<text xml:space="preserve" text-anchor="start" x="83.25" y="-816.62" font-family="Helvetica,sans-Serif" font-size="9.00">main.ts</text>
</a>
</g>
</g>
<!-- src/apps/cli/readline.ts -->
<g id="node31" class="node">
<title>src/apps/cli/readline.ts</title>
<g id="a_node31"><a xlink:href="src/apps/cli/readline.ts" xlink:title="readline.ts">
<path fill="#ddfeff" stroke="black" d="M125.33,-861.62C125.33,-861.62 74.92,-861.62 74.92,-861.62 71.71,-861.62 68.5,-858.42 68.5,-855.21 68.5,-855.21 68.5,-848.79 68.5,-848.79 68.5,-845.58 71.71,-842.38 74.92,-842.38 74.92,-842.38 125.33,-842.38 125.33,-842.38 128.54,-842.38 131.75,-845.58 131.75,-848.79 131.75,-848.79 131.75,-855.21 131.75,-855.21 131.75,-858.42 128.54,-861.62 125.33,-861.62"/>
<text xml:space="preserve" text-anchor="start" x="76.5" y="-848.62" font-family="Helvetica,sans-Serif" font-size="9.00">readline.ts</text>
</a>
</g>
</g>
<!-- src/apps/cli/render.ts -->
<g id="node32" class="node">
<title>src/apps/cli/render.ts</title>
<g id="a_node32"><a xlink:href="src/apps/cli/render.ts" xlink:title="render.ts">
<path fill="#ddfeff" stroke="black" d="M121.96,-733.62C121.96,-733.62 78.29,-733.62 78.29,-733.62 75.08,-733.62 71.88,-730.42 71.88,-727.21 71.88,-727.21 71.88,-720.79 71.88,-720.79 71.88,-717.58 75.08,-714.38 78.29,-714.38 78.29,-714.38 121.96,-714.38 121.96,-714.38 125.17,-714.38 128.38,-717.58 128.38,-720.79 128.38,-720.79 128.38,-727.21 128.38,-727.21 128.38,-730.42 125.17,-733.62 121.96,-733.62"/>
<text xml:space="preserve" text-anchor="start" x="79.88" y="-720.62" font-family="Helvetica,sans-Serif" font-size="9.00">render.ts</text>
</a>
</g>
</g>
<!-- src/apps/cli/render.ts&#45;&gt;src/apps/cli/CliRuntime.interface.ts -->
<g id="edge27" class="edge">
<title>src/apps/cli/render.ts&#45;&gt;src/apps/cli/CliRuntime.interface.ts</title>
<path fill="none" stroke="#000000" stroke-opacity="0.200000" d="M128.73,-724C176.29,-724 266.5,-724 266.5,-724 266.5,-724 266.5,-693.23 266.5,-693.23"/>
<polygon fill="none" stroke="#000000" stroke-opacity="0.200000" points="268.6,-693.23 266.5,-687.23 264.4,-693.23 268.6,-693.23"/>
</g>
<!-- src/core/agent/Agent.ts -->
<g id="node33" class="node">
<title>src/core/agent/Agent.ts</title>
<g id="a_node33"><a xlink:href="src/core/agent/Agent.ts" xlink:title="Agent.ts">
<path fill="#ddfeff" stroke="black" d="M306.71,-254.62C306.71,-254.62 265.29,-254.62 265.29,-254.62 262.08,-254.62 258.88,-251.42 258.88,-248.21 258.88,-248.21 258.88,-241.79 258.88,-241.79 258.88,-238.58 262.08,-235.38 265.29,-235.38 265.29,-235.38 306.71,-235.38 306.71,-235.38 309.92,-235.38 313.12,-238.58 313.12,-241.79 313.12,-241.79 313.12,-248.21 313.12,-248.21 313.12,-251.42 309.92,-254.62 306.71,-254.62"/>
<text xml:space="preserve" text-anchor="start" x="266.88" y="-241.62" font-family="Helvetica,sans-Serif" font-size="9.00">Agent.ts</text>
</a>
</g>
</g>
<!-- src/core/agent/Agent.ts&#45;&gt;src/core/model/ModelClient.interface.ts -->
<g id="edge29" class="edge">
<title>src/core/agent/Agent.ts&#45;&gt;src/core/model/ModelClient.interface.ts</title>
<path fill="none" stroke="#000000" stroke-opacity="0.200000" d="M272.5,-234.97C272.5,-200.96 272.5,-92.12 272.5,-92.12 272.5,-92.12 581.83,-92.12 581.83,-92.12"/>
<polygon fill="none" stroke="#000000" stroke-opacity="0.200000" points="581.83,-94.23 587.83,-92.13 581.83,-90.03 581.83,-94.23"/>
</g>
<!-- src/core/agent/Agent.ts&#45;&gt;src/core/memory/AgentMemory.interface.ts -->
<g id="edge28" class="edge">
<title>src/core/agent/Agent.ts&#45;&gt;src/core/memory/AgentMemory.interface.ts</title>
<path fill="none" stroke="#000000" stroke-opacity="0.200000" d="M313.32,-240.19C349.97,-240.19 410.5,-240.19 410.5,-240.19 410.5,-240.19 410.5,-121.31 410.5,-121.31"/>
<polygon fill="none" stroke="#000000" stroke-opacity="0.200000" points="412.6,-121.31 410.5,-115.31 408.4,-121.31 412.6,-121.31"/>
</g>
<!-- src/core/agent/Agent.ts&#45;&gt;src/core/tools/Tool.interface.ts -->
<g id="edge30" class="edge">
<title>src/core/agent/Agent.ts&#45;&gt;src/core/tools/Tool.interface.ts</title>
<path fill="none" stroke="#000000" stroke-opacity="0.200000" d="M299.5,-235.03C299.5,-224.22 299.5,-208.5 299.5,-208.5 299.5,-208.5 844.5,-208.5 844.5,-208.5 844.5,-208.5 844.5,-184.56 844.5,-184.56"/>
<polygon fill="none" stroke="#000000" stroke-opacity="0.200000" points="846.6,-184.56 844.5,-178.56 842.4,-184.56 846.6,-184.56"/>
</g>
<!-- src/core/agent/Agent.ts&#45;&gt;src/core/agent/events.ts -->
<g id="edge32" class="edge">
<title>src/core/agent/Agent.ts&#45;&gt;src/core/agent/events.ts</title>
<path fill="none" stroke="#000000" stroke-opacity="0.200000" d="M313.51,-245C313.51,-245 430.64,-245 430.64,-245"/>
<polygon fill="none" stroke="#000000" stroke-opacity="0.200000" points="430.64,-247.1 436.64,-245 430.64,-242.9 430.64,-247.1"/>
</g>
<!-- src/core/tools/ToolRuntime.interface.ts -->
<g id="node34" class="node">
<title>src/core/tools/ToolRuntime.interface.ts</title>
<g id="a_node34"><a xlink:href="src/core/tools/ToolRuntime.interface.ts" xlink:title="ToolRuntime.interface.ts">
<path fill="#ccffcc" stroke="black" d="M706.46,-176.62C706.46,-176.62 594.54,-176.62 594.54,-176.62 591.33,-176.62 588.12,-173.42 588.12,-170.21 588.12,-170.21 588.12,-163.79 588.12,-163.79 588.12,-160.58 591.33,-157.38 594.54,-157.38 594.54,-157.38 706.46,-157.38 706.46,-157.38 709.67,-157.38 712.88,-160.58 712.88,-163.79 712.88,-163.79 712.88,-170.21 712.88,-170.21 712.88,-173.42 709.67,-176.62 706.46,-176.62"/>
<text xml:space="preserve" text-anchor="start" x="596.12" y="-163.62" font-family="Helvetica,sans-Serif" font-size="9.00">ToolRuntime.interface.ts</text>
</a>
</g>
</g>
<!-- src/core/agent/Agent.ts&#45;&gt;src/core/tools/ToolRuntime.interface.ts -->
<g id="edge31" class="edge">
<title>src/core/agent/Agent.ts&#45;&gt;src/core/tools/ToolRuntime.interface.ts</title>
<path fill="none" stroke="#000000" stroke-opacity="0.200000" d="M285.5,-235.02C285.5,-212.74 285.5,-160.88 285.5,-160.88 285.5,-160.88 580.24,-160.88 580.24,-160.88"/>
<polygon fill="none" stroke="#000000" stroke-opacity="0.200000" points="580.24,-162.98 586.24,-160.88 580.24,-158.78 580.24,-162.98"/>
</g>
<!-- src/core/tools/ToolRuntime.interface.ts&#45;&gt;src/core/tools/Tool.interface.ts -->
<g id="edge50" class="edge">
<title>src/core/tools/ToolRuntime.interface.ts&#45;&gt;src/core/tools/Tool.interface.ts</title>
<path fill="none" stroke="#000000" stroke-opacity="0.200000" d="M713.15,-167C713.15,-167 778.37,-167 778.37,-167"/>
<polygon fill="none" stroke="#000000" stroke-opacity="0.200000" points="778.37,-169.1 784.37,-167 778.37,-164.9 778.37,-169.1"/>
</g>
<!-- src/core/conversations/ConversationManager.ts -->
<g id="node35" class="node">
<title>src/core/conversations/ConversationManager.ts</title>
<g id="a_node35"><a xlink:href="src/core/conversations/ConversationManager.ts" xlink:title="ConversationManager.ts">
<path fill="#ddfeff" stroke="black" d="M341.58,-412.62C341.58,-412.62 230.42,-412.62 230.42,-412.62 227.21,-412.62 224,-409.42 224,-406.21 224,-406.21 224,-399.79 224,-399.79 224,-396.58 227.21,-393.38 230.42,-393.38 230.42,-393.38 341.58,-393.38 341.58,-393.38 344.79,-393.38 348,-396.58 348,-399.79 348,-399.79 348,-406.21 348,-406.21 348,-409.42 344.79,-412.62 341.58,-412.62"/>
<text xml:space="preserve" text-anchor="start" x="232" y="-399.62" font-family="Helvetica,sans-Serif" font-size="9.00">ConversationManager.ts</text>
</a>
</g>
</g>
<!-- src/core/conversations/ConversationManager.ts&#45;&gt;src/core/conversations/ConversationRecord.interface.ts -->
<g id="edge35" class="edge">
<title>src/core/conversations/ConversationManager.ts&#45;&gt;src/core/conversations/ConversationRecord.interface.ts</title>
<path fill="none" stroke="#000000" stroke-opacity="0.200000" d="M285.5,-392.98C285.5,-390.63 285.5,-388.79 285.5,-388.79 285.5,-388.79 579.5,-388.79 579.5,-388.79 579.5,-388.79 579.5,-389.21 579.5,-389.21"/>
<polygon fill="none" stroke="#000000" stroke-opacity="0.200000" points="577.4,-385.46 579.5,-391.46 581.6,-385.46 577.4,-385.46"/>
</g>
<!-- src/core/conversations/ConversationManager.ts&#45;&gt;src/core/conversations/ConversationStore.interface.ts -->
<g id="edge37" class="edge">
<title>src/core/conversations/ConversationManager.ts&#45;&gt;src/core/conversations/ConversationStore.interface.ts</title>
<path fill="none" stroke="#000000" stroke-opacity="0.200000" d="M348.33,-401.07C348.33,-401.07 383.08,-401.07 383.08,-401.07"/>
<polygon fill="none" stroke="#000000" stroke-opacity="0.200000" points="383.08,-403.18 389.08,-401.08 383.08,-398.98 383.08,-403.18"/>
</g>
<!-- src/core/conversations/ConversationManager.ts&#45;&gt;src/core/conversations/ConversationRuntime.interface.ts -->
<g id="edge36" class="edge">
<title>src/core/conversations/ConversationManager.ts&#45;&gt;src/core/conversations/ConversationRuntime.interface.ts</title>
<path fill="none" stroke="#000000" stroke-opacity="0.200000" d="M348.22,-404.93C368.78,-404.93 386.5,-404.93 386.5,-404.93 386.5,-404.93 386.5,-433.72 386.5,-433.72"/>
<polygon fill="none" stroke="#000000" stroke-opacity="0.200000" points="384.4,-433.72 386.5,-439.72 388.6,-433.72 384.4,-433.72"/>
</g>
<!-- src/core/conversations/ConversationManager.ts&#45;&gt;src/core/settings/ResponseSettings.interface.ts -->
<g id="edge34" class="edge">
<title>src/core/conversations/ConversationManager.ts&#45;&gt;src/core/settings/ResponseSettings.interface.ts</title>
<path fill="none" stroke="#000000" stroke-opacity="0.200000" d="M348.19,-397.23C359.34,-397.23 367.5,-397.23 367.5,-397.23 367.5,-397.23 367.5,-320.18 367.5,-320.18 367.5,-320.18 746.58,-320.18 746.58,-320.18"/>
<polygon fill="none" stroke="#000000" stroke-opacity="0.200000" points="746.58,-322.28 752.58,-320.18 746.58,-318.08 746.58,-322.28"/>
</g>
<!-- src/core/conversations/ConversationRecord.schema.ts -->
<g id="node36" class="node">
<title>src/core/conversations/ConversationRecord.schema.ts</title>
<g id="a_node36"><a xlink:href="src/core/conversations/ConversationRecord.schema.ts" xlink:title="ConversationRecord.schema.ts">
<path fill="#ddfeff" stroke="black" d="M357.33,-444.62C357.33,-444.62 214.67,-444.62 214.67,-444.62 211.46,-444.62 208.25,-441.42 208.25,-438.21 208.25,-438.21 208.25,-431.79 208.25,-431.79 208.25,-428.58 211.46,-425.38 214.67,-425.38 214.67,-425.38 357.33,-425.38 357.33,-425.38 360.54,-425.38 363.75,-428.58 363.75,-431.79 363.75,-431.79 363.75,-438.21 363.75,-438.21 363.75,-441.42 360.54,-444.62 357.33,-444.62"/>
<text xml:space="preserve" text-anchor="start" x="216.25" y="-431.62" font-family="Helvetica,sans-Serif" font-size="9.00">ConversationRecord.schema.ts</text>
</a>
</g>
</g>
<!-- src/core/conversations/ids.ts -->
<g id="node37" class="node">
<title>src/core/conversations/ids.ts</title>
<g id="a_node37"><a xlink:href="src/core/conversations/ids.ts" xlink:title="ids.ts">
<path fill="#ddfeff" stroke="black" d="M306.58,-476.62C306.58,-476.62 265.42,-476.62 265.42,-476.62 262.21,-476.62 259,-473.42 259,-470.21 259,-470.21 259,-463.79 259,-463.79 259,-460.58 262.21,-457.38 265.42,-457.38 265.42,-457.38 306.58,-457.38 306.58,-457.38 309.79,-457.38 313,-460.58 313,-463.79 313,-463.79 313,-470.21 313,-470.21 313,-473.42 309.79,-476.62 306.58,-476.62"/>
<text xml:space="preserve" text-anchor="start" x="274" y="-463.62" font-family="Helvetica,sans-Serif" font-size="9.00">ids.ts</text>
</a>
</g>
</g>
<!-- src/core/errors/AgentError.ts -->
<g id="node38" class="node">
<title>src/core/errors/AgentError.ts</title>
<g id="a_node38"><a xlink:href="src/core/errors/AgentError.ts" xlink:title="AgentError.ts">
<path fill="#ddfeff" stroke="black" d="M317.58,-539.62C317.58,-539.62 254.42,-539.62 254.42,-539.62 251.21,-539.62 248,-536.42 248,-533.21 248,-533.21 248,-526.79 248,-526.79 248,-523.58 251.21,-520.38 254.42,-520.38 254.42,-520.38 317.58,-520.38 317.58,-520.38 320.79,-520.38 324,-523.58 324,-526.79 324,-526.79 324,-533.21 324,-533.21 324,-536.42 320.79,-539.62 317.58,-539.62"/>
<text xml:space="preserve" text-anchor="start" x="256" y="-526.62" font-family="Helvetica,sans-Serif" font-size="9.00">AgentError.ts</text>
</a>
</g>
</g>
<!-- src/core/tools/ToolRegistry.ts -->
<g id="node39" class="node">
<title>src/core/tools/ToolRegistry.ts</title>
<g id="a_node39"><a xlink:href="src/core/tools/ToolRegistry.ts" xlink:title="ToolRegistry.ts">
<path fill="#ddfeff" stroke="black" d="M500.21,-183.62C500.21,-183.62 434.04,-183.62 434.04,-183.62 430.83,-183.62 427.62,-180.42 427.62,-177.21 427.62,-177.21 427.62,-170.79 427.62,-170.79 427.62,-167.58 430.83,-164.38 434.04,-164.38 434.04,-164.38 500.21,-164.38 500.21,-164.38 503.42,-164.38 506.62,-167.58 506.62,-170.79 506.62,-170.79 506.62,-177.21 506.62,-177.21 506.62,-180.42 503.42,-183.62 500.21,-183.62"/>
<text xml:space="preserve" text-anchor="start" x="435.62" y="-170.62" font-family="Helvetica,sans-Serif" font-size="9.00">ToolRegistry.ts</text>
</a>
</g>
</g>
<!-- src/core/tools/ToolRegistry.ts&#45;&gt;src/core/tools/Tool.interface.ts -->
<g id="edge48" class="edge">
<title>src/core/tools/ToolRegistry.ts&#45;&gt;src/core/tools/Tool.interface.ts</title>
<path fill="none" stroke="#000000" stroke-opacity="0.200000" d="M507.09,-180.12C598.59,-180.12 815.5,-180.12 815.5,-180.12 815.5,-180.12 815.5,-179.82 815.5,-179.82"/>
<polygon fill="none" stroke="#000000" stroke-opacity="0.200000" points="817.6,-184.59 815.5,-178.59 813.4,-184.59 817.6,-184.59"/>
</g>
<!-- src/core/tools/ToolRegistry.ts&#45;&gt;src/core/tools/ToolRuntime.interface.ts -->
<g id="edge49" class="edge">
<title>src/core/tools/ToolRegistry.ts&#45;&gt;src/core/tools/ToolRuntime.interface.ts</title>
<path fill="none" stroke="#000000" stroke-opacity="0.200000" d="M506.91,-170.5C506.91,-170.5 580.2,-170.5 580.2,-170.5"/>
<polygon fill="none" stroke="#000000" stroke-opacity="0.200000" points="580.2,-172.6 586.2,-170.5 580.2,-168.4 580.2,-172.6"/>
</g>
</g>
</svg>
