<?xml version="1.0" encoding="UTF-8" standalone="no"?>
<!DOCTYPE svg PUBLIC "-//W3C//DTD SVG 1.1//EN"
 "http://www.w3.org/Graphics/SVG/1.1/DTD/svg11.dtd">
<!-- Generated by graphviz version 14.1.5 (0)
 -->
<!-- Title: dependency&#45;cruiser output Pages: 1 -->
<svg width="848pt" height="1683pt"
 viewBox="0.00 0.00 848.00 1683.00" xmlns="http://www.w3.org/2000/svg" xmlns:xlink="http://www.w3.org/1999/xlink">
<g id="graph0" class="graph" transform="scale(1 1) rotate(0) translate(4 1679)">
<title>dependency&#45;cruiser output</title>
<polygon fill="white" stroke="none" points="-4,4 -4,-1679 844.25,-1679 844.25,4 -4,4"/>
<g id="clust1" class="cluster">
<title>cluster_src</title>
<path fill="#ffffff" stroke="black" stroke-width="2" d="M20,-8C20,-8 820.25,-8 820.25,-8 826.25,-8 832.25,-14 832.25,-20 832.25,-20 832.25,-1655 832.25,-1655 832.25,-1661 826.25,-1667 820.25,-1667 820.25,-1667 20,-1667 20,-1667 14,-1667 8,-1661 8,-1655 8,-1655 8,-20 8,-20 8,-14 14,-8 20,-8"/>
<text xml:space="preserve" text-anchor="middle" x="420.12" y="-1654.45" font-family="Helvetica,sans-Serif" font-weight="bold" font-size="9.00">src</text>
</g>
<g id="clust2" class="cluster">
<title>cluster_src/adapters</title>
<path fill="#ffffff" stroke="black" stroke-width="2" d="M268.25,-337C268.25,-337 600.88,-337 600.88,-337 606.88,-337 612.88,-343 612.88,-349 612.88,-349 612.88,-865 612.88,-865 612.88,-871 606.88,-877 600.88,-877 600.88,-877 268.25,-877 268.25,-877 262.25,-877 256.25,-871 256.25,-865 256.25,-865 256.25,-349 256.25,-349 256.25,-343 262.25,-337 268.25,-337"/>
<text xml:space="preserve" text-anchor="middle" x="434.56" y="-864.45" font-family="Helvetica,sans-Serif" font-weight="bold" font-size="9.00">adapters</text>
</g>
<g id="clust3" class="cluster">
<title>cluster_src/adapters/codex</title>
<path fill="#ffffff" stroke="black" stroke-width="2" d="M283,-345C283,-345 592.88,-345 592.88,-345 598.88,-345 604.88,-351 604.88,-357 604.88,-357 604.88,-550 604.88,-550 604.88,-556 598.88,-562 592.88,-562 592.88,-562 283,-562 283,-562 277,-562 271,-556 271,-550 271,-550 271,-357 271,-357 271,-351 277,-345 283,-345"/>
<text xml:space="preserve" text-anchor="middle" x="437.94" y="-549.45" font-family="Helvetica,sans-Serif" font-weight="bold" font-size="9.00">codex</text>
</g>
<g id="clust4" class="cluster">
<title>cluster_src/adapters/codex/auth</title>
<path fill="#ffffff" stroke="black" stroke-width="2" d="M292.88,-353C292.88,-353 387.88,-353 387.88,-353 393.88,-353 399.88,-359 399.88,-365 399.88,-365 399.88,-428 399.88,-428 399.88,-434 393.88,-440 387.88,-440 387.88,-440 292.88,-440 292.88,-440 286.88,-440 280.88,-434 280.88,-428 280.88,-428 280.88,-365 280.88,-365 280.88,-359 286.88,-353 292.88,-353"/>
<text xml:space="preserve" text-anchor="middle" x="340.38" y="-427.45" font-family="Helvetica,sans-Serif" font-weight="bold" font-size="9.00">auth</text>
</g>
<g id="clust5" class="cluster">
<title>cluster_src/adapters/codex/responses</title>
<path fill="#ffffff" stroke="black" stroke-width="2" d="M291,-448C291,-448 584.88,-448 584.88,-448 590.88,-448 596.88,-454 596.88,-460 596.88,-460 596.88,-523 596.88,-523 596.88,-529 590.88,-535 584.88,-535 584.88,-535 291,-535 291,-535 285,-535 279,-529 279,-523 279,-523 279,-460 279,-460 279,-454 285,-448 291,-448"/>
<text xml:space="preserve" text-anchor="middle" x="437.94" y="-522.45" font-family="Helvetica,sans-Serif" font-weight="bold" font-size="9.00">responses</text>
</g>
<g id="clust6" class="cluster">
<title>cluster_src/adapters/file&#45;system</title>
<path fill="#ffffff" stroke="black" stroke-width="2" d="M279,-570C279,-570 401.75,-570 401.75,-570 407.75,-570 413.75,-576 413.75,-582 413.75,-582 413.75,-677 413.75,-677 413.75,-683 407.75,-689 401.75,-689 401.75,-689 279,-689 279,-689 273,-689 267,-683 267,-677 267,-677 267,-582 267,-582 267,-576 273,-570 279,-570"/>
<text xml:space="preserve" text-anchor="middle" x="340.38" y="-676.45" font-family="Helvetica,sans-Serif" font-weight="bold" font-size="9.00">file&#45;system</text>
</g>
<g id="clust7" class="cluster">
<title>cluster_src/adapters/memory</title>
<path fill="#ffffff" stroke="black" stroke-width="2" d="M276.25,-697C276.25,-697 404.5,-697 404.5,-697 410.5,-697 416.5,-703 416.5,-709 416.5,-709 416.5,-775 416.5,-775 416.5,-781 410.5,-787 404.5,-787 404.5,-787 276.25,-787 276.25,-787 270.25,-787 264.25,-781 264.25,-775 264.25,-775 264.25,-709 264.25,-709 264.25,-703 270.25,-697 276.25,-697"/>
<text xml:space="preserve" text-anchor="middle" x="340.38" y="-774.45" font-family="Helvetica,sans-Serif" font-weight="bold" font-size="9.00">memory</text>
</g>
<g id="clust8" class="cluster">
<title>cluster_src/adapters/memory/simple&#45;linear</title>
<path fill="#ffffff" stroke="black" stroke-width="2" d="M284.25,-705C284.25,-705 396.5,-705 396.5,-705 402.5,-705 408.5,-711 408.5,-717 408.5,-717 408.5,-748 408.5,-748 408.5,-754 402.5,-760 396.5,-760 396.5,-760 284.25,-760 284.25,-760 278.25,-760 272.25,-754 272.25,-748 272.25,-748 272.25,-717 272.25,-717 272.25,-711 278.25,-705 284.25,-705"/>
<text xml:space="preserve" text-anchor="middle" x="340.38" y="-747.45" font-family="Helvetica,sans-Serif" font-weight="bold" font-size="9.00">simple&#45;linear</text>
</g>
<g id="clust9" class="cluster">
<title>cluster_src/adapters/tools</title>
<path fill="#ffffff" stroke="black" stroke-width="2" d="M311.25,-795C311.25,-795 369.5,-795 369.5,-795 375.5,-795 381.5,-801 381.5,-807 381.5,-807 381.5,-838 381.5,-838 381.5,-844 375.5,-850 369.5,-850 369.5,-850 311.25,-850 311.25,-850 305.25,-850 299.25,-844 299.25,-838 299.25,-838 299.25,-807 299.25,-807 299.25,-801 305.25,-795 311.25,-795"/>
<text xml:space="preserve" text-anchor="middle" x="340.38" y="-837.45" font-family="Helvetica,sans-Serif" font-weight="bold" font-size="9.00">tools</text>
</g>
<g id="clust10" class="cluster">
<title>cluster_src/apps</title>
<path fill="#ffffff" stroke="black" stroke-width="2" d="M28,-16C28,-16 236.25,-16 236.25,-16 242.25,-16 248.25,-22 248.25,-28 248.25,-28 248.25,-222 248.25,-222 248.25,-228 242.25,-234 236.25,-234 236.25,-234 28,-234 28,-234 22,-234 16,-228 16,-222 16,-222 16,-28 16,-28 16,-22 22,-16 28,-16"/>
<text xml:space="preserve" text-anchor="middle" x="132.12" y="-221.45" font-family="Helvetica,sans-Serif" font-weight="bold" font-size="9.00">apps</text>
</g>
<g id="clust11" class="cluster">
<title>cluster_src/apps/cli</title>
<path fill="#ffffff" stroke="black" stroke-width="2" d="M36,-24C36,-24 228.25,-24 228.25,-24 234.25,-24 240.25,-30 240.25,-36 240.25,-36 240.25,-195 240.25,-195 240.25,-201 234.25,-207 228.25,-207 228.25,-207 36,-207 36,-207 30,-207 24,-201 24,-195 24,-195 24,-36 24,-36 24,-30 30,-24 36,-24"/>
<text xml:space="preserve" text-anchor="middle" x="132.12" y="-194.45" font-family="Helvetica,sans-Serif" font-weight="bold" font-size="9.00">cli</text>
</g>
<g id="clust12" class="cluster">
<title>cluster_src/core</title>
<path fill="#ffffff" stroke="black" stroke-width="2" d="M436.5,-885C436.5,-885 812.25,-885 812.25,-885 818.25,-885 824.25,-891 824.25,-897 824.25,-897 824.25,-1628 824.25,-1628 824.25,-1634 818.25,-1640 812.25,-1640 812.25,-1640 436.5,-1640 436.5,-1640 430.5,-1640 424.5,-1634 424.5,-1628 424.5,-1628 424.5,-897 424.5,-897 424.5,-891 430.5,-885 436.5,-885"/>
<text xml:space="preserve" text-anchor="middle" x="624.38" y="-1627.45" font-family="Helvetica,sans-Serif" font-weight="bold" font-size="9.00">core</text>
</g>
<g id="clust13" class="cluster">
<title>cluster_src/core/agent</title>
<path fill="#ffffff" stroke="black" stroke-width="2" d="M509.75,-893C509.75,-893 559,-893 559,-893 565,-893 571,-899 571,-905 571,-905 571,-968 571,-968 571,-974 565,-980 559,-980 559,-980 509.75,-980 509.75,-980 503.75,-980 497.75,-974 497.75,-968 497.75,-968 497.75,-905 497.75,-905 497.75,-899 503.75,-893 509.75,-893"/>
<text xml:space="preserve" text-anchor="middle" x="534.38" y="-967.45" font-family="Helvetica,sans-Serif" font-weight="bold" font-size="9.00">agent</text>
</g>
<g id="clust14" class="cluster">
<title>cluster_src/core/auth</title>
<path fill="#ffffff" stroke="black" stroke-width="2" d="M478.62,-988C478.62,-988 590.12,-988 590.12,-988 596.12,-988 602.12,-994 602.12,-1000 602.12,-1000 602.12,-1063 602.12,-1063 602.12,-1069 596.12,-1075 590.12,-1075 590.12,-1075 478.62,-1075 478.62,-1075 472.62,-1075 466.62,-1069 466.62,-1063 466.62,-1063 466.62,-1000 466.62,-1000 466.62,-994 472.62,-988 478.62,-988"/>
<text xml:space="preserve" text-anchor="middle" x="534.38" y="-1062.45" font-family="Helvetica,sans-Serif" font-weight="bold" font-size="9.00">auth</text>
</g>
<g id="clust15" class="cluster">
<title>cluster_src/core/config</title>
<path fill="#ffffff" stroke="black" stroke-width="2" d="M463.25,-1083C463.25,-1083 605.5,-1083 605.5,-1083 611.5,-1083 617.5,-1089 617.5,-1095 617.5,-1095 617.5,-1126 617.5,-1126 617.5,-1132 611.5,-1138 605.5,-1138 605.5,-1138 463.25,-1138 463.25,-1138 457.25,-1138 451.25,-1132 451.25,-1126 451.25,-1126 451.25,-1095 451.25,-1095 451.25,-1089 457.25,-1083 463.25,-1083"/>
<text xml:space="preserve" text-anchor="middle" x="534.38" y="-1125.45" font-family="Helvetica,sans-Serif" font-weight="bold" font-size="9.00">config</text>
</g>
<g id="clust16" class="cluster">
<title>cluster_src/core/conversations</title>
<path fill="#ffffff" stroke="black" stroke-width="2" d="M444.5,-1146C444.5,-1146 804.25,-1146 804.25,-1146 810.25,-1146 816.25,-1152 816.25,-1158 816.25,-1158 816.25,-1285 816.25,-1285 816.25,-1291 810.25,-1297 804.25,-1297 804.25,-1297 444.5,-1297 444.5,-1297 438.5,-1297 432.5,-1291 432.5,-1285 432.5,-1285 432.5,-1158 432.5,-1158 432.5,-1152 438.5,-1146 444.5,-1146"/>
<text xml:space="preserve" text-anchor="middle" x="624.38" y="-1284.45" font-family="Helvetica,sans-Serif" font-weight="bold" font-size="9.00">conversations</text>
</g>
<g id="clust17" class="cluster">
<title>cluster_src/core/errors</title>
<path fill="#ffffff" stroke="black" stroke-width="2" d="M672.88,-988C672.88,-988 783.62,-988 783.62,-988 789.62,-988 795.62,-994 795.62,-1000 795.62,-1000 795.62,-1031 795.62,-1031 795.62,-1037 789.62,-1043 783.62,-1043 783.62,-1043 672.88,-1043 672.88,-1043 666.88,-1043 660.88,-1037 660.88,-1031 660.88,-1031 660.88,-1000 660.88,-1000 660.88,-994 666.88,-988 672.88,-988"/>
<text xml:space="preserve" text-anchor="middle" x="728.25" y="-1030.45" font-family="Helvetica,sans-Serif" font-weight="bold" font-size="9.00">errors</text>
</g>
<g id="clust18" class="cluster">
<title>cluster_src/core/memory</title>
<path fill="#ffffff" stroke="black" stroke-width="2" d="M472.62,-1305C472.62,-1305 596.12,-1305 596.12,-1305 602.12,-1305 608.12,-1311 608.12,-1317 608.12,-1317 608.12,-1348 608.12,-1348 608.12,-1354 602.12,-1360 596.12,-1360 596.12,-1360 472.62,-1360 472.62,-1360 466.62,-1360 460.62,-1354 460.62,-1348 460.62,-1348 460.62,-1317 460.62,-1317 460.62,-1311 466.62,-1305 472.62,-1305"/>
<text xml:space="preserve" text-anchor="middle" x="534.38" y="-1347.45" font-family="Helvetica,sans-Serif" font-weight="bold" font-size="9.00">memory</text>
</g>
<g id="clust19" class="cluster">
<title>cluster_src/core/model</title>
<path fill="#ffffff" stroke="black" stroke-width="2" d="M477.5,-1368C477.5,-1368 591.25,-1368 591.25,-1368 597.25,-1368 603.25,-1374 603.25,-1380 603.25,-1380 603.25,-1411 603.25,-1411 603.25,-1417 597.25,-1423 591.25,-1423 591.25,-1423 477.5,-1423 477.5,-1423 471.5,-1423 465.5,-1417 465.5,-1411 465.5,-1411 465.5,-1380 465.5,-1380 465.5,-1374 471.5,-1368 477.5,-1368"/>
<text xml:space="preserve" text-anchor="middle" x="534.38" y="-1410.45" font-family="Helvetica,sans-Serif" font-weight="bold" font-size="9.00">model</text>
</g>
<g id="clust20" class="cluster">
<title>cluster_src/core/settings</title>
<path fill="#ffffff" stroke="black" stroke-width="2" d="M463.25,-1431C463.25,-1431 605.5,-1431 605.5,-1431 611.5,-1431 617.5,-1437 617.5,-1443 617.5,-1443 617.5,-1474 617.5,-1474 617.5,-1480 611.5,-1486 605.5,-1486 605.5,-1486 463.25,-1486 463.25,-1486 457.25,-1486 451.25,-1480 451.25,-1474 451.25,-1474 451.25,-1443 451.25,-1443 451.25,-1437 457.25,-1431 463.25,-1431"/>
<text xml:space="preserve" text-anchor="middle" x="534.38" y="-1473.45" font-family="Helvetica,sans-Serif" font-weight="bold" font-size="9.00">settings</text>
</g>
<g id="clust21" class="cluster">
<title>cluster_src/core/tools</title>
<path fill="#ffffff" stroke="black" stroke-width="2" d="M476,-1494C476,-1494 592.75,-1494 592.75,-1494 598.75,-1494 604.75,-1500 604.75,-1506 604.75,-1506 604.75,-1601 604.75,-1601 604.75,-1607 598.75,-1613 592.75,-1613 592.75,-1613 476,-1613 476,-1613 470,-1613 464,-1607 464,-1601 464,-1601 464,-1506 464,-1506 464,-1500 470,-1494 476,-1494"/>
<text xml:space="preserve" text-anchor="middle" x="534.38" y="-1600.45" font-family="Helvetica,sans-Serif" font-weight="bold" font-size="9.00">tools</text>
</g>
<g id="clust22" class="cluster">
<title>cluster_src/runtime</title>
<path fill="#ffffff" stroke="black" stroke-width="2" d="M114.88,-242C114.88,-242 395.75,-242 395.75,-242 401.75,-242 407.75,-248 407.75,-254 407.75,-254 407.75,-317 407.75,-317 407.75,-323 401.75,-329 395.75,-329 395.75,-329 114.88,-329 114.88,-329 108.88,-329 102.88,-323 102.88,-317 102.88,-317 102.88,-254 102.88,-254 102.88,-248 108.88,-242 114.88,-242"/>
<text xml:space="preserve" text-anchor="middle" x="255.31" y="-316.45" font-family="Helvetica,sans-Serif" font-weight="bold" font-size="9.00">runtime</text>
</g>
<!-- src/adapters/codex/auth/CodexAuthClient.ts -->
<g id="node1" class="node">
<title>src/adapters/codex/auth/CodexAuthClient.ts</title>
<g id="a_node1"><a xlink:href="src/adapters/codex/auth/CodexAuthClient.ts" xlink:title="CodexAuthClient.ts">
<path fill="#ddfeff" stroke="black" d="M385.08,-380.62C385.08,-380.62 295.67,-380.62 295.67,-380.62 292.46,-380.62 289.25,-377.42 289.25,-374.21 289.25,-374.21 289.25,-367.79 289.25,-367.79 289.25,-364.58 292.46,-361.38 295.67,-361.38 295.67,-361.38 385.08,-361.38 385.08,-361.38 388.29,-361.38 391.5,-364.58 391.5,-367.79 391.5,-367.79 391.5,-374.21 391.5,-374.21 391.5,-377.42 388.29,-380.62 385.08,-380.62"/>
<text xml:space="preserve" text-anchor="start" x="297.25" y="-367.62" font-family="Helvetica,sans-Serif" font-size="9.00">CodexAuthClient.ts</text>
</a>
</g>
</g>
<!-- src/core/errors/AgentError.interface.ts -->
<g id="node2" class="node">
<title>src/core/errors/AgentError.interface.ts</title>
<g id="a_node2"><a xlink:href="src/core/errors/AgentError.interface.ts" xlink:title="AgentError.interface.ts">
<path fill="#ddfeff" stroke="black" d="M781.21,-1015.62C781.21,-1015.62 675.29,-1015.62 675.29,-1015.62 672.08,-1015.62 668.88,-1012.42 668.88,-1009.21 668.88,-1009.21 668.88,-1002.79 668.88,-1002.79 668.88,-999.58 672.08,-996.38 675.29,-996.38 675.29,-996.38 781.21,-996.38 781.21,-996.38 784.42,-996.38 787.62,-999.58 787.62,-1002.79 787.62,-1002.79 787.62,-1009.21 787.62,-1009.21 787.62,-1012.42 784.42,-1015.62 781.21,-1015.62"/>
<text xml:space="preserve" text-anchor="start" x="676.88" y="-1002.62" font-family="Helvetica,sans-Serif" font-size="9.00">AgentError.interface.ts</text>
</a>
</g>
</g>
<!-- src/adapters/codex/auth/CodexAuthClient.ts&#45;&gt;src/core/errors/AgentError.interface.ts -->
<g id="edge1" class="edge">
<title>src/adapters/codex/auth/CodexAuthClient.ts&#45;&gt;src/core/errors/AgentError.interface.ts</title>
<path fill="none" stroke="#000000" stroke-width="2" stroke-opacity="0.200000" d="M391.99,-371C505.79,-371 768.25,-371 768.25,-371 768.25,-371 768.25,-987 768.25,-987"/>
<polygon fill="#000000" fill-opacity="0.200000" stroke="#000000" stroke-width="2" stroke-opacity="0.200000" points="766.15,-987 768.25,-993 770.35,-987 766.15,-987"/>
</g>
<!-- src/adapters/codex/auth/CodexOAuthFlow.ts -->
<g id="node3" class="node">
<title>src/adapters/codex/auth/CodexOAuthFlow.ts</title>
<g id="a_node3"><a xlink:href="src/adapters/codex/auth/CodexOAuthFlow.ts" xlink:title="CodexOAuthFlow.ts">
<path fill="#ddfeff" stroke="black" d="M385.46,-412.62C385.46,-412.62 295.29,-412.62 295.29,-412.62 292.08,-412.62 288.88,-409.42 288.88,-406.21 288.88,-406.21 288.88,-399.79 288.88,-399.79 288.88,-396.58 292.08,-393.38 295.29,-393.38 295.29,-393.38 385.46,-393.38 385.46,-393.38 388.67,-393.38 391.88,-396.58 391.88,-399.79 391.88,-399.79 391.88,-406.21 391.88,-406.21 391.88,-409.42 388.67,-412.62 385.46,-412.62"/>
<text xml:space="preserve" text-anchor="start" x="296.88" y="-399.62" font-family="Helvetica,sans-Serif" font-size="9.00">CodexOAuthFlow.ts</text>
</a>
</g>
</g>
<!-- src/adapters/codex/responses/CodexModelClient.ts -->
<g id="node4" class="node">
<title>src/adapters/codex/responses/CodexModelClient.ts</title>
<g id="a_node4"><a xlink:href="src/adapters/codex/responses/CodexModelClient.ts" xlink:title="CodexModelClient.ts">
<path fill="#ddfeff" stroke="black" d="M387.33,-475.62C387.33,-475.62 293.42,-475.62 293.42,-475.62 290.21,-475.62 287,-472.42 287,-469.21 287,-469.21 287,-462.79 287,-462.79 287,-459.58 290.21,-456.38 293.42,-456.38 293.42,-456.38 387.33,-456.38 387.33,-456.38 390.54,-456.38 393.75,-459.58 393.75,-462.79 393.75,-462.79 393.75,-469.21 393.75,-469.21 393.75,-472.42 390.54,-475.62 387.33,-475.62"/>
<text xml:space="preserve" text-anchor="start" x="295" y="-462.62" font-family="Helvetica,sans-Serif" font-size="9.00">CodexModelClient.ts</text>
</a>
</g>
</g>
<!-- src/adapters/codex/responses/CodexModelClient.ts&#45;&gt;src/core/errors/AgentError.interface.ts -->
<g id="edge2" class="edge">
<title>src/adapters/codex/responses/CodexModelClient.ts&#45;&gt;src/core/errors/AgentError.interface.ts</title>
<path fill="none" stroke="#000000" stroke-width="2" stroke-opacity="0.200000" d="M322.25,-476.07C322.25,-496.94 322.25,-543 322.25,-543 322.25,-543 748.25,-543 748.25,-543 748.25,-543 748.25,-986.87 748.25,-986.87"/>
<polygon fill="#000000" fill-opacity="0.200000" stroke="#000000" stroke-width="2" stroke-opacity="0.200000" points="746.15,-986.87 748.25,-992.87 750.35,-986.87 746.15,-986.87"/>
</g>
<!-- src/adapters/codex/responses/responsesEvents.ts -->
<g id="node5" class="node">
<title>src/adapters/codex/responses/responsesEvents.ts</title>
<g id="a_node5"><a xlink:href="src/adapters/codex/responses/responsesEvents.ts" xlink:title="responsesEvents.ts">
<path fill="#ddfeff" stroke="black" d="M579.46,-475.62C579.46,-475.62 489.29,-475.62 489.29,-475.62 486.08,-475.62 482.88,-472.42 482.88,-469.21 482.88,-469.21 482.88,-462.79 482.88,-462.79 482.88,-459.58 486.08,-456.38 489.29,-456.38 489.29,-456.38 579.46,-456.38 579.46,-456.38 582.67,-456.38 585.88,-459.58 585.88,-462.79 585.88,-462.79 585.88,-469.21 585.88,-469.21 585.88,-472.42 582.67,-475.62 579.46,-475.62"/>
<text xml:space="preserve" text-anchor="start" x="490.88" y="-462.62" font-family="Helvetica,sans-Serif" font-size="9.00">responsesEvents.ts</text>
</a>
</g>
</g>
<!-- src/adapters/codex/responses/CodexModelClient.ts&#45;&gt;src/adapters/codex/responses/responsesEvents.ts -->
<g id="edge3" class="edge">
<title>src/adapters/codex/responses/CodexModelClient.ts&#45;&gt;src/adapters/codex/responses/responsesEvents.ts</title>
<path fill="none" stroke="#000000" stroke-width="2" stroke-opacity="0.200000" d="M394.16,-466C394.16,-466 473.47,-466 473.47,-466"/>
<polygon fill="#000000" fill-opacity="0.200000" stroke="#000000" stroke-width="2" stroke-opacity="0.200000" points="473.47,-468.1 479.47,-466 473.47,-463.9 473.47,-468.1"/>
</g>
<!-- src/adapters/codex/responses/responsesRequest.ts -->
<g id="node6" class="node">
<title>src/adapters/codex/responses/responsesRequest.ts</title>
<g id="a_node6"><a xlink:href="src/adapters/codex/responses/responsesRequest.ts" xlink:title="responsesRequest.ts">
<path fill="#ddfeff" stroke="black" d="M582.46,-507.62C582.46,-507.62 486.29,-507.62 486.29,-507.62 483.08,-507.62 479.88,-504.42 479.88,-501.21 479.88,-501.21 479.88,-494.79 479.88,-494.79 479.88,-491.58 483.08,-488.38 486.29,-488.38 486.29,-488.38 582.46,-488.38 582.46,-488.38 585.67,-488.38 588.88,-491.58 588.88,-494.79 588.88,-494.79 588.88,-501.21 588.88,-501.21 588.88,-504.42 585.67,-507.62 582.46,-507.62"/>
<text xml:space="preserve" text-anchor="start" x="487.88" y="-494.62" font-family="Helvetica,sans-Serif" font-size="9.00">responsesRequest.ts</text>
</a>
</g>
</g>
<!-- src/adapters/codex/responses/CodexModelClient.ts&#45;&gt;src/adapters/codex/responses/responsesRequest.ts -->
<g id="edge4" class="edge">
<title>src/adapters/codex/responses/CodexModelClient.ts&#45;&gt;src/adapters/codex/responses/responsesRequest.ts</title>
<path fill="none" stroke="#000000" stroke-width="2" stroke-opacity="0.200000" d="M358.25,-476.12C358.25,-485.5 358.25,-498 358.25,-498 358.25,-498 470.59,-498 470.59,-498"/>
<polygon fill="#000000" fill-opacity="0.200000" stroke="#000000" stroke-width="2" stroke-opacity="0.200000" points="470.59,-500.1 476.59,-498 470.59,-495.9 470.59,-500.1"/>
</g>
<!-- src/adapters/file&#45;system/JsonAgentConfigStore.ts -->
<g id="node7" class="node">
<title>src/adapters/file&#45;system/JsonAgentConfigStore.ts</title>
<g id="a_node7"><a xlink:href="src/adapters/file-system/JsonAgentConfigStore.ts" xlink:title="JsonAgentConfigStore.ts">
<path fill="#ddfeff" stroke="black" d="M397.08,-629.62C397.08,-629.62 283.67,-629.62 283.67,-629.62 280.46,-629.62 277.25,-626.42 277.25,-623.21 277.25,-623.21 277.25,-616.79 277.25,-616.79 277.25,-613.58 280.46,-610.38 283.67,-610.38 283.67,-610.38 397.08,-610.38 397.08,-610.38 400.29,-610.38 403.5,-613.58 403.5,-616.79 403.5,-616.79 403.5,-623.21 403.5,-623.21 403.5,-626.42 400.29,-629.62 397.08,-629.62"/>
<text xml:space="preserve" text-anchor="start" x="285.25" y="-616.62" font-family="Helvetica,sans-Serif" font-size="9.00">JsonAgentConfigStore.ts</text>
</a>
</g>
</g>
<!-- src/adapters/file&#45;system/JsonAgentConfigStore.ts&#45;&gt;src/core/errors/AgentError.interface.ts -->
<g id="edge6" class="edge">
<title>src/adapters/file&#45;system/JsonAgentConfigStore.ts&#45;&gt;src/core/errors/AgentError.interface.ts</title>
<path fill="none" stroke="#000000" stroke-width="2" stroke-opacity="0.200000" d="M403.61,-616.79C508.8,-616.79 708.25,-616.79 708.25,-616.79 708.25,-616.79 708.25,-986.96 708.25,-986.96"/>
<polygon fill="#000000" fill-opacity="0.200000" stroke="#000000" stroke-width="2" stroke-opacity="0.200000" points="706.15,-986.96 708.25,-992.96 710.35,-986.96 706.15,-986.96"/>
</g>
<!-- src/core/config/AgentConfigStore.interface.ts -->
<g id="node8" class="node">
<title>src/core/config/AgentConfigStore.interface.ts</title>
<g id="a_node8"><a xlink:href="src/core/config/AgentConfigStore.interface.ts" xlink:title="AgentConfigStore.interface.ts">
<path fill="#ddfeff" stroke="black" d="M603.08,-1110.62C603.08,-1110.62 465.67,-1110.62 465.67,-1110.62 462.46,-1110.62 459.25,-1107.42 459.25,-1104.21 459.25,-1104.21 459.25,-1097.79 459.25,-1097.79 459.25,-1094.58 462.46,-1091.38 465.67,-1091.38 465.67,-1091.38 603.08,-1091.38 603.08,-1091.38 606.29,-1091.38 609.5,-1094.58 609.5,-1097.79 609.5,-1097.79 609.5,-1104.21 609.5,-1104.21 609.5,-1107.42 606.29,-1110.62 603.08,-1110.62"/>
<text xml:space="preserve" text-anchor="start" x="467.25" y="-1097.62" font-family="Helvetica,sans-Serif" font-size="9.00">AgentConfigStore.interface.ts</text>
</a>
</g>
</g>
<!-- src/adapters/file&#45;system/JsonAgentConfigStore.ts&#45;&gt;src/core/config/AgentConfigStore.interface.ts -->
<g id="edge5" class="edge">
<title>src/adapters/file&#45;system/JsonAgentConfigStore.ts&#45;&gt;src/core/config/AgentConfigStore.interface.ts</title>
<path fill="none" stroke="#000000" stroke-width="2" stroke-opacity="0.200000" d="M403.81,-623.21C435.53,-623.21 467.25,-623.21 467.25,-623.21 467.25,-623.21 467.25,-1081.99 467.25,-1081.99"/>
<polygon fill="#000000" fill-opacity="0.200000" stroke="#000000" stroke-width="2" stroke-opacity="0.200000" points="465.15,-1081.99 467.25,-1087.99 469.35,-1081.99 465.15,-1081.99"/>
</g>
<!-- src/adapters/file&#45;system/JsonFileTokenStore.ts -->
<g id="node9" class="node">
<title>src/adapters/file&#45;system/JsonFileTokenStore.ts</title>
<g id="a_node9"><a xlink:href="src/adapters/file-system/JsonFileTokenStore.ts" xlink:title="JsonFileTokenStore.ts">
<path fill="#ddfeff" stroke="black" d="M388.83,-597.62C388.83,-597.62 291.92,-597.62 291.92,-597.62 288.71,-597.62 285.5,-594.42 285.5,-591.21 285.5,-591.21 285.5,-584.79 285.5,-584.79 285.5,-581.58 288.71,-578.38 291.92,-578.38 291.92,-578.38 388.83,-578.38 388.83,-578.38 392.04,-578.38 395.25,-581.58 395.25,-584.79 395.25,-584.79 395.25,-591.21 395.25,-591.21 395.25,-594.42 392.04,-597.62 388.83,-597.62"/>
<text xml:space="preserve" text-anchor="start" x="293.5" y="-584.62" font-family="Helvetica,sans-Serif" font-size="9.00">JsonFileTokenStore.ts</text>
</a>
</g>
</g>
<!-- src/adapters/file&#45;system/JsonFileTokenStore.ts&#45;&gt;src/core/errors/AgentError.interface.ts -->
<g id="edge7" class="edge">
<title>src/adapters/file&#45;system/JsonFileTokenStore.ts&#45;&gt;src/core/errors/AgentError.interface.ts</title>
<path fill="none" stroke="#000000" stroke-width="2" stroke-opacity="0.200000" d="M395.54,-588C502.62,-588 728.25,-588 728.25,-588 728.25,-588 728.25,-987.05 728.25,-987.05"/>
<polygon fill="#000000" fill-opacity="0.200000" stroke="#000000" stroke-width="2" stroke-opacity="0.200000" points="726.15,-987.05 728.25,-993.05 730.35,-987.05 726.15,-987.05"/>
</g>
<!-- src/adapters/file&#45;system/JsonlConversationStore.ts -->
<g id="node10" class="node">
<title>src/adapters/file&#45;system/JsonlConversationStore.ts</title>
<g id="a_node10"><a xlink:href="src/adapters/file-system/JsonlConversationStore.ts" xlink:title="JsonlConversationStore.ts">
<path fill="#ddfeff" stroke="black" d="M399.33,-661.62C399.33,-661.62 281.42,-661.62 281.42,-661.62 278.21,-661.62 275,-658.42 275,-655.21 275,-655.21 275,-648.79 275,-648.79 275,-645.58 278.21,-642.38 281.42,-642.38 281.42,-642.38 399.33,-642.38 399.33,-642.38 402.54,-642.38 405.75,-645.58 405.75,-648.79 405.75,-648.79 405.75,-655.21 405.75,-655.21 405.75,-658.42 402.54,-661.62 399.33,-661.62"/>
<text xml:space="preserve" text-anchor="start" x="283" y="-648.62" font-family="Helvetica,sans-Serif" font-size="9.00">JsonlConversationStore.ts</text>
</a>
</g>
</g>
<!-- src/adapters/file&#45;system/JsonlConversationStore.ts&#45;&gt;src/core/errors/AgentError.interface.ts -->
<g id="edge9" class="edge">
<title>src/adapters/file&#45;system/JsonlConversationStore.ts&#45;&gt;src/core/errors/AgentError.interface.ts</title>
<path fill="none" stroke="#000000" stroke-width="2" stroke-opacity="0.200000" d="M406.22,-648.79C507.07,-648.79 688.25,-648.79 688.25,-648.79 688.25,-648.79 688.25,-987.05 688.25,-987.05"/>
<polygon fill="#000000" fill-opacity="0.200000" stroke="#000000" stroke-width="2" stroke-opacity="0.200000" points="686.15,-987.05 688.25,-993.05 690.35,-987.05 686.15,-987.05"/>
</g>
<!-- src/core/conversations/ConversationRecordCodec.interface.ts -->
<g id="node11" class="node">
<title>src/core/conversations/ConversationRecordCodec.interface.ts</title>
<g id="a_node11"><a xlink:href="src/core/conversations/ConversationRecordCodec.interface.ts" xlink:title="ConversationRecordCodec.interface.ts">
<path fill="#ddfeff" stroke="black" d="M621.83,-1173.62C621.83,-1173.62 446.92,-1173.62 446.92,-1173.62 443.71,-1173.62 440.5,-1170.42 440.5,-1167.21 440.5,-1167.21 440.5,-1160.79 440.5,-1160.79 440.5,-1157.58 443.71,-1154.38 446.92,-1154.38 446.92,-1154.38 621.83,-1154.38 621.83,-1154.38 625.04,-1154.38 628.25,-1157.58 628.25,-1160.79 628.25,-1160.79 628.25,-1167.21 628.25,-1167.21 628.25,-1170.42 625.04,-1173.62 621.83,-1173.62"/>
<text xml:space="preserve" text-anchor="start" x="448.5" y="-1160.62" font-family="Helvetica,sans-Serif" font-size="9.00">ConversationRecordCodec.interface.ts</text>
</a>
</g>
</g>
<!-- src/adapters/file&#45;system/JsonlConversationStore.ts&#45;&gt;src/core/conversations/ConversationRecordCodec.interface.ts -->
<g id="edge8" class="edge">
<title>src/adapters/file&#45;system/JsonlConversationStore.ts&#45;&gt;src/core/conversations/ConversationRecordCodec.interface.ts</title>
<path fill="none" stroke="#000000" stroke-width="2" stroke-opacity="0.200000" d="M406.19,-655.21C429.59,-655.21 450.25,-655.21 450.25,-655.21 450.25,-655.21 450.25,-1145.26 450.25,-1145.26"/>
<polygon fill="#000000" fill-opacity="0.200000" stroke="#000000" stroke-width="2" stroke-opacity="0.200000" points="448.15,-1145.26 450.25,-1151.26 452.35,-1145.26 448.15,-1145.26"/>
</g>
<!-- src/core/conversations/ConversationRecord.interface.ts -->
<g id="node26" class="node">
<title>src/core/conversations/ConversationRecord.interface.ts</title>
<g id="a_node26"><a xlink:href="src/core/conversations/ConversationRecord.interface.ts" xlink:title="ConversationRecord.interface.ts">
<path fill="#ddfeff" stroke="black" d="M801.83,-1173.62C801.83,-1173.62 654.67,-1173.62 654.67,-1173.62 651.46,-1173.62 648.25,-1170.42 648.25,-1167.21 648.25,-1167.21 648.25,-1160.79 648.25,-1160.79 648.25,-1157.58 651.46,-1154.38 654.67,-1154.38 654.67,-1154.38 801.83,-1154.38 801.83,-1154.38 805.04,-1154.38 808.25,-1157.58 808.25,-1160.79 808.25,-1160.79 808.25,-1167.21 808.25,-1167.21 808.25,-1170.42 805.04,-1173.62 801.83,-1173.62"/>
<text xml:space="preserve" text-anchor="start" x="656.25" y="-1160.62" font-family="Helvetica,sans-Serif" font-size="9.00">ConversationRecord.interface.ts</text>
</a>
</g>
</g>
<!-- src/core/conversations/ConversationRecordCodec.interface.ts&#45;&gt;src/core/conversations/ConversationRecord.interface.ts -->
<g id="edge19" class="edge">
<title>src/core/conversations/ConversationRecordCodec.interface.ts&#45;&gt;src/core/conversations/ConversationRecord.interface.ts</title>
<path fill="none" stroke="#000000" stroke-width="2" stroke-opacity="0.200000" d="M628.47,-1164C628.47,-1164 638.77,-1164 638.77,-1164"/>
<polygon fill="#000000" fill-opacity="0.200000" stroke="#000000" stroke-width="2" stroke-opacity="0.200000" points="638.77,-1166.1 644.77,-1164 638.77,-1161.9 638.77,-1166.1"/>
</g>
<!-- src/adapters/memory/simple&#45;linear/SimpleLinearMemory.ts -->
<g id="node12" class="node">
<title>src/adapters/memory/simple&#45;linear/SimpleLinearMemory.ts</title>
<g id="a_node12"><a xlink:href="src/adapters/memory/simple-linear/SimpleLinearMemory.ts" xlink:title="SimpleLinearMemory.ts">
<path fill="#ddfeff" stroke="black" d="M394.08,-732.62C394.08,-732.62 286.67,-732.62 286.67,-732.62 283.46,-732.62 280.25,-729.42 280.25,-726.21 280.25,-726.21 280.25,-719.79 280.25,-719.79 280.25,-716.58 283.46,-713.38 286.67,-713.38 286.67,-713.38 394.08,-713.38 394.08,-713.38 397.29,-713.38 400.5,-716.58 400.5,-719.79 400.5,-719.79 400.5,-726.21 400.5,-726.21 400.5,-729.42 397.29,-732.62 394.08,-732.62"/>
<text xml:space="preserve" text-anchor="start" x="288.25" y="-719.62" font-family="Helvetica,sans-Serif" font-size="9.00">SimpleLinearMemory.ts</text>
</a>
</g>
</g>
<!-- src/adapters/tools/MathTool.ts -->
<g id="node13" class="node">
<title>src/adapters/tools/MathTool.ts</title>
<g id="a_node13"><a xlink:href="src/adapters/tools/MathTool.ts" xlink:title="MathTool.ts">
<path fill="#ddfeff" stroke="black" d="M367.08,-822.62C367.08,-822.62 313.67,-822.62 313.67,-822.62 310.46,-822.62 307.25,-819.42 307.25,-816.21 307.25,-816.21 307.25,-809.79 307.25,-809.79 307.25,-806.58 310.46,-803.38 313.67,-803.38 313.67,-803.38 367.08,-803.38 367.08,-803.38 370.29,-803.38 373.5,-806.58 373.5,-809.79 373.5,-809.79 373.5,-816.21 373.5,-816.21 373.5,-819.42 370.29,-822.62 367.08,-822.62"/>
<text xml:space="preserve" text-anchor="start" x="315.25" y="-809.62" font-family="Helvetica,sans-Serif" font-size="9.00">MathTool.ts</text>
</a>
</g>
</g>
<!-- src/apps/cli/commands.ts -->
<g id="node14" class="node">
<title>src/apps/cli/commands.ts</title>
<g id="a_node14"><a xlink:href="src/apps/cli/commands.ts" xlink:title="commands.ts">
<path fill="#ddfeff" stroke="black" d="M201.46,-147.62C201.46,-147.62 136.79,-147.62 136.79,-147.62 133.58,-147.62 130.38,-144.42 130.38,-141.21 130.38,-141.21 130.38,-134.79 130.38,-134.79 130.38,-131.58 133.58,-128.38 136.79,-128.38 136.79,-128.38 201.46,-128.38 201.46,-128.38 204.67,-128.38 207.88,-131.58 207.88,-134.79 207.88,-134.79 207.88,-141.21 207.88,-141.21 207.88,-144.42 204.67,-147.62 201.46,-147.62"/>
<text xml:space="preserve" text-anchor="start" x="138.38" y="-134.62" font-family="Helvetica,sans-Serif" font-size="9.00">commands.ts</text>
</a>
</g>
</g>
<!-- src/apps/cli/conversationHistory.ts -->
<g id="node15" class="node">
<title>src/apps/cli/conversationHistory.ts</title>
<g id="a_node15"><a xlink:href="src/apps/cli/conversationHistory.ts" xlink:title="conversationHistory.ts">
<path fill="#ddfeff" stroke="black" d="M220.21,-179.62C220.21,-179.62 118.04,-179.62 118.04,-179.62 114.83,-179.62 111.62,-176.42 111.62,-173.21 111.62,-173.21 111.62,-166.79 111.62,-166.79 111.62,-163.58 114.83,-160.38 118.04,-160.38 118.04,-160.38 220.21,-160.38 220.21,-160.38 223.42,-160.38 226.62,-163.58 226.62,-166.79 226.62,-166.79 226.62,-173.21 226.62,-173.21 226.62,-176.42 223.42,-179.62 220.21,-179.62"/>
<text xml:space="preserve" text-anchor="start" x="119.62" y="-166.62" font-family="Helvetica,sans-Serif" font-size="9.00">conversationHistory.ts</text>
</a>
</g>
</g>
<!-- src/apps/cli/conversationSelection.ts -->
<g id="node16" class="node">
<title>src/apps/cli/conversationSelection.ts</title>
<g id="a_node16"><a xlink:href="src/apps/cli/conversationSelection.ts" xlink:title="conversationSelection.ts">
<path fill="#ddfeff" stroke="black" d="M225.83,-51.62C225.83,-51.62 112.42,-51.62 112.42,-51.62 109.21,-51.62 106,-48.42 106,-45.21 106,-45.21 106,-38.79 106,-38.79 106,-35.58 109.21,-32.38 112.42,-32.38 112.42,-32.38 225.83,-32.38 225.83,-32.38 229.04,-32.38 232.25,-35.58 232.25,-38.79 232.25,-38.79 232.25,-45.21 232.25,-45.21 232.25,-48.42 229.04,-51.62 225.83,-51.62"/>
<text xml:space="preserve" text-anchor="start" x="114" y="-38.62" font-family="Helvetica,sans-Serif" font-size="9.00">conversationSelection.ts</text>
</a>
</g>
</g>
<!-- src/apps/cli/main.ts -->
<g id="node17" class="node">
<title>src/apps/cli/main.ts</title>
<g id="a_node17"><a xlink:href="src/apps/cli/main.ts" xlink:title="main.ts">
<path fill="#ddfeff" stroke="black" d="M79.58,-131.62C79.58,-131.62 38.42,-131.62 38.42,-131.62 35.21,-131.62 32,-128.42 32,-125.21 32,-125.21 32,-118.79 32,-118.79 32,-115.58 35.21,-112.38 38.42,-112.38 38.42,-112.38 79.58,-112.38 79.58,-112.38 82.79,-112.38 86,-115.58 86,-118.79 86,-118.79 86,-125.21 86,-125.21 86,-128.42 82.79,-131.62 79.58,-131.62"/>
<text xml:space="preserve" text-anchor="start" x="42.12" y="-118.62" font-family="Helvetica,sans-Serif" font-size="9.00">main.ts</text>
</a>
</g>
</g>
<!-- src/apps/cli/main.ts&#45;&gt;src/apps/cli/commands.ts -->
<g id="edge11" class="edge">
<title>src/apps/cli/main.ts&#45;&gt;src/apps/cli/commands.ts</title>
<path fill="none" stroke="#000000" stroke-width="2" stroke-opacity="0.200000" d="M86.17,-123.28C107.72,-123.28 134.25,-123.28 134.25,-123.28 134.25,-123.28 134.25,-123.74 134.25,-123.74"/>
<polygon fill="#000000" fill-opacity="0.200000" stroke="#000000" stroke-width="2" stroke-opacity="0.200000" points="132.15,-118.91 134.25,-124.91 136.35,-118.91 132.15,-118.91"/>
</g>
<!-- src/apps/cli/main.ts&#45;&gt;src/apps/cli/conversationHistory.ts -->
<g id="edge12" class="edge">
<title>src/apps/cli/main.ts&#45;&gt;src/apps/cli/conversationHistory.ts</title>
<path fill="none" stroke="#000000" stroke-width="2" stroke-opacity="0.200000" d="M86.29,-125.83C104.17,-125.83 124.25,-125.83 124.25,-125.83 124.25,-125.83 124.25,-151.17 124.25,-151.17"/>
<polygon fill="#000000" fill-opacity="0.200000" stroke="#000000" stroke-width="2" stroke-opacity="0.200000" points="122.15,-151.17 124.25,-157.17 126.35,-151.17 122.15,-151.17"/>
</g>
<!-- src/apps/cli/main.ts&#45;&gt;src/apps/cli/conversationSelection.ts -->
<g id="edge13" class="edge">
<title>src/apps/cli/main.ts&#45;&gt;src/apps/cli/conversationSelection.ts</title>
<path fill="none" stroke="#000000" stroke-width="2" stroke-opacity="0.200000" d="M86.2,-118.17C101.77,-118.17 118.25,-118.17 118.25,-118.17 118.25,-118.17 118.25,-60.99 118.25,-60.99"/>
<polygon fill="#000000" fill-opacity="0.200000" stroke="#000000" stroke-width="2" stroke-opacity="0.200000" points="120.35,-60.99 118.25,-54.99 116.15,-60.99 120.35,-60.99"/>
</g>
<!-- src/runtime/composeCliRuntime.ts -->
<g id="node18" class="node">
<title>src/runtime/composeCliRuntime.ts</title>
<g id="a_node18"><a xlink:href="src/runtime/composeCliRuntime.ts" xlink:title="composeCliRuntime.ts">
<path fill="#ddfeff" stroke="black" d="M220.96,-301.62C220.96,-301.62 117.29,-301.62 117.29,-301.62 114.08,-301.62 110.88,-298.42 110.88,-295.21 110.88,-295.21 110.88,-288.79 110.88,-288.79 110.88,-285.58 114.08,-282.38 117.29,-282.38 117.29,-282.38 220.96,-282.38 220.96,-282.38 224.17,-282.38 227.38,-285.58 227.38,-288.79 227.38,-288.79 227.38,-295.21 227.38,-295.21 227.38,-298.42 224.17,-301.62 220.96,-301.62"/>
<text xml:space="preserve" text-anchor="start" x="118.88" y="-288.62" font-family="Helvetica,sans-Serif" font-size="9.00">composeCliRuntime.ts</text>
</a>
</g>
</g>
<!-- src/apps/cli/main.ts&#45;&gt;src/runtime/composeCliRuntime.ts -->
<g id="edge10" class="edge">
<title>src/apps/cli/main.ts&#45;&gt;src/runtime/composeCliRuntime.ts</title>
<path fill="none" stroke="#000000" stroke-width="2" stroke-opacity="0.200000" d="M59.25,-131.63C59.25,-167.59 59.25,-292 59.25,-292 59.25,-292 101.62,-292 101.62,-292"/>
<polygon fill="#000000" fill-opacity="0.200000" stroke="#000000" stroke-width="2" stroke-opacity="0.200000" points="101.62,-294.1 107.62,-292 101.62,-289.9 101.62,-294.1"/>
</g>
<!-- src/apps/cli/readline.ts -->
<g id="node19" class="node">
<title>src/apps/cli/readline.ts</title>
<g id="a_node19"><a xlink:href="src/apps/cli/readline.ts" xlink:title="readline.ts">
<path fill="#ddfeff" stroke="black" d="M194.33,-83.62C194.33,-83.62 143.92,-83.62 143.92,-83.62 140.71,-83.62 137.5,-80.42 137.5,-77.21 137.5,-77.21 137.5,-70.79 137.5,-70.79 137.5,-67.58 140.71,-64.38 143.92,-64.38 143.92,-64.38 194.33,-64.38 194.33,-64.38 197.54,-64.38 200.75,-67.58 200.75,-70.79 200.75,-70.79 200.75,-77.21 200.75,-77.21 200.75,-80.42 197.54,-83.62 194.33,-83.62"/>
<text xml:space="preserve" text-anchor="start" x="145.5" y="-70.62" font-family="Helvetica,sans-Serif" font-size="9.00">readline.ts</text>
</a>
</g>
</g>
<!-- src/apps/cli/main.ts&#45;&gt;src/apps/cli/readline.ts -->
<g id="edge14" class="edge">
<title>src/apps/cli/main.ts&#45;&gt;src/apps/cli/readline.ts</title>
<path fill="none" stroke="#000000" stroke-width="2" stroke-opacity="0.200000" d="M59.25,-112.29C59.25,-98.26 59.25,-74 59.25,-74 59.25,-74 128.02,-74 128.02,-74"/>
<polygon fill="#000000" fill-opacity="0.200000" stroke="#000000" stroke-width="2" stroke-opacity="0.200000" points="128.02,-76.1 134.02,-74 128.02,-71.9 128.02,-76.1"/>
</g>
<!-- src/apps/cli/render.ts -->
<g id="node20" class="node">
<title>src/apps/cli/render.ts</title>
<g id="a_node20"><a xlink:href="src/apps/cli/render.ts" xlink:title="render.ts">
<path fill="#ddfeff" stroke="black" d="M190.96,-115.62C190.96,-115.62 147.29,-115.62 147.29,-115.62 144.08,-115.62 140.88,-112.42 140.88,-109.21 140.88,-109.21 140.88,-102.79 140.88,-102.79 140.88,-99.58 144.08,-96.38 147.29,-96.38 147.29,-96.38 190.96,-96.38 190.96,-96.38 194.17,-96.38 197.38,-99.58 197.38,-102.79 197.38,-102.79 197.38,-109.21 197.38,-109.21 197.38,-112.42 194.17,-115.62 190.96,-115.62"/>
<text xml:space="preserve" text-anchor="start" x="148.88" y="-102.62" font-family="Helvetica,sans-Serif" font-size="9.00">render.ts</text>
</a>
</g>
</g>
<!-- src/apps/cli/main.ts&#45;&gt;src/apps/cli/render.ts -->
<g id="edge15" class="edge">
<title>src/apps/cli/main.ts&#45;&gt;src/apps/cli/render.ts</title>
<path fill="none" stroke="#000000" stroke-width="2" stroke-opacity="0.200000" d="M86.25,-120.72C118.9,-120.72 169.25,-120.72 169.25,-120.72 169.25,-120.72 169.25,-120.26 169.25,-120.26"/>
<polygon fill="#000000" fill-opacity="0.200000" stroke="#000000" stroke-width="2" stroke-opacity="0.200000" points="171.35,-125.09 169.25,-119.09 167.15,-125.09 171.35,-125.09"/>
</g>
<!-- src/runtime/composeCliRuntime.ts&#45;&gt;src/adapters/codex/auth/CodexAuthClient.ts -->
<g id="edge21" class="edge">
<title>src/runtime/composeCliRuntime.ts&#45;&gt;src/adapters/codex/auth/CodexAuthClient.ts</title>
<path fill="none" stroke="#000000" stroke-width="2" stroke-opacity="0.200000" d="M227.56,-296.81C261.36,-296.81 297.25,-296.81 297.25,-296.81 297.25,-296.81 297.25,-351.97 297.25,-351.97"/>
<polygon fill="#000000" fill-opacity="0.200000" stroke="#000000" stroke-width="2" stroke-opacity="0.200000" points="295.15,-351.97 297.25,-357.97 299.35,-351.97 295.15,-351.97"/>
</g>
<!-- src/runtime/composeCliRuntime.ts&#45;&gt;src/adapters/codex/auth/CodexOAuthFlow.ts -->
<g id="edge22" class="edge">
<title>src/runtime/composeCliRuntime.ts&#45;&gt;src/adapters/codex/auth/CodexOAuthFlow.ts</title>
<path fill="none" stroke="#000000" stroke-width="2" stroke-opacity="0.200000" d="M217.25,-301.85C217.25,-329.02 217.25,-403 217.25,-403 217.25,-403 279.49,-403 279.49,-403"/>
<polygon fill="#000000" fill-opacity="0.200000" stroke="#000000" stroke-width="2" stroke-opacity="0.200000" points="279.49,-405.1 285.49,-403 279.49,-400.9 279.49,-405.1"/>
</g>
<!-- src/runtime/composeCliRuntime.ts&#45;&gt;src/adapters/codex/responses/CodexModelClient.ts -->
<g id="edge23" class="edge">
<title>src/runtime/composeCliRuntime.ts&#45;&gt;src/adapters/codex/responses/CodexModelClient.ts</title>
<path fill="none" stroke="#000000" stroke-width="2" stroke-opacity="0.200000" d="M206.25,-302.11C206.25,-339.24 206.25,-466 206.25,-466 206.25,-466 277.57,-466 277.57,-466"/>
<polygon fill="#000000" fill-opacity="0.200000" stroke="#000000" stroke-width="2" stroke-opacity="0.200000" points="277.57,-468.1 283.57,-466 277.57,-463.9 277.57,-468.1"/>
</g>
<!-- src/runtime/composeCliRuntime.ts&#45;&gt;src/adapters/file&#45;system/JsonAgentConfigStore.ts -->
<g id="edge24" class="edge">
<title>src/runtime/composeCliRuntime.ts&#45;&gt;src/adapters/file&#45;system/JsonAgentConfigStore.ts</title>
<path fill="none" stroke="#000000" stroke-width="2" stroke-opacity="0.200000" d="M185.25,-301.82C185.25,-356.39 185.25,-620 185.25,-620 185.25,-620 267.81,-620 267.81,-620"/>
<polygon fill="#000000" fill-opacity="0.200000" stroke="#000000" stroke-width="2" stroke-opacity="0.200000" points="267.81,-622.1 273.81,-620 267.81,-617.9 267.81,-622.1"/>
</g>
<!-- src/runtime/composeCliRuntime.ts&#45;&gt;src/adapters/file&#45;system/JsonFileTokenStore.ts -->
<g id="edge25" class="edge">
<title>src/runtime/composeCliRuntime.ts&#45;&gt;src/adapters/file&#45;system/JsonFileTokenStore.ts</title>
<path fill="none" stroke="#000000" stroke-width="2" stroke-opacity="0.200000" d="M195.25,-301.85C195.25,-353.21 195.25,-588 195.25,-588 195.25,-588 276.07,-588 276.07,-588"/>
<polygon fill="#000000" fill-opacity="0.200000" stroke="#000000" stroke-width="2" stroke-opacity="0.200000" points="276.07,-590.1 282.07,-588 276.07,-585.9 276.07,-590.1"/>
</g>
<!-- src/runtime/composeCliRuntime.ts&#45;&gt;src/adapters/file&#45;system/JsonlConversationStore.ts -->
<g id="edge26" class="edge">
<title>src/runtime/composeCliRuntime.ts&#45;&gt;src/adapters/file&#45;system/JsonlConversationStore.ts</title>
<path fill="none" stroke="#000000" stroke-width="2" stroke-opacity="0.200000" d="M174.25,-302C174.25,-360.15 174.25,-652 174.25,-652 174.25,-652 265.69,-652 265.69,-652"/>
<polygon fill="#000000" fill-opacity="0.200000" stroke="#000000" stroke-width="2" stroke-opacity="0.200000" points="265.69,-654.1 271.69,-652 265.69,-649.9 265.69,-654.1"/>
</g>
<!-- src/runtime/composeCliRuntime.ts&#45;&gt;src/adapters/memory/simple&#45;linear/SimpleLinearMemory.ts -->
<g id="edge27" class="edge">
<title>src/runtime/composeCliRuntime.ts&#45;&gt;src/adapters/memory/simple&#45;linear/SimpleLinearMemory.ts</title>
<path fill="none" stroke="#000000" stroke-width="2" stroke-opacity="0.200000" d="M164.25,-301.81C164.25,-365.97 164.25,-723 164.25,-723 164.25,-723 270.74,-723 270.74,-723"/>
<polygon fill="#000000" fill-opacity="0.200000" stroke="#000000" stroke-width="2" stroke-opacity="0.200000" points="270.74,-725.1 276.74,-723 270.74,-720.9 270.74,-725.1"/>
</g>
<!-- src/runtime/composeCliRuntime.ts&#45;&gt;src/adapters/tools/MathTool.ts -->
<g id="edge28" class="edge">
<title>src/runtime/composeCliRuntime.ts&#45;&gt;src/adapters/tools/MathTool.ts</title>
<path fill="none" stroke="#000000" stroke-width="2" stroke-opacity="0.200000" d="M153.25,-301.94C153.25,-373.97 153.25,-813 153.25,-813 153.25,-813 297.89,-813 297.89,-813"/>
<polygon fill="#000000" fill-opacity="0.200000" stroke="#000000" stroke-width="2" stroke-opacity="0.200000" points="297.89,-815.1 303.89,-813 297.89,-810.9 297.89,-815.1"/>
</g>
<!-- src/core/agent/Agent.ts -->
<g id="node21" class="node">
<title>src/core/agent/Agent.ts</title>
<g id="a_node21"><a xlink:href="src/core/agent/Agent.ts" xlink:title="Agent.ts">
<path fill="#ddfeff" stroke="black" d="M555.08,-920.62C555.08,-920.62 513.67,-920.62 513.67,-920.62 510.46,-920.62 507.25,-917.42 507.25,-914.21 507.25,-914.21 507.25,-907.79 507.25,-907.79 507.25,-904.58 510.46,-901.38 513.67,-901.38 513.67,-901.38 555.08,-901.38 555.08,-901.38 558.29,-901.38 561.5,-904.58 561.5,-907.79 561.5,-907.79 561.5,-914.21 561.5,-914.21 561.5,-917.42 558.29,-920.62 555.08,-920.62"/>
<text xml:space="preserve" text-anchor="start" x="515.25" y="-907.62" font-family="Helvetica,sans-Serif" font-size="9.00">Agent.ts</text>
</a>
</g>
</g>
<!-- src/runtime/composeCliRuntime.ts&#45;&gt;src/core/agent/Agent.ts -->
<g id="edge29" class="edge">
<title>src/runtime/composeCliRuntime.ts&#45;&gt;src/core/agent/Agent.ts</title>
<path fill="none" stroke="#000000" stroke-width="2" stroke-opacity="0.200000" d="M142.25,-301.97C142.25,-381.59 142.25,-911 142.25,-911 142.25,-911 497.77,-911 497.77,-911"/>
<polygon fill="#000000" fill-opacity="0.200000" stroke="#000000" stroke-width="2" stroke-opacity="0.200000" points="497.77,-913.1 503.77,-911 497.77,-908.9 497.77,-913.1"/>
</g>
<!-- src/core/conversations/ConversationManager.ts -->
<g id="node25" class="node">
<title>src/core/conversations/ConversationManager.ts</title>
<g id="a_node25"><a xlink:href="src/core/conversations/ConversationManager.ts" xlink:title="ConversationManager.ts">
<path fill="#ddfeff" stroke="black" d="M589.96,-1205.62C589.96,-1205.62 478.79,-1205.62 478.79,-1205.62 475.58,-1205.62 472.38,-1202.42 472.38,-1199.21 472.38,-1199.21 472.38,-1192.79 472.38,-1192.79 472.38,-1189.58 475.58,-1186.38 478.79,-1186.38 478.79,-1186.38 589.96,-1186.38 589.96,-1186.38 593.17,-1186.38 596.38,-1189.58 596.38,-1192.79 596.38,-1192.79 596.38,-1199.21 596.38,-1199.21 596.38,-1202.42 593.17,-1205.62 589.96,-1205.62"/>
<text xml:space="preserve" text-anchor="start" x="480.38" y="-1192.62" font-family="Helvetica,sans-Serif" font-size="9.00">ConversationManager.ts</text>
</a>
</g>
</g>
<!-- src/runtime/composeCliRuntime.ts&#45;&gt;src/core/conversations/ConversationManager.ts -->
<g id="edge30" class="edge">
<title>src/runtime/composeCliRuntime.ts&#45;&gt;src/core/conversations/ConversationManager.ts</title>
<path fill="none" stroke="#000000" stroke-width="2" stroke-opacity="0.200000" d="M132.25,-301.84C132.25,-399.81 132.25,-1196 132.25,-1196 132.25,-1196 462.96,-1196 462.96,-1196"/>
<polygon fill="#000000" fill-opacity="0.200000" stroke="#000000" stroke-width="2" stroke-opacity="0.200000" points="462.96,-1198.1 468.96,-1196 462.96,-1193.9 462.96,-1198.1"/>
</g>
<!-- src/core/tools/ToolRegistry.ts -->
<g id="node34" class="node">
<title>src/core/tools/ToolRegistry.ts</title>
<g id="a_node34"><a xlink:href="src/core/tools/ToolRegistry.ts" xlink:title="ToolRegistry.ts">
<path fill="#ddfeff" stroke="black" d="M567.46,-1553.62C567.46,-1553.62 501.29,-1553.62 501.29,-1553.62 498.08,-1553.62 494.88,-1550.42 494.88,-1547.21 494.88,-1547.21 494.88,-1540.79 494.88,-1540.79 494.88,-1537.58 498.08,-1534.38 501.29,-1534.38 501.29,-1534.38 567.46,-1534.38 567.46,-1534.38 570.67,-1534.38 573.88,-1537.58 573.88,-1540.79 573.88,-1540.79 573.88,-1547.21 573.88,-1547.21 573.88,-1550.42 570.67,-1553.62 567.46,-1553.62"/>
<text xml:space="preserve" text-anchor="start" x="502.88" y="-1540.62" font-family="Helvetica,sans-Serif" font-size="9.00">ToolRegistry.ts</text>
</a>
</g>
</g>
<!-- src/runtime/composeCliRuntime.ts&#45;&gt;src/core/tools/ToolRegistry.ts -->
<g id="edge31" class="edge">
<title>src/runtime/composeCliRuntime.ts&#45;&gt;src/core/tools/ToolRegistry.ts</title>
<path fill="none" stroke="#000000" stroke-width="2" stroke-opacity="0.200000" d="M121.25,-302.08C121.25,-420.57 121.25,-1544 121.25,-1544 121.25,-1544 485.36,-1544 485.36,-1544"/>
<polygon fill="#000000" fill-opacity="0.200000" stroke="#000000" stroke-width="2" stroke-opacity="0.200000" points="485.36,-1546.1 491.36,-1544 485.36,-1541.9 485.36,-1546.1"/>
</g>
<!-- src/runtime/CliRuntime.interface.ts -->
<g id="node36" class="node">
<title>src/runtime/CliRuntime.interface.ts</title>
<g id="a_node36"><a xlink:href="src/runtime/CliRuntime.interface.ts" xlink:title="CliRuntime.interface.ts">
<path fill="#ddfeff" stroke="black" d="M393.33,-269.62C393.33,-269.62 287.42,-269.62 287.42,-269.62 284.21,-269.62 281,-266.42 281,-263.21 281,-263.21 281,-256.79 281,-256.79 281,-253.58 284.21,-250.38 287.42,-250.38 287.42,-250.38 393.33,-250.38 393.33,-250.38 396.54,-250.38 399.75,-253.58 399.75,-256.79 399.75,-256.79 399.75,-263.21 399.75,-263.21 399.75,-266.42 396.54,-269.62 393.33,-269.62"/>
<text xml:space="preserve" text-anchor="start" x="289" y="-256.62" font-family="Helvetica,sans-Serif" font-size="9.00">CliRuntime.interface.ts</text>
</a>
</g>
</g>
<!-- src/runtime/composeCliRuntime.ts&#45;&gt;src/runtime/CliRuntime.interface.ts -->
<g id="edge33" class="edge">
<title>src/runtime/composeCliRuntime.ts&#45;&gt;src/runtime/CliRuntime.interface.ts</title>
<path fill="none" stroke="#000000" stroke-width="2" stroke-opacity="0.200000" d="M227.64,-287.19C264.54,-287.19 305.25,-287.19 305.25,-287.19 305.25,-287.19 305.25,-279.15 305.25,-279.15"/>
<polygon fill="#000000" fill-opacity="0.200000" stroke="#000000" stroke-width="2" stroke-opacity="0.200000" points="307.35,-279.15 305.25,-273.15 303.15,-279.15 307.35,-279.15"/>
</g>
<!-- src/runtime/auth.ts -->
<g id="node37" class="node">
<title>src/runtime/auth.ts</title>
<g id="a_node37"><a xlink:href="src/runtime/auth.ts" xlink:title="auth.ts">
<path fill="#ddfeff" stroke="black" d="M360.96,-301.62C360.96,-301.62 319.79,-301.62 319.79,-301.62 316.58,-301.62 313.38,-298.42 313.38,-295.21 313.38,-295.21 313.38,-288.79 313.38,-288.79 313.38,-285.58 316.58,-282.38 319.79,-282.38 319.79,-282.38 360.96,-282.38 360.96,-282.38 364.17,-282.38 367.38,-285.58 367.38,-288.79 367.38,-288.79 367.38,-295.21 367.38,-295.21 367.38,-298.42 364.17,-301.62 360.96,-301.62"/>
<text xml:space="preserve" text-anchor="start" x="324.25" y="-288.62" font-family="Helvetica,sans-Serif" font-size="9.00">auth.ts</text>
</a>
</g>
</g>
<!-- src/runtime/composeCliRuntime.ts&#45;&gt;src/runtime/auth.ts -->
<g id="edge32" class="edge">
<title>src/runtime/composeCliRuntime.ts&#45;&gt;src/runtime/auth.ts</title>
<path fill="none" stroke="#000000" stroke-width="2" stroke-opacity="0.200000" d="M227.58,-292C227.58,-292 304.3,-292 304.3,-292"/>
<polygon fill="#000000" fill-opacity="0.200000" stroke="#000000" stroke-width="2" stroke-opacity="0.200000" points="304.3,-294.1 310.3,-292 304.3,-289.9 304.3,-294.1"/>
</g>
<!-- src/core/agent/events.ts -->
<g id="node22" class="node">
<title>src/core/agent/events.ts</title>
<g id="a_node22"><a xlink:href="src/core/agent/events.ts" xlink:title="events.ts">
<path fill="#ccffcc" stroke="black" d="M556.58,-952.62C556.58,-952.62 512.17,-952.62 512.17,-952.62 508.96,-952.62 505.75,-949.42 505.75,-946.21 505.75,-946.21 505.75,-939.79 505.75,-939.79 505.75,-936.58 508.96,-933.38 512.17,-933.38 512.17,-933.38 556.58,-933.38 556.58,-933.38 559.79,-933.38 563,-936.58 563,-939.79 563,-939.79 563,-946.21 563,-946.21 563,-949.42 559.79,-952.62 556.58,-952.62"/>
<text xml:space="preserve" text-anchor="start" x="513.75" y="-939.62" font-family="Helvetica,sans-Serif" font-size="9.00">events.ts</text>
</a>
</g>
</g>
<!-- src/core/auth/OAuthFlow.interface.ts -->
<g id="node23" class="node">
<title>src/core/auth/OAuthFlow.interface.ts</title>
<g id="a_node23"><a xlink:href="src/core/auth/OAuthFlow.interface.ts" xlink:title="OAuthFlow.interface.ts">
<path fill="#ccffcc" stroke="black" d="M586.96,-1015.62C586.96,-1015.62 481.79,-1015.62 481.79,-1015.62 478.58,-1015.62 475.38,-1012.42 475.38,-1009.21 475.38,-1009.21 475.38,-1002.79 475.38,-1002.79 475.38,-999.58 478.58,-996.38 481.79,-996.38 481.79,-996.38 586.96,-996.38 586.96,-996.38 590.17,-996.38 593.38,-999.58 593.38,-1002.79 593.38,-1002.79 593.38,-1009.21 593.38,-1009.21 593.38,-1012.42 590.17,-1015.62 586.96,-1015.62"/>
<text xml:space="preserve" text-anchor="start" x="483.38" y="-1002.62" font-family="Helvetica,sans-Serif" font-size="9.00">OAuthFlow.interface.ts</text>
</a>
</g>
</g>
<!-- src/core/auth/TokenStore.interface.ts -->
<g id="node24" class="node">
<title>src/core/auth/TokenStore.interface.ts</title>
<g id="a_node24"><a xlink:href="src/core/auth/TokenStore.interface.ts" xlink:title="TokenStore.interface.ts">
<path fill="#ccffcc" stroke="black" d="M587.71,-1047.62C587.71,-1047.62 481.04,-1047.62 481.04,-1047.62 477.83,-1047.62 474.62,-1044.42 474.62,-1041.21 474.62,-1041.21 474.62,-1034.79 474.62,-1034.79 474.62,-1031.58 477.83,-1028.38 481.04,-1028.38 481.04,-1028.38 587.71,-1028.38 587.71,-1028.38 590.92,-1028.38 594.12,-1031.58 594.12,-1034.79 594.12,-1034.79 594.12,-1041.21 594.12,-1041.21 594.12,-1044.42 590.92,-1047.62 587.71,-1047.62"/>
<text xml:space="preserve" text-anchor="start" x="482.62" y="-1034.62" font-family="Helvetica,sans-Serif" font-size="9.00">TokenStore.interface.ts</text>
</a>
</g>
</g>
<!-- src/core/conversations/ConversationManager.ts&#45;&gt;src/core/errors/AgentError.interface.ts -->
<g id="edge16" class="edge">
<title>src/core/conversations/ConversationManager.ts&#45;&gt;src/core/errors/AgentError.interface.ts</title>
<path fill="none" stroke="#000000" stroke-width="2" stroke-opacity="0.200000" d="M596.83,-1191.19C617.46,-1191.19 635.25,-1191.19 635.25,-1191.19 635.25,-1191.19 635.25,-1002.79 635.25,-1002.79 635.25,-1002.79 659.54,-1002.79 659.54,-1002.79"/>
<polygon fill="#000000" fill-opacity="0.200000" stroke="#000000" stroke-width="2" stroke-opacity="0.200000" points="659.54,-1004.89 665.54,-1002.79 659.54,-1000.69 659.54,-1004.89"/>
</g>
<!-- src/core/conversations/ConversationManager.ts&#45;&gt;src/core/conversations/ConversationRecord.interface.ts -->
<g id="edge17" class="edge">
<title>src/core/conversations/ConversationManager.ts&#45;&gt;src/core/conversations/ConversationRecord.interface.ts</title>
<path fill="none" stroke="#000000" stroke-width="2" stroke-opacity="0.200000" d="M596.54,-1196C633.9,-1196 674.25,-1196 674.25,-1196 674.25,-1196 674.25,-1183.15 674.25,-1183.15"/>
<polygon fill="#000000" fill-opacity="0.200000" stroke="#000000" stroke-width="2" stroke-opacity="0.200000" points="676.35,-1183.15 674.25,-1177.15 672.15,-1183.15 676.35,-1183.15"/>
</g>
<!-- src/core/conversations/ids.ts -->
<g id="node27" class="node">
<title>src/core/conversations/ids.ts</title>
<g id="a_node27"><a xlink:href="src/core/conversations/ids.ts" xlink:title="ids.ts">
<path fill="#ddfeff" stroke="black" d="M748.83,-1205.62C748.83,-1205.62 707.67,-1205.62 707.67,-1205.62 704.46,-1205.62 701.25,-1202.42 701.25,-1199.21 701.25,-1199.21 701.25,-1192.79 701.25,-1192.79 701.25,-1189.58 704.46,-1186.38 707.67,-1186.38 707.67,-1186.38 748.83,-1186.38 748.83,-1186.38 752.04,-1186.38 755.25,-1189.58 755.25,-1192.79 755.25,-1192.79 755.25,-1199.21 755.25,-1199.21 755.25,-1202.42 752.04,-1205.62 748.83,-1205.62"/>
<text xml:space="preserve" text-anchor="start" x="716.25" y="-1192.62" font-family="Helvetica,sans-Serif" font-size="9.00">ids.ts</text>
</a>
</g>
</g>
<!-- src/core/conversations/ConversationManager.ts&#45;&gt;src/core/conversations/ids.ts -->
<g id="edge18" class="edge">
<title>src/core/conversations/ConversationManager.ts&#45;&gt;src/core/conversations/ids.ts</title>
<path fill="none" stroke="#000000" stroke-width="2" stroke-opacity="0.200000" d="M596.79,-1200.81C596.79,-1200.81 691.81,-1200.81 691.81,-1200.81"/>
<polygon fill="#000000" fill-opacity="0.200000" stroke="#000000" stroke-width="2" stroke-opacity="0.200000" points="691.81,-1202.91 697.81,-1200.81 691.81,-1198.71 691.81,-1202.91"/>
</g>
<!-- src/core/conversations/ConversationRuntime.interface.ts -->
<g id="node28" class="node">
<title>src/core/conversations/ConversationRuntime.interface.ts</title>
<g id="a_node28"><a xlink:href="src/core/conversations/ConversationRuntime.interface.ts" xlink:title="ConversationRuntime.interface.ts">
<path fill="#ccffcc" stroke="black" d="M611.33,-1237.62C611.33,-1237.62 457.42,-1237.62 457.42,-1237.62 454.21,-1237.62 451,-1234.42 451,-1231.21 451,-1231.21 451,-1224.79 451,-1224.79 451,-1221.58 454.21,-1218.38 457.42,-1218.38 457.42,-1218.38 611.33,-1218.38 611.33,-1218.38 614.54,-1218.38 617.75,-1221.58 617.75,-1224.79 617.75,-1224.79 617.75,-1231.21 617.75,-1231.21 617.75,-1234.42 614.54,-1237.62 611.33,-1237.62"/>
<text xml:space="preserve" text-anchor="start" x="459" y="-1224.62" font-family="Helvetica,sans-Serif" font-size="9.00">ConversationRuntime.interface.ts</text>
</a>
</g>
</g>
<!-- src/core/conversations/ConversationStore.interface.ts -->
<g id="node29" class="node">
<title>src/core/conversations/ConversationStore.interface.ts</title>
<g id="a_node29"><a xlink:href="src/core/conversations/ConversationStore.interface.ts" xlink:title="ConversationStore.interface.ts">
<path fill="#ccffcc" stroke="black" d="M604.21,-1269.62C604.21,-1269.62 464.54,-1269.62 464.54,-1269.62 461.33,-1269.62 458.12,-1266.42 458.12,-1263.21 458.12,-1263.21 458.12,-1256.79 458.12,-1256.79 458.12,-1253.58 461.33,-1250.38 464.54,-1250.38 464.54,-1250.38 604.21,-1250.38 604.21,-1250.38 607.42,-1250.38 610.62,-1253.58 610.62,-1256.79 610.62,-1256.79 610.62,-1263.21 610.62,-1263.21 610.62,-1266.42 607.42,-1269.62 604.21,-1269.62"/>
<text xml:space="preserve" text-anchor="start" x="466.12" y="-1256.62" font-family="Helvetica,sans-Serif" font-size="9.00">ConversationStore.interface.ts</text>
</a>
</g>
</g>
<!-- src/core/memory/AgentMemory.interface.ts -->
<g id="node30" class="node">
<title>src/core/memory/AgentMemory.interface.ts</title>
<g id="a_node30"><a xlink:href="src/core/memory/AgentMemory.interface.ts" xlink:title="AgentMemory.interface.ts">
<path fill="#ccffcc" stroke="black" d="M593.71,-1332.62C593.71,-1332.62 475.04,-1332.62 475.04,-1332.62 471.83,-1332.62 468.62,-1329.42 468.62,-1326.21 468.62,-1326.21 468.62,-1319.79 468.62,-1319.79 468.62,-1316.58 471.83,-1313.38 475.04,-1313.38 475.04,-1313.38 593.71,-1313.38 593.71,-1313.38 596.92,-1313.38 600.12,-1316.58 600.12,-1319.79 600.12,-1319.79 600.12,-1326.21 600.12,-1326.21 600.12,-1329.42 596.92,-1332.62 593.71,-1332.62"/>
<text xml:space="preserve" text-anchor="start" x="476.62" y="-1319.62" font-family="Helvetica,sans-Serif" font-size="9.00">AgentMemory.interface.ts</text>
</a>
</g>
</g>
<!-- src/core/model/ModelClient.interface.ts -->
<g id="node31" class="node">
<title>src/core/model/ModelClient.interface.ts</title>
<g id="a_node31"><a xlink:href="src/core/model/ModelClient.interface.ts" xlink:title="ModelClient.interface.ts">
<path fill="#ccffcc" stroke="black" d="M588.83,-1395.62C588.83,-1395.62 479.92,-1395.62 479.92,-1395.62 476.71,-1395.62 473.5,-1392.42 473.5,-1389.21 473.5,-1389.21 473.5,-1382.79 473.5,-1382.79 473.5,-1379.58 476.71,-1376.38 479.92,-1376.38 479.92,-1376.38 588.83,-1376.38 588.83,-1376.38 592.04,-1376.38 595.25,-1379.58 595.25,-1382.79 595.25,-1382.79 595.25,-1389.21 595.25,-1389.21 595.25,-1392.42 592.04,-1395.62 588.83,-1395.62"/>
<text xml:space="preserve" text-anchor="start" x="481.5" y="-1382.62" font-family="Helvetica,sans-Serif" font-size="9.00">ModelClient.interface.ts</text>
</a>
</g>
</g>
<!-- src/core/settings/ResponseSettings.interface.ts -->
<g id="node32" class="node">
<title>src/core/settings/ResponseSettings.interface.ts</title>
<g id="a_node32"><a xlink:href="src/core/settings/ResponseSettings.interface.ts" xlink:title="ResponseSettings.interface.ts">
<path fill="#ccffcc" stroke="black" d="M603.08,-1458.62C603.08,-1458.62 465.67,-1458.62 465.67,-1458.62 462.46,-1458.62 459.25,-1455.42 459.25,-1452.21 459.25,-1452.21 459.25,-1445.79 459.25,-1445.79 459.25,-1442.58 462.46,-1439.38 465.67,-1439.38 465.67,-1439.38 603.08,-1439.38 603.08,-1439.38 606.29,-1439.38 609.5,-1442.58 609.5,-1445.79 609.5,-1445.79 609.5,-1452.21 609.5,-1452.21 609.5,-1455.42 606.29,-1458.62 603.08,-1458.62"/>
<text xml:space="preserve" text-anchor="start" x="467.25" y="-1445.62" font-family="Helvetica,sans-Serif" font-size="9.00">ResponseSettings.interface.ts</text>
</a>
</g>
</g>
<!-- src/core/tools/Tool.interface.ts -->
<g id="node33" class="node">
<title>src/core/tools/Tool.interface.ts</title>
<g id="a_node33"><a xlink:href="src/core/tools/Tool.interface.ts" xlink:title="Tool.interface.ts">
<path fill="#ccffcc" stroke="black" d="M571.21,-1521.62C571.21,-1521.62 497.54,-1521.62 497.54,-1521.62 494.33,-1521.62 491.12,-1518.42 491.12,-1515.21 491.12,-1515.21 491.12,-1508.79 491.12,-1508.79 491.12,-1505.58 494.33,-1502.38 497.54,-1502.38 497.54,-1502.38 571.21,-1502.38 571.21,-1502.38 574.42,-1502.38 577.62,-1505.58 577.62,-1508.79 577.62,-1508.79 577.62,-1515.21 577.62,-1515.21 577.62,-1518.42 574.42,-1521.62 571.21,-1521.62"/>
<text xml:space="preserve" text-anchor="start" x="499.12" y="-1508.62" font-family="Helvetica,sans-Serif" font-size="9.00">Tool.interface.ts</text>
</a>
</g>
</g>
<!-- src/core/tools/ToolRegistry.ts&#45;&gt;src/core/errors/AgentError.interface.ts -->
<g id="edge20" class="edge">
<title>src/core/tools/ToolRegistry.ts&#45;&gt;src/core/errors/AgentError.interface.ts</title>
<path fill="none" stroke="#000000" stroke-width="2" stroke-opacity="0.200000" d="M574.17,-1544C604.56,-1544 641.25,-1544 641.25,-1544 641.25,-1544 641.25,-1009.21 641.25,-1009.21 641.25,-1009.21 659.75,-1009.21 659.75,-1009.21"/>
<polygon fill="#000000" fill-opacity="0.200000" stroke="#000000" stroke-width="2" stroke-opacity="0.200000" points="659.75,-1011.31 665.75,-1009.21 659.75,-1007.11 659.75,-1011.31"/>
</g>
<!-- src/core/tools/ToolRuntime.interface.ts -->
<g id="node35" class="node">
<title>src/core/tools/ToolRuntime.interface.ts</title>
<g id="a_node35"><a xlink:href="src/core/tools/ToolRuntime.interface.ts" xlink:title="ToolRuntime.interface.ts">
<path fill="#ccffcc" stroke="black" d="M590.33,-1585.62C590.33,-1585.62 478.42,-1585.62 478.42,-1585.62 475.21,-1585.62 472,-1582.42 472,-1579.21 472,-1579.21 472,-1572.79 472,-1572.79 472,-1569.58 475.21,-1566.38 478.42,-1566.38 478.42,-1566.38 590.33,-1566.38 590.33,-1566.38 593.54,-1566.38 596.75,-1569.58 596.75,-1572.79 596.75,-1572.79 596.75,-1579.21 596.75,-1579.21 596.75,-1582.42 593.54,-1585.62 590.33,-1585.62"/>
<text xml:space="preserve" text-anchor="start" x="480" y="-1572.62" font-family="Helvetica,sans-Serif" font-size="9.00">ToolRuntime.interface.ts</text>
</a>
</g>
</g>
</g>
</svg>
