<?xml version="1.0" encoding="UTF-8" standalone="no"?>
<!DOCTYPE svg PUBLIC "-//W3C//DTD SVG 1.1//EN"
 "http://www.w3.org/Graphics/SVG/1.1/DTD/svg11.dtd">
<!-- Generated by graphviz version 14.1.5 (0)
 -->
<!-- Title: dependency&#45;cruiser output Pages: 1 -->
<svg width="1318pt" height="758pt"
 viewBox="0.00 0.00 1318.00 758.00" xmlns="http://www.w3.org/2000/svg" xmlns:xlink="http://www.w3.org/1999/xlink">
<g id="graph0" class="graph" transform="scale(1 1) rotate(0) translate(4 754)">
<title>dependency&#45;cruiser output</title>
<polygon fill="white" stroke="none" points="-4,4 -4,-754 1313.5,-754 1313.5,4 -4,4"/>
<g id="clust1" class="cluster">
<title>cluster_src</title>
<path fill="#ffffff" stroke="black" stroke-width="2" d="M20,-8C20,-8 1289.5,-8 1289.5,-8 1295.5,-8 1301.5,-14 1301.5,-20 1301.5,-20 1301.5,-730 1301.5,-730 1301.5,-736 1295.5,-742 1289.5,-742 1289.5,-742 20,-742 20,-742 14,-742 8,-736 8,-730 8,-730 8,-20 8,-20 8,-14 14,-8 20,-8"/>
<text xml:space="preserve" text-anchor="middle" x="654.75" y="-729.45" font-family="Helvetica,sans-Serif" font-weight="bold" font-size="9.00">src</text>
</g>
<g id="clust2" class="cluster">
<title>cluster_src/adapters</title>
<path fill="#ffffff" stroke="black" stroke-width="2" d="M194.25,-16C194.25,-16 338.5,-16 338.5,-16 344.5,-16 350.5,-22 350.5,-28 350.5,-28 350.5,-576 350.5,-576 350.5,-582 344.5,-588 338.5,-588 338.5,-588 194.25,-588 194.25,-588 188.25,-588 182.25,-582 182.25,-576 182.25,-576 182.25,-28 182.25,-28 182.25,-22 188.25,-16 194.25,-16"/>
<text xml:space="preserve" text-anchor="middle" x="266.38" y="-575.45" font-family="Helvetica,sans-Serif" font-weight="bold" font-size="9.00">adapters</text>
</g>
<g id="clust3" class="cluster">
<title>cluster_src/adapters/codex</title>
<path fill="#ffffff" stroke="black" stroke-width="2" d="M207.88,-185C207.88,-185 324.88,-185 324.88,-185 330.88,-185 336.88,-191 336.88,-197 336.88,-197 336.88,-422 336.88,-422 336.88,-428 330.88,-434 324.88,-434 324.88,-434 207.88,-434 207.88,-434 201.88,-434 195.88,-428 195.88,-422 195.88,-422 195.88,-197 195.88,-197 195.88,-191 201.88,-185 207.88,-185"/>
<text xml:space="preserve" text-anchor="middle" x="266.38" y="-421.45" font-family="Helvetica,sans-Serif" font-weight="bold" font-size="9.00">codex</text>
</g>
<g id="clust4" class="cluster">
<title>cluster_src/adapters/codex/auth</title>
<path fill="#ffffff" stroke="black" stroke-width="2" d="M218.88,-320C218.88,-320 313.88,-320 313.88,-320 319.88,-320 325.88,-326 325.88,-332 325.88,-332 325.88,-395 325.88,-395 325.88,-401 319.88,-407 313.88,-407 313.88,-407 218.88,-407 218.88,-407 212.88,-407 206.88,-401 206.88,-395 206.88,-395 206.88,-332 206.88,-332 206.88,-326 212.88,-320 218.88,-320"/>
<text xml:space="preserve" text-anchor="middle" x="266.38" y="-394.45" font-family="Helvetica,sans-Serif" font-weight="bold" font-size="9.00">auth</text>
</g>
<g id="clust5" class="cluster">
<title>cluster_src/adapters/codex/responses</title>
<path fill="#ffffff" stroke="black" stroke-width="2" d="M215.88,-193C215.88,-193 316.88,-193 316.88,-193 322.88,-193 328.88,-199 328.88,-205 328.88,-205 328.88,-300 328.88,-300 328.88,-306 322.88,-312 316.88,-312 316.88,-312 215.88,-312 215.88,-312 209.88,-312 203.88,-306 203.88,-300 203.88,-300 203.88,-205 203.88,-205 203.88,-199 209.88,-193 215.88,-193"/>
<text xml:space="preserve" text-anchor="middle" x="266.38" y="-299.45" font-family="Helvetica,sans-Serif" font-weight="bold" font-size="9.00">responses</text>
</g>
<g id="clust6" class="cluster">
<title>cluster_src/adapters/file&#45;system</title>
<path fill="#ffffff" stroke="black" stroke-width="2" d="M205,-442C205,-442 327.75,-442 327.75,-442 333.75,-442 339.75,-448 339.75,-454 339.75,-454 339.75,-549 339.75,-549 339.75,-555 333.75,-561 327.75,-561 327.75,-561 205,-561 205,-561 199,-561 193,-555 193,-549 193,-549 193,-454 193,-454 193,-448 199,-442 205,-442"/>
<text xml:space="preserve" text-anchor="middle" x="266.38" y="-548.45" font-family="Helvetica,sans-Serif" font-weight="bold" font-size="9.00">file&#45;system</text>
</g>
<g id="clust7" class="cluster">
<title>cluster_src/adapters/memory</title>
<path fill="#ffffff" stroke="black" stroke-width="2" d="M202.25,-87C202.25,-87 330.5,-87 330.5,-87 336.5,-87 342.5,-93 342.5,-99 342.5,-99 342.5,-165 342.5,-165 342.5,-171 336.5,-177 330.5,-177 330.5,-177 202.25,-177 202.25,-177 196.25,-177 190.25,-171 190.25,-165 190.25,-165 190.25,-99 190.25,-99 190.25,-93 196.25,-87 202.25,-87"/>
<text xml:space="preserve" text-anchor="middle" x="266.38" y="-164.45" font-family="Helvetica,sans-Serif" font-weight="bold" font-size="9.00">memory</text>
</g>
<g id="clust8" class="cluster">
<title>cluster_src/adapters/memory/simple&#45;linear</title>
<path fill="#ffffff" stroke="black" stroke-width="2" d="M210.25,-95C210.25,-95 322.5,-95 322.5,-95 328.5,-95 334.5,-101 334.5,-107 334.5,-107 334.5,-138 334.5,-138 334.5,-144 328.5,-150 322.5,-150 322.5,-150 210.25,-150 210.25,-150 204.25,-150 198.25,-144 198.25,-138 198.25,-138 198.25,-107 198.25,-107 198.25,-101 204.25,-95 210.25,-95"/>
<text xml:space="preserve" text-anchor="middle" x="266.38" y="-137.45" font-family="Helvetica,sans-Serif" font-weight="bold" font-size="9.00">simple&#45;linear</text>
</g>
<g id="clust9" class="cluster">
<title>cluster_src/adapters/tools</title>
<path fill="#ffffff" stroke="black" stroke-width="2" d="M237.25,-24C237.25,-24 295.5,-24 295.5,-24 301.5,-24 307.5,-30 307.5,-36 307.5,-36 307.5,-67 307.5,-67 307.5,-73 301.5,-79 295.5,-79 295.5,-79 237.25,-79 237.25,-79 231.25,-79 225.25,-73 225.25,-67 225.25,-67 225.25,-36 225.25,-36 225.25,-30 231.25,-24 237.25,-24"/>
<text xml:space="preserve" text-anchor="middle" x="266.38" y="-66.45" font-family="Helvetica,sans-Serif" font-weight="bold" font-size="9.00">tools</text>
</g>
<g id="clust10" class="cluster">
<title>cluster_src/apps</title>
<path fill="#ffffff" stroke="black" stroke-width="2" d="M28,-465C28,-465 162.25,-465 162.25,-465 168.25,-465 174.25,-471 174.25,-477 174.25,-477 174.25,-703 174.25,-703 174.25,-709 168.25,-715 162.25,-715 162.25,-715 28,-715 28,-715 22,-715 16,-709 16,-703 16,-703 16,-477 16,-477 16,-471 22,-465 28,-465"/>
<text xml:space="preserve" text-anchor="middle" x="95.12" y="-702.45" font-family="Helvetica,sans-Serif" font-weight="bold" font-size="9.00">apps</text>
</g>
<g id="clust11" class="cluster">
<title>cluster_src/apps/cli</title>
<path fill="#ffffff" stroke="black" stroke-width="2" d="M36,-473C36,-473 154.25,-473 154.25,-473 160.25,-473 166.25,-479 166.25,-485 166.25,-485 166.25,-676 166.25,-676 166.25,-682 160.25,-688 154.25,-688 154.25,-688 36,-688 36,-688 30,-688 24,-682 24,-676 24,-676 24,-485 24,-485 24,-479 30,-473 36,-473"/>
<text xml:space="preserve" text-anchor="middle" x="95.12" y="-675.45" font-family="Helvetica,sans-Serif" font-weight="bold" font-size="9.00">cli</text>
</g>
<g id="clust12" class="cluster">
<title>cluster_src/core</title>
<path fill="#ffffff" stroke="black" stroke-width="2" d="M370.5,-177C370.5,-177 1281.5,-177 1281.5,-177 1287.5,-177 1293.5,-183 1293.5,-189 1293.5,-189 1293.5,-703 1293.5,-703 1293.5,-709 1287.5,-715 1281.5,-715 1281.5,-715 370.5,-715 370.5,-715 364.5,-715 358.5,-709 358.5,-703 358.5,-703 358.5,-189 358.5,-189 358.5,-183 364.5,-177 370.5,-177"/>
<text xml:space="preserve" text-anchor="middle" x="826" y="-702.45" font-family="Helvetica,sans-Serif" font-weight="bold" font-size="9.00">core</text>
</g>
<g id="clust13" class="cluster">
<title>cluster_src/core/agent</title>
<path fill="#ffffff" stroke="black" stroke-width="2" d="M445.25,-348C445.25,-348 690.25,-348 690.25,-348 696.25,-348 702.25,-354 702.25,-360 702.25,-360 702.25,-391 702.25,-391 702.25,-397 696.25,-403 690.25,-403 690.25,-403 445.25,-403 445.25,-403 439.25,-403 433.25,-397 433.25,-391 433.25,-391 433.25,-360 433.25,-360 433.25,-354 439.25,-348 445.25,-348"/>
<text xml:space="preserve" text-anchor="middle" x="567.75" y="-390.45" font-family="Helvetica,sans-Serif" font-weight="bold" font-size="9.00">agent</text>
</g>
<g id="clust14" class="cluster">
<title>cluster_src/core/auth</title>
<path fill="#ffffff" stroke="black" stroke-width="2" d="M412.62,-411C412.62,-411 524.12,-411 524.12,-411 530.12,-411 536.12,-417 536.12,-423 536.12,-423 536.12,-486 536.12,-486 536.12,-492 530.12,-498 524.12,-498 524.12,-498 412.62,-498 412.62,-498 406.62,-498 400.62,-492 400.62,-486 400.62,-486 400.62,-423 400.62,-423 400.62,-417 406.62,-411 412.62,-411"/>
<text xml:space="preserve" text-anchor="middle" x="468.38" y="-485.45" font-family="Helvetica,sans-Serif" font-weight="bold" font-size="9.00">auth</text>
</g>
<g id="clust15" class="cluster">
<title>cluster_src/core/config</title>
<path fill="#ffffff" stroke="black" stroke-width="2" d="M1131.25,-581C1131.25,-581 1273.5,-581 1273.5,-581 1279.5,-581 1285.5,-587 1285.5,-593 1285.5,-593 1285.5,-624 1285.5,-624 1285.5,-630 1279.5,-636 1273.5,-636 1273.5,-636 1131.25,-636 1131.25,-636 1125.25,-636 1119.25,-630 1119.25,-624 1119.25,-624 1119.25,-593 1119.25,-593 1119.25,-587 1125.25,-581 1131.25,-581"/>
<text xml:space="preserve" text-anchor="middle" x="1202.38" y="-623.45" font-family="Helvetica,sans-Serif" font-weight="bold" font-size="9.00">config</text>
</g>
<g id="clust16" class="cluster">
<title>cluster_src/core/conversations</title>
<path fill="#ffffff" stroke="black" stroke-width="2" d="M378.5,-506C378.5,-506 925,-506 925,-506 931,-506 937,-512 937,-518 937,-518 937,-613 937,-613 937,-619 931,-625 925,-625 925,-625 378.5,-625 378.5,-625 372.5,-625 366.5,-619 366.5,-613 366.5,-613 366.5,-518 366.5,-518 366.5,-512 372.5,-506 378.5,-506"/>
<text xml:space="preserve" text-anchor="middle" x="651.75" y="-612.45" font-family="Helvetica,sans-Serif" font-weight="bold" font-size="9.00">conversations</text>
</g>
<g id="clust17" class="cluster">
<title>cluster_src/core/errors</title>
<path fill="#ffffff" stroke="black" stroke-width="2" d="M413,-633C413,-633 523.75,-633 523.75,-633 529.75,-633 535.75,-639 535.75,-645 535.75,-645 535.75,-676 535.75,-676 535.75,-682 529.75,-688 523.75,-688 523.75,-688 413,-688 413,-688 407,-688 401,-682 401,-676 401,-676 401,-645 401,-645 401,-639 407,-633 413,-633"/>
<text xml:space="preserve" text-anchor="middle" x="468.38" y="-675.45" font-family="Helvetica,sans-Serif" font-weight="bold" font-size="9.00">errors</text>
</g>
<g id="clust18" class="cluster">
<title>cluster_src/core/memory</title>
<path fill="#ffffff" stroke="black" stroke-width="2" d="M603.88,-207C603.88,-207 727.38,-207 727.38,-207 733.38,-207 739.38,-213 739.38,-219 739.38,-219 739.38,-250 739.38,-250 739.38,-256 733.38,-262 727.38,-262 727.38,-262 603.88,-262 603.88,-262 597.88,-262 591.88,-256 591.88,-250 591.88,-250 591.88,-219 591.88,-219 591.88,-213 597.88,-207 603.88,-207"/>
<text xml:space="preserve" text-anchor="middle" x="665.62" y="-249.45" font-family="Helvetica,sans-Serif" font-weight="bold" font-size="9.00">memory</text>
</g>
<g id="clust19" class="cluster">
<title>cluster_src/core/model</title>
<path fill="#ffffff" stroke="black" stroke-width="2" d="M792.12,-185C792.12,-185 905.88,-185 905.88,-185 911.88,-185 917.88,-191 917.88,-197 917.88,-197 917.88,-228 917.88,-228 917.88,-234 911.88,-240 905.88,-240 905.88,-240 792.12,-240 792.12,-240 786.12,-240 780.12,-234 780.12,-228 780.12,-228 780.12,-197 780.12,-197 780.12,-191 786.12,-185 792.12,-185"/>
<text xml:space="preserve" text-anchor="middle" x="849" y="-227.45" font-family="Helvetica,sans-Serif" font-weight="bold" font-size="9.00">model</text>
</g>
<g id="clust20" class="cluster">
<title>cluster_src/core/settings</title>
<path fill="#ffffff" stroke="black" stroke-width="2" d="M957,-530C957,-530 1099.25,-530 1099.25,-530 1105.25,-530 1111.25,-536 1111.25,-542 1111.25,-542 1111.25,-573 1111.25,-573 1111.25,-579 1105.25,-585 1099.25,-585 1099.25,-585 957,-585 957,-585 951,-585 945,-579 945,-573 945,-573 945,-542 945,-542 945,-536 951,-530 957,-530"/>
<text xml:space="preserve" text-anchor="middle" x="1028.12" y="-572.45" font-family="Helvetica,sans-Serif" font-weight="bold" font-size="9.00">settings</text>
</g>
<g id="clust21" class="cluster">
<title>cluster_src/core/tools</title>
<path fill="#ffffff" stroke="black" stroke-width="2" d="M630.12,-270C630.12,-270 1067.38,-270 1067.38,-270 1073.38,-270 1079.38,-276 1079.38,-282 1079.38,-282 1079.38,-328 1079.38,-328 1079.38,-334 1073.38,-340 1067.38,-340 1067.38,-340 630.12,-340 630.12,-340 624.12,-340 618.12,-334 618.12,-328 618.12,-328 618.12,-282 618.12,-282 618.12,-276 624.12,-270 630.12,-270"/>
<text xml:space="preserve" text-anchor="middle" x="848.75" y="-327.45" font-family="Helvetica,sans-Serif" font-weight="bold" font-size="9.00">tools</text>
</g>
<g id="clust22" class="cluster">
<title>cluster_src/runtime</title>
<path fill="#ffffff" stroke="black" stroke-width="2" d="M211,-596C211,-596 321.75,-596 321.75,-596 327.75,-596 333.75,-602 333.75,-608 333.75,-608 333.75,-703 333.75,-703 333.75,-709 327.75,-715 321.75,-715 321.75,-715 211,-715 211,-715 205,-715 199,-709 199,-703 199,-703 199,-608 199,-608 199,-602 205,-596 211,-596"/>
<text xml:space="preserve" text-anchor="middle" x="266.38" y="-702.45" font-family="Helvetica,sans-Serif" font-weight="bold" font-size="9.00">runtime</text>
</g>
<!-- src/adapters/codex/auth/CodexAuthClient.ts -->
<g id="node1" class="node">
<title>src/adapters/codex/auth/CodexAuthClient.ts</title>
<g id="a_node1"><a xlink:href="src/adapters/codex/auth/CodexAuthClient.ts" xlink:title="CodexAuthClient.ts">
<path fill="#ddfeff" stroke="black" d="M311.08,-379.62C311.08,-379.62 221.67,-379.62 221.67,-379.62 218.46,-379.62 215.25,-376.42 215.25,-373.21 215.25,-373.21 215.25,-366.79 215.25,-366.79 215.25,-363.58 218.46,-360.38 221.67,-360.38 221.67,-360.38 311.08,-360.38 311.08,-360.38 314.29,-360.38 317.5,-363.58 317.5,-366.79 317.5,-366.79 317.5,-373.21 317.5,-373.21 317.5,-376.42 314.29,-379.62 311.08,-379.62"/>
<text xml:space="preserve" text-anchor="start" x="223.25" y="-366.62" font-family="Helvetica,sans-Serif" font-size="9.00">CodexAuthClient.ts</text>
</a>
</g>
</g>
<!-- src/core/auth/TokenStore.interface.ts -->
<g id="node2" class="node">
<title>src/core/auth/TokenStore.interface.ts</title>
<g id="a_node2"><a xlink:href="src/core/auth/TokenStore.interface.ts" xlink:title="TokenStore.interface.ts">
<path fill="#ccffcc" stroke="black" d="M521.71,-470.62C521.71,-470.62 415.04,-470.62 415.04,-470.62 411.83,-470.62 408.62,-467.42 408.62,-464.21 408.62,-464.21 408.62,-457.79 408.62,-457.79 408.62,-454.58 411.83,-451.38 415.04,-451.38 415.04,-451.38 521.71,-451.38 521.71,-451.38 524.92,-451.38 528.12,-454.58 528.12,-457.79 528.12,-457.79 528.12,-464.21 528.12,-464.21 528.12,-467.42 524.92,-470.62 521.71,-470.62"/>
<text xml:space="preserve" text-anchor="start" x="416.62" y="-457.62" font-family="Helvetica,sans-Serif" font-size="9.00">TokenStore.interface.ts</text>
</a>
</g>
</g>
<!-- src/adapters/codex/auth/CodexAuthClient.ts&#45;&gt;src/core/auth/TokenStore.interface.ts -->
<g id="edge1" class="edge">
<title>src/adapters/codex/auth/CodexAuthClient.ts&#45;&gt;src/core/auth/TokenStore.interface.ts</title>
<path fill="none" stroke="#000000" stroke-opacity="0.200000" d="M317.81,-368C336.67,-368 353.5,-368 353.5,-368 353.5,-368 353.5,-455.94 353.5,-455.94 353.5,-455.94 400.73,-455.94 400.73,-455.94"/>
<polygon fill="none" stroke="#000000" stroke-opacity="0.200000" points="400.73,-458.04 406.73,-455.94 400.73,-453.84 400.73,-458.04"/>
</g>
<!-- src/adapters/codex/auth/CodexOAuthFlow.ts -->
<g id="node3" class="node">
<title>src/adapters/codex/auth/CodexOAuthFlow.ts</title>
<g id="a_node3"><a xlink:href="src/adapters/codex/auth/CodexOAuthFlow.ts" xlink:title="CodexOAuthFlow.ts">
<path fill="#ddfeff" stroke="black" d="M311.46,-347.62C311.46,-347.62 221.29,-347.62 221.29,-347.62 218.08,-347.62 214.88,-344.42 214.88,-341.21 214.88,-341.21 214.88,-334.79 214.88,-334.79 214.88,-331.58 218.08,-328.38 221.29,-328.38 221.29,-328.38 311.46,-328.38 311.46,-328.38 314.67,-328.38 317.88,-331.58 317.88,-334.79 317.88,-334.79 317.88,-341.21 317.88,-341.21 317.88,-344.42 314.67,-347.62 311.46,-347.62"/>
<text xml:space="preserve" text-anchor="start" x="222.88" y="-334.62" font-family="Helvetica,sans-Serif" font-size="9.00">CodexOAuthFlow.ts</text>
</a>
</g>
</g>
<!-- src/core/auth/OAuthFlow.interface.ts -->
<g id="node4" class="node">
<title>src/core/auth/OAuthFlow.interface.ts</title>
<g id="a_node4"><a xlink:href="src/core/auth/OAuthFlow.interface.ts" xlink:title="OAuthFlow.interface.ts">
<path fill="#ccffcc" stroke="black" d="M520.96,-438.62C520.96,-438.62 415.79,-438.62 415.79,-438.62 412.58,-438.62 409.38,-435.42 409.38,-432.21 409.38,-432.21 409.38,-425.79 409.38,-425.79 409.38,-422.58 412.58,-419.38 415.79,-419.38 415.79,-419.38 520.96,-419.38 520.96,-419.38 524.17,-419.38 527.38,-422.58 527.38,-425.79 527.38,-425.79 527.38,-432.21 527.38,-432.21 527.38,-435.42 524.17,-438.62 520.96,-438.62"/>
<text xml:space="preserve" text-anchor="start" x="417.38" y="-425.62" font-family="Helvetica,sans-Serif" font-size="9.00">OAuthFlow.interface.ts</text>
</a>
</g>
</g>
<!-- src/adapters/codex/auth/CodexOAuthFlow.ts&#45;&gt;src/core/auth/OAuthFlow.interface.ts -->
<g id="edge2" class="edge">
<title>src/adapters/codex/auth/CodexOAuthFlow.ts&#45;&gt;src/core/auth/OAuthFlow.interface.ts</title>
<path fill="none" stroke="#000000" stroke-opacity="0.200000" d="M318.04,-341.21C364.5,-341.21 425.5,-341.21 425.5,-341.21 425.5,-341.21 425.5,-411.42 425.5,-411.42"/>
<polygon fill="none" stroke="#000000" stroke-opacity="0.200000" points="423.4,-411.42 425.5,-417.42 427.6,-411.42 423.4,-411.42"/>
</g>
<!-- src/adapters/codex/responses/CodexModelClient.ts -->
<g id="node5" class="node">
<title>src/adapters/codex/responses/CodexModelClient.ts</title>
<g id="a_node5"><a xlink:href="src/adapters/codex/responses/CodexModelClient.ts" xlink:title="CodexModelClient.ts">
<path fill="#ddfeff" stroke="black" d="M313.33,-220.62C313.33,-220.62 219.42,-220.62 219.42,-220.62 216.21,-220.62 213,-217.42 213,-214.21 213,-214.21 213,-207.79 213,-207.79 213,-204.58 216.21,-201.38 219.42,-201.38 219.42,-201.38 313.33,-201.38 313.33,-201.38 316.54,-201.38 319.75,-204.58 319.75,-207.79 319.75,-207.79 319.75,-214.21 319.75,-214.21 319.75,-217.42 316.54,-220.62 313.33,-220.62"/>
<text xml:space="preserve" text-anchor="start" x="221" y="-207.62" font-family="Helvetica,sans-Serif" font-size="9.00">CodexModelClient.ts</text>
</a>
</g>
</g>
<!-- src/core/model/ModelClient.interface.ts -->
<g id="node6" class="node">
<title>src/core/model/ModelClient.interface.ts</title>
<g id="a_node6"><a xlink:href="src/core/model/ModelClient.interface.ts" xlink:title="ModelClient.interface.ts">
<path fill="#ccffcc" stroke="black" d="M903.46,-212.62C903.46,-212.62 794.54,-212.62 794.54,-212.62 791.33,-212.62 788.12,-209.42 788.12,-206.21 788.12,-206.21 788.12,-199.79 788.12,-199.79 788.12,-196.58 791.33,-193.38 794.54,-193.38 794.54,-193.38 903.46,-193.38 903.46,-193.38 906.67,-193.38 909.88,-196.58 909.88,-199.79 909.88,-199.79 909.88,-206.21 909.88,-206.21 909.88,-209.42 906.67,-212.62 903.46,-212.62"/>
<text xml:space="preserve" text-anchor="start" x="796.12" y="-199.62" font-family="Helvetica,sans-Serif" font-size="9.00">ModelClient.interface.ts</text>
</a>
</g>
</g>
<!-- src/adapters/codex/responses/CodexModelClient.ts&#45;&gt;src/core/model/ModelClient.interface.ts -->
<g id="edge3" class="edge">
<title>src/adapters/codex/responses/CodexModelClient.ts&#45;&gt;src/core/model/ModelClient.interface.ts</title>
<path fill="none" stroke="#000000" stroke-opacity="0.200000" d="M320.14,-205.12C320.14,-205.12 780.48,-205.12 780.48,-205.12"/>
<polygon fill="none" stroke="#000000" stroke-opacity="0.200000" points="780.48,-207.23 786.48,-205.13 780.48,-203.03 780.48,-207.23"/>
</g>
<!-- src/core/tools/Tool.interface.ts -->
<g id="node18" class="node">
<title>src/core/tools/Tool.interface.ts</title>
<g id="a_node18"><a xlink:href="src/core/tools/Tool.interface.ts" xlink:title="Tool.interface.ts">
<path fill="#ccffcc" stroke="black" d="M1064.96,-297.62C1064.96,-297.62 991.29,-297.62 991.29,-297.62 988.08,-297.62 984.88,-294.42 984.88,-291.21 984.88,-291.21 984.88,-284.79 984.88,-284.79 984.88,-281.58 988.08,-278.38 991.29,-278.38 991.29,-278.38 1064.96,-278.38 1064.96,-278.38 1068.17,-278.38 1071.38,-281.58 1071.38,-284.79 1071.38,-284.79 1071.38,-291.21 1071.38,-291.21 1071.38,-294.42 1068.17,-297.62 1064.96,-297.62"/>
<text xml:space="preserve" text-anchor="start" x="992.88" y="-284.62" font-family="Helvetica,sans-Serif" font-size="9.00">Tool.interface.ts</text>
</a>
</g>
</g>
<!-- src/core/model/ModelClient.interface.ts&#45;&gt;src/core/tools/Tool.interface.ts -->
<g id="edge34" class="edge">
<title>src/core/model/ModelClient.interface.ts&#45;&gt;src/core/tools/Tool.interface.ts</title>
<path fill="none" stroke="#000000" stroke-opacity="0.200000" d="M910.25,-199.79C957.02,-199.79 1013.5,-199.79 1013.5,-199.79 1013.5,-199.79 1013.5,-270.37 1013.5,-270.37"/>
<polygon fill="none" stroke="#000000" stroke-opacity="0.200000" points="1011.4,-270.37 1013.5,-276.37 1015.6,-270.37 1011.4,-270.37"/>
</g>
<!-- src/core/settings/ResponseSettings.interface.ts -->
<g id="node31" class="node">
<title>src/core/settings/ResponseSettings.interface.ts</title>
<g id="a_node31"><a xlink:href="src/core/settings/ResponseSettings.interface.ts" xlink:title="ResponseSettings.interface.ts">
<path fill="#ccffcc" stroke="black" d="M1096.83,-557.62C1096.83,-557.62 959.42,-557.62 959.42,-557.62 956.21,-557.62 953,-554.42 953,-551.21 953,-551.21 953,-544.79 953,-544.79 953,-541.58 956.21,-538.38 959.42,-538.38 959.42,-538.38 1096.83,-538.38 1096.83,-538.38 1100.04,-538.38 1103.25,-541.58 1103.25,-544.79 1103.25,-544.79 1103.25,-551.21 1103.25,-551.21 1103.25,-554.42 1100.04,-557.62 1096.83,-557.62"/>
<text xml:space="preserve" text-anchor="start" x="961" y="-544.62" font-family="Helvetica,sans-Serif" font-size="9.00">ResponseSettings.interface.ts</text>
</a>
</g>
</g>
<!-- src/core/model/ModelClient.interface.ts&#45;&gt;src/core/settings/ResponseSettings.interface.ts -->
<g id="edge33" class="edge">
<title>src/core/model/ModelClient.interface.ts&#45;&gt;src/core/settings/ResponseSettings.interface.ts</title>
<path fill="none" stroke="#000000" stroke-opacity="0.200000" d="M910.14,-206.21C942.86,-206.21 976.5,-206.21 976.5,-206.21 976.5,-206.21 976.5,-530.63 976.5,-530.63"/>
<polygon fill="none" stroke="#000000" stroke-opacity="0.200000" points="974.4,-530.63 976.5,-536.63 978.6,-530.63 974.4,-530.63"/>
</g>
<!-- src/adapters/codex/responses/responsesEvents.ts -->
<g id="node7" class="node">
<title>src/adapters/codex/responses/responsesEvents.ts</title>
<g id="a_node7"><a xlink:href="src/adapters/codex/responses/responsesEvents.ts" xlink:title="responsesEvents.ts">
<path fill="#ddfeff" stroke="black" d="M311.46,-252.62C311.46,-252.62 221.29,-252.62 221.29,-252.62 218.08,-252.62 214.88,-249.42 214.88,-246.21 214.88,-246.21 214.88,-239.79 214.88,-239.79 214.88,-236.58 218.08,-233.38 221.29,-233.38 221.29,-233.38 311.46,-233.38 311.46,-233.38 314.67,-233.38 317.88,-236.58 317.88,-239.79 317.88,-239.79 317.88,-246.21 317.88,-246.21 317.88,-249.42 314.67,-252.62 311.46,-252.62"/>
<text xml:space="preserve" text-anchor="start" x="222.88" y="-239.62" font-family="Helvetica,sans-Serif" font-size="9.00">responsesEvents.ts</text>
</a>
</g>
</g>
<!-- src/adapters/codex/responses/responsesRequest.ts -->
<g id="node8" class="node">
<title>src/adapters/codex/responses/responsesRequest.ts</title>
<g id="a_node8"><a xlink:href="src/adapters/codex/responses/responsesRequest.ts" xlink:title="responsesRequest.ts">
<path fill="#ddfeff" stroke="black" d="M314.46,-284.62C314.46,-284.62 218.29,-284.62 218.29,-284.62 215.08,-284.62 211.88,-281.42 211.88,-278.21 211.88,-278.21 211.88,-271.79 211.88,-271.79 211.88,-268.58 215.08,-265.38 218.29,-265.38 218.29,-265.38 314.46,-265.38 314.46,-265.38 317.67,-265.38 320.88,-268.58 320.88,-271.79 320.88,-271.79 320.88,-278.21 320.88,-278.21 320.88,-281.42 317.67,-284.62 314.46,-284.62"/>
<text xml:space="preserve" text-anchor="start" x="219.88" y="-271.62" font-family="Helvetica,sans-Serif" font-size="9.00">responsesRequest.ts</text>
</a>
</g>
</g>
<!-- src/adapters/codex/responses/responsesRequest.ts&#45;&gt;src/core/model/ModelClient.interface.ts -->
<g id="edge4" class="edge">
<title>src/adapters/codex/responses/responsesRequest.ts&#45;&gt;src/core/model/ModelClient.interface.ts</title>
<path fill="none" stroke="#000000" stroke-opacity="0.200000" d="M321.23,-271.88C469.91,-271.88 869.5,-271.88 869.5,-271.88 869.5,-271.88 869.5,-220.38 869.5,-220.38"/>
<polygon fill="none" stroke="#000000" stroke-opacity="0.200000" points="871.6,-220.38 869.5,-214.38 867.4,-220.38 871.6,-220.38"/>
</g>
<!-- src/adapters/file&#45;system/JsonAgentConfigStore.ts -->
<g id="node9" class="node">
<title>src/adapters/file&#45;system/JsonAgentConfigStore.ts</title>
<g id="a_node9"><a xlink:href="src/adapters/file-system/JsonAgentConfigStore.ts" xlink:title="JsonAgentConfigStore.ts">
<path fill="#ddfeff" stroke="black" d="M323.08,-469.62C323.08,-469.62 209.67,-469.62 209.67,-469.62 206.46,-469.62 203.25,-466.42 203.25,-463.21 203.25,-463.21 203.25,-456.79 203.25,-456.79 203.25,-453.58 206.46,-450.38 209.67,-450.38 209.67,-450.38 323.08,-450.38 323.08,-450.38 326.29,-450.38 329.5,-453.58 329.5,-456.79 329.5,-456.79 329.5,-463.21 329.5,-463.21 329.5,-466.42 326.29,-469.62 323.08,-469.62"/>
<text xml:space="preserve" text-anchor="start" x="211.25" y="-456.62" font-family="Helvetica,sans-Serif" font-size="9.00">JsonAgentConfigStore.ts</text>
</a>
</g>
</g>
<!-- src/adapters/file&#45;system/JsonFileTokenStore.ts -->
<g id="node10" class="node">
<title>src/adapters/file&#45;system/JsonFileTokenStore.ts</title>
<g id="a_node10"><a xlink:href="src/adapters/file-system/JsonFileTokenStore.ts" xlink:title="JsonFileTokenStore.ts">
<path fill="#ddfeff" stroke="black" d="M314.83,-533.62C314.83,-533.62 217.92,-533.62 217.92,-533.62 214.71,-533.62 211.5,-530.42 211.5,-527.21 211.5,-527.21 211.5,-520.79 211.5,-520.79 211.5,-517.58 214.71,-514.38 217.92,-514.38 217.92,-514.38 314.83,-514.38 314.83,-514.38 318.04,-514.38 321.25,-517.58 321.25,-520.79 321.25,-520.79 321.25,-527.21 321.25,-527.21 321.25,-530.42 318.04,-533.62 314.83,-533.62"/>
<text xml:space="preserve" text-anchor="start" x="219.5" y="-520.62" font-family="Helvetica,sans-Serif" font-size="9.00">JsonFileTokenStore.ts</text>
</a>
</g>
</g>
<!-- src/adapters/file&#45;system/JsonFileTokenStore.ts&#45;&gt;src/core/auth/TokenStore.interface.ts -->
<g id="edge5" class="edge">
<title>src/adapters/file&#45;system/JsonFileTokenStore.ts&#45;&gt;src/core/auth/TokenStore.interface.ts</title>
<path fill="none" stroke="#000000" stroke-opacity="0.200000" d="M321.67,-524C342.16,-524 360.5,-524 360.5,-524 360.5,-524 360.5,-460.5 360.5,-460.5 360.5,-460.5 400.62,-460.5 400.62,-460.5"/>
<polygon fill="none" stroke="#000000" stroke-opacity="0.200000" points="400.62,-462.6 406.62,-460.5 400.62,-458.4 400.62,-462.6"/>
</g>
<!-- src/adapters/file&#45;system/JsonlConversationStore.ts -->
<g id="node11" class="node">
<title>src/adapters/file&#45;system/JsonlConversationStore.ts</title>
<g id="a_node11"><a xlink:href="src/adapters/file-system/JsonlConversationStore.ts" xlink:title="JsonlConversationStore.ts">
<path fill="#ddfeff" stroke="black" d="M325.33,-501.62C325.33,-501.62 207.42,-501.62 207.42,-501.62 204.21,-501.62 201,-498.42 201,-495.21 201,-495.21 201,-488.79 201,-488.79 201,-485.58 204.21,-482.38 207.42,-482.38 207.42,-482.38 325.33,-482.38 325.33,-482.38 328.54,-482.38 331.75,-485.58 331.75,-488.79 331.75,-488.79 331.75,-495.21 331.75,-495.21 331.75,-498.42 328.54,-501.62 325.33,-501.62"/>
<text xml:space="preserve" text-anchor="start" x="209" y="-488.62" font-family="Helvetica,sans-Serif" font-size="9.00">JsonlConversationStore.ts</text>
</a>
</g>
</g>
<!-- src/core/conversations/ConversationRecord.interface.ts -->
<g id="node12" class="node">
<title>src/core/conversations/ConversationRecord.interface.ts</title>
<g id="a_node12"><a xlink:href="src/core/conversations/ConversationRecord.interface.ts" xlink:title="ConversationRecord.interface.ts">
<path fill="#ccffcc" stroke="black" d="M922.58,-557.62C922.58,-557.62 775.42,-557.62 775.42,-557.62 772.21,-557.62 769,-554.42 769,-551.21 769,-551.21 769,-544.79 769,-544.79 769,-541.58 772.21,-538.38 775.42,-538.38 775.42,-538.38 922.58,-538.38 922.58,-538.38 925.79,-538.38 929,-541.58 929,-544.79 929,-544.79 929,-551.21 929,-551.21 929,-554.42 925.79,-557.62 922.58,-557.62"/>
<text xml:space="preserve" text-anchor="start" x="777" y="-544.62" font-family="Helvetica,sans-Serif" font-size="9.00">ConversationRecord.interface.ts</text>
</a>
</g>
</g>
<!-- src/adapters/file&#45;system/JsonlConversationStore.ts&#45;&gt;src/core/conversations/ConversationRecord.interface.ts -->
<g id="edge6" class="edge">
<title>src/adapters/file&#45;system/JsonlConversationStore.ts&#45;&gt;src/core/conversations/ConversationRecord.interface.ts</title>
<path fill="none" stroke="#000000" stroke-opacity="0.200000" d="M332.15,-488.79C470.2,-488.79 777.5,-488.79 777.5,-488.79 777.5,-488.79 777.5,-530.44 777.5,-530.44"/>
<polygon fill="none" stroke="#000000" stroke-opacity="0.200000" points="775.4,-530.44 777.5,-536.44 779.6,-530.44 775.4,-530.44"/>
</g>
<!-- src/core/conversations/ConversationStore.interface.ts -->
<g id="node13" class="node">
<title>src/core/conversations/ConversationStore.interface.ts</title>
<g id="a_node13"><a xlink:href="src/core/conversations/ConversationStore.interface.ts" xlink:title="ConversationStore.interface.ts">
<path fill="#ccffcc" stroke="black" d="M735.46,-533.62C735.46,-533.62 595.79,-533.62 595.79,-533.62 592.58,-533.62 589.38,-530.42 589.38,-527.21 589.38,-527.21 589.38,-520.79 589.38,-520.79 589.38,-517.58 592.58,-514.38 595.79,-514.38 595.79,-514.38 735.46,-514.38 735.46,-514.38 738.67,-514.38 741.88,-517.58 741.88,-520.79 741.88,-520.79 741.88,-527.21 741.88,-527.21 741.88,-530.42 738.67,-533.62 735.46,-533.62"/>
<text xml:space="preserve" text-anchor="start" x="597.38" y="-520.62" font-family="Helvetica,sans-Serif" font-size="9.00">ConversationStore.interface.ts</text>
</a>
</g>
</g>
<!-- src/adapters/file&#45;system/JsonlConversationStore.ts&#45;&gt;src/core/conversations/ConversationStore.interface.ts -->
<g id="edge7" class="edge">
<title>src/adapters/file&#45;system/JsonlConversationStore.ts&#45;&gt;src/core/conversations/ConversationStore.interface.ts</title>
<path fill="none" stroke="#000000" stroke-opacity="0.200000" d="M331.99,-495.21C427.74,-495.21 594.5,-495.21 594.5,-495.21 594.5,-495.21 594.5,-506.42 594.5,-506.42"/>
<polygon fill="none" stroke="#000000" stroke-opacity="0.200000" points="592.4,-506.42 594.5,-512.42 596.6,-506.42 592.4,-506.42"/>
</g>
<!-- src/core/conversations/ConversationRecord.interface.ts&#45;&gt;src/core/settings/ResponseSettings.interface.ts -->
<g id="edge26" class="edge">
<title>src/core/conversations/ConversationRecord.interface.ts&#45;&gt;src/core/settings/ResponseSettings.interface.ts</title>
<path fill="none" stroke="#000000" stroke-opacity="0.200000" d="M929.39,-548C929.39,-548 945.08,-548 945.08,-548"/>
<polygon fill="none" stroke="#000000" stroke-opacity="0.200000" points="945.08,-550.1 951.08,-548 945.08,-545.9 945.08,-550.1"/>
</g>
<!-- src/core/conversations/ConversationStore.interface.ts&#45;&gt;src/core/conversations/ConversationRecord.interface.ts -->
<g id="edge29" class="edge">
<title>src/core/conversations/ConversationStore.interface.ts&#45;&gt;src/core/conversations/ConversationRecord.interface.ts</title>
<path fill="none" stroke="#000000" stroke-opacity="0.200000" d="M742.3,-524C759.87,-524 773.5,-524 773.5,-524 773.5,-524 773.5,-530.45 773.5,-530.45"/>
<polygon fill="none" stroke="#000000" stroke-opacity="0.200000" points="771.4,-530.45 773.5,-536.45 775.6,-530.45 771.4,-530.45"/>
</g>
<!-- src/adapters/memory/simple&#45;linear/SimpleLinearMemory.ts -->
<g id="node14" class="node">
<title>src/adapters/memory/simple&#45;linear/SimpleLinearMemory.ts</title>
<g id="a_node14"><a xlink:href="src/adapters/memory/simple-linear/SimpleLinearMemory.ts" xlink:title="SimpleLinearMemory.ts">
<path fill="#ddfeff" stroke="black" d="M320.08,-122.62C320.08,-122.62 212.67,-122.62 212.67,-122.62 209.46,-122.62 206.25,-119.42 206.25,-116.21 206.25,-116.21 206.25,-109.79 206.25,-109.79 206.25,-106.58 209.46,-103.38 212.67,-103.38 212.67,-103.38 320.08,-103.38 320.08,-103.38 323.29,-103.38 326.5,-106.58 326.5,-109.79 326.5,-109.79 326.5,-116.21 326.5,-116.21 326.5,-119.42 323.29,-122.62 320.08,-122.62"/>
<text xml:space="preserve" text-anchor="start" x="214.25" y="-109.62" font-family="Helvetica,sans-Serif" font-size="9.00">SimpleLinearMemory.ts</text>
</a>
</g>
</g>
<!-- src/adapters/memory/simple&#45;linear/SimpleLinearMemory.ts&#45;&gt;src/core/model/ModelClient.interface.ts -->
<g id="edge11" class="edge">
<title>src/adapters/memory/simple&#45;linear/SimpleLinearMemory.ts&#45;&gt;src/core/model/ModelClient.interface.ts</title>
<path fill="none" stroke="#000000" stroke-opacity="0.200000" d="M266.5,-123.01C266.5,-145.36 266.5,-197.38 266.5,-197.38 266.5,-197.38 780.25,-197.38 780.25,-197.38"/>
<polygon fill="none" stroke="#000000" stroke-opacity="0.200000" points="780.25,-199.48 786.25,-197.38 780.25,-195.28 780.25,-199.48"/>
</g>
<!-- src/adapters/memory/simple&#45;linear/SimpleLinearMemory.ts&#45;&gt;src/core/conversations/ConversationRecord.interface.ts -->
<g id="edge8" class="edge">
<title>src/adapters/memory/simple&#45;linear/SimpleLinearMemory.ts&#45;&gt;src/core/conversations/ConversationRecord.interface.ts</title>
<path fill="none" stroke="#000000" stroke-opacity="0.200000" d="M326.84,-108.19C463.14,-108.19 782.5,-108.19 782.5,-108.19 782.5,-108.19 782.5,-530.47 782.5,-530.47"/>
<polygon fill="none" stroke="#000000" stroke-opacity="0.200000" points="780.4,-530.47 782.5,-536.47 784.6,-530.47 780.4,-530.47"/>
</g>
<!-- src/core/conversations/ConversationRuntime.interface.ts -->
<g id="node15" class="node">
<title>src/core/conversations/ConversationRuntime.interface.ts</title>
<g id="a_node15"><a xlink:href="src/core/conversations/ConversationRuntime.interface.ts" xlink:title="ConversationRuntime.interface.ts">
<path fill="#ccffcc" stroke="black" d="M742.58,-581.62C742.58,-581.62 588.67,-581.62 588.67,-581.62 585.46,-581.62 582.25,-578.42 582.25,-575.21 582.25,-575.21 582.25,-568.79 582.25,-568.79 582.25,-565.58 585.46,-562.38 588.67,-562.38 588.67,-562.38 742.58,-562.38 742.58,-562.38 745.79,-562.38 749,-565.58 749,-568.79 749,-568.79 749,-575.21 749,-575.21 749,-578.42 745.79,-581.62 742.58,-581.62"/>
<text xml:space="preserve" text-anchor="start" x="590.25" y="-568.62" font-family="Helvetica,sans-Serif" font-size="9.00">ConversationRuntime.interface.ts</text>
</a>
</g>
</g>
<!-- src/adapters/memory/simple&#45;linear/SimpleLinearMemory.ts&#45;&gt;src/core/conversations/ConversationRuntime.interface.ts -->
<g id="edge9" class="edge">
<title>src/adapters/memory/simple&#45;linear/SimpleLinearMemory.ts&#45;&gt;src/core/conversations/ConversationRuntime.interface.ts</title>
<path fill="none" stroke="#000000" stroke-opacity="0.200000" d="M326.96,-117.81C419.77,-117.81 586.5,-117.81 586.5,-117.81 586.5,-117.81 586.5,-554.58 586.5,-554.58"/>
<polygon fill="none" stroke="#000000" stroke-opacity="0.200000" points="584.4,-554.58 586.5,-560.58 588.6,-554.58 584.4,-554.58"/>
</g>
<!-- src/core/memory/AgentMemory.interface.ts -->
<g id="node16" class="node">
<title>src/core/memory/AgentMemory.interface.ts</title>
<g id="a_node16"><a xlink:href="src/core/memory/AgentMemory.interface.ts" xlink:title="AgentMemory.interface.ts">
<path fill="#ccffcc" stroke="black" d="M724.96,-234.62C724.96,-234.62 606.29,-234.62 606.29,-234.62 603.08,-234.62 599.88,-231.42 599.88,-228.21 599.88,-228.21 599.88,-221.79 599.88,-221.79 599.88,-218.58 603.08,-215.38 606.29,-215.38 606.29,-215.38 724.96,-215.38 724.96,-215.38 728.17,-215.38 731.38,-218.58 731.38,-221.79 731.38,-221.79 731.38,-228.21 731.38,-228.21 731.38,-231.42 728.17,-234.62 724.96,-234.62"/>
<text xml:space="preserve" text-anchor="start" x="607.88" y="-221.62" font-family="Helvetica,sans-Serif" font-size="9.00">AgentMemory.interface.ts</text>
</a>
</g>
</g>
<!-- src/adapters/memory/simple&#45;linear/SimpleLinearMemory.ts&#45;&gt;src/core/memory/AgentMemory.interface.ts -->
<g id="edge10" class="edge">
<title>src/adapters/memory/simple&#45;linear/SimpleLinearMemory.ts&#45;&gt;src/core/memory/AgentMemory.interface.ts</title>
<path fill="none" stroke="#000000" stroke-opacity="0.200000" d="M326.99,-113C438.65,-113 665.5,-113 665.5,-113 665.5,-113 665.5,-207.55 665.5,-207.55"/>
<polygon fill="none" stroke="#000000" stroke-opacity="0.200000" points="663.4,-207.55 665.5,-213.55 667.6,-207.55 663.4,-207.55"/>
</g>
<!-- src/core/conversations/ConversationRuntime.interface.ts&#45;&gt;src/core/conversations/ConversationRecord.interface.ts -->
<g id="edge28" class="edge">
<title>src/core/conversations/ConversationRuntime.interface.ts&#45;&gt;src/core/conversations/ConversationRecord.interface.ts</title>
<path fill="none" stroke="#000000" stroke-opacity="0.200000" d="M745.5,-562C745.5,-557 745.5,-552 745.5,-552 745.5,-552 761.21,-552 761.21,-552"/>
<polygon fill="none" stroke="#000000" stroke-opacity="0.200000" points="761.21,-554.1 767.21,-552 761.21,-549.9 761.21,-554.1"/>
</g>
<!-- src/core/conversations/ConversationRuntime.interface.ts&#45;&gt;src/core/settings/ResponseSettings.interface.ts -->
<g id="edge27" class="edge">
<title>src/core/conversations/ConversationRuntime.interface.ts&#45;&gt;src/core/settings/ResponseSettings.interface.ts</title>
<path fill="none" stroke="#000000" stroke-opacity="0.200000" d="M749.29,-572C845.55,-572 990.5,-572 990.5,-572 990.5,-572 990.5,-565.55 990.5,-565.55"/>
<polygon fill="none" stroke="#000000" stroke-opacity="0.200000" points="992.6,-565.55 990.5,-559.55 988.4,-565.55 992.6,-565.55"/>
</g>
<!-- src/core/memory/AgentMemory.interface.ts&#45;&gt;src/core/model/ModelClient.interface.ts -->
<g id="edge30" class="edge">
<title>src/core/memory/AgentMemory.interface.ts&#45;&gt;src/core/model/ModelClient.interface.ts</title>
<path fill="none" stroke="#000000" stroke-opacity="0.200000" d="M731.87,-221.79C776.97,-221.79 828.5,-221.79 828.5,-221.79 828.5,-221.79 828.5,-220.35 828.5,-220.35"/>
<polygon fill="none" stroke="#000000" stroke-opacity="0.200000" points="830.6,-220.35 828.5,-214.35 826.4,-220.35 830.6,-220.35"/>
</g>
<!-- src/core/memory/AgentMemory.interface.ts&#45;&gt;src/core/tools/Tool.interface.ts -->
<g id="edge32" class="edge">
<title>src/core/memory/AgentMemory.interface.ts&#45;&gt;src/core/tools/Tool.interface.ts</title>
<path fill="none" stroke="#000000" stroke-opacity="0.200000" d="M718.5,-234.85C718.5,-252.58 718.5,-288.04 718.5,-288.04 718.5,-288.04 976.91,-288.04 976.91,-288.04"/>
<polygon fill="none" stroke="#000000" stroke-opacity="0.200000" points="976.91,-290.14 982.91,-288.04 976.91,-285.94 976.91,-290.14"/>
</g>
<!-- src/core/memory/AgentMemory.interface.ts&#45;&gt;src/core/settings/ResponseSettings.interface.ts -->
<g id="edge31" class="edge">
<title>src/core/memory/AgentMemory.interface.ts&#45;&gt;src/core/settings/ResponseSettings.interface.ts</title>
<path fill="none" stroke="#000000" stroke-opacity="0.200000" d="M731.72,-228.21C820.84,-228.21 968.5,-228.21 968.5,-228.21 968.5,-228.21 968.5,-530.57 968.5,-530.57"/>
<polygon fill="none" stroke="#000000" stroke-opacity="0.200000" points="966.4,-530.57 968.5,-536.57 970.6,-530.57 966.4,-530.57"/>
</g>
<!-- src/adapters/tools/MathTool.ts -->
<g id="node17" class="node">
<title>src/adapters/tools/MathTool.ts</title>
<g id="a_node17"><a xlink:href="src/adapters/tools/MathTool.ts" xlink:title="MathTool.ts">
<path fill="#ddfeff" stroke="black" d="M293.08,-51.62C293.08,-51.62 239.67,-51.62 239.67,-51.62 236.46,-51.62 233.25,-48.42 233.25,-45.21 233.25,-45.21 233.25,-38.79 233.25,-38.79 233.25,-35.58 236.46,-32.38 239.67,-32.38 239.67,-32.38 293.08,-32.38 293.08,-32.38 296.29,-32.38 299.5,-35.58 299.5,-38.79 299.5,-38.79 299.5,-45.21 299.5,-45.21 299.5,-48.42 296.29,-51.62 293.08,-51.62"/>
<text xml:space="preserve" text-anchor="start" x="241.25" y="-38.62" font-family="Helvetica,sans-Serif" font-size="9.00">MathTool.ts</text>
</a>
</g>
</g>
<!-- src/adapters/tools/MathTool.ts&#45;&gt;src/core/tools/Tool.interface.ts -->
<g id="edge12" class="edge">
<title>src/adapters/tools/MathTool.ts&#45;&gt;src/core/tools/Tool.interface.ts</title>
<path fill="none" stroke="#000000" stroke-opacity="0.200000" d="M299.97,-42C448.94,-42 1042.5,-42 1042.5,-42 1042.5,-42 1042.5,-270.54 1042.5,-270.54"/>
<polygon fill="none" stroke="#000000" stroke-opacity="0.200000" points="1040.4,-270.54 1042.5,-276.54 1044.6,-270.54 1040.4,-270.54"/>
</g>
<!-- src/apps/cli/commands.ts -->
<g id="node19" class="node">
<title>src/apps/cli/commands.ts</title>
<g id="a_node19"><a xlink:href="src/apps/cli/commands.ts" xlink:title="commands.ts">
<path fill="#ddfeff" stroke="black" d="M127.46,-500.62C127.46,-500.62 62.79,-500.62 62.79,-500.62 59.58,-500.62 56.38,-497.42 56.38,-494.21 56.38,-494.21 56.38,-487.79 56.38,-487.79 56.38,-484.58 59.58,-481.38 62.79,-481.38 62.79,-481.38 127.46,-481.38 127.46,-481.38 130.67,-481.38 133.88,-484.58 133.88,-487.79 133.88,-487.79 133.88,-494.21 133.88,-494.21 133.88,-497.42 130.67,-500.62 127.46,-500.62"/>
<text xml:space="preserve" text-anchor="start" x="64.38" y="-487.62" font-family="Helvetica,sans-Serif" font-size="9.00">commands.ts</text>
</a>
</g>
</g>
<!-- src/runtime/CliRuntime.interface.ts -->
<g id="node20" class="node">
<title>src/runtime/CliRuntime.interface.ts</title>
<g id="a_node20"><a xlink:href="src/runtime/CliRuntime.interface.ts" xlink:title="CliRuntime.interface.ts">
<path fill="#ccffcc" stroke="black" d="M319.33,-655.62C319.33,-655.62 213.42,-655.62 213.42,-655.62 210.21,-655.62 207,-652.42 207,-649.21 207,-649.21 207,-642.79 207,-642.79 207,-639.58 210.21,-636.38 213.42,-636.38 213.42,-636.38 319.33,-636.38 319.33,-636.38 322.54,-636.38 325.75,-639.58 325.75,-642.79 325.75,-642.79 325.75,-649.21 325.75,-649.21 325.75,-652.42 322.54,-655.62 319.33,-655.62"/>
<text xml:space="preserve" text-anchor="start" x="215" y="-642.62" font-family="Helvetica,sans-Serif" font-size="9.00">CliRuntime.interface.ts</text>
</a>
</g>
</g>
<!-- src/apps/cli/commands.ts&#45;&gt;src/runtime/CliRuntime.interface.ts -->
<g id="edge13" class="edge">
<title>src/apps/cli/commands.ts&#45;&gt;src/runtime/CliRuntime.interface.ts</title>
<path fill="none" stroke="#000000" stroke-opacity="0.200000" d="M134.14,-491.5C158.98,-491.5 186.5,-491.5 186.5,-491.5 186.5,-491.5 186.5,-644.94 186.5,-644.94 186.5,-644.94 199.14,-644.94 199.14,-644.94"/>
<polygon fill="none" stroke="#000000" stroke-opacity="0.200000" points="199.14,-647.04 205.14,-644.94 199.14,-642.84 199.14,-647.04"/>
</g>
<!-- src/runtime/CliRuntime.interface.ts&#45;&gt;src/core/conversations/ConversationRecord.interface.ts -->
<g id="edge41" class="edge">
<title>src/runtime/CliRuntime.interface.ts&#45;&gt;src/core/conversations/ConversationRecord.interface.ts</title>
<path fill="none" stroke="#000000" stroke-opacity="0.200000" d="M298.5,-636.13C298.5,-610.36 298.5,-543.04 298.5,-543.04 298.5,-543.04 761.14,-543.04 761.14,-543.04"/>
<polygon fill="none" stroke="#000000" stroke-opacity="0.200000" points="761.14,-545.14 767.14,-543.04 761.14,-540.94 761.14,-545.14"/>
</g>
<!-- src/runtime/CliRuntime.interface.ts&#45;&gt;src/core/conversations/ConversationRuntime.interface.ts -->
<g id="edge42" class="edge">
<title>src/runtime/CliRuntime.interface.ts&#45;&gt;src/core/conversations/ConversationRuntime.interface.ts</title>
<path fill="none" stroke="#000000" stroke-opacity="0.200000" d="M302.5,-635.95C302.5,-615.62 302.5,-571.5 302.5,-571.5 302.5,-571.5 574.35,-571.5 574.35,-571.5"/>
<polygon fill="none" stroke="#000000" stroke-opacity="0.200000" points="574.35,-573.6 580.35,-571.5 574.35,-569.4 574.35,-573.6"/>
</g>
<!-- src/runtime/CliRuntime.interface.ts&#45;&gt;src/core/memory/AgentMemory.interface.ts -->
<g id="edge43" class="edge">
<title>src/runtime/CliRuntime.interface.ts&#45;&gt;src/core/memory/AgentMemory.interface.ts</title>
<path fill="none" stroke="#000000" stroke-opacity="0.200000" d="M325.94,-648.5C333.41,-648.5 338.5,-648.5 338.5,-648.5 338.5,-648.5 338.5,-227 338.5,-227 338.5,-227 591.91,-227 591.91,-227"/>
<polygon fill="none" stroke="#000000" stroke-opacity="0.200000" points="591.91,-229.1 597.91,-227 591.91,-224.9 591.91,-229.1"/>
</g>
<!-- src/core/agent/events.ts -->
<g id="node28" class="node">
<title>src/core/agent/events.ts</title>
<g id="a_node28"><a xlink:href="src/core/agent/events.ts" xlink:title="events.ts">
<path fill="#ddfeff" stroke="black" d="M687.83,-375.62C687.83,-375.62 643.42,-375.62 643.42,-375.62 640.21,-375.62 637,-372.42 637,-369.21 637,-369.21 637,-362.79 637,-362.79 637,-359.58 640.21,-356.38 643.42,-356.38 643.42,-356.38 687.83,-356.38 687.83,-356.38 691.04,-356.38 694.25,-359.58 694.25,-362.79 694.25,-362.79 694.25,-369.21 694.25,-369.21 694.25,-372.42 691.04,-375.62 687.83,-375.62"/>
<text xml:space="preserve" text-anchor="start" x="645" y="-362.62" font-family="Helvetica,sans-Serif" font-size="9.00">events.ts</text>
</a>
</g>
</g>
<!-- src/runtime/CliRuntime.interface.ts&#45;&gt;src/core/agent/events.ts -->
<g id="edge39" class="edge">
<title>src/runtime/CliRuntime.interface.ts&#45;&gt;src/core/agent/events.ts</title>
<path fill="none" stroke="#000000" stroke-opacity="0.200000" d="M316.5,-635.91C316.5,-633.95 316.5,-632.5 316.5,-632.5 316.5,-632.5 572.5,-632.5 572.5,-632.5 572.5,-632.5 572.5,-370.81 572.5,-370.81 572.5,-370.81 629.16,-370.81 629.16,-370.81"/>
<polygon fill="none" stroke="#000000" stroke-opacity="0.200000" points="629.16,-372.91 635.16,-370.81 629.16,-368.71 629.16,-372.91"/>
</g>
<!-- src/core/config/AgentConfigStore.interface.ts -->
<g id="node29" class="node">
<title>src/core/config/AgentConfigStore.interface.ts</title>
<g id="a_node29"><a xlink:href="src/core/config/AgentConfigStore.interface.ts" xlink:title="AgentConfigStore.interface.ts">
<path fill="#ccffcc" stroke="black" d="M1271.08,-608.62C1271.08,-608.62 1133.67,-608.62 1133.67,-608.62 1130.46,-608.62 1127.25,-605.42 1127.25,-602.21 1127.25,-602.21 1127.25,-595.79 1127.25,-595.79 1127.25,-592.58 1130.46,-589.38 1133.67,-589.38 1133.67,-589.38 1271.08,-589.38 1271.08,-589.38 1274.29,-589.38 1277.5,-592.58 1277.5,-595.79 1277.5,-595.79 1277.5,-602.21 1277.5,-602.21 1277.5,-605.42 1274.29,-608.62 1271.08,-608.62"/>
<text xml:space="preserve" text-anchor="start" x="1135.25" y="-595.62" font-family="Helvetica,sans-Serif" font-size="9.00">AgentConfigStore.interface.ts</text>
</a>
</g>
</g>
<!-- src/runtime/CliRuntime.interface.ts&#45;&gt;src/core/config/AgentConfigStore.interface.ts -->
<g id="edge40" class="edge">
<title>src/runtime/CliRuntime.interface.ts&#45;&gt;src/core/config/AgentConfigStore.interface.ts</title>
<path fill="none" stroke="#000000" stroke-opacity="0.200000" d="M311.5,-635.97C311.5,-628.88 311.5,-620.62 311.5,-620.62 311.5,-620.62 1202.5,-620.62 1202.5,-620.62 1202.5,-620.62 1202.5,-616.57 1202.5,-616.57"/>
<polygon fill="none" stroke="#000000" stroke-opacity="0.200000" points="1204.6,-616.57 1202.5,-610.57 1200.4,-616.57 1204.6,-616.57"/>
</g>
<!-- src/runtime/CliRuntime.interface.ts&#45;&gt;src/core/settings/ResponseSettings.interface.ts -->
<g id="edge44" class="edge">
<title>src/runtime/CliRuntime.interface.ts&#45;&gt;src/core/settings/ResponseSettings.interface.ts</title>
<path fill="none" stroke="#000000" stroke-opacity="0.200000" d="M307.5,-636.08C307.5,-627.89 307.5,-617.62 307.5,-617.62 307.5,-617.62 1028.5,-617.62 1028.5,-617.62 1028.5,-617.62 1028.5,-565.49 1028.5,-565.49"/>
<polygon fill="none" stroke="#000000" stroke-opacity="0.200000" points="1030.6,-565.49 1028.5,-559.49 1026.4,-565.49 1030.6,-565.49"/>
</g>
<!-- src/apps/cli/conversationHistory.ts -->
<g id="node21" class="node">
<title>src/apps/cli/conversationHistory.ts</title>
<g id="a_node21"><a xlink:href="src/apps/cli/conversationHistory.ts" xlink:title="conversationHistory.ts">
<path fill="#ddfeff" stroke="black" d="M146.21,-532.62C146.21,-532.62 44.04,-532.62 44.04,-532.62 40.83,-532.62 37.62,-529.42 37.62,-526.21 37.62,-526.21 37.62,-519.79 37.62,-519.79 37.62,-516.58 40.83,-513.38 44.04,-513.38 44.04,-513.38 146.21,-513.38 146.21,-513.38 149.42,-513.38 152.62,-516.58 152.62,-519.79 152.62,-519.79 152.62,-526.21 152.62,-526.21 152.62,-529.42 149.42,-532.62 146.21,-532.62"/>
<text xml:space="preserve" text-anchor="start" x="45.62" y="-519.62" font-family="Helvetica,sans-Serif" font-size="9.00">conversationHistory.ts</text>
</a>
</g>
</g>
<!-- src/apps/cli/conversationHistory.ts&#45;&gt;src/runtime/CliRuntime.interface.ts -->
<g id="edge14" class="edge">
<title>src/apps/cli/conversationHistory.ts&#45;&gt;src/runtime/CliRuntime.interface.ts</title>
<path fill="none" stroke="#000000" stroke-opacity="0.200000" d="M152.98,-523.5C164.17,-523.5 172.5,-523.5 172.5,-523.5 172.5,-523.5 172.5,-648.5 172.5,-648.5 172.5,-648.5 199.14,-648.5 199.14,-648.5"/>
<polygon fill="none" stroke="#000000" stroke-opacity="0.200000" points="199.14,-650.6 205.14,-648.5 199.14,-646.4 199.14,-650.6"/>
</g>
<!-- src/apps/cli/conversationSelection.ts -->
<g id="node22" class="node">
<title>src/apps/cli/conversationSelection.ts</title>
<g id="a_node22"><a xlink:href="src/apps/cli/conversationSelection.ts" xlink:title="conversationSelection.ts">
<path fill="#ddfeff" stroke="black" d="M151.83,-564.62C151.83,-564.62 38.42,-564.62 38.42,-564.62 35.21,-564.62 32,-561.42 32,-558.21 32,-558.21 32,-551.79 32,-551.79 32,-548.58 35.21,-545.38 38.42,-545.38 38.42,-545.38 151.83,-545.38 151.83,-545.38 155.04,-545.38 158.25,-548.58 158.25,-551.79 158.25,-551.79 158.25,-558.21 158.25,-558.21 158.25,-561.42 155.04,-564.62 151.83,-564.62"/>
<text xml:space="preserve" text-anchor="start" x="40" y="-551.62" font-family="Helvetica,sans-Serif" font-size="9.00">conversationSelection.ts</text>
</a>
</g>
</g>
<!-- src/apps/cli/conversationSelection.ts&#45;&gt;src/runtime/CliRuntime.interface.ts -->
<g id="edge15" class="edge">
<title>src/apps/cli/conversationSelection.ts&#45;&gt;src/runtime/CliRuntime.interface.ts</title>
<path fill="none" stroke="#000000" stroke-opacity="0.200000" d="M158.4,-555.5C191.62,-555.5 225.5,-555.5 225.5,-555.5 225.5,-555.5 225.5,-628.46 225.5,-628.46"/>
<polygon fill="none" stroke="#000000" stroke-opacity="0.200000" points="223.4,-628.46 225.5,-634.46 227.6,-628.46 223.4,-628.46"/>
</g>
<!-- src/apps/cli/main.ts -->
<g id="node23" class="node">
<title>src/apps/cli/main.ts</title>
<g id="a_node23"><a xlink:href="src/apps/cli/main.ts" xlink:title="main.ts">
<path fill="#ddfeff" stroke="black" d="M115.71,-596.62C115.71,-596.62 74.54,-596.62 74.54,-596.62 71.33,-596.62 68.12,-593.42 68.12,-590.21 68.12,-590.21 68.12,-583.79 68.12,-583.79 68.12,-580.58 71.33,-577.38 74.54,-577.38 74.54,-577.38 115.71,-577.38 115.71,-577.38 118.92,-577.38 122.12,-580.58 122.12,-583.79 122.12,-583.79 122.12,-590.21 122.12,-590.21 122.12,-593.42 118.92,-596.62 115.71,-596.62"/>
<text xml:space="preserve" text-anchor="start" x="78.25" y="-583.62" font-family="Helvetica,sans-Serif" font-size="9.00">main.ts</text>
</a>
</g>
</g>
<!-- src/apps/cli/readline.ts -->
<g id="node24" class="node">
<title>src/apps/cli/readline.ts</title>
<g id="a_node24"><a xlink:href="src/apps/cli/readline.ts" xlink:title="readline.ts">
<path fill="#ddfeff" stroke="black" d="M120.33,-628.62C120.33,-628.62 69.92,-628.62 69.92,-628.62 66.71,-628.62 63.5,-625.42 63.5,-622.21 63.5,-622.21 63.5,-615.79 63.5,-615.79 63.5,-612.58 66.71,-609.38 69.92,-609.38 69.92,-609.38 120.33,-609.38 120.33,-609.38 123.54,-609.38 126.75,-612.58 126.75,-615.79 126.75,-615.79 126.75,-622.21 126.75,-622.21 126.75,-625.42 123.54,-628.62 120.33,-628.62"/>
<text xml:space="preserve" text-anchor="start" x="71.5" y="-615.62" font-family="Helvetica,sans-Serif" font-size="9.00">readline.ts</text>
</a>
</g>
</g>
<!-- src/apps/cli/render.ts -->
<g id="node25" class="node">
<title>src/apps/cli/render.ts</title>
<g id="a_node25"><a xlink:href="src/apps/cli/render.ts" xlink:title="render.ts">
<path fill="#ddfeff" stroke="black" d="M116.96,-660.62C116.96,-660.62 73.29,-660.62 73.29,-660.62 70.08,-660.62 66.88,-657.42 66.88,-654.21 66.88,-654.21 66.88,-647.79 66.88,-647.79 66.88,-644.58 70.08,-641.38 73.29,-641.38 73.29,-641.38 116.96,-641.38 116.96,-641.38 120.17,-641.38 123.38,-644.58 123.38,-647.79 123.38,-647.79 123.38,-654.21 123.38,-654.21 123.38,-657.42 120.17,-660.62 116.96,-660.62"/>
<text xml:space="preserve" text-anchor="start" x="74.88" y="-647.62" font-family="Helvetica,sans-Serif" font-size="9.00">render.ts</text>
</a>
</g>
</g>
<!-- src/apps/cli/render.ts&#45;&gt;src/runtime/CliRuntime.interface.ts -->
<g id="edge16" class="edge">
<title>src/apps/cli/render.ts&#45;&gt;src/runtime/CliRuntime.interface.ts</title>
<path fill="none" stroke="#000000" stroke-opacity="0.200000" d="M123.79,-652.06C123.79,-652.06 199.18,-652.06 199.18,-652.06"/>
<polygon fill="none" stroke="#000000" stroke-opacity="0.200000" points="199.18,-654.16 205.18,-652.06 199.18,-649.96 199.18,-654.16"/>
</g>
<!-- src/core/agent/Agent.ts -->
<g id="node26" class="node">
<title>src/core/agent/Agent.ts</title>
<g id="a_node26"><a xlink:href="src/core/agent/Agent.ts" xlink:title="Agent.ts">
<path fill="#ddfeff" stroke="black" d="M489.08,-375.62C489.08,-375.62 447.67,-375.62 447.67,-375.62 444.46,-375.62 441.25,-372.42 441.25,-369.21 441.25,-369.21 441.25,-362.79 441.25,-362.79 441.25,-359.58 444.46,-356.38 447.67,-356.38 447.67,-356.38 489.08,-356.38 489.08,-356.38 492.29,-356.38 495.5,-359.58 495.5,-362.79 495.5,-362.79 495.5,-369.21 495.5,-369.21 495.5,-372.42 492.29,-375.62 489.08,-375.62"/>
<text xml:space="preserve" text-anchor="start" x="449.25" y="-362.62" font-family="Helvetica,sans-Serif" font-size="9.00">Agent.ts</text>
</a>
</g>
</g>
<!-- src/core/agent/Agent.ts&#45;&gt;src/core/model/ModelClient.interface.ts -->
<g id="edge18" class="edge">
<title>src/core/agent/Agent.ts&#45;&gt;src/core/model/ModelClient.interface.ts</title>
<path fill="none" stroke="#000000" stroke-opacity="0.200000" d="M454.5,-356.17C454.5,-321.77 454.5,-208.88 454.5,-208.88 454.5,-208.88 780.28,-208.88 780.28,-208.88"/>
<polygon fill="none" stroke="#000000" stroke-opacity="0.200000" points="780.28,-210.98 786.28,-208.88 780.28,-206.78 780.28,-210.98"/>
</g>
<!-- src/core/agent/Agent.ts&#45;&gt;src/core/memory/AgentMemory.interface.ts -->
<g id="edge17" class="edge">
<title>src/core/agent/Agent.ts&#45;&gt;src/core/memory/AgentMemory.interface.ts</title>
<path fill="none" stroke="#000000" stroke-opacity="0.200000" d="M495.82,-361.19C537.64,-361.19 612.5,-361.19 612.5,-361.19 612.5,-361.19 612.5,-242.31 612.5,-242.31"/>
<polygon fill="none" stroke="#000000" stroke-opacity="0.200000" points="614.6,-242.31 612.5,-236.31 610.4,-242.31 614.6,-242.31"/>
</g>
<!-- src/core/agent/Agent.ts&#45;&gt;src/core/tools/Tool.interface.ts -->
<g id="edge19" class="edge">
<title>src/core/agent/Agent.ts&#45;&gt;src/core/tools/Tool.interface.ts</title>
<path fill="none" stroke="#000000" stroke-opacity="0.200000" d="M481.5,-356.13C481.5,-346.98 481.5,-334.79 481.5,-334.79 481.5,-334.79 1042.5,-334.79 1042.5,-334.79 1042.5,-334.79 1042.5,-305.44 1042.5,-305.44"/>
<polygon fill="none" stroke="#000000" stroke-opacity="0.200000" points="1044.6,-305.44 1042.5,-299.44 1040.4,-305.44 1044.6,-305.44"/>
</g>
<!-- src/core/tools/ToolRuntime.interface.ts -->
<g id="node27" class="node">
<title>src/core/tools/ToolRuntime.interface.ts</title>
<g id="a_node27"><a xlink:href="src/core/tools/ToolRuntime.interface.ts" xlink:title="ToolRuntime.interface.ts">
<path fill="#ccffcc" stroke="black" d="M904.96,-312.62C904.96,-312.62 793.04,-312.62 793.04,-312.62 789.83,-312.62 786.62,-309.42 786.62,-306.21 786.62,-306.21 786.62,-299.79 786.62,-299.79 786.62,-296.58 789.83,-293.38 793.04,-293.38 793.04,-293.38 904.96,-293.38 904.96,-293.38 908.17,-293.38 911.38,-296.58 911.38,-299.79 911.38,-299.79 911.38,-306.21 911.38,-306.21 911.38,-309.42 908.17,-312.62 904.96,-312.62"/>
<text xml:space="preserve" text-anchor="start" x="794.62" y="-299.62" font-family="Helvetica,sans-Serif" font-size="9.00">ToolRuntime.interface.ts</text>
</a>
</g>
</g>
<!-- src/core/agent/Agent.ts&#45;&gt;src/core/tools/ToolRuntime.interface.ts -->
<g id="edge20" class="edge">
<title>src/core/agent/Agent.ts&#45;&gt;src/core/tools/ToolRuntime.interface.ts</title>
<path fill="none" stroke="#000000" stroke-opacity="0.200000" d="M468.5,-356.01C468.5,-339.57 468.5,-308.62 468.5,-308.62 468.5,-308.62 778.65,-308.62 778.65,-308.62"/>
<polygon fill="none" stroke="#000000" stroke-opacity="0.200000" points="778.65,-310.73 784.65,-308.63 778.65,-306.53 778.65,-310.73"/>
</g>
<!-- src/core/agent/Agent.ts&#45;&gt;src/core/agent/events.ts -->
<g id="edge21" class="edge">
<title>src/core/agent/Agent.ts&#45;&gt;src/core/agent/events.ts</title>
<path fill="none" stroke="#000000" stroke-opacity="0.200000" d="M495.8,-366C495.8,-366 628.99,-366 628.99,-366"/>
<polygon fill="none" stroke="#000000" stroke-opacity="0.200000" points="628.99,-368.1 634.99,-366 628.99,-363.9 628.99,-368.1"/>
</g>
<!-- src/core/tools/ToolRuntime.interface.ts&#45;&gt;src/core/tools/Tool.interface.ts -->
<g id="edge38" class="edge">
<title>src/core/tools/ToolRuntime.interface.ts&#45;&gt;src/core/tools/Tool.interface.ts</title>
<path fill="none" stroke="#000000" stroke-opacity="0.200000" d="M911.66,-305.12C958.15,-305.12 1013.5,-305.12 1013.5,-305.12 1013.5,-305.12 1013.5,-304.39 1013.5,-304.39"/>
<polygon fill="none" stroke="#000000" stroke-opacity="0.200000" points="1015.6,-305.28 1013.5,-299.28 1011.4,-305.28 1015.6,-305.28"/>
</g>
<!-- src/core/conversations/ConversationManager.ts -->
<g id="node30" class="node">
<title>src/core/conversations/ConversationManager.ts</title>
<g id="a_node30"><a xlink:href="src/core/conversations/ConversationManager.ts" xlink:title="ConversationManager.ts">
<path fill="#ddfeff" stroke="black" d="M523.96,-533.62C523.96,-533.62 412.79,-533.62 412.79,-533.62 409.58,-533.62 406.38,-530.42 406.38,-527.21 406.38,-527.21 406.38,-520.79 406.38,-520.79 406.38,-517.58 409.58,-514.38 412.79,-514.38 412.79,-514.38 523.96,-514.38 523.96,-514.38 527.17,-514.38 530.38,-517.58 530.38,-520.79 530.38,-520.79 530.38,-527.21 530.38,-527.21 530.38,-530.42 527.17,-533.62 523.96,-533.62"/>
<text xml:space="preserve" text-anchor="start" x="414.38" y="-520.62" font-family="Helvetica,sans-Serif" font-size="9.00">ConversationManager.ts</text>
</a>
</g>
</g>
<!-- src/core/conversations/ConversationManager.ts&#45;&gt;src/core/conversations/ConversationRecord.interface.ts -->
<g id="edge23" class="edge">
<title>src/core/conversations/ConversationManager.ts&#45;&gt;src/core/conversations/ConversationRecord.interface.ts</title>
<path fill="none" stroke="#000000" stroke-opacity="0.200000" d="M468.5,-533.91C468.5,-537.51 468.5,-540.71 468.5,-540.71 468.5,-540.71 761.26,-540.71 761.26,-540.71"/>
<polygon fill="none" stroke="#000000" stroke-opacity="0.200000" points="761.26,-542.81 767.26,-540.71 761.26,-538.61 761.26,-542.81"/>
</g>
<!-- src/core/conversations/ConversationManager.ts&#45;&gt;src/core/conversations/ConversationStore.interface.ts -->
<g id="edge25" class="edge">
<title>src/core/conversations/ConversationManager.ts&#45;&gt;src/core/conversations/ConversationStore.interface.ts</title>
<path fill="none" stroke="#000000" stroke-opacity="0.200000" d="M530.79,-520.79C530.79,-520.79 581.57,-520.79 581.57,-520.79"/>
<polygon fill="none" stroke="#000000" stroke-opacity="0.200000" points="581.57,-522.89 587.57,-520.79 581.57,-518.69 581.57,-522.89"/>
</g>
<!-- src/core/conversations/ConversationManager.ts&#45;&gt;src/core/conversations/ConversationRuntime.interface.ts -->
<g id="edge24" class="edge">
<title>src/core/conversations/ConversationManager.ts&#45;&gt;src/core/conversations/ConversationRuntime.interface.ts</title>
<path fill="none" stroke="#000000" stroke-opacity="0.200000" d="M530.86,-527.21C558.34,-527.21 584.5,-527.21 584.5,-527.21 584.5,-527.21 584.5,-554.55 584.5,-554.55"/>
<polygon fill="none" stroke="#000000" stroke-opacity="0.200000" points="582.4,-554.55 584.5,-560.55 586.6,-554.55 582.4,-554.55"/>
</g>
<!-- src/core/conversations/ConversationManager.ts&#45;&gt;src/core/settings/ResponseSettings.interface.ts -->
<g id="edge22" class="edge">
<title>src/core/conversations/ConversationManager.ts&#45;&gt;src/core/settings/ResponseSettings.interface.ts</title>
<path fill="none" stroke="#000000" stroke-opacity="0.200000" d="M468.5,-514.21C468.5,-510.66 468.5,-507.5 468.5,-507.5 468.5,-507.5 960.5,-507.5 960.5,-507.5 960.5,-507.5 960.5,-530.68 960.5,-530.68"/>
<polygon fill="none" stroke="#000000" stroke-opacity="0.200000" points="958.4,-530.68 960.5,-536.68 962.6,-530.68 958.4,-530.68"/>
</g>
<!-- src/core/settings/ResponseSettings.interface.ts&#45;&gt;src/core/config/AgentConfigStore.interface.ts -->
<g id="edge35" class="edge">
<title>src/core/settings/ResponseSettings.interface.ts&#45;&gt;src/core/config/AgentConfigStore.interface.ts</title>
<path fill="none" stroke="#000000" stroke-opacity="0.200000" d="M1065.5,-558.1C1065.5,-571.5 1065.5,-593.5 1065.5,-593.5 1065.5,-593.5 1119.62,-593.5 1119.62,-593.5"/>
<polygon fill="none" stroke="#000000" stroke-opacity="0.200000" points="1119.62,-595.6 1125.62,-593.5 1119.62,-591.4 1119.62,-595.6"/>
</g>
<!-- src/core/conversations/ConversationRecordCodec.interface.ts -->
<g id="node32" class="node">
<title>src/core/conversations/ConversationRecordCodec.interface.ts</title>
<g id="a_node32"><a xlink:href="src/core/conversations/ConversationRecordCodec.interface.ts" xlink:title="ConversationRecordCodec.interface.ts">
<path fill="#ccffcc" stroke="black" d="M555.83,-565.62C555.83,-565.62 380.92,-565.62 380.92,-565.62 377.71,-565.62 374.5,-562.42 374.5,-559.21 374.5,-559.21 374.5,-552.79 374.5,-552.79 374.5,-549.58 377.71,-546.38 380.92,-546.38 380.92,-546.38 555.83,-546.38 555.83,-546.38 559.04,-546.38 562.25,-549.58 562.25,-552.79 562.25,-552.79 562.25,-559.21 562.25,-559.21 562.25,-562.42 559.04,-565.62 555.83,-565.62"/>
<text xml:space="preserve" text-anchor="start" x="382.5" y="-552.62" font-family="Helvetica,sans-Serif" font-size="9.00">ConversationRecordCodec.interface.ts</text>
</a>
</g>
</g>
<!-- src/core/conversations/ids.ts -->
<g id="node33" class="node">
<title>src/core/conversations/ids.ts</title>
<g id="a_node33"><a xlink:href="src/core/conversations/ids.ts" xlink:title="ids.ts">
<path fill="#ddfeff" stroke="black" d="M488.96,-597.62C488.96,-597.62 447.79,-597.62 447.79,-597.62 444.58,-597.62 441.38,-594.42 441.38,-591.21 441.38,-591.21 441.38,-584.79 441.38,-584.79 441.38,-581.58 444.58,-578.38 447.79,-578.38 447.79,-578.38 488.96,-578.38 488.96,-578.38 492.17,-578.38 495.38,-581.58 495.38,-584.79 495.38,-584.79 495.38,-591.21 495.38,-591.21 495.38,-594.42 492.17,-597.62 488.96,-597.62"/>
<text xml:space="preserve" text-anchor="start" x="456.38" y="-584.62" font-family="Helvetica,sans-Serif" font-size="9.00">ids.ts</text>
</a>
</g>
</g>
<!-- src/core/errors/AgentError.interface.ts -->
<g id="node34" class="node">
<title>src/core/errors/AgentError.interface.ts</title>
<g id="a_node34"><a xlink:href="src/core/errors/AgentError.interface.ts" xlink:title="AgentError.interface.ts">
<path fill="#ccffcc" stroke="black" d="M521.33,-660.62C521.33,-660.62 415.42,-660.62 415.42,-660.62 412.21,-660.62 409,-657.42 409,-654.21 409,-654.21 409,-647.79 409,-647.79 409,-644.58 412.21,-641.38 415.42,-641.38 415.42,-641.38 521.33,-641.38 521.33,-641.38 524.54,-641.38 527.75,-644.58 527.75,-647.79 527.75,-647.79 527.75,-654.21 527.75,-654.21 527.75,-657.42 524.54,-660.62 521.33,-660.62"/>
<text xml:space="preserve" text-anchor="start" x="417" y="-647.62" font-family="Helvetica,sans-Serif" font-size="9.00">AgentError.interface.ts</text>
</a>
</g>
</g>
<!-- src/core/tools/ToolRegistry.ts -->
<g id="node35" class="node">
<title>src/core/tools/ToolRegistry.ts</title>
<g id="a_node35"><a xlink:href="src/core/tools/ToolRegistry.ts" xlink:title="ToolRegistry.ts">
<path fill="#ddfeff" stroke="black" d="M698.71,-304.62C698.71,-304.62 632.54,-304.62 632.54,-304.62 629.33,-304.62 626.12,-301.42 626.12,-298.21 626.12,-298.21 626.12,-291.79 626.12,-291.79 626.12,-288.58 629.33,-285.38 632.54,-285.38 632.54,-285.38 698.71,-285.38 698.71,-285.38 701.92,-285.38 705.12,-288.58 705.12,-291.79 705.12,-291.79 705.12,-298.21 705.12,-298.21 705.12,-301.42 701.92,-304.62 698.71,-304.62"/>
<text xml:space="preserve" text-anchor="start" x="634.12" y="-291.62" font-family="Helvetica,sans-Serif" font-size="9.00">ToolRegistry.ts</text>
</a>
</g>
</g>
<!-- src/core/tools/ToolRegistry.ts&#45;&gt;src/core/tools/Tool.interface.ts -->
<g id="edge36" class="edge">
<title>src/core/tools/ToolRegistry.ts&#45;&gt;src/core/tools/Tool.interface.ts</title>
<path fill="none" stroke="#000000" stroke-opacity="0.200000" d="M705.46,-290.71C705.46,-290.71 977.06,-290.71 977.06,-290.71"/>
<polygon fill="none" stroke="#000000" stroke-opacity="0.200000" points="977.06,-292.81 983.06,-290.71 977.06,-288.61 977.06,-292.81"/>
</g>
<!-- src/core/tools/ToolRegistry.ts&#45;&gt;src/core/tools/ToolRuntime.interface.ts -->
<g id="edge37" class="edge">
<title>src/core/tools/ToolRegistry.ts&#45;&gt;src/core/tools/ToolRuntime.interface.ts</title>
<path fill="none" stroke="#000000" stroke-opacity="0.200000" d="M705.41,-299C705.41,-299 778.7,-299 778.7,-299"/>
<polygon fill="none" stroke="#000000" stroke-opacity="0.200000" points="778.7,-301.1 784.7,-299 778.7,-296.9 778.7,-301.1"/>
</g>
<!-- src/runtime/auth.ts -->
<g id="node36" class="node">
<title>src/runtime/auth.ts</title>
<g id="a_node36"><a xlink:href="src/runtime/auth.ts" xlink:title="auth.ts">
<path fill="#ddfeff" stroke="black" d="M286.96,-623.62C286.96,-623.62 245.79,-623.62 245.79,-623.62 242.58,-623.62 239.38,-620.42 239.38,-617.21 239.38,-617.21 239.38,-610.79 239.38,-610.79 239.38,-607.58 242.58,-604.38 245.79,-604.38 245.79,-604.38 286.96,-604.38 286.96,-604.38 290.17,-604.38 293.38,-607.58 293.38,-610.79 293.38,-610.79 293.38,-617.21 293.38,-617.21 293.38,-620.42 290.17,-623.62 286.96,-623.62"/>
<text xml:space="preserve" text-anchor="start" x="250.25" y="-610.62" font-family="Helvetica,sans-Serif" font-size="9.00">auth.ts</text>
</a>
</g>
</g>
<!-- src/runtime/auth.ts&#45;&gt;src/core/auth/TokenStore.interface.ts -->
<g id="edge46" class="edge">
<title>src/runtime/auth.ts&#45;&gt;src/core/auth/TokenStore.interface.ts</title>
<path fill="none" stroke="#000000" stroke-opacity="0.200000" d="M293.74,-614.62C323.69,-614.62 367.5,-614.62 367.5,-614.62 367.5,-614.62 367.5,-465.06 367.5,-465.06 367.5,-465.06 400.73,-465.06 400.73,-465.06"/>
<polygon fill="none" stroke="#000000" stroke-opacity="0.200000" points="400.73,-467.16 406.73,-465.06 400.73,-462.96 400.73,-467.16"/>
</g>
<!-- src/runtime/auth.ts&#45;&gt;src/core/auth/OAuthFlow.interface.ts -->
<g id="edge45" class="edge">
<title>src/runtime/auth.ts&#45;&gt;src/core/auth/OAuthFlow.interface.ts</title>
<path fill="none" stroke="#000000" stroke-opacity="0.200000" d="M293.61,-611.62C316.49,-611.62 345.5,-611.62 345.5,-611.62 345.5,-611.62 345.5,-429 345.5,-429 345.5,-429 401.58,-429 401.58,-429"/>
<polygon fill="none" stroke="#000000" stroke-opacity="0.200000" points="401.58,-431.1 407.58,-429 401.58,-426.9 401.58,-431.1"/>
</g>
<!-- src/runtime/composeCliRuntime.ts -->
<g id="node37" class="node">
<title>src/runtime/composeCliRuntime.ts</title>
<g id="a_node37"><a xlink:href="src/runtime/composeCliRuntime.ts" xlink:title="composeCliRuntime.ts">
<path fill="#ddfeff" stroke="black" d="M318.21,-687.62C318.21,-687.62 214.54,-687.62 214.54,-687.62 211.33,-687.62 208.12,-684.42 208.12,-681.21 208.12,-681.21 208.12,-674.79 208.12,-674.79 208.12,-671.58 211.33,-668.38 214.54,-668.38 214.54,-668.38 318.21,-668.38 318.21,-668.38 321.42,-668.38 324.62,-671.58 324.62,-674.79 324.62,-674.79 324.62,-681.21 324.62,-681.21 324.62,-684.42 321.42,-687.62 318.21,-687.62"/>
<text xml:space="preserve" text-anchor="start" x="216.12" y="-674.62" font-family="Helvetica,sans-Serif" font-size="9.00">composeCliRuntime.ts</text>
</a>
</g>
</g>
</g>
</svg>
