<?xml version="1.0" encoding="UTF-8" standalone="no"?>
<!DOCTYPE svg PUBLIC "-//W3C//DTD SVG 1.1//EN"
 "http://www.w3.org/Graphics/SVG/1.1/DTD/svg11.dtd">
<!-- Generated by graphviz version 14.1.5 (0)
 -->
<!-- Title: dependency&#45;cruiser output Pages: 1 -->
<svg width="823pt" height="1715pt"
 viewBox="0.00 0.00 823.00 1715.00" xmlns="http://www.w3.org/2000/svg" xmlns:xlink="http://www.w3.org/1999/xlink">
<g id="graph0" class="graph" transform="scale(1 1) rotate(0) translate(4 1711)">
<title>dependency&#45;cruiser output</title>
<polygon fill="white" stroke="none" points="-4,4 -4,-1711 818.75,-1711 818.75,4 -4,4"/>
<g id="clust1" class="cluster">
<title>cluster_src</title>
<path fill="#ffffff" stroke="black" stroke-width="2" d="M20,-8C20,-8 794.75,-8 794.75,-8 800.75,-8 806.75,-14 806.75,-20 806.75,-20 806.75,-1687 806.75,-1687 806.75,-1693 800.75,-1699 794.75,-1699 794.75,-1699 20,-1699 20,-1699 14,-1699 8,-1693 8,-1687 8,-1687 8,-20 8,-20 8,-14 14,-8 20,-8"/>
<text xml:space="preserve" text-anchor="middle" x="407.38" y="-1686.45" font-family="Helvetica,sans-Serif" font-weight="bold" font-size="9.00">src</text>
</g>
<g id="clust2" class="cluster">
<title>cluster_src/adapters</title>
<path fill="#ffffff" stroke="black" stroke-width="2" d="M268.25,-337C268.25,-337 590.38,-337 590.38,-337 596.38,-337 602.38,-343 602.38,-349 602.38,-349 602.38,-865 602.38,-865 602.38,-871 596.38,-877 590.38,-877 590.38,-877 268.25,-877 268.25,-877 262.25,-877 256.25,-871 256.25,-865 256.25,-865 256.25,-349 256.25,-349 256.25,-343 262.25,-337 268.25,-337"/>
<text xml:space="preserve" text-anchor="middle" x="429.31" y="-864.45" font-family="Helvetica,sans-Serif" font-weight="bold" font-size="9.00">adapters</text>
</g>
<g id="clust3" class="cluster">
<title>cluster_src/adapters/codex</title>
<path fill="#ffffff" stroke="black" stroke-width="2" d="M283,-345C283,-345 582.38,-345 582.38,-345 588.38,-345 594.38,-351 594.38,-357 594.38,-357 594.38,-550 594.38,-550 594.38,-556 588.38,-562 582.38,-562 582.38,-562 283,-562 283,-562 277,-562 271,-556 271,-550 271,-550 271,-357 271,-357 271,-351 277,-345 283,-345"/>
<text xml:space="preserve" text-anchor="middle" x="432.69" y="-549.45" font-family="Helvetica,sans-Serif" font-weight="bold" font-size="9.00">codex</text>
</g>
<g id="clust4" class="cluster">
<title>cluster_src/adapters/codex/auth</title>
<path fill="#ffffff" stroke="black" stroke-width="2" d="M292.88,-353C292.88,-353 387.88,-353 387.88,-353 393.88,-353 399.88,-359 399.88,-365 399.88,-365 399.88,-428 399.88,-428 399.88,-434 393.88,-440 387.88,-440 387.88,-440 292.88,-440 292.88,-440 286.88,-440 280.88,-434 280.88,-428 280.88,-428 280.88,-365 280.88,-365 280.88,-359 286.88,-353 292.88,-353"/>
<text xml:space="preserve" text-anchor="middle" x="340.38" y="-427.45" font-family="Helvetica,sans-Serif" font-weight="bold" font-size="9.00">auth</text>
</g>
<g id="clust5" class="cluster">
<title>cluster_src/adapters/codex/responses</title>
<path fill="#ffffff" stroke="black" stroke-width="2" d="M291,-448C291,-448 574.38,-448 574.38,-448 580.38,-448 586.38,-454 586.38,-460 586.38,-460 586.38,-523 586.38,-523 586.38,-529 580.38,-535 574.38,-535 574.38,-535 291,-535 291,-535 285,-535 279,-529 279,-523 279,-523 279,-460 279,-460 279,-454 285,-448 291,-448"/>
<text xml:space="preserve" text-anchor="middle" x="432.69" y="-522.45" font-family="Helvetica,sans-Serif" font-weight="bold" font-size="9.00">responses</text>
</g>
<g id="clust6" class="cluster">
<title>cluster_src/adapters/file&#45;system</title>
<path fill="#ffffff" stroke="black" stroke-width="2" d="M279,-570C279,-570 401.75,-570 401.75,-570 407.75,-570 413.75,-576 413.75,-582 413.75,-582 413.75,-677 413.75,-677 413.75,-683 407.75,-689 401.75,-689 401.75,-689 279,-689 279,-689 273,-689 267,-683 267,-677 267,-677 267,-582 267,-582 267,-576 273,-570 279,-570"/>
<text xml:space="preserve" text-anchor="middle" x="340.38" y="-676.45" font-family="Helvetica,sans-Serif" font-weight="bold" font-size="9.00">file&#45;system</text>
</g>
<g id="clust7" class="cluster">
<title>cluster_src/adapters/memory</title>
<path fill="#ffffff" stroke="black" stroke-width="2" d="M276.25,-697C276.25,-697 404.5,-697 404.5,-697 410.5,-697 416.5,-703 416.5,-709 416.5,-709 416.5,-775 416.5,-775 416.5,-781 410.5,-787 404.5,-787 404.5,-787 276.25,-787 276.25,-787 270.25,-787 264.25,-781 264.25,-775 264.25,-775 264.25,-709 264.25,-709 264.25,-703 270.25,-697 276.25,-697"/>
<text xml:space="preserve" text-anchor="middle" x="340.38" y="-774.45" font-family="Helvetica,sans-Serif" font-weight="bold" font-size="9.00">memory</text>
</g>
<g id="clust8" class="cluster">
<title>cluster_src/adapters/memory/simple&#45;linear</title>
<path fill="#ffffff" stroke="black" stroke-width="2" d="M284.25,-705C284.25,-705 396.5,-705 396.5,-705 402.5,-705 408.5,-711 408.5,-717 408.5,-717 408.5,-748 408.5,-748 408.5,-754 402.5,-760 396.5,-760 396.5,-760 284.25,-760 284.25,-760 278.25,-760 272.25,-754 272.25,-748 272.25,-748 272.25,-717 272.25,-717 272.25,-711 278.25,-705 284.25,-705"/>
<text xml:space="preserve" text-anchor="middle" x="340.38" y="-747.45" font-family="Helvetica,sans-Serif" font-weight="bold" font-size="9.00">simple&#45;linear</text>
</g>
<g id="clust9" class="cluster">
<title>cluster_src/adapters/tools</title>
<path fill="#ffffff" stroke="black" stroke-width="2" d="M311.25,-795C311.25,-795 369.5,-795 369.5,-795 375.5,-795 381.5,-801 381.5,-807 381.5,-807 381.5,-838 381.5,-838 381.5,-844 375.5,-850 369.5,-850 369.5,-850 311.25,-850 311.25,-850 305.25,-850 299.25,-844 299.25,-838 299.25,-838 299.25,-807 299.25,-807 299.25,-801 305.25,-795 311.25,-795"/>
<text xml:space="preserve" text-anchor="middle" x="340.38" y="-837.45" font-family="Helvetica,sans-Serif" font-weight="bold" font-size="9.00">tools</text>
</g>
<g id="clust10" class="cluster">
<title>cluster_src/apps</title>
<path fill="#ffffff" stroke="black" stroke-width="2" d="M28,-16C28,-16 236.25,-16 236.25,-16 242.25,-16 248.25,-22 248.25,-28 248.25,-28 248.25,-222 248.25,-222 248.25,-228 242.25,-234 236.25,-234 236.25,-234 28,-234 28,-234 22,-234 16,-228 16,-222 16,-222 16,-28 16,-28 16,-22 22,-16 28,-16"/>
<text xml:space="preserve" text-anchor="middle" x="132.12" y="-221.45" font-family="Helvetica,sans-Serif" font-weight="bold" font-size="9.00">apps</text>
</g>
<g id="clust11" class="cluster">
<title>cluster_src/apps/cli</title>
<path fill="#ffffff" stroke="black" stroke-width="2" d="M36,-24C36,-24 228.25,-24 228.25,-24 234.25,-24 240.25,-30 240.25,-36 240.25,-36 240.25,-195 240.25,-195 240.25,-201 234.25,-207 228.25,-207 228.25,-207 36,-207 36,-207 30,-207 24,-201 24,-195 24,-195 24,-36 24,-36 24,-30 30,-24 36,-24"/>
<text xml:space="preserve" text-anchor="middle" x="132.12" y="-194.45" font-family="Helvetica,sans-Serif" font-weight="bold" font-size="9.00">cli</text>
</g>
<g id="clust12" class="cluster">
<title>cluster_src/core</title>
<path fill="#ffffff" stroke="black" stroke-width="2" d="M436.5,-885C436.5,-885 786.75,-885 786.75,-885 792.75,-885 798.75,-891 798.75,-897 798.75,-897 798.75,-1660 798.75,-1660 798.75,-1666 792.75,-1672 786.75,-1672 786.75,-1672 436.5,-1672 436.5,-1672 430.5,-1672 424.5,-1666 424.5,-1660 424.5,-1660 424.5,-897 424.5,-897 424.5,-891 430.5,-885 436.5,-885"/>
<text xml:space="preserve" text-anchor="middle" x="611.62" y="-1659.45" font-family="Helvetica,sans-Serif" font-weight="bold" font-size="9.00">core</text>
</g>
<g id="clust13" class="cluster">
<title>cluster_src/core/agent</title>
<path fill="#ffffff" stroke="black" stroke-width="2" d="M499.25,-893C499.25,-893 548.5,-893 548.5,-893 554.5,-893 560.5,-899 560.5,-905 560.5,-905 560.5,-968 560.5,-968 560.5,-974 554.5,-980 548.5,-980 548.5,-980 499.25,-980 499.25,-980 493.25,-980 487.25,-974 487.25,-968 487.25,-968 487.25,-905 487.25,-905 487.25,-899 493.25,-893 499.25,-893"/>
<text xml:space="preserve" text-anchor="middle" x="523.88" y="-967.45" font-family="Helvetica,sans-Serif" font-weight="bold" font-size="9.00">agent</text>
</g>
<g id="clust14" class="cluster">
<title>cluster_src/core/auth</title>
<path fill="#ffffff" stroke="black" stroke-width="2" d="M468.12,-988C468.12,-988 579.62,-988 579.62,-988 585.62,-988 591.62,-994 591.62,-1000 591.62,-1000 591.62,-1063 591.62,-1063 591.62,-1069 585.62,-1075 579.62,-1075 579.62,-1075 468.12,-1075 468.12,-1075 462.12,-1075 456.12,-1069 456.12,-1063 456.12,-1063 456.12,-1000 456.12,-1000 456.12,-994 462.12,-988 468.12,-988"/>
<text xml:space="preserve" text-anchor="middle" x="523.88" y="-1062.45" font-family="Helvetica,sans-Serif" font-weight="bold" font-size="9.00">auth</text>
</g>
<g id="clust15" class="cluster">
<title>cluster_src/core/config</title>
<path fill="#ffffff" stroke="black" stroke-width="2" d="M452.75,-1083C452.75,-1083 595,-1083 595,-1083 601,-1083 607,-1089 607,-1095 607,-1095 607,-1158 607,-1158 607,-1164 601,-1170 595,-1170 595,-1170 452.75,-1170 452.75,-1170 446.75,-1170 440.75,-1164 440.75,-1158 440.75,-1158 440.75,-1095 440.75,-1095 440.75,-1089 446.75,-1083 452.75,-1083"/>
<text xml:space="preserve" text-anchor="middle" x="523.88" y="-1157.45" font-family="Helvetica,sans-Serif" font-weight="bold" font-size="9.00">config</text>
</g>
<g id="clust16" class="cluster">
<title>cluster_src/core/conversations</title>
<path fill="#ffffff" stroke="black" stroke-width="2" d="M444.5,-1178C444.5,-1178 778.75,-1178 778.75,-1178 784.75,-1178 790.75,-1184 790.75,-1190 790.75,-1190 790.75,-1317 790.75,-1317 790.75,-1323 784.75,-1329 778.75,-1329 778.75,-1329 444.5,-1329 444.5,-1329 438.5,-1329 432.5,-1323 432.5,-1317 432.5,-1317 432.5,-1190 432.5,-1190 432.5,-1184 438.5,-1178 444.5,-1178"/>
<text xml:space="preserve" text-anchor="middle" x="611.62" y="-1316.45" font-family="Helvetica,sans-Serif" font-weight="bold" font-size="9.00">conversations</text>
</g>
<g id="clust17" class="cluster">
<title>cluster_src/core/errors</title>
<path fill="#ffffff" stroke="black" stroke-width="2" d="M671,-893C671,-893 739,-893 739,-893 745,-893 751,-899 751,-905 751,-905 751,-936 751,-936 751,-942 745,-948 739,-948 739,-948 671,-948 671,-948 665,-948 659,-942 659,-936 659,-936 659,-905 659,-905 659,-899 665,-893 671,-893"/>
<text xml:space="preserve" text-anchor="middle" x="705" y="-935.45" font-family="Helvetica,sans-Serif" font-weight="bold" font-size="9.00">errors</text>
</g>
<g id="clust18" class="cluster">
<title>cluster_src/core/memory</title>
<path fill="#ffffff" stroke="black" stroke-width="2" d="M462.12,-1337C462.12,-1337 585.62,-1337 585.62,-1337 591.62,-1337 597.62,-1343 597.62,-1349 597.62,-1349 597.62,-1380 597.62,-1380 597.62,-1386 591.62,-1392 585.62,-1392 585.62,-1392 462.12,-1392 462.12,-1392 456.12,-1392 450.12,-1386 450.12,-1380 450.12,-1380 450.12,-1349 450.12,-1349 450.12,-1343 456.12,-1337 462.12,-1337"/>
<text xml:space="preserve" text-anchor="middle" x="523.88" y="-1379.45" font-family="Helvetica,sans-Serif" font-weight="bold" font-size="9.00">memory</text>
</g>
<g id="clust19" class="cluster">
<title>cluster_src/core/model</title>
<path fill="#ffffff" stroke="black" stroke-width="2" d="M467,-1400C467,-1400 580.75,-1400 580.75,-1400 586.75,-1400 592.75,-1406 592.75,-1412 592.75,-1412 592.75,-1443 592.75,-1443 592.75,-1449 586.75,-1455 580.75,-1455 580.75,-1455 467,-1455 467,-1455 461,-1455 455,-1449 455,-1443 455,-1443 455,-1412 455,-1412 455,-1406 461,-1400 467,-1400"/>
<text xml:space="preserve" text-anchor="middle" x="523.88" y="-1442.45" font-family="Helvetica,sans-Serif" font-weight="bold" font-size="9.00">model</text>
</g>
<g id="clust20" class="cluster">
<title>cluster_src/core/settings</title>
<path fill="#ffffff" stroke="black" stroke-width="2" d="M452.75,-1463C452.75,-1463 595,-1463 595,-1463 601,-1463 607,-1469 607,-1475 607,-1475 607,-1506 607,-1506 607,-1512 601,-1518 595,-1518 595,-1518 452.75,-1518 452.75,-1518 446.75,-1518 440.75,-1512 440.75,-1506 440.75,-1506 440.75,-1475 440.75,-1475 440.75,-1469 446.75,-1463 452.75,-1463"/>
<text xml:space="preserve" text-anchor="middle" x="523.88" y="-1505.45" font-family="Helvetica,sans-Serif" font-weight="bold" font-size="9.00">settings</text>
</g>
<g id="clust21" class="cluster">
<title>cluster_src/core/tools</title>
<path fill="#ffffff" stroke="black" stroke-width="2" d="M465.5,-1526C465.5,-1526 582.25,-1526 582.25,-1526 588.25,-1526 594.25,-1532 594.25,-1538 594.25,-1538 594.25,-1633 594.25,-1633 594.25,-1639 588.25,-1645 582.25,-1645 582.25,-1645 465.5,-1645 465.5,-1645 459.5,-1645 453.5,-1639 453.5,-1633 453.5,-1633 453.5,-1538 453.5,-1538 453.5,-1532 459.5,-1526 465.5,-1526"/>
<text xml:space="preserve" text-anchor="middle" x="523.88" y="-1632.45" font-family="Helvetica,sans-Serif" font-weight="bold" font-size="9.00">tools</text>
</g>
<g id="clust22" class="cluster">
<title>cluster_src/runtime</title>
<path fill="#ffffff" stroke="black" stroke-width="2" d="M113.75,-242C113.75,-242 401,-242 401,-242 407,-242 413,-248 413,-254 413,-254 413,-317 413,-317 413,-323 407,-329 401,-329 401,-329 113.75,-329 113.75,-329 107.75,-329 101.75,-323 101.75,-317 101.75,-317 101.75,-254 101.75,-254 101.75,-248 107.75,-242 113.75,-242"/>
<text xml:space="preserve" text-anchor="middle" x="257.38" y="-316.45" font-family="Helvetica,sans-Serif" font-weight="bold" font-size="9.00">runtime</text>
</g>
<!-- src/adapters/codex/auth/CodexAuthClient.ts -->
<g id="node1" class="node">
<title>src/adapters/codex/auth/CodexAuthClient.ts</title>
<g id="a_node1"><a xlink:href="src/adapters/codex/auth/CodexAuthClient.ts" xlink:title="CodexAuthClient.ts">
<path fill="#ddfeff" stroke="black" d="M385.08,-380.62C385.08,-380.62 295.67,-380.62 295.67,-380.62 292.46,-380.62 289.25,-377.42 289.25,-374.21 289.25,-374.21 289.25,-367.79 289.25,-367.79 289.25,-364.58 292.46,-361.38 295.67,-361.38 295.67,-361.38 385.08,-361.38 385.08,-361.38 388.29,-361.38 391.5,-364.58 391.5,-367.79 391.5,-367.79 391.5,-374.21 391.5,-374.21 391.5,-377.42 388.29,-380.62 385.08,-380.62"/>
<text xml:space="preserve" text-anchor="start" x="297.25" y="-367.62" font-family="Helvetica,sans-Serif" font-size="9.00">CodexAuthClient.ts</text>
</a>
</g>
</g>
<!-- src/core/errors/AgentError.ts -->
<g id="node2" class="node">
<title>src/core/errors/AgentError.ts</title>
<g id="a_node2"><a xlink:href="src/core/errors/AgentError.ts" xlink:title="AgentError.ts">
<path fill="#ddfeff" stroke="black" d="M736.58,-920.62C736.58,-920.62 673.42,-920.62 673.42,-920.62 670.21,-920.62 667,-917.42 667,-914.21 667,-914.21 667,-907.79 667,-907.79 667,-904.58 670.21,-901.38 673.42,-901.38 673.42,-901.38 736.58,-901.38 736.58,-901.38 739.79,-901.38 743,-904.58 743,-907.79 743,-907.79 743,-914.21 743,-914.21 743,-917.42 739.79,-920.62 736.58,-920.62"/>
<text xml:space="preserve" text-anchor="start" x="675" y="-907.62" font-family="Helvetica,sans-Serif" font-size="9.00">AgentError.ts</text>
</a>
</g>
</g>
<!-- src/adapters/codex/auth/CodexAuthClient.ts&#45;&gt;src/core/errors/AgentError.ts -->
<g id="edge1" class="edge">
<title>src/adapters/codex/auth/CodexAuthClient.ts&#45;&gt;src/core/errors/AgentError.ts</title>
<path fill="none" stroke="#000000" stroke-width="2" stroke-opacity="0.200000" d="M391.81,-371C497.81,-371 730.75,-371 730.75,-371 730.75,-371 730.75,-892.14 730.75,-892.14"/>
<polygon fill="#000000" fill-opacity="0.200000" stroke="#000000" stroke-width="2" stroke-opacity="0.200000" points="728.65,-892.14 730.75,-898.14 732.85,-892.14 728.65,-892.14"/>
</g>
<!-- src/adapters/codex/auth/CodexOAuthFlow.ts -->
<g id="node3" class="node">
<title>src/adapters/codex/auth/CodexOAuthFlow.ts</title>
<g id="a_node3"><a xlink:href="src/adapters/codex/auth/CodexOAuthFlow.ts" xlink:title="CodexOAuthFlow.ts">
<path fill="#ddfeff" stroke="black" d="M385.46,-412.62C385.46,-412.62 295.29,-412.62 295.29,-412.62 292.08,-412.62 288.88,-409.42 288.88,-406.21 288.88,-406.21 288.88,-399.79 288.88,-399.79 288.88,-396.58 292.08,-393.38 295.29,-393.38 295.29,-393.38 385.46,-393.38 385.46,-393.38 388.67,-393.38 391.88,-396.58 391.88,-399.79 391.88,-399.79 391.88,-406.21 391.88,-406.21 391.88,-409.42 388.67,-412.62 385.46,-412.62"/>
<text xml:space="preserve" text-anchor="start" x="296.88" y="-399.62" font-family="Helvetica,sans-Serif" font-size="9.00">CodexOAuthFlow.ts</text>
</a>
</g>
</g>
<!-- src/adapters/codex/responses/CodexModelClient.ts -->
<g id="node4" class="node">
<title>src/adapters/codex/responses/CodexModelClient.ts</title>
<g id="a_node4"><a xlink:href="src/adapters/codex/responses/CodexModelClient.ts" xlink:title="CodexModelClient.ts">
<path fill="#ddfeff" stroke="black" d="M387.33,-475.62C387.33,-475.62 293.42,-475.62 293.42,-475.62 290.21,-475.62 287,-472.42 287,-469.21 287,-469.21 287,-462.79 287,-462.79 287,-459.58 290.21,-456.38 293.42,-456.38 293.42,-456.38 387.33,-456.38 387.33,-456.38 390.54,-456.38 393.75,-459.58 393.75,-462.79 393.75,-462.79 393.75,-469.21 393.75,-469.21 393.75,-472.42 390.54,-475.62 387.33,-475.62"/>
<text xml:space="preserve" text-anchor="start" x="295" y="-462.62" font-family="Helvetica,sans-Serif" font-size="9.00">CodexModelClient.ts</text>
</a>
</g>
</g>
<!-- src/adapters/codex/responses/CodexModelClient.ts&#45;&gt;src/core/errors/AgentError.ts -->
<g id="edge2" class="edge">
<title>src/adapters/codex/responses/CodexModelClient.ts&#45;&gt;src/core/errors/AgentError.ts</title>
<path fill="none" stroke="#000000" stroke-width="2" stroke-opacity="0.200000" d="M322.75,-476.07C322.75,-496.94 322.75,-543 322.75,-543 322.75,-543 717.75,-543 717.75,-543 717.75,-543 717.75,-892.13 717.75,-892.13"/>
<polygon fill="#000000" fill-opacity="0.200000" stroke="#000000" stroke-width="2" stroke-opacity="0.200000" points="715.65,-892.13 717.75,-898.13 719.85,-892.13 715.65,-892.13"/>
</g>
<!-- src/adapters/codex/responses/responsesEvents.ts -->
<g id="node5" class="node">
<title>src/adapters/codex/responses/responsesEvents.ts</title>
<g id="a_node5"><a xlink:href="src/adapters/codex/responses/responsesEvents.ts" xlink:title="responsesEvents.ts">
<path fill="#ddfeff" stroke="black" d="M568.96,-475.62C568.96,-475.62 478.79,-475.62 478.79,-475.62 475.58,-475.62 472.38,-472.42 472.38,-469.21 472.38,-469.21 472.38,-462.79 472.38,-462.79 472.38,-459.58 475.58,-456.38 478.79,-456.38 478.79,-456.38 568.96,-456.38 568.96,-456.38 572.17,-456.38 575.38,-459.58 575.38,-462.79 575.38,-462.79 575.38,-469.21 575.38,-469.21 575.38,-472.42 572.17,-475.62 568.96,-475.62"/>
<text xml:space="preserve" text-anchor="start" x="480.38" y="-462.62" font-family="Helvetica,sans-Serif" font-size="9.00">responsesEvents.ts</text>
</a>
</g>
</g>
<!-- src/adapters/codex/responses/CodexModelClient.ts&#45;&gt;src/adapters/codex/responses/responsesEvents.ts -->
<g id="edge3" class="edge">
<title>src/adapters/codex/responses/CodexModelClient.ts&#45;&gt;src/adapters/codex/responses/responsesEvents.ts</title>
<path fill="none" stroke="#000000" stroke-width="2" stroke-opacity="0.200000" d="M393.94,-466C393.94,-466 463.11,-466 463.11,-466"/>
<polygon fill="#000000" fill-opacity="0.200000" stroke="#000000" stroke-width="2" stroke-opacity="0.200000" points="463.11,-468.1 469.11,-466 463.11,-463.9 463.11,-468.1"/>
</g>
<!-- src/adapters/codex/responses/responsesRequest.ts -->
<g id="node6" class="node">
<title>src/adapters/codex/responses/responsesRequest.ts</title>
<g id="a_node6"><a xlink:href="src/adapters/codex/responses/responsesRequest.ts" xlink:title="responsesRequest.ts">
<path fill="#ddfeff" stroke="black" d="M571.96,-507.62C571.96,-507.62 475.79,-507.62 475.79,-507.62 472.58,-507.62 469.38,-504.42 469.38,-501.21 469.38,-501.21 469.38,-494.79 469.38,-494.79 469.38,-491.58 472.58,-488.38 475.79,-488.38 475.79,-488.38 571.96,-488.38 571.96,-488.38 575.17,-488.38 578.38,-491.58 578.38,-494.79 578.38,-494.79 578.38,-501.21 578.38,-501.21 578.38,-504.42 575.17,-507.62 571.96,-507.62"/>
<text xml:space="preserve" text-anchor="start" x="477.38" y="-494.62" font-family="Helvetica,sans-Serif" font-size="9.00">responsesRequest.ts</text>
</a>
</g>
</g>
<!-- src/adapters/codex/responses/CodexModelClient.ts&#45;&gt;src/adapters/codex/responses/responsesRequest.ts -->
<g id="edge4" class="edge">
<title>src/adapters/codex/responses/CodexModelClient.ts&#45;&gt;src/adapters/codex/responses/responsesRequest.ts</title>
<path fill="none" stroke="#000000" stroke-width="2" stroke-opacity="0.200000" d="M357.75,-476.12C357.75,-485.5 357.75,-498 357.75,-498 357.75,-498 459.99,-498 459.99,-498"/>
<polygon fill="#000000" fill-opacity="0.200000" stroke="#000000" stroke-width="2" stroke-opacity="0.200000" points="459.99,-500.1 465.99,-498 459.99,-495.9 459.99,-500.1"/>
</g>
<!-- src/adapters/file&#45;system/JsonAgentConfigStore.ts -->
<g id="node7" class="node">
<title>src/adapters/file&#45;system/JsonAgentConfigStore.ts</title>
<g id="a_node7"><a xlink:href="src/adapters/file-system/JsonAgentConfigStore.ts" xlink:title="JsonAgentConfigStore.ts">
<path fill="#ddfeff" stroke="black" d="M397.08,-629.62C397.08,-629.62 283.67,-629.62 283.67,-629.62 280.46,-629.62 277.25,-626.42 277.25,-623.21 277.25,-623.21 277.25,-616.79 277.25,-616.79 277.25,-613.58 280.46,-610.38 283.67,-610.38 283.67,-610.38 397.08,-610.38 397.08,-610.38 400.29,-610.38 403.5,-613.58 403.5,-616.79 403.5,-616.79 403.5,-623.21 403.5,-623.21 403.5,-626.42 400.29,-629.62 397.08,-629.62"/>
<text xml:space="preserve" text-anchor="start" x="285.25" y="-616.62" font-family="Helvetica,sans-Serif" font-size="9.00">JsonAgentConfigStore.ts</text>
</a>
</g>
</g>
<!-- src/adapters/file&#45;system/JsonAgentConfigStore.ts&#45;&gt;src/core/errors/AgentError.ts -->
<g id="edge6" class="edge">
<title>src/adapters/file&#45;system/JsonAgentConfigStore.ts&#45;&gt;src/core/errors/AgentError.ts</title>
<path fill="none" stroke="#000000" stroke-width="2" stroke-opacity="0.200000" d="M403.78,-616.79C505.23,-616.79 692.75,-616.79 692.75,-616.79 692.75,-616.79 692.75,-892.18 692.75,-892.18"/>
<polygon fill="#000000" fill-opacity="0.200000" stroke="#000000" stroke-width="2" stroke-opacity="0.200000" points="690.65,-892.18 692.75,-898.18 694.85,-892.18 690.65,-892.18"/>
</g>
<!-- src/core/config/AgentConfig.schema.ts -->
<g id="node8" class="node">
<title>src/core/config/AgentConfig.schema.ts</title>
<g id="a_node8"><a xlink:href="src/core/config/AgentConfig.schema.ts" xlink:title="AgentConfig.schema.ts">
<path fill="#ddfeff" stroke="black" d="M578.33,-1110.62C578.33,-1110.62 469.42,-1110.62 469.42,-1110.62 466.21,-1110.62 463,-1107.42 463,-1104.21 463,-1104.21 463,-1097.79 463,-1097.79 463,-1094.58 466.21,-1091.38 469.42,-1091.38 469.42,-1091.38 578.33,-1091.38 578.33,-1091.38 581.54,-1091.38 584.75,-1094.58 584.75,-1097.79 584.75,-1097.79 584.75,-1104.21 584.75,-1104.21 584.75,-1107.42 581.54,-1110.62 578.33,-1110.62"/>
<text xml:space="preserve" text-anchor="start" x="471" y="-1097.62" font-family="Helvetica,sans-Serif" font-size="9.00">AgentConfig.schema.ts</text>
</a>
</g>
</g>
<!-- src/adapters/file&#45;system/JsonAgentConfigStore.ts&#45;&gt;src/core/config/AgentConfig.schema.ts -->
<g id="edge5" class="edge">
<title>src/adapters/file&#45;system/JsonAgentConfigStore.ts&#45;&gt;src/core/config/AgentConfig.schema.ts</title>
<path fill="none" stroke="#000000" stroke-width="2" stroke-opacity="0.200000" d="M403.8,-623.21C430.61,-623.21 455.75,-623.21 455.75,-623.21 455.75,-623.21 455.75,-1101 455.75,-1101 455.75,-1101 456.43,-1101 456.43,-1101"/>
<polygon fill="#000000" fill-opacity="0.200000" stroke="#000000" stroke-width="2" stroke-opacity="0.200000" points="453.5,-1103.1 459.5,-1101 453.5,-1098.9 453.5,-1103.1"/>
</g>
<!-- src/adapters/file&#45;system/JsonFileTokenStore.ts -->
<g id="node9" class="node">
<title>src/adapters/file&#45;system/JsonFileTokenStore.ts</title>
<g id="a_node9"><a xlink:href="src/adapters/file-system/JsonFileTokenStore.ts" xlink:title="JsonFileTokenStore.ts">
<path fill="#ddfeff" stroke="black" d="M388.83,-597.62C388.83,-597.62 291.92,-597.62 291.92,-597.62 288.71,-597.62 285.5,-594.42 285.5,-591.21 285.5,-591.21 285.5,-584.79 285.5,-584.79 285.5,-581.58 288.71,-578.38 291.92,-578.38 291.92,-578.38 388.83,-578.38 388.83,-578.38 392.04,-578.38 395.25,-581.58 395.25,-584.79 395.25,-584.79 395.25,-591.21 395.25,-591.21 395.25,-594.42 392.04,-597.62 388.83,-597.62"/>
<text xml:space="preserve" text-anchor="start" x="293.5" y="-584.62" font-family="Helvetica,sans-Serif" font-size="9.00">JsonFileTokenStore.ts</text>
</a>
</g>
</g>
<!-- src/adapters/file&#45;system/JsonFileTokenStore.ts&#45;&gt;src/core/errors/AgentError.ts -->
<g id="edge7" class="edge">
<title>src/adapters/file&#45;system/JsonFileTokenStore.ts&#45;&gt;src/core/errors/AgentError.ts</title>
<path fill="none" stroke="#000000" stroke-width="2" stroke-opacity="0.200000" d="M395.72,-588C497.65,-588 704.75,-588 704.75,-588 704.75,-588 704.75,-891.95 704.75,-891.95"/>
<polygon fill="#000000" fill-opacity="0.200000" stroke="#000000" stroke-width="2" stroke-opacity="0.200000" points="702.65,-891.95 704.75,-897.95 706.85,-891.95 702.65,-891.95"/>
</g>
<!-- src/adapters/file&#45;system/JsonlConversationStore.ts -->
<g id="node10" class="node">
<title>src/adapters/file&#45;system/JsonlConversationStore.ts</title>
<g id="a_node10"><a xlink:href="src/adapters/file-system/JsonlConversationStore.ts" xlink:title="JsonlConversationStore.ts">
<path fill="#ddfeff" stroke="black" d="M399.33,-661.62C399.33,-661.62 281.42,-661.62 281.42,-661.62 278.21,-661.62 275,-658.42 275,-655.21 275,-655.21 275,-648.79 275,-648.79 275,-645.58 278.21,-642.38 281.42,-642.38 281.42,-642.38 399.33,-642.38 399.33,-642.38 402.54,-642.38 405.75,-645.58 405.75,-648.79 405.75,-648.79 405.75,-655.21 405.75,-655.21 405.75,-658.42 402.54,-661.62 399.33,-661.62"/>
<text xml:space="preserve" text-anchor="start" x="283" y="-648.62" font-family="Helvetica,sans-Serif" font-size="9.00">JsonlConversationStore.ts</text>
</a>
</g>
</g>
<!-- src/adapters/file&#45;system/JsonlConversationStore.ts&#45;&gt;src/core/errors/AgentError.ts -->
<g id="edge9" class="edge">
<title>src/adapters/file&#45;system/JsonlConversationStore.ts&#45;&gt;src/core/errors/AgentError.ts</title>
<path fill="none" stroke="#000000" stroke-width="2" stroke-opacity="0.200000" d="M406.21,-648.79C504.9,-648.79 679.75,-648.79 679.75,-648.79 679.75,-648.79 679.75,-892.01 679.75,-892.01"/>
<polygon fill="#000000" fill-opacity="0.200000" stroke="#000000" stroke-width="2" stroke-opacity="0.200000" points="677.65,-892.01 679.75,-898.01 681.85,-892.01 677.65,-892.01"/>
</g>
<!-- src/core/conversations/ConversationRecord.schema.ts -->
<g id="node11" class="node">
<title>src/core/conversations/ConversationRecord.schema.ts</title>
<g id="a_node11"><a xlink:href="src/core/conversations/ConversationRecord.schema.ts" xlink:title="ConversationRecord.schema.ts">
<path fill="#ddfeff" stroke="black" d="M776.33,-1205.62C776.33,-1205.62 633.67,-1205.62 633.67,-1205.62 630.46,-1205.62 627.25,-1202.42 627.25,-1199.21 627.25,-1199.21 627.25,-1192.79 627.25,-1192.79 627.25,-1189.58 630.46,-1186.38 633.67,-1186.38 633.67,-1186.38 776.33,-1186.38 776.33,-1186.38 779.54,-1186.38 782.75,-1189.58 782.75,-1192.79 782.75,-1192.79 782.75,-1199.21 782.75,-1199.21 782.75,-1202.42 779.54,-1205.62 776.33,-1205.62"/>
<text xml:space="preserve" text-anchor="start" x="635.25" y="-1192.62" font-family="Helvetica,sans-Serif" font-size="9.00">ConversationRecord.schema.ts</text>
</a>
</g>
</g>
<!-- src/adapters/file&#45;system/JsonlConversationStore.ts&#45;&gt;src/core/conversations/ConversationRecord.schema.ts -->
<g id="edge8" class="edge">
<title>src/adapters/file&#45;system/JsonlConversationStore.ts&#45;&gt;src/core/conversations/ConversationRecord.schema.ts</title>
<path fill="none" stroke="#000000" stroke-width="2" stroke-opacity="0.200000" d="M406.1,-655.21C496.12,-655.21 646.75,-655.21 646.75,-655.21 646.75,-655.21 646.75,-1177.12 646.75,-1177.12"/>
<polygon fill="#000000" fill-opacity="0.200000" stroke="#000000" stroke-width="2" stroke-opacity="0.200000" points="644.65,-1177.12 646.75,-1183.12 648.85,-1177.12 644.65,-1177.12"/>
</g>
<!-- src/adapters/memory/simple&#45;linear/SimpleLinearMemory.ts -->
<g id="node12" class="node">
<title>src/adapters/memory/simple&#45;linear/SimpleLinearMemory.ts</title>
<g id="a_node12"><a xlink:href="src/adapters/memory/simple-linear/SimpleLinearMemory.ts" xlink:title="SimpleLinearMemory.ts">
<path fill="#ddfeff" stroke="black" d="M394.08,-732.62C394.08,-732.62 286.67,-732.62 286.67,-732.62 283.46,-732.62 280.25,-729.42 280.25,-726.21 280.25,-726.21 280.25,-719.79 280.25,-719.79 280.25,-716.58 283.46,-713.38 286.67,-713.38 286.67,-713.38 394.08,-713.38 394.08,-713.38 397.29,-713.38 400.5,-716.58 400.5,-719.79 400.5,-719.79 400.5,-726.21 400.5,-726.21 400.5,-729.42 397.29,-732.62 394.08,-732.62"/>
<text xml:space="preserve" text-anchor="start" x="288.25" y="-719.62" font-family="Helvetica,sans-Serif" font-size="9.00">SimpleLinearMemory.ts</text>
</a>
</g>
</g>
<!-- src/adapters/tools/MathTool.ts -->
<g id="node13" class="node">
<title>src/adapters/tools/MathTool.ts</title>
<g id="a_node13"><a xlink:href="src/adapters/tools/MathTool.ts" xlink:title="MathTool.ts">
<path fill="#ddfeff" stroke="black" d="M367.08,-822.62C367.08,-822.62 313.67,-822.62 313.67,-822.62 310.46,-822.62 307.25,-819.42 307.25,-816.21 307.25,-816.21 307.25,-809.79 307.25,-809.79 307.25,-806.58 310.46,-803.38 313.67,-803.38 313.67,-803.38 367.08,-803.38 367.08,-803.38 370.29,-803.38 373.5,-806.58 373.5,-809.79 373.5,-809.79 373.5,-816.21 373.5,-816.21 373.5,-819.42 370.29,-822.62 367.08,-822.62"/>
<text xml:space="preserve" text-anchor="start" x="315.25" y="-809.62" font-family="Helvetica,sans-Serif" font-size="9.00">MathTool.ts</text>
</a>
</g>
</g>
<!-- src/apps/cli/commands.ts -->
<g id="node14" class="node">
<title>src/apps/cli/commands.ts</title>
<g id="a_node14"><a xlink:href="src/apps/cli/commands.ts" xlink:title="commands.ts">
<path fill="#ddfeff" stroke="black" d="M201.46,-83.62C201.46,-83.62 136.79,-83.62 136.79,-83.62 133.58,-83.62 130.38,-80.42 130.38,-77.21 130.38,-77.21 130.38,-70.79 130.38,-70.79 130.38,-67.58 133.58,-64.38 136.79,-64.38 136.79,-64.38 201.46,-64.38 201.46,-64.38 204.67,-64.38 207.88,-67.58 207.88,-70.79 207.88,-70.79 207.88,-77.21 207.88,-77.21 207.88,-80.42 204.67,-83.62 201.46,-83.62"/>
<text xml:space="preserve" text-anchor="start" x="138.38" y="-70.62" font-family="Helvetica,sans-Serif" font-size="9.00">commands.ts</text>
</a>
</g>
</g>
<!-- src/apps/cli/conversationHistory.ts -->
<g id="node15" class="node">
<title>src/apps/cli/conversationHistory.ts</title>
<g id="a_node15"><a xlink:href="src/apps/cli/conversationHistory.ts" xlink:title="conversationHistory.ts">
<path fill="#ddfeff" stroke="black" d="M220.21,-115.62C220.21,-115.62 118.04,-115.62 118.04,-115.62 114.83,-115.62 111.62,-112.42 111.62,-109.21 111.62,-109.21 111.62,-102.79 111.62,-102.79 111.62,-99.58 114.83,-96.38 118.04,-96.38 118.04,-96.38 220.21,-96.38 220.21,-96.38 223.42,-96.38 226.62,-99.58 226.62,-102.79 226.62,-102.79 226.62,-109.21 226.62,-109.21 226.62,-112.42 223.42,-115.62 220.21,-115.62"/>
<text xml:space="preserve" text-anchor="start" x="119.62" y="-102.62" font-family="Helvetica,sans-Serif" font-size="9.00">conversationHistory.ts</text>
</a>
</g>
</g>
<!-- src/apps/cli/conversationSelection.ts -->
<g id="node16" class="node">
<title>src/apps/cli/conversationSelection.ts</title>
<g id="a_node16"><a xlink:href="src/apps/cli/conversationSelection.ts" xlink:title="conversationSelection.ts">
<path fill="#ddfeff" stroke="black" d="M225.83,-147.62C225.83,-147.62 112.42,-147.62 112.42,-147.62 109.21,-147.62 106,-144.42 106,-141.21 106,-141.21 106,-134.79 106,-134.79 106,-131.58 109.21,-128.38 112.42,-128.38 112.42,-128.38 225.83,-128.38 225.83,-128.38 229.04,-128.38 232.25,-131.58 232.25,-134.79 232.25,-134.79 232.25,-141.21 232.25,-141.21 232.25,-144.42 229.04,-147.62 225.83,-147.62"/>
<text xml:space="preserve" text-anchor="start" x="114" y="-134.62" font-family="Helvetica,sans-Serif" font-size="9.00">conversationSelection.ts</text>
</a>
</g>
</g>
<!-- src/apps/cli/main.ts -->
<g id="node17" class="node">
<title>src/apps/cli/main.ts</title>
<g id="a_node17"><a xlink:href="src/apps/cli/main.ts" xlink:title="main.ts">
<path fill="#ddfeff" stroke="black" d="M79.58,-131.62C79.58,-131.62 38.42,-131.62 38.42,-131.62 35.21,-131.62 32,-128.42 32,-125.21 32,-125.21 32,-118.79 32,-118.79 32,-115.58 35.21,-112.38 38.42,-112.38 38.42,-112.38 79.58,-112.38 79.58,-112.38 82.79,-112.38 86,-115.58 86,-118.79 86,-118.79 86,-125.21 86,-125.21 86,-128.42 82.79,-131.62 79.58,-131.62"/>
<text xml:space="preserve" text-anchor="start" x="42.12" y="-118.62" font-family="Helvetica,sans-Serif" font-size="9.00">main.ts</text>
</a>
</g>
</g>
<!-- src/apps/cli/main.ts&#45;&gt;src/apps/cli/commands.ts -->
<g id="edge11" class="edge">
<title>src/apps/cli/main.ts&#45;&gt;src/apps/cli/commands.ts</title>
<path fill="none" stroke="#000000" stroke-width="2" stroke-opacity="0.200000" d="M58.75,-112.29C58.75,-98.26 58.75,-74 58.75,-74 58.75,-74 120.87,-74 120.87,-74"/>
<polygon fill="#000000" fill-opacity="0.200000" stroke="#000000" stroke-width="2" stroke-opacity="0.200000" points="120.87,-76.1 126.87,-74 120.87,-71.9 120.87,-76.1"/>
</g>
<!-- src/apps/cli/main.ts&#45;&gt;src/apps/cli/conversationHistory.ts -->
<g id="edge12" class="edge">
<title>src/apps/cli/main.ts&#45;&gt;src/apps/cli/conversationHistory.ts</title>
<path fill="none" stroke="#000000" stroke-width="2" stroke-opacity="0.200000" d="M72.75,-111.95C72.75,-107.99 72.75,-104.38 72.75,-104.38 72.75,-104.38 102.37,-104.38 102.37,-104.38"/>
<polygon fill="#000000" fill-opacity="0.200000" stroke="#000000" stroke-width="2" stroke-opacity="0.200000" points="102.37,-106.48 108.37,-104.38 102.37,-102.28 102.37,-106.48"/>
</g>
<!-- src/apps/cli/main.ts&#45;&gt;src/apps/cli/conversationSelection.ts -->
<g id="edge13" class="edge">
<title>src/apps/cli/main.ts&#45;&gt;src/apps/cli/conversationSelection.ts</title>
<path fill="none" stroke="#000000" stroke-width="2" stroke-opacity="0.200000" d="M72.75,-132.05C72.75,-136.01 72.75,-139.62 72.75,-139.62 72.75,-139.62 96.62,-139.62 96.62,-139.62"/>
<polygon fill="#000000" fill-opacity="0.200000" stroke="#000000" stroke-width="2" stroke-opacity="0.200000" points="96.62,-141.73 102.62,-139.63 96.62,-137.53 96.62,-141.73"/>
</g>
<!-- src/runtime/composeCliRuntime.ts -->
<g id="node18" class="node">
<title>src/runtime/composeCliRuntime.ts</title>
<g id="a_node18"><a xlink:href="src/runtime/composeCliRuntime.ts" xlink:title="composeCliRuntime.ts">
<path fill="#ddfeff" stroke="black" d="M220.96,-269.62C220.96,-269.62 117.29,-269.62 117.29,-269.62 114.08,-269.62 110.88,-266.42 110.88,-263.21 110.88,-263.21 110.88,-256.79 110.88,-256.79 110.88,-253.58 114.08,-250.38 117.29,-250.38 117.29,-250.38 220.96,-250.38 220.96,-250.38 224.17,-250.38 227.38,-253.58 227.38,-256.79 227.38,-256.79 227.38,-263.21 227.38,-263.21 227.38,-266.42 224.17,-269.62 220.96,-269.62"/>
<text xml:space="preserve" text-anchor="start" x="118.88" y="-256.62" font-family="Helvetica,sans-Serif" font-size="9.00">composeCliRuntime.ts</text>
</a>
</g>
</g>
<!-- src/apps/cli/main.ts&#45;&gt;src/runtime/composeCliRuntime.ts -->
<g id="edge10" class="edge">
<title>src/apps/cli/main.ts&#45;&gt;src/runtime/composeCliRuntime.ts</title>
<path fill="none" stroke="#000000" stroke-width="2" stroke-opacity="0.200000" d="M45.75,-131.89C45.75,-162.49 45.75,-253.58 45.75,-253.58 45.75,-253.58 101.66,-253.58 101.66,-253.58"/>
<polygon fill="#000000" fill-opacity="0.200000" stroke="#000000" stroke-width="2" stroke-opacity="0.200000" points="101.66,-255.68 107.66,-253.58 101.66,-251.48 101.66,-255.68"/>
</g>
<!-- src/apps/cli/readline.ts -->
<g id="node19" class="node">
<title>src/apps/cli/readline.ts</title>
<g id="a_node19"><a xlink:href="src/apps/cli/readline.ts" xlink:title="readline.ts">
<path fill="#ddfeff" stroke="black" d="M194.33,-179.62C194.33,-179.62 143.92,-179.62 143.92,-179.62 140.71,-179.62 137.5,-176.42 137.5,-173.21 137.5,-173.21 137.5,-166.79 137.5,-166.79 137.5,-163.58 140.71,-160.38 143.92,-160.38 143.92,-160.38 194.33,-160.38 194.33,-160.38 197.54,-160.38 200.75,-163.58 200.75,-166.79 200.75,-166.79 200.75,-173.21 200.75,-173.21 200.75,-176.42 197.54,-179.62 194.33,-179.62"/>
<text xml:space="preserve" text-anchor="start" x="145.5" y="-166.62" font-family="Helvetica,sans-Serif" font-size="9.00">readline.ts</text>
</a>
</g>
</g>
<!-- src/apps/cli/main.ts&#45;&gt;src/apps/cli/readline.ts -->
<g id="edge14" class="edge">
<title>src/apps/cli/main.ts&#45;&gt;src/apps/cli/readline.ts</title>
<path fill="none" stroke="#000000" stroke-width="2" stroke-opacity="0.200000" d="M58.75,-131.71C58.75,-145.74 58.75,-170 58.75,-170 58.75,-170 128.17,-170 128.17,-170"/>
<polygon fill="#000000" fill-opacity="0.200000" stroke="#000000" stroke-width="2" stroke-opacity="0.200000" points="128.17,-172.1 134.17,-170 128.17,-167.9 128.17,-172.1"/>
</g>
<!-- src/apps/cli/render.ts -->
<g id="node20" class="node">
<title>src/apps/cli/render.ts</title>
<g id="a_node20"><a xlink:href="src/apps/cli/render.ts" xlink:title="render.ts">
<path fill="#ddfeff" stroke="black" d="M190.96,-51.62C190.96,-51.62 147.29,-51.62 147.29,-51.62 144.08,-51.62 140.88,-48.42 140.88,-45.21 140.88,-45.21 140.88,-38.79 140.88,-38.79 140.88,-35.58 144.08,-32.38 147.29,-32.38 147.29,-32.38 190.96,-32.38 190.96,-32.38 194.17,-32.38 197.38,-35.58 197.38,-38.79 197.38,-38.79 197.38,-45.21 197.38,-45.21 197.38,-48.42 194.17,-51.62 190.96,-51.62"/>
<text xml:space="preserve" text-anchor="start" x="148.88" y="-38.62" font-family="Helvetica,sans-Serif" font-size="9.00">render.ts</text>
</a>
</g>
</g>
<!-- src/apps/cli/main.ts&#45;&gt;src/apps/cli/render.ts -->
<g id="edge15" class="edge">
<title>src/apps/cli/main.ts&#45;&gt;src/apps/cli/render.ts</title>
<path fill="none" stroke="#000000" stroke-width="2" stroke-opacity="0.200000" d="M45.75,-112.19C45.75,-90.83 45.75,-42 45.75,-42 45.75,-42 131.48,-42 131.48,-42"/>
<polygon fill="#000000" fill-opacity="0.200000" stroke="#000000" stroke-width="2" stroke-opacity="0.200000" points="131.48,-44.1 137.48,-42 131.48,-39.9 131.48,-44.1"/>
</g>
<!-- src/runtime/composeCliRuntime.ts&#45;&gt;src/adapters/codex/auth/CodexAuthClient.ts -->
<g id="edge20" class="edge">
<title>src/runtime/composeCliRuntime.ts&#45;&gt;src/adapters/codex/auth/CodexAuthClient.ts</title>
<path fill="none" stroke="#000000" stroke-width="2" stroke-opacity="0.200000" d="M227.66,-256.15C249.8,-256.15 269.75,-256.15 269.75,-256.15 269.75,-256.15 269.75,-371 269.75,-371 269.75,-371 280.02,-371 280.02,-371"/>
<polygon fill="#000000" fill-opacity="0.200000" stroke="#000000" stroke-width="2" stroke-opacity="0.200000" points="280.02,-373.1 286.02,-371 280.02,-368.9 280.02,-373.1"/>
</g>
<!-- src/runtime/composeCliRuntime.ts&#45;&gt;src/adapters/codex/auth/CodexOAuthFlow.ts -->
<g id="edge21" class="edge">
<title>src/runtime/composeCliRuntime.ts&#45;&gt;src/adapters/codex/auth/CodexOAuthFlow.ts</title>
<path fill="none" stroke="#000000" stroke-width="2" stroke-opacity="0.200000" d="M227.78,-258.07C247.57,-258.07 264.75,-258.07 264.75,-258.07 264.75,-258.07 264.75,-403 264.75,-403 264.75,-403 279.65,-403 279.65,-403"/>
<polygon fill="#000000" fill-opacity="0.200000" stroke="#000000" stroke-width="2" stroke-opacity="0.200000" points="279.65,-405.1 285.65,-403 279.65,-400.9 279.65,-405.1"/>
</g>
<!-- src/runtime/composeCliRuntime.ts&#45;&gt;src/adapters/codex/responses/CodexModelClient.ts -->
<g id="edge22" class="edge">
<title>src/runtime/composeCliRuntime.ts&#45;&gt;src/adapters/codex/responses/CodexModelClient.ts</title>
<path fill="none" stroke="#000000" stroke-width="2" stroke-opacity="0.200000" d="M227.66,-260C244.66,-260 258.75,-260 258.75,-260 258.75,-260 258.75,-466 258.75,-466 258.75,-466 277.81,-466 277.81,-466"/>
<polygon fill="#000000" fill-opacity="0.200000" stroke="#000000" stroke-width="2" stroke-opacity="0.200000" points="277.81,-468.1 283.81,-466 277.81,-463.9 277.81,-468.1"/>
</g>
<!-- src/runtime/composeCliRuntime.ts&#45;&gt;src/adapters/file&#45;system/JsonAgentConfigStore.ts -->
<g id="edge23" class="edge">
<title>src/runtime/composeCliRuntime.ts&#45;&gt;src/adapters/file&#45;system/JsonAgentConfigStore.ts</title>
<path fill="none" stroke="#000000" stroke-width="2" stroke-opacity="0.200000" d="M227.83,-263.85C239.76,-263.85 248.75,-263.85 248.75,-263.85 248.75,-263.85 248.75,-620 248.75,-620 248.75,-620 267.96,-620 267.96,-620"/>
<polygon fill="#000000" fill-opacity="0.200000" stroke="#000000" stroke-width="2" stroke-opacity="0.200000" points="267.96,-622.1 273.96,-620 267.96,-617.9 267.96,-622.1"/>
</g>
<!-- src/runtime/composeCliRuntime.ts&#45;&gt;src/adapters/file&#45;system/JsonFileTokenStore.ts -->
<g id="edge24" class="edge">
<title>src/runtime/composeCliRuntime.ts&#45;&gt;src/adapters/file&#45;system/JsonFileTokenStore.ts</title>
<path fill="none" stroke="#000000" stroke-width="2" stroke-opacity="0.200000" d="M227.44,-261.93C242.1,-261.93 253.75,-261.93 253.75,-261.93 253.75,-261.93 253.75,-588 253.75,-588 253.75,-588 276,-588 276,-588"/>
<polygon fill="#000000" fill-opacity="0.200000" stroke="#000000" stroke-width="2" stroke-opacity="0.200000" points="276,-590.1 282,-588 276,-585.9 276,-590.1"/>
</g>
<!-- src/runtime/composeCliRuntime.ts&#45;&gt;src/adapters/file&#45;system/JsonlConversationStore.ts -->
<g id="edge25" class="edge">
<title>src/runtime/composeCliRuntime.ts&#45;&gt;src/adapters/file&#45;system/JsonlConversationStore.ts</title>
<path fill="none" stroke="#000000" stroke-width="2" stroke-opacity="0.200000" d="M227.85,-265.77C236.6,-265.77 242.75,-265.77 242.75,-265.77 242.75,-265.77 242.75,-652 242.75,-652 242.75,-652 265.69,-652 265.69,-652"/>
<polygon fill="#000000" fill-opacity="0.200000" stroke="#000000" stroke-width="2" stroke-opacity="0.200000" points="265.69,-654.1 271.69,-652 265.69,-649.9 265.69,-654.1"/>
</g>
<!-- src/runtime/composeCliRuntime.ts&#45;&gt;src/adapters/memory/simple&#45;linear/SimpleLinearMemory.ts -->
<g id="edge26" class="edge">
<title>src/runtime/composeCliRuntime.ts&#45;&gt;src/adapters/memory/simple&#45;linear/SimpleLinearMemory.ts</title>
<path fill="none" stroke="#000000" stroke-width="2" stroke-opacity="0.200000" d="M227.62,-267.7C233.72,-267.7 237.75,-267.7 237.75,-267.7 237.75,-267.7 237.75,-723 237.75,-723 237.75,-723 270.76,-723 270.76,-723"/>
<polygon fill="#000000" fill-opacity="0.200000" stroke="#000000" stroke-width="2" stroke-opacity="0.200000" points="270.76,-725.1 276.76,-723 270.76,-720.9 270.76,-725.1"/>
</g>
<!-- src/runtime/composeCliRuntime.ts&#45;&gt;src/adapters/tools/MathTool.ts -->
<g id="edge27" class="edge">
<title>src/runtime/composeCliRuntime.ts&#45;&gt;src/adapters/tools/MathTool.ts</title>
<path fill="none" stroke="#000000" stroke-width="2" stroke-opacity="0.200000" d="M110.56,-266.42C105.21,-266.42 101.75,-266.42 101.75,-266.42 101.75,-266.42 101.75,-813 101.75,-813 101.75,-813 297.92,-813 297.92,-813"/>
<polygon fill="#000000" fill-opacity="0.200000" stroke="#000000" stroke-width="2" stroke-opacity="0.200000" points="297.92,-815.1 303.92,-813 297.92,-810.9 297.92,-815.1"/>
</g>
<!-- src/core/agent/Agent.ts -->
<g id="node21" class="node">
<title>src/core/agent/Agent.ts</title>
<g id="a_node21"><a xlink:href="src/core/agent/Agent.ts" xlink:title="Agent.ts">
<path fill="#ddfeff" stroke="black" d="M544.58,-920.62C544.58,-920.62 503.17,-920.62 503.17,-920.62 499.96,-920.62 496.75,-917.42 496.75,-914.21 496.75,-914.21 496.75,-907.79 496.75,-907.79 496.75,-904.58 499.96,-901.38 503.17,-901.38 503.17,-901.38 544.58,-901.38 544.58,-901.38 547.79,-901.38 551,-904.58 551,-907.79 551,-907.79 551,-914.21 551,-914.21 551,-917.42 547.79,-920.62 544.58,-920.62"/>
<text xml:space="preserve" text-anchor="start" x="504.75" y="-907.62" font-family="Helvetica,sans-Serif" font-size="9.00">Agent.ts</text>
</a>
</g>
</g>
<!-- src/runtime/composeCliRuntime.ts&#45;&gt;src/core/agent/Agent.ts -->
<g id="edge28" class="edge">
<title>src/runtime/composeCliRuntime.ts&#45;&gt;src/core/agent/Agent.ts</title>
<path fill="none" stroke="#000000" stroke-width="2" stroke-opacity="0.200000" d="M110.51,-263.21C102.94,-263.21 97.75,-263.21 97.75,-263.21 97.75,-263.21 97.75,-911 97.75,-911 97.75,-911 487.54,-911 487.54,-911"/>
<polygon fill="#000000" fill-opacity="0.200000" stroke="#000000" stroke-width="2" stroke-opacity="0.200000" points="487.54,-913.1 493.54,-911 487.54,-908.9 487.54,-913.1"/>
</g>
<!-- src/core/conversations/ConversationManager.ts -->
<g id="node26" class="node">
<title>src/core/conversations/ConversationManager.ts</title>
<g id="a_node26"><a xlink:href="src/core/conversations/ConversationManager.ts" xlink:title="ConversationManager.ts">
<path fill="#ddfeff" stroke="black" d="M579.46,-1205.62C579.46,-1205.62 468.29,-1205.62 468.29,-1205.62 465.08,-1205.62 461.88,-1202.42 461.88,-1199.21 461.88,-1199.21 461.88,-1192.79 461.88,-1192.79 461.88,-1189.58 465.08,-1186.38 468.29,-1186.38 468.29,-1186.38 579.46,-1186.38 579.46,-1186.38 582.67,-1186.38 585.88,-1189.58 585.88,-1192.79 585.88,-1192.79 585.88,-1199.21 585.88,-1199.21 585.88,-1202.42 582.67,-1205.62 579.46,-1205.62"/>
<text xml:space="preserve" text-anchor="start" x="469.88" y="-1192.62" font-family="Helvetica,sans-Serif" font-size="9.00">ConversationManager.ts</text>
</a>
</g>
</g>
<!-- src/runtime/composeCliRuntime.ts&#45;&gt;src/core/conversations/ConversationManager.ts -->
<g id="edge29" class="edge">
<title>src/runtime/composeCliRuntime.ts&#45;&gt;src/core/conversations/ConversationManager.ts</title>
<path fill="none" stroke="#000000" stroke-width="2" stroke-opacity="0.200000" d="M110.48,-260C100.75,-260 93.75,-260 93.75,-260 93.75,-260 93.75,-1196 93.75,-1196 93.75,-1196 452.76,-1196 452.76,-1196"/>
<polygon fill="#000000" fill-opacity="0.200000" stroke="#000000" stroke-width="2" stroke-opacity="0.200000" points="452.76,-1198.1 458.76,-1196 452.76,-1193.9 452.76,-1198.1"/>
</g>
<!-- src/core/tools/ToolRegistry.ts -->
<g id="node35" class="node">
<title>src/core/tools/ToolRegistry.ts</title>
<g id="a_node35"><a xlink:href="src/core/tools/ToolRegistry.ts" xlink:title="ToolRegistry.ts">
<path fill="#ddfeff" stroke="black" d="M556.96,-1585.62C556.96,-1585.62 490.79,-1585.62 490.79,-1585.62 487.58,-1585.62 484.38,-1582.42 484.38,-1579.21 484.38,-1579.21 484.38,-1572.79 484.38,-1572.79 484.38,-1569.58 487.58,-1566.38 490.79,-1566.38 490.79,-1566.38 556.96,-1566.38 556.96,-1566.38 560.17,-1566.38 563.38,-1569.58 563.38,-1572.79 563.38,-1572.79 563.38,-1579.21 563.38,-1579.21 563.38,-1582.42 560.17,-1585.62 556.96,-1585.62"/>
<text xml:space="preserve" text-anchor="start" x="492.38" y="-1572.62" font-family="Helvetica,sans-Serif" font-size="9.00">ToolRegistry.ts</text>
</a>
</g>
</g>
<!-- src/runtime/composeCliRuntime.ts&#45;&gt;src/core/tools/ToolRegistry.ts -->
<g id="edge30" class="edge">
<title>src/runtime/composeCliRuntime.ts&#45;&gt;src/core/tools/ToolRegistry.ts</title>
<path fill="none" stroke="#000000" stroke-width="2" stroke-opacity="0.200000" d="M110.6,-256.79C98.71,-256.79 89.75,-256.79 89.75,-256.79 89.75,-256.79 89.75,-1576 89.75,-1576 89.75,-1576 475.17,-1576 475.17,-1576"/>
<polygon fill="#000000" fill-opacity="0.200000" stroke="#000000" stroke-width="2" stroke-opacity="0.200000" points="475.17,-1578.1 481.17,-1576 475.17,-1573.9 475.17,-1578.1"/>
</g>
<!-- src/runtime/auth.ts -->
<g id="node38" class="node">
<title>src/runtime/auth.ts</title>
<g id="a_node38"><a xlink:href="src/runtime/auth.ts" xlink:title="auth.ts">
<path fill="#ddfeff" stroke="black" d="M360.96,-269.62C360.96,-269.62 319.79,-269.62 319.79,-269.62 316.58,-269.62 313.38,-266.42 313.38,-263.21 313.38,-263.21 313.38,-256.79 313.38,-256.79 313.38,-253.58 316.58,-250.38 319.79,-250.38 319.79,-250.38 360.96,-250.38 360.96,-250.38 364.17,-250.38 367.38,-253.58 367.38,-256.79 367.38,-256.79 367.38,-263.21 367.38,-263.21 367.38,-266.42 364.17,-269.62 360.96,-269.62"/>
<text xml:space="preserve" text-anchor="start" x="324.25" y="-256.62" font-family="Helvetica,sans-Serif" font-size="9.00">auth.ts</text>
</a>
</g>
</g>
<!-- src/runtime/composeCliRuntime.ts&#45;&gt;src/runtime/auth.ts -->
<g id="edge31" class="edge">
<title>src/runtime/composeCliRuntime.ts&#45;&gt;src/runtime/auth.ts</title>
<path fill="none" stroke="#000000" stroke-width="2" stroke-opacity="0.200000" d="M227.58,-252.3C227.58,-252.3 304.3,-252.3 304.3,-252.3"/>
<polygon fill="#000000" fill-opacity="0.200000" stroke="#000000" stroke-width="2" stroke-opacity="0.200000" points="304.3,-254.4 310.3,-252.3 304.3,-250.2 304.3,-254.4"/>
</g>
<!-- src/runtime/createSettingsUpdater.ts -->
<g id="node39" class="node">
<title>src/runtime/createSettingsUpdater.ts</title>
<g id="a_node39"><a xlink:href="src/runtime/createSettingsUpdater.ts" xlink:title="createSettingsUpdater.ts">
<path fill="#ddfeff" stroke="black" d="M398.58,-301.62C398.58,-301.62 282.17,-301.62 282.17,-301.62 278.96,-301.62 275.75,-298.42 275.75,-295.21 275.75,-295.21 275.75,-288.79 275.75,-288.79 275.75,-285.58 278.96,-282.38 282.17,-282.38 282.17,-282.38 398.58,-282.38 398.58,-282.38 401.79,-282.38 405,-285.58 405,-288.79 405,-288.79 405,-295.21 405,-295.21 405,-298.42 401.79,-301.62 398.58,-301.62"/>
<text xml:space="preserve" text-anchor="start" x="283.75" y="-288.62" font-family="Helvetica,sans-Serif" font-size="9.00">createSettingsUpdater.ts</text>
</a>
</g>
</g>
<!-- src/runtime/composeCliRuntime.ts&#45;&gt;src/runtime/createSettingsUpdater.ts -->
<g id="edge32" class="edge">
<title>src/runtime/composeCliRuntime.ts&#45;&gt;src/runtime/createSettingsUpdater.ts</title>
<path fill="none" stroke="#000000" stroke-width="2" stroke-opacity="0.200000" d="M227.52,-254.22C260.33,-254.22 294.75,-254.22 294.75,-254.22 294.75,-254.22 294.75,-273.05 294.75,-273.05"/>
<polygon fill="#000000" fill-opacity="0.200000" stroke="#000000" stroke-width="2" stroke-opacity="0.200000" points="292.65,-273.05 294.75,-279.05 296.85,-273.05 292.65,-273.05"/>
</g>
<!-- src/core/agent/events.ts -->
<g id="node22" class="node">
<title>src/core/agent/events.ts</title>
<g id="a_node22"><a xlink:href="src/core/agent/events.ts" xlink:title="events.ts">
<path fill="#ccffcc" stroke="black" d="M546.08,-952.62C546.08,-952.62 501.67,-952.62 501.67,-952.62 498.46,-952.62 495.25,-949.42 495.25,-946.21 495.25,-946.21 495.25,-939.79 495.25,-939.79 495.25,-936.58 498.46,-933.38 501.67,-933.38 501.67,-933.38 546.08,-933.38 546.08,-933.38 549.29,-933.38 552.5,-936.58 552.5,-939.79 552.5,-939.79 552.5,-946.21 552.5,-946.21 552.5,-949.42 549.29,-952.62 546.08,-952.62"/>
<text xml:space="preserve" text-anchor="start" x="503.25" y="-939.62" font-family="Helvetica,sans-Serif" font-size="9.00">events.ts</text>
</a>
</g>
</g>
<!-- src/core/auth/OAuthFlow.interface.ts -->
<g id="node23" class="node">
<title>src/core/auth/OAuthFlow.interface.ts</title>
<g id="a_node23"><a xlink:href="src/core/auth/OAuthFlow.interface.ts" xlink:title="OAuthFlow.interface.ts">
<path fill="#ccffcc" stroke="black" d="M576.46,-1015.62C576.46,-1015.62 471.29,-1015.62 471.29,-1015.62 468.08,-1015.62 464.88,-1012.42 464.88,-1009.21 464.88,-1009.21 464.88,-1002.79 464.88,-1002.79 464.88,-999.58 468.08,-996.38 471.29,-996.38 471.29,-996.38 576.46,-996.38 576.46,-996.38 579.67,-996.38 582.88,-999.58 582.88,-1002.79 582.88,-1002.79 582.88,-1009.21 582.88,-1009.21 582.88,-1012.42 579.67,-1015.62 576.46,-1015.62"/>
<text xml:space="preserve" text-anchor="start" x="472.88" y="-1002.62" font-family="Helvetica,sans-Serif" font-size="9.00">OAuthFlow.interface.ts</text>
</a>
</g>
</g>
<!-- src/core/auth/TokenStore.interface.ts -->
<g id="node24" class="node">
<title>src/core/auth/TokenStore.interface.ts</title>
<g id="a_node24"><a xlink:href="src/core/auth/TokenStore.interface.ts" xlink:title="TokenStore.interface.ts">
<path fill="#ccffcc" stroke="black" d="M577.21,-1047.62C577.21,-1047.62 470.54,-1047.62 470.54,-1047.62 467.33,-1047.62 464.12,-1044.42 464.12,-1041.21 464.12,-1041.21 464.12,-1034.79 464.12,-1034.79 464.12,-1031.58 467.33,-1028.38 470.54,-1028.38 470.54,-1028.38 577.21,-1028.38 577.21,-1028.38 580.42,-1028.38 583.62,-1031.58 583.62,-1034.79 583.62,-1034.79 583.62,-1041.21 583.62,-1041.21 583.62,-1044.42 580.42,-1047.62 577.21,-1047.62"/>
<text xml:space="preserve" text-anchor="start" x="472.12" y="-1034.62" font-family="Helvetica,sans-Serif" font-size="9.00">TokenStore.interface.ts</text>
</a>
</g>
</g>
<!-- src/core/config/AgentConfigStore.interface.ts -->
<g id="node25" class="node">
<title>src/core/config/AgentConfigStore.interface.ts</title>
<g id="a_node25"><a xlink:href="src/core/config/AgentConfigStore.interface.ts" xlink:title="AgentConfigStore.interface.ts">
<path fill="#ccffcc" stroke="black" d="M592.58,-1142.62C592.58,-1142.62 455.17,-1142.62 455.17,-1142.62 451.96,-1142.62 448.75,-1139.42 448.75,-1136.21 448.75,-1136.21 448.75,-1129.79 448.75,-1129.79 448.75,-1126.58 451.96,-1123.38 455.17,-1123.38 455.17,-1123.38 592.58,-1123.38 592.58,-1123.38 595.79,-1123.38 599,-1126.58 599,-1129.79 599,-1129.79 599,-1136.21 599,-1136.21 599,-1139.42 595.79,-1142.62 592.58,-1142.62"/>
<text xml:space="preserve" text-anchor="start" x="456.75" y="-1129.62" font-family="Helvetica,sans-Serif" font-size="9.00">AgentConfigStore.interface.ts</text>
</a>
</g>
</g>
<!-- src/core/conversations/ConversationManager.ts&#45;&gt;src/core/errors/AgentError.ts -->
<g id="edge16" class="edge">
<title>src/core/conversations/ConversationManager.ts&#45;&gt;src/core/errors/AgentError.ts</title>
<path fill="none" stroke="#000000" stroke-width="2" stroke-opacity="0.200000" d="M586.33,-1191.19C600.65,-1191.19 611.75,-1191.19 611.75,-1191.19 611.75,-1191.19 611.75,-907.79 611.75,-907.79 611.75,-907.79 657.51,-907.79 657.51,-907.79"/>
<polygon fill="#000000" fill-opacity="0.200000" stroke="#000000" stroke-width="2" stroke-opacity="0.200000" points="657.51,-909.89 663.51,-907.79 657.51,-905.69 657.51,-909.89"/>
</g>
<!-- src/core/conversations/ConversationManager.ts&#45;&gt;src/core/conversations/ConversationRecord.schema.ts -->
<g id="edge17" class="edge">
<title>src/core/conversations/ConversationManager.ts&#45;&gt;src/core/conversations/ConversationRecord.schema.ts</title>
<path fill="none" stroke="#000000" stroke-width="2" stroke-opacity="0.200000" d="M586.21,-1196C586.21,-1196 617.85,-1196 617.85,-1196"/>
<polygon fill="#000000" fill-opacity="0.200000" stroke="#000000" stroke-width="2" stroke-opacity="0.200000" points="617.85,-1198.1 623.85,-1196 617.85,-1193.9 617.85,-1198.1"/>
</g>
<!-- src/core/conversations/ids.ts -->
<g id="node27" class="node">
<title>src/core/conversations/ids.ts</title>
<g id="a_node27"><a xlink:href="src/core/conversations/ids.ts" xlink:title="ids.ts">
<path fill="#ddfeff" stroke="black" d="M725.58,-1237.62C725.58,-1237.62 684.42,-1237.62 684.42,-1237.62 681.21,-1237.62 678,-1234.42 678,-1231.21 678,-1231.21 678,-1224.79 678,-1224.79 678,-1221.58 681.21,-1218.38 684.42,-1218.38 684.42,-1218.38 725.58,-1218.38 725.58,-1218.38 728.79,-1218.38 732,-1221.58 732,-1224.79 732,-1224.79 732,-1231.21 732,-1231.21 732,-1234.42 728.79,-1237.62 725.58,-1237.62"/>
<text xml:space="preserve" text-anchor="start" x="693" y="-1224.62" font-family="Helvetica,sans-Serif" font-size="9.00">ids.ts</text>
</a>
</g>
</g>
<!-- src/core/conversations/ConversationManager.ts&#45;&gt;src/core/conversations/ids.ts -->
<g id="edge18" class="edge">
<title>src/core/conversations/ConversationManager.ts&#45;&gt;src/core/conversations/ids.ts</title>
<path fill="none" stroke="#000000" stroke-width="2" stroke-opacity="0.200000" d="M586.14,-1200.81C605.44,-1200.81 621.75,-1200.81 621.75,-1200.81 621.75,-1200.81 621.75,-1228 621.75,-1228 621.75,-1228 668.71,-1228 668.71,-1228"/>
<polygon fill="#000000" fill-opacity="0.200000" stroke="#000000" stroke-width="2" stroke-opacity="0.200000" points="668.71,-1230.1 674.71,-1228 668.71,-1225.9 668.71,-1230.1"/>
</g>
<!-- src/core/conversations/ConversationRecord.interface.ts -->
<g id="node28" class="node">
<title>src/core/conversations/ConversationRecord.interface.ts</title>
<g id="a_node28"><a xlink:href="src/core/conversations/ConversationRecord.interface.ts" xlink:title="ConversationRecord.interface.ts">
<path fill="#ccffcc" stroke="black" d="M597.46,-1237.62C597.46,-1237.62 450.29,-1237.62 450.29,-1237.62 447.08,-1237.62 443.88,-1234.42 443.88,-1231.21 443.88,-1231.21 443.88,-1224.79 443.88,-1224.79 443.88,-1221.58 447.08,-1218.38 450.29,-1218.38 450.29,-1218.38 597.46,-1218.38 597.46,-1218.38 600.67,-1218.38 603.88,-1221.58 603.88,-1224.79 603.88,-1224.79 603.88,-1231.21 603.88,-1231.21 603.88,-1234.42 600.67,-1237.62 597.46,-1237.62"/>
<text xml:space="preserve" text-anchor="start" x="451.88" y="-1224.62" font-family="Helvetica,sans-Serif" font-size="9.00">ConversationRecord.interface.ts</text>
</a>
</g>
</g>
<!-- src/core/conversations/ConversationRuntime.interface.ts -->
<g id="node29" class="node">
<title>src/core/conversations/ConversationRuntime.interface.ts</title>
<g id="a_node29"><a xlink:href="src/core/conversations/ConversationRuntime.interface.ts" xlink:title="ConversationRuntime.interface.ts">
<path fill="#ccffcc" stroke="black" d="M600.83,-1269.62C600.83,-1269.62 446.92,-1269.62 446.92,-1269.62 443.71,-1269.62 440.5,-1266.42 440.5,-1263.21 440.5,-1263.21 440.5,-1256.79 440.5,-1256.79 440.5,-1253.58 443.71,-1250.38 446.92,-1250.38 446.92,-1250.38 600.83,-1250.38 600.83,-1250.38 604.04,-1250.38 607.25,-1253.58 607.25,-1256.79 607.25,-1256.79 607.25,-1263.21 607.25,-1263.21 607.25,-1266.42 604.04,-1269.62 600.83,-1269.62"/>
<text xml:space="preserve" text-anchor="start" x="448.5" y="-1256.62" font-family="Helvetica,sans-Serif" font-size="9.00">ConversationRuntime.interface.ts</text>
</a>
</g>
</g>
<!-- src/core/conversations/ConversationStore.interface.ts -->
<g id="node30" class="node">
<title>src/core/conversations/ConversationStore.interface.ts</title>
<g id="a_node30"><a xlink:href="src/core/conversations/ConversationStore.interface.ts" xlink:title="ConversationStore.interface.ts">
<path fill="#ccffcc" stroke="black" d="M593.71,-1301.62C593.71,-1301.62 454.04,-1301.62 454.04,-1301.62 450.83,-1301.62 447.62,-1298.42 447.62,-1295.21 447.62,-1295.21 447.62,-1288.79 447.62,-1288.79 447.62,-1285.58 450.83,-1282.38 454.04,-1282.38 454.04,-1282.38 593.71,-1282.38 593.71,-1282.38 596.92,-1282.38 600.12,-1285.58 600.12,-1288.79 600.12,-1288.79 600.12,-1295.21 600.12,-1295.21 600.12,-1298.42 596.92,-1301.62 593.71,-1301.62"/>
<text xml:space="preserve" text-anchor="start" x="455.62" y="-1288.62" font-family="Helvetica,sans-Serif" font-size="9.00">ConversationStore.interface.ts</text>
</a>
</g>
</g>
<!-- src/core/memory/AgentMemory.interface.ts -->
<g id="node31" class="node">
<title>src/core/memory/AgentMemory.interface.ts</title>
<g id="a_node31"><a xlink:href="src/core/memory/AgentMemory.interface.ts" xlink:title="AgentMemory.interface.ts">
<path fill="#ccffcc" stroke="black" d="M583.21,-1364.62C583.21,-1364.62 464.54,-1364.62 464.54,-1364.62 461.33,-1364.62 458.12,-1361.42 458.12,-1358.21 458.12,-1358.21 458.12,-1351.79 458.12,-1351.79 458.12,-1348.58 461.33,-1345.38 464.54,-1345.38 464.54,-1345.38 583.21,-1345.38 583.21,-1345.38 586.42,-1345.38 589.62,-1348.58 589.62,-1351.79 589.62,-1351.79 589.62,-1358.21 589.62,-1358.21 589.62,-1361.42 586.42,-1364.62 583.21,-1364.62"/>
<text xml:space="preserve" text-anchor="start" x="466.12" y="-1351.62" font-family="Helvetica,sans-Serif" font-size="9.00">AgentMemory.interface.ts</text>
</a>
</g>
</g>
<!-- src/core/model/ModelClient.interface.ts -->
<g id="node32" class="node">
<title>src/core/model/ModelClient.interface.ts</title>
<g id="a_node32"><a xlink:href="src/core/model/ModelClient.interface.ts" xlink:title="ModelClient.interface.ts">
<path fill="#ccffcc" stroke="black" d="M578.33,-1427.62C578.33,-1427.62 469.42,-1427.62 469.42,-1427.62 466.21,-1427.62 463,-1424.42 463,-1421.21 463,-1421.21 463,-1414.79 463,-1414.79 463,-1411.58 466.21,-1408.38 469.42,-1408.38 469.42,-1408.38 578.33,-1408.38 578.33,-1408.38 581.54,-1408.38 584.75,-1411.58 584.75,-1414.79 584.75,-1414.79 584.75,-1421.21 584.75,-1421.21 584.75,-1424.42 581.54,-1427.62 578.33,-1427.62"/>
<text xml:space="preserve" text-anchor="start" x="471" y="-1414.62" font-family="Helvetica,sans-Serif" font-size="9.00">ModelClient.interface.ts</text>
</a>
</g>
</g>
<!-- src/core/settings/ResponseSettings.interface.ts -->
<g id="node33" class="node">
<title>src/core/settings/ResponseSettings.interface.ts</title>
<g id="a_node33"><a xlink:href="src/core/settings/ResponseSettings.interface.ts" xlink:title="ResponseSettings.interface.ts">
<path fill="#ccffcc" stroke="black" d="M592.58,-1490.62C592.58,-1490.62 455.17,-1490.62 455.17,-1490.62 451.96,-1490.62 448.75,-1487.42 448.75,-1484.21 448.75,-1484.21 448.75,-1477.79 448.75,-1477.79 448.75,-1474.58 451.96,-1471.38 455.17,-1471.38 455.17,-1471.38 592.58,-1471.38 592.58,-1471.38 595.79,-1471.38 599,-1474.58 599,-1477.79 599,-1477.79 599,-1484.21 599,-1484.21 599,-1487.42 595.79,-1490.62 592.58,-1490.62"/>
<text xml:space="preserve" text-anchor="start" x="456.75" y="-1477.62" font-family="Helvetica,sans-Serif" font-size="9.00">ResponseSettings.interface.ts</text>
</a>
</g>
</g>
<!-- src/core/tools/Tool.interface.ts -->
<g id="node34" class="node">
<title>src/core/tools/Tool.interface.ts</title>
<g id="a_node34"><a xlink:href="src/core/tools/Tool.interface.ts" xlink:title="Tool.interface.ts">
<path fill="#ccffcc" stroke="black" d="M560.71,-1553.62C560.71,-1553.62 487.04,-1553.62 487.04,-1553.62 483.83,-1553.62 480.62,-1550.42 480.62,-1547.21 480.62,-1547.21 480.62,-1540.79 480.62,-1540.79 480.62,-1537.58 483.83,-1534.38 487.04,-1534.38 487.04,-1534.38 560.71,-1534.38 560.71,-1534.38 563.92,-1534.38 567.12,-1537.58 567.12,-1540.79 567.12,-1540.79 567.12,-1547.21 567.12,-1547.21 567.12,-1550.42 563.92,-1553.62 560.71,-1553.62"/>
<text xml:space="preserve" text-anchor="start" x="488.62" y="-1540.62" font-family="Helvetica,sans-Serif" font-size="9.00">Tool.interface.ts</text>
</a>
</g>
</g>
<!-- src/core/tools/ToolRegistry.ts&#45;&gt;src/core/errors/AgentError.ts -->
<g id="edge19" class="edge">
<title>src/core/tools/ToolRegistry.ts&#45;&gt;src/core/errors/AgentError.ts</title>
<path fill="none" stroke="#000000" stroke-width="2" stroke-opacity="0.200000" d="M563.8,-1576C588.97,-1576 616.75,-1576 616.75,-1576 616.75,-1576 616.75,-914.21 616.75,-914.21 616.75,-914.21 657.52,-914.21 657.52,-914.21"/>
<polygon fill="#000000" fill-opacity="0.200000" stroke="#000000" stroke-width="2" stroke-opacity="0.200000" points="657.52,-916.31 663.52,-914.21 657.52,-912.11 657.52,-916.31"/>
</g>
<!-- src/core/tools/ToolRuntime.interface.ts -->
<g id="node36" class="node">
<title>src/core/tools/ToolRuntime.interface.ts</title>
<g id="a_node36"><a xlink:href="src/core/tools/ToolRuntime.interface.ts" xlink:title="ToolRuntime.interface.ts">
<path fill="#ccffcc" stroke="black" d="M579.83,-1617.62C579.83,-1617.62 467.92,-1617.62 467.92,-1617.62 464.71,-1617.62 461.5,-1614.42 461.5,-1611.21 461.5,-1611.21 461.5,-1604.79 461.5,-1604.79 461.5,-1601.58 464.71,-1598.38 467.92,-1598.38 467.92,-1598.38 579.83,-1598.38 579.83,-1598.38 583.04,-1598.38 586.25,-1601.58 586.25,-1604.79 586.25,-1604.79 586.25,-1611.21 586.25,-1611.21 586.25,-1614.42 583.04,-1617.62 579.83,-1617.62"/>
<text xml:space="preserve" text-anchor="start" x="469.5" y="-1604.62" font-family="Helvetica,sans-Serif" font-size="9.00">ToolRuntime.interface.ts</text>
</a>
</g>
</g>
<!-- src/runtime/CliRuntime.interface.ts -->
<g id="node37" class="node">
<title>src/runtime/CliRuntime.interface.ts</title>
<g id="a_node37"><a xlink:href="src/runtime/CliRuntime.interface.ts" xlink:title="CliRuntime.interface.ts">
<path fill="#ccffcc" stroke="black" d="M222.08,-301.62C222.08,-301.62 116.17,-301.62 116.17,-301.62 112.96,-301.62 109.75,-298.42 109.75,-295.21 109.75,-295.21 109.75,-288.79 109.75,-288.79 109.75,-285.58 112.96,-282.38 116.17,-282.38 116.17,-282.38 222.08,-282.38 222.08,-282.38 225.29,-282.38 228.5,-285.58 228.5,-288.79 228.5,-288.79 228.5,-295.21 228.5,-295.21 228.5,-298.42 225.29,-301.62 222.08,-301.62"/>
<text xml:space="preserve" text-anchor="start" x="117.75" y="-288.62" font-family="Helvetica,sans-Serif" font-size="9.00">CliRuntime.interface.ts</text>
</a>
</g>
</g>
</g>
</svg>
