<?xml version="1.0" encoding="UTF-8" standalone="no"?>
<!DOCTYPE svg PUBLIC "-//W3C//DTD SVG 1.1//EN"
 "http://www.w3.org/Graphics/SVG/1.1/DTD/svg11.dtd">
<!-- Generated by graphviz version 14.1.5 (0)
 -->
<!-- Title: SeedStateMachine Pages: 1 -->
<svg width="2267pt" height="2524pt"
 viewBox="0.00 0.00 2267.00 2524.00" xmlns="http://www.w3.org/2000/svg" xmlns:xlink="http://www.w3.org/1999/xlink">
<g id="graph0" class="graph" transform="scale(1 1) rotate(0) translate(32.4 2491.94)">
<title>SeedStateMachine</title>
<polygon fill="white" stroke="none" points="-32.4,32.4 -32.4,-2491.94 2235.01,-2491.94 2235.01,32.4 -32.4,32.4"/>
<text xml:space="preserve" text-anchor="middle" x="1101.31" y="-2434.64" font-family="Arial" font-size="22.00">seed State Machine Grouped By Module</text>
<g id="clust1" class="cluster">
<title>cluster_legend</title>
<path fill="none" stroke="#e2e8f0" stroke-dasharray="5,2" d="M728.28,-2148.11C728.28,-2148.11 1053.63,-2148.11 1053.63,-2148.11 1059.63,-2148.11 1065.63,-2154.11 1065.63,-2160.11 1065.63,-2160.11 1065.63,-2411.61 1065.63,-2411.61 1065.63,-2417.61 1059.63,-2423.61 1053.63,-2423.61 1053.63,-2423.61 728.28,-2423.61 728.28,-2423.61 722.28,-2423.61 716.28,-2417.61 716.28,-2411.61 716.28,-2411.61 716.28,-2160.11 716.28,-2160.11 716.28,-2154.11 722.28,-2148.11 728.28,-2148.11"/>
<text xml:space="preserve" text-anchor="middle" x="890.95" y="-2398.71" font-family="Arial" font-size="22.00">Legend</text>
</g>
<g id="clust2" class="cluster">
<title>cluster_cli_main</title>
<path fill="none" stroke="#bfdbfe" stroke-dasharray="5,2" d="M1238.08,-1537.03C1238.08,-1537.03 1707.97,-1537.03 1707.97,-1537.03 1713.97,-1537.03 1719.97,-1543.03 1719.97,-1549.03 1719.97,-1549.03 1719.97,-1935.49 1719.97,-1935.49 1719.97,-1941.49 1713.97,-1947.49 1707.97,-1947.49 1707.97,-1947.49 1238.08,-1947.49 1238.08,-1947.49 1232.08,-1947.49 1226.08,-1941.49 1226.08,-1935.49 1226.08,-1935.49 1226.08,-1549.03 1226.08,-1549.03 1226.08,-1543.03 1232.08,-1537.03 1238.08,-1537.03"/>
<text xml:space="preserve" text-anchor="middle" x="1473.03" y="-1922.59" font-family="Arial" font-size="22.00">apps/cli/main.ts</text>
<text xml:space="preserve" text-anchor="middle" x="1473.03" y="-1897.09" font-family="Arial" font-size="22.00">thin session loop + command routing</text>
<text xml:space="preserve" text-anchor="middle" x="1473.03" y="-1871.59" font-family="Arial" font-size="22.00">11 states</text>
</g>
<g id="clust3" class="cluster">
<title>cluster_cli_compose</title>
<path fill="none" stroke="#bfdbfe" stroke-dasharray="5,2" d="M1757.49,-741.06C1757.49,-741.06 2032.49,-741.06 2032.49,-741.06 2038.49,-741.06 2044.49,-747.06 2044.49,-753.06 2044.49,-753.06 2044.49,-1001.4 2044.49,-1001.4 2044.49,-1007.4 2038.49,-1013.4 2032.49,-1013.4 2032.49,-1013.4 1757.49,-1013.4 1757.49,-1013.4 1751.49,-1013.4 1745.49,-1007.4 1745.49,-1001.4 1745.49,-1001.4 1745.49,-753.06 1745.49,-753.06 1745.49,-747.06 1751.49,-741.06 1757.49,-741.06"/>
<text xml:space="preserve" text-anchor="middle" x="1894.99" y="-988.5" font-family="Arial" font-size="22.00">apps/cli/compose.ts + auth.ts</text>
<text xml:space="preserve" text-anchor="middle" x="1894.99" y="-963" font-family="Arial" font-size="22.00">wires adapters, config, auth</text>
<text xml:space="preserve" text-anchor="middle" x="1894.99" y="-937.5" font-family="Arial" font-size="22.00">3 states</text>
</g>
<g id="clust4" class="cluster">
<title>cluster_cli_selection</title>
<path fill="none" stroke="#bfdbfe" stroke-dasharray="5,2" d="M1767.61,0C1767.61,0 2190.61,0 2190.61,0 2196.61,0 2202.61,-6 2202.61,-12 2202.61,-12 2202.61,-207.3 2202.61,-207.3 2202.61,-213.3 2196.61,-219.3 2190.61,-219.3 2190.61,-219.3 1767.61,-219.3 1767.61,-219.3 1761.61,-219.3 1755.61,-213.3 1755.61,-207.3 1755.61,-207.3 1755.61,-12 1755.61,-12 1755.61,-6 1761.61,0 1767.61,0"/>
<text xml:space="preserve" text-anchor="middle" x="1979.11" y="-194.4" font-family="Arial" font-size="22.00">apps/cli/conversationSelection.ts + history.ts</text>
<text xml:space="preserve" text-anchor="middle" x="1979.11" y="-168.9" font-family="Arial" font-size="22.00">selection UI only</text>
<text xml:space="preserve" text-anchor="middle" x="1979.11" y="-143.4" font-family="Arial" font-size="22.00">2 states</text>
</g>
<g id="clust5" class="cluster">
<title>cluster_commands</title>
<path fill="none" stroke="#bfdbfe" stroke-dasharray="5,2" d="M844.52,-1323.35C844.52,-1323.35 1081.52,-1323.35 1081.52,-1323.35 1087.52,-1323.35 1093.52,-1329.35 1093.52,-1335.35 1093.52,-1335.35 1093.52,-1450.37 1093.52,-1450.37 1093.52,-1456.37 1087.52,-1462.37 1081.52,-1462.37 1081.52,-1462.37 844.52,-1462.37 844.52,-1462.37 838.52,-1462.37 832.52,-1456.37 832.52,-1450.37 832.52,-1450.37 832.52,-1335.35 832.52,-1335.35 832.52,-1329.35 838.52,-1323.35 844.52,-1323.35"/>
<text xml:space="preserve" text-anchor="middle" x="963.02" y="-1437.47" font-family="Arial" font-size="22.00">apps/cli/commands.ts</text>
<text xml:space="preserve" text-anchor="middle" x="963.02" y="-1411.97" font-family="Arial" font-size="22.00">settings command parser</text>
<text xml:space="preserve" text-anchor="middle" x="963.02" y="-1386.47" font-family="Arial" font-size="22.00">1 state</text>
</g>
<g id="clust6" class="cluster">
<title>cluster_conversation_manager</title>
<path fill="none" stroke="#bbf7d0" stroke-dasharray="5,2" d="M915.69,-494.85C915.69,-494.85 1403.27,-494.85 1403.27,-494.85 1409.27,-494.85 1415.27,-500.85 1415.27,-506.85 1415.27,-506.85 1415.27,-924.2 1415.27,-924.2 1415.27,-930.2 1409.27,-936.2 1403.27,-936.2 1403.27,-936.2 915.69,-936.2 915.69,-936.2 909.69,-936.2 903.69,-930.2 903.69,-924.2 903.69,-924.2 903.69,-506.85 903.69,-506.85 903.69,-500.85 909.69,-494.85 915.69,-494.85"/>
<text xml:space="preserve" text-anchor="middle" x="1159.48" y="-911.3" font-family="Arial" font-size="22.00">core/conversations/ConversationManager.ts</text>
<text xml:space="preserve" text-anchor="middle" x="1159.48" y="-885.8" font-family="Arial" font-size="22.00">conversation lifecycle invariants</text>
<text xml:space="preserve" text-anchor="middle" x="1159.48" y="-860.3" font-family="Arial" font-size="22.00">12 states</text>
</g>
<g id="clust7" class="cluster">
<title>cluster_memory</title>
<path fill="none" stroke="#fde68a" stroke-dasharray="5,2" d="M12,-1238.36C12,-1238.36 579,-1238.36 579,-1238.36 585,-1238.36 591,-1244.36 591,-1250.36 591,-1250.36 591,-1499.59 591,-1499.59 591,-1505.59 585,-1511.59 579,-1511.59 579,-1511.59 12,-1511.59 12,-1511.59 6,-1511.59 0,-1505.59 0,-1499.59 0,-1499.59 0,-1250.36 0,-1250.36 0,-1244.36 6,-1238.36 12,-1238.36"/>
<text xml:space="preserve" text-anchor="middle" x="295.5" y="-1486.69" font-family="Arial" font-size="22.00">adapters/memory/simple&#45;linear/SimpleLinearMemory.ts</text>
<text xml:space="preserve" text-anchor="middle" x="295.5" y="-1461.19" font-family="Arial" font-size="22.00">projection between Agent events and Conversation timeline</text>
<text xml:space="preserve" text-anchor="middle" x="295.5" y="-1435.69" font-family="Arial" font-size="22.00">5 states</text>
</g>
<g id="clust8" class="cluster">
<title>cluster_agent</title>
<path fill="none" stroke="#c4b5fd" stroke-dasharray="5,2" d="M514.02,-1519.66C514.02,-1519.66 960.02,-1519.66 960.02,-1519.66 966.02,-1519.66 972.02,-1525.66 972.02,-1531.66 972.02,-1531.66 972.02,-1832.76 972.02,-1832.76 972.02,-1838.76 966.02,-1844.76 960.02,-1844.76 960.02,-1844.76 514.02,-1844.76 514.02,-1844.76 508.02,-1844.76 502.02,-1838.76 502.02,-1832.76 502.02,-1832.76 502.02,-1531.66 502.02,-1531.66 502.02,-1525.66 508.02,-1519.66 514.02,-1519.66"/>
<text xml:space="preserve" text-anchor="middle" x="737.02" y="-1819.86" font-family="Arial" font-size="22.00">core/agent/Agent.ts</text>
<text xml:space="preserve" text-anchor="middle" x="737.02" y="-1794.36" font-family="Arial" font-size="22.00">turn orchestration</text>
<text xml:space="preserve" text-anchor="middle" x="737.02" y="-1768.86" font-family="Arial" font-size="22.00">7 states</text>
</g>
<g id="clust9" class="cluster">
<title>cluster_tools</title>
<path fill="none" stroke="#fecaca" stroke-dasharray="5,2" d="M441.27,-530.76C441.27,-530.76 833.27,-530.76 833.27,-530.76 839.27,-530.76 845.27,-536.76 845.27,-542.76 845.27,-542.76 845.27,-800.65 845.27,-800.65 845.27,-806.65 839.27,-812.65 833.27,-812.65 833.27,-812.65 441.27,-812.65 441.27,-812.65 435.27,-812.65 429.27,-806.65 429.27,-800.65 429.27,-800.65 429.27,-542.76 429.27,-542.76 429.27,-536.76 435.27,-530.76 441.27,-530.76"/>
<text xml:space="preserve" text-anchor="middle" x="637.27" y="-787.75" font-family="Arial" font-size="22.00">core/tools/ToolRegistry.ts + Tool adapters</text>
<text xml:space="preserve" text-anchor="middle" x="637.27" y="-762.25" font-family="Arial" font-size="22.00">stable catalog + dispatch</text>
<text xml:space="preserve" text-anchor="middle" x="637.27" y="-736.75" font-family="Arial" font-size="22.00">5 states</text>
</g>
<g id="clust10" class="cluster">
<title>cluster_model</title>
<path fill="none" stroke="#fed7aa" stroke-dasharray="5,2" d="M376.81,-822.91C376.81,-822.91 680.06,-822.91 680.06,-822.91 686.06,-822.91 692.06,-828.91 692.06,-834.91 692.06,-834.91 692.06,-1127.37 692.06,-1127.37 692.06,-1133.37 686.06,-1139.37 680.06,-1139.37 680.06,-1139.37 376.81,-1139.37 376.81,-1139.37 370.81,-1139.37 364.81,-1133.37 364.81,-1127.37 364.81,-1127.37 364.81,-834.91 364.81,-834.91 364.81,-828.91 370.81,-822.91 376.81,-822.91"/>
<text xml:space="preserve" text-anchor="middle" x="528.44" y="-1114.47" font-family="Arial" font-size="22.00">adapters/codex/responses</text>
<text xml:space="preserve" text-anchor="middle" x="528.44" y="-1088.97" font-family="Arial" font-size="22.00">provider protocol adapter</text>
<text xml:space="preserve" text-anchor="middle" x="528.44" y="-1063.47" font-family="Arial" font-size="22.00">5 states</text>
</g>
<!-- start&#45;&gt;parse_args -->
<g id="edge1" class="edge">
<title>start&#45;&gt;parse_args</title>
<path fill="none" stroke="#475569" d="M1821.14,-2409C1790.95,-2356.91 1622.94,-2061.11 1544.26,-1798.19 1538.21,-1777.99 1534.68,-1754.4 1532.68,-1736.52"/>
<polygon fill="#475569" stroke="#475569" points="1535.48,-1736.4 1531.88,-1728.73 1529.91,-1736.98 1535.48,-1736.4"/>
</g>
<!-- unhandled_error&#45;&gt;exit -->
<g id="edge74" class="edge">
<title>unhandled_error&#45;&gt;exit</title>
<path fill="none" stroke="#475569" d="M1289.83,-1025.89C1363,-1069.63 1537.71,-1174.07 1598.59,-1210.46"/>
<polygon fill="#475569" stroke="#475569" points="1596.8,-1212.65 1605.1,-1214.35 1599.67,-1207.85 1596.8,-1212.65"/>
</g>
<!-- parse_args&#45;&gt;show_help -->
<g id="edge5" class="edge">
<title>parse_args&#45;&gt;show_help</title>
<path fill="none" stroke="#475569" d="M1484.26,-1712.79C1484.16,-1712.8 1484.07,-1712.8 1483.98,-1712.81"/>
<polygon fill="#475569" stroke="#475569" points="1484.78,-1709.93 1477.06,-1713.42 1485.27,-1715.51 1484.78,-1709.93"/>
</g>
<!-- parse_args&#45;&gt;load_config -->
<g id="edge7" class="edge">
<title>parse_args&#45;&gt;load_config</title>
<path fill="none" stroke="#475569" d="M1526.85,-1690.39C1525.58,-1682.79 1524.3,-1673.86 1523.67,-1665.72 1522.2,-1646.49 1518.21,-1640.82 1523.67,-1622.32 1529.31,-1603.24 1538.81,-1602.39 1547.99,-1584.73 1675.02,-1340.43 1783.98,-1024.03 1815.21,-930.24"/>
<polygon fill="#475569" stroke="#475569" points="1817.82,-931.28 1817.68,-922.81 1812.5,-929.52 1817.82,-931.28"/>
</g>
<!-- show_help&#45;&gt;exit -->
<g id="edge6" class="edge">
<title>show_help&#45;&gt;exit</title>
<path fill="none" stroke="#475569" d="M1466.15,-1698.13C1486.25,-1682.01 1512.55,-1660.65 1514.24,-1658.02 1523.1,-1644.21 1517.04,-1637.33 1523.67,-1622.32 1531.72,-1604.12 1540.51,-1603.17 1547.99,-1584.73 1596.64,-1464.77 1613.33,-1308.66 1618.2,-1248.44"/>
<polygon fill="#475569" stroke="#475569" points="1620.99,-1248.68 1618.81,-1240.49 1615.4,-1248.25 1620.99,-1248.68"/>
</g>
<!-- prompt_user&#45;&gt;classify_input -->
<g id="edge20" class="edge">
<title>prompt_user&#45;&gt;classify_input</title>
<path fill="none" stroke="#475569" d="M1502.3,-1654.67C1509.23,-1658.52 1516.62,-1662.41 1523.67,-1665.72 1547.82,-1677.04 1560.17,-1668.94 1579.76,-1687.04 1603.55,-1709.03 1617.34,-1744.4 1624.48,-1768.62"/>
<polygon fill="#475569" stroke="#475569" points="1621.73,-1769.19 1626.57,-1776.16 1627.13,-1767.7 1621.73,-1769.19"/>
</g>
<!-- classify_input&#45;&gt;ignore_empty -->
<g id="edge21" class="edge">
<title>classify_input&#45;&gt;ignore_empty</title>
<path fill="none" stroke="#475569" d="M1581.13,-1802.45C1534.53,-1809.44 1464.67,-1819.92 1414.12,-1827.51"/>
<polygon fill="#475569" stroke="#475569" points="1413.91,-1824.71 1406.42,-1828.66 1414.74,-1830.24 1413.91,-1824.71"/>
</g>
<!-- classify_input&#45;&gt;exit_command -->
<g id="edge23" class="edge">
<title>classify_input&#45;&gt;exit_command</title>
<path fill="none" stroke="#475569" d="M1560.85,-1792.09C1547.13,-1791.52 1532.94,-1790.93 1519.88,-1790.39"/>
<polygon fill="#475569" stroke="#475569" points="1520.21,-1787.6 1512.1,-1790.06 1519.98,-1793.19 1520.21,-1787.6"/>
</g>
<!-- classify_input&#45;&gt;route_new -->
<g id="edge25" class="edge">
<title>classify_input&#45;&gt;route_new</title>
<path fill="none" stroke="#475569" d="M1591.51,-1785.31C1528.43,-1769.73 1411.29,-1740.61 1407.35,-1738.09 1382.99,-1722.47 1363.07,-1695.8 1350.46,-1675.77"/>
<polygon fill="#475569" stroke="#475569" points="1352.85,-1674.32 1346.29,-1668.94 1348.07,-1677.23 1352.85,-1674.32"/>
</g>
<!-- classify_input&#45;&gt;route_resume -->
<g id="edge27" class="edge">
<title>classify_input&#45;&gt;route_resume</title>
<path fill="none" stroke="#475569" d="M1624.27,-1777.97C1614.15,-1751.86 1594.72,-1701.71 1582.71,-1670.73"/>
<polygon fill="#475569" stroke="#475569" points="1585.44,-1670.01 1579.93,-1663.57 1580.21,-1672.04 1585.44,-1670.01"/>
</g>
<!-- classify_input&#45;&gt;route_settings -->
<g id="edge29" class="edge">
<title>classify_input&#45;&gt;route_settings</title>
<path fill="none" stroke="#475569" d="M1594.61,-1784.59C1571.7,-1778.4 1541.38,-1770.92 1514.08,-1766.49 1470.58,-1759.42 1421.54,-1755.14 1381.7,-1752.58"/>
<polygon fill="#475569" stroke="#475569" points="1381.97,-1749.79 1373.81,-1752.09 1381.62,-1755.38 1381.97,-1749.79"/>
</g>
<!-- classify_input&#45;&gt;route_turn -->
<g id="edge36" class="edge">
<title>classify_input&#45;&gt;route_turn</title>
<path fill="none" stroke="#475569" d="M1626.97,-1777.61C1620.83,-1754.02 1606.71,-1711.95 1579.76,-1687.04 1560.17,-1668.94 1540.75,-1686.2 1523.67,-1665.72 1508.88,-1647.98 1522.13,-1636.33 1514.24,-1614.62 1511.14,-1606.1 1506.72,-1597.33 1502.25,-1589.5"/>
<polygon fill="#475569" stroke="#475569" points="1504.71,-1588.16 1498.21,-1582.72 1499.9,-1591.02 1504.71,-1588.16"/>
</g>
<!-- ignore_empty&#45;&gt;prompt_user -->
<g id="edge22" class="edge">
<title>ignore_empty&#45;&gt;prompt_user</title>
<path fill="none" stroke="#475569" d="M1357.89,-1818.66C1372.19,-1781.44 1403.63,-1700.07 1407.35,-1694.69 1416.07,-1682.09 1428,-1670.29 1439.21,-1660.64"/>
<polygon fill="#475569" stroke="#475569" points="1440.91,-1662.86 1445.27,-1655.59 1437.33,-1658.56 1440.91,-1662.86"/>
</g>
<!-- exit_command&#45;&gt;exit -->
<g id="edge24" class="edge">
<title>exit_command&#45;&gt;exit</title>
<path fill="none" stroke="#475569" d="M1472.39,-1769.81C1474.95,-1760.41 1477.75,-1748.73 1479.22,-1738.09 1480,-1732.46 1478.45,-1692.17 1480.89,-1687.04 1489.32,-1669.29 1503.86,-1674.7 1514.24,-1658.02 1522.91,-1644.09 1517.04,-1637.33 1523.67,-1622.32 1531.72,-1604.12 1540.51,-1603.17 1547.99,-1584.73 1596.64,-1464.77 1613.33,-1308.66 1618.2,-1248.44"/>
<polygon fill="#475569" stroke="#475569" points="1620.99,-1248.68 1618.81,-1240.49 1615.4,-1248.25 1620.99,-1248.68"/>
</g>
<!-- route_new&#45;&gt;cm_create -->
<g id="edge26" class="edge">
<title>route_new&#45;&gt;cm_create</title>
<path fill="none" stroke="#475569" d="M1311.79,-1631.02C1310.17,-1628.91 1308.76,-1626.66 1307.69,-1624.28 1299.39,-1605.63 1307.2,-1598.76 1307.69,-1578.36 1315.32,-1265.66 1339.16,-887 1346.11,-780.77"/>
<polygon fill="#475569" stroke="#475569" points="1348.9,-781.03 1346.63,-772.86 1343.31,-780.66 1348.9,-781.03"/>
</g>
<!-- route_resume&#45;&gt;cm_resume -->
<g id="edge28" class="edge">
<title>route_resume&#45;&gt;cm_resume</title>
<path fill="none" stroke="#475569" d="M1568.67,-1625.68C1564.36,-1605 1556.7,-1570.48 1547.99,-1541.33 1448.2,-1207.37 1412.17,-1126.85 1280.78,-804 1266.48,-768.86 1248.17,-729.2 1235.93,-703.32"/>
<polygon fill="#475569" stroke="#475569" points="1238.48,-702.17 1232.52,-696.14 1233.42,-704.57 1238.48,-702.17"/>
</g>
<!-- route_settings&#45;&gt;mem_prepare -->
<g id="edge30" class="edge">
<title>route_settings&#45;&gt;mem_prepare</title>
<path fill="none" stroke="#475569" d="M1272.22,-1730.61C1165.46,-1667.56 800.56,-1457.19 477.67,-1331.65 473.83,-1330.15 469.88,-1328.71 465.87,-1327.31"/>
<polygon fill="#475569" stroke="#475569" points="466.92,-1324.71 458.45,-1324.81 465.14,-1330.02 466.92,-1324.71"/>
</g>
<!-- route_turn&#45;&gt;agent_start -->
<g id="edge37" class="edge">
<title>route_turn&#45;&gt;agent_start</title>
<path fill="none" stroke="#475569" d="M1425.5,-1565.04C1390.87,-1566.99 1346.53,-1570.82 1307.69,-1578.36 1122.77,-1614.26 1086.04,-1660.39 902.43,-1702.52 850.56,-1714.43 790.25,-1723.17 748.59,-1728.44"/>
<polygon fill="#475569" stroke="#475569" points="748.3,-1725.65 740.71,-1729.42 748.99,-1731.21 748.3,-1725.65"/>
</g>
<!-- render_turn&#45;&gt;cm_ready -->
<g id="edge55" class="edge">
<title>render_turn&#45;&gt;cm_ready</title>
<path fill="none" stroke="#475569" d="M1361.86,-1581.78C1358.22,-1505.22 1343.51,-1218.22 1316.91,-983.29 1306.37,-890.15 1292.19,-868.26 1285.1,-774.8 1283.56,-754.45 1284.99,-749.29 1285.1,-728.88 1285.29,-694.89 1302.38,-681.87 1285.44,-652.41 1277.86,-639.21 1265.15,-629.28 1251.92,-621.95"/>
<polygon fill="#475569" stroke="#475569" points="1253.4,-619.56 1245,-618.41 1250.85,-624.55 1253.4,-619.56"/>
</g>
<!-- load_config&#45;&gt;unhandled_error -->
<g id="edge65" class="edge">
<title>load_config&#45;&gt;unhandled_error</title>
<path fill="none" stroke="#475569" d="M1771.34,-912.53C1667.41,-931.47 1436.72,-973.5 1322.98,-994.22"/>
<polygon fill="#475569" stroke="#475569" points="1322.53,-991.46 1315.16,-995.65 1323.53,-996.97 1322.53,-991.46"/>
</g>
<!-- load_config&#45;&gt;create_runtime -->
<g id="edge8" class="edge">
<title>load_config&#45;&gt;create_runtime</title>
<path fill="none" stroke="#475569" d="M1854.45,-884.44C1865.45,-877.73 1878.04,-870.05 1889.75,-862.9"/>
<polygon fill="#475569" stroke="#475569" points="1891.02,-865.41 1896.39,-858.85 1888.1,-860.63 1891.02,-865.41"/>
</g>
<!-- create_runtime&#45;&gt;ensure_auth -->
<g id="edge9" class="edge">
<title>create_runtime&#45;&gt;ensure_auth</title>
<path fill="none" stroke="#475569" d="M1908.61,-818.96C1899.45,-810.52 1888.63,-800.55 1878.93,-791.61"/>
<polygon fill="#475569" stroke="#475569" points="1881,-789.71 1873.22,-786.35 1877.21,-793.83 1881,-789.71"/>
</g>
<!-- ensure_auth&#45;&gt;unhandled_error -->
<g id="edge66" class="edge">
<title>ensure_auth&#45;&gt;unhandled_error</title>
<path fill="none" stroke="#475569" d="M1806.56,-785.44C1699.39,-828.5 1432.14,-935.87 1314.32,-983.21"/>
<polygon fill="#475569" stroke="#475569" points="1313.54,-980.51 1307.16,-986.09 1315.63,-985.7 1313.54,-980.51"/>
</g>
<!-- ensure_auth&#45;&gt;select_initial -->
<g id="edge10" class="edge">
<title>ensure_auth&#45;&gt;select_initial</title>
<path fill="none" stroke="#475569" d="M1856.27,-748.74C1876.21,-657.06 1965.13,-248.24 1989.52,-136.08"/>
<polygon fill="#475569" stroke="#475569" points="1992.2,-136.94 1991.17,-128.53 1986.73,-135.75 1992.2,-136.94"/>
</g>
<!-- select_initial&#45;&gt;cm_create -->
<g id="edge11" class="edge">
<title>select_initial&#45;&gt;cm_create</title>
<path fill="none" stroke="#475569" d="M1976.4,-127.08C1901.81,-202.4 1625.46,-480.95 1394.58,-707.08 1388.34,-713.18 1381.6,-719.71 1375.23,-725.85"/>
<polygon fill="#475569" stroke="#475569" points="1373.42,-723.7 1369.6,-731.26 1377.3,-727.73 1373.42,-723.7"/>
</g>
<!-- select_initial&#45;&gt;cm_resume -->
<g id="edge13" class="edge">
<title>select_initial&#45;&gt;cm_resume</title>
<path fill="none" stroke="#475569" d="M1959.83,-127.11C1853.13,-186.25 1531.3,-371.64 1304.8,-576.78 1280.77,-598.54 1257.48,-627.39 1241.85,-648.26"/>
<polygon fill="#475569" stroke="#475569" points="1239.66,-646.52 1237.15,-654.61 1244.16,-649.85 1239.66,-646.52"/>
</g>
<!-- select_initial&#45;&gt;cm_activate -->
<g id="edge12" class="edge">
<title>select_initial&#45;&gt;cm_activate</title>
<path fill="none" stroke="#475569" d="M1959.17,-127.26C1832.2,-195.74 1410.48,-423.19 1271.75,-498.01"/>
<polygon fill="#475569" stroke="#475569" points="1270.45,-495.53 1264.74,-501.79 1273.11,-500.46 1270.45,-495.53"/>
</g>
<!-- render_history&#45;&gt;cm_ready -->
<g id="edge18" class="edge">
<title>render_history&#45;&gt;cm_ready</title>
<path fill="none" stroke="#475569" d="M1939.25,-46.91C1854.32,-117.27 1555.74,-362.13 1295.26,-545.07 1277.8,-557.33 1257.87,-570.11 1240.96,-580.62"/>
<polygon fill="#475569" stroke="#475569" points="1239.55,-578.2 1234.21,-584.78 1242.49,-582.96 1239.55,-578.2"/>
</g>
<!-- apply_settings_command&#45;&gt;unhandled_error -->
<g id="edge69" class="edge">
<title>apply_settings_command&#45;&gt;unhandled_error</title>
<path fill="none" stroke="#475569" d="M979.88,-1330.86C1029.91,-1272.26 1177.54,-1099.31 1234.35,-1032.76"/>
<polygon fill="#475569" stroke="#475569" points="1236.14,-1034.97 1239.2,-1027.07 1231.88,-1031.34 1236.14,-1034.97"/>
</g>
<!-- apply_settings_command&#45;&gt;mem_record_settings -->
<g id="edge33" class="edge">
<title>apply_settings_command&#45;&gt;mem_record_settings</title>
<path fill="none" stroke="#475569" d="M892.64,-1347.02C749.97,-1339.98 430.98,-1325.58 321.8,-1331.65 304.25,-1332.62 285.46,-1334.31 267.68,-1336.21"/>
<polygon fill="#475569" stroke="#475569" points="267.63,-1333.39 259.98,-1337.05 268.24,-1338.96 267.63,-1333.39"/>
</g>
<!-- cm_create&#45;&gt;cm_ready -->
<g id="edge16" class="edge">
<title>cm_create&#45;&gt;cm_ready</title>
<path fill="none" stroke="#475569" d="M1319.45,-732.2C1311.14,-725.18 1302.8,-716.61 1297.21,-707.08 1284.64,-685.64 1300.04,-672.52 1285.44,-652.41 1276.83,-640.54 1264.36,-631.12 1251.67,-623.85"/>
<polygon fill="#475569" stroke="#475569" points="1253.06,-621.42 1244.68,-620.11 1250.41,-626.35 1253.06,-621.42"/>
</g>
<!-- cm_resume&#45;&gt;cm_create -->
<g id="edge14" class="edge">
<title>cm_resume&#45;&gt;cm_create</title>
<path fill="none" stroke="#475569" d="M1254.84,-695.06C1271.09,-704.96 1290.93,-717.05 1308.13,-727.53"/>
<polygon fill="#475569" stroke="#475569" points="1306.24,-729.65 1314.53,-731.42 1309.15,-724.87 1306.24,-729.65"/>
</g>
<!-- cm_resume&#45;&gt;cm_activate -->
<g id="edge15" class="edge">
<title>cm_resume&#45;&gt;cm_activate</title>
<path fill="none" stroke="#475569" d="M1234.65,-655.83C1239.47,-646.97 1244.44,-636.15 1246.87,-625.67 1252.74,-600.35 1246.01,-571.26 1238.85,-550.37"/>
<polygon fill="#475569" stroke="#475569" points="1241.57,-549.65 1236.2,-543.09 1236.31,-551.57 1241.57,-549.65"/>
</g>
<!-- cm_activate&#45;&gt;render_history -->
<g id="edge17" class="edge">
<title>cm_activate&#45;&gt;render_history</title>
<path fill="none" stroke="#475569" d="M1256.37,-502.4C1372.22,-424.49 1798.22,-137.99 1926.25,-51.89"/>
<polygon fill="#475569" stroke="#475569" points="1927.56,-54.38 1932.64,-47.6 1924.44,-49.74 1927.56,-54.38"/>
</g>
<!-- cm_update_settings&#45;&gt;prompt_user -->
<g id="edge35" class="edge">
<title>cm_update_settings&#45;&gt;prompt_user</title>
<path fill="none" stroke="#475569" d="M1028.98,-645.54C1032.72,-667 1039.54,-703.54 1047.63,-734.4 1054.85,-761.97 1057.12,-768.82 1067.36,-795.42 1205.58,-1154.33 1207.1,-1265.84 1422.12,-1584.73 1428.51,-1594.22 1436.71,-1603.56 1444.59,-1611.63"/>
<polygon fill="#475569" stroke="#475569" points="1442.36,-1613.37 1450.01,-1617.02 1446.31,-1609.4 1442.36,-1613.37"/>
</g>
<!-- cm_record_user&#45;&gt;cm_open -->
<g id="edge40" class="edge">
<title>cm_record_user&#45;&gt;cm_open</title>
<path fill="none" stroke="#475569" d="M1328.15,-619.36C1317.78,-630.77 1305.48,-645.89 1297.21,-661.16 1288.96,-676.39 1290.75,-681.83 1285.44,-698.33 1274.26,-733.05 1261.13,-773 1252.63,-798.77"/>
<polygon fill="#475569" stroke="#475569" points="1250.04,-797.67 1250.19,-806.14 1255.36,-799.42 1250.04,-797.67"/>
</g>
<!-- cm_record_user&#45;&gt;cm_invalid_transition -->
<g id="edge67" class="edge">
<title>cm_record_user&#45;&gt;cm_invalid_transition</title>
<path fill="none" stroke="#475569" d="M1347.11,-619.31C1346.91,-629.88 1346.66,-643.15 1346.44,-654.92"/>
<polygon fill="#475569" stroke="#475569" points="1343.65,-654.8 1346.29,-662.85 1349.24,-654.9 1343.65,-654.8"/>
</g>
<!-- cm_record_assistant&#45;&gt;agent_has_tools -->
<g id="edge51" class="edge">
<title>cm_record_assistant&#45;&gt;agent_has_tools</title>
<path fill="none" stroke="#475569" d="M1141.62,-792.01C1137.02,-868.54 1115.23,-1154.31 1036.83,-1373.57 1005.03,-1462.52 942.97,-1556.95 913.39,-1599.32"/>
<polygon fill="#475569" stroke="#475569" points="911.27,-1597.46 908.96,-1605.62 915.85,-1600.68 911.27,-1597.46"/>
</g>
<!-- cm_record_tool_result&#45;&gt;agent_second_pass -->
<g id="edge63" class="edge">
<title>cm_record_tool_result&#45;&gt;agent_second_pass</title>
<path fill="none" stroke="#475569" d="M1085.42,-554.76C1085.98,-582.79 1085.74,-632.96 1077.6,-648.88 1066.16,-671.28 1045.4,-662.49 1033.94,-684.88 1014.98,-721.91 1038.04,-737.95 1027.86,-778.28 1015.8,-826.04 695.05,-1509.23 627.42,-1653.04"/>
<polygon fill="#475569" stroke="#475569" points="625.03,-1651.55 624.15,-1659.99 630.09,-1653.94 625.03,-1651.55"/>
</g>
<!-- cm_build_context&#45;&gt;apply_settings_command -->
<g id="edge32" class="edge">
<title>cm_build_context&#45;&gt;apply_settings_command</title>
<path fill="none" stroke="#475569" d="M967.77,-775.01C967.07,-860.29 964.13,-1216.86 963.26,-1321.58"/>
<polygon fill="#475569" stroke="#475569" points="960.47,-1321.37 963.2,-1329.4 966.06,-1321.42 960.47,-1321.37"/>
</g>
<!-- cm_ready&#45;&gt;prompt_user -->
<g id="edge19" class="edge">
<title>cm_ready&#45;&gt;prompt_user</title>
<path fill="none" stroke="#475569" d="M1243.65,-617.72C1259.65,-625.29 1276.29,-636.48 1285.44,-652.41 1302.38,-681.87 1285.29,-694.89 1285.1,-728.88 1284.99,-749.29 1283.39,-754.46 1285.1,-774.8 1287.01,-797.54 1411.87,-1564.35 1422.12,-1584.73 1427.08,-1594.6 1434.57,-1603.85 1442.24,-1611.71"/>
<polygon fill="#475569" stroke="#475569" points="1439.89,-1613.34 1447.58,-1616.92 1443.8,-1609.33 1439.89,-1613.34"/>
</g>
<!-- cm_open&#45;&gt;agent_first_pass -->
<g id="edge41" class="edge">
<title>cm_open&#45;&gt;agent_first_pass</title>
<path fill="none" stroke="#475569" d="M1230.22,-844.18C1182.58,-909.53 1018.25,-1136.08 889.21,-1327.65 843.35,-1395.74 791.79,-1477.5 765.66,-1519.32"/>
<polygon fill="#475569" stroke="#475569" points="763.29,-1517.82 761.43,-1526.09 768.05,-1520.78 763.29,-1517.82"/>
</g>
<!-- cm_completed&#45;&gt;agent_completed -->
<g id="edge53" class="edge">
<title>cm_completed&#45;&gt;agent_completed</title>
<path fill="none" stroke="#475569" d="M1080.25,-731.2C1075.6,-736.77 1070.9,-743.11 1067.36,-749.5 1020.83,-833.51 852.16,-1492.48 795.31,-1569.88 788.86,-1578.65 780.28,-1586.44 771.48,-1593.02"/>
<polygon fill="#475569" stroke="#475569" points="769.88,-1590.72 764.96,-1597.62 773.11,-1595.3 769.88,-1590.72"/>
</g>
<!-- cm_invalid_transition&#45;&gt;unhandled_error -->
<g id="edge68" class="edge">
<title>cm_invalid_transition&#45;&gt;unhandled_error</title>
<path fill="none" stroke="#475569" d="M1308.36,-703.7C1299.16,-710.4 1290.43,-718.8 1285.1,-728.88 1278.94,-740.53 1282,-834.28 1280.78,-847.4 1276.53,-893.2 1267.87,-945.92 1262.26,-977.64"/>
<polygon fill="#475569" stroke="#475569" points="1259.54,-976.91 1260.89,-985.28 1265.05,-977.9 1259.54,-976.91"/>
</g>
<!-- mem_record_user&#45;&gt;cm_record_user -->
<g id="edge39" class="edge">
<title>mem_record_user&#45;&gt;cm_record_user</title>
<path fill="none" stroke="#475569" d="M273.7,-1382.8C283.21,-1366.1 299.75,-1342.42 321.8,-1331.65 336.28,-1324.57 451.52,-1332.7 466.81,-1327.59 478.94,-1323.54 1208.98,-804.5 1217.98,-795.42 1254.97,-758.09 1262.26,-745.48 1285.44,-698.33 1293.09,-682.78 1288.96,-676.39 1297.21,-661.16 1303.86,-648.87 1313.13,-636.68 1321.9,-626.44"/>
<polygon fill="#475569" stroke="#475569" points="1323.96,-628.34 1327.15,-620.49 1319.76,-624.64 1323.96,-628.34"/>
</g>
<!-- mem_prepare&#45;&gt;cm_build_context -->
<g id="edge31" class="edge">
<title>mem_prepare&#45;&gt;cm_build_context</title>
<path fill="none" stroke="#475569" d="M402.26,-1285.13C491.64,-1201.61 842.04,-874.2 941.48,-781.29"/>
<polygon fill="#475569" stroke="#475569" points="943.16,-783.55 947.1,-776.04 939.34,-779.46 943.16,-783.55"/>
</g>
<!-- mem_prepare&#45;&gt;tools_list -->
<g id="edge43" class="edge">
<title>mem_prepare&#45;&gt;tools_list</title>
<path fill="none" stroke="#475569" d="M387.75,-1285.04C409.5,-1218.97 484.16,-998.98 568.64,-827.21 585.71,-792.49 635.49,-709.26 658.18,-677.93 661.86,-672.86 665.22,-673.15 667.41,-667.27 674.15,-649.2 673.29,-642.24 667.41,-623.87 662.9,-609.75 654.12,-596.07 645.36,-584.87"/>
<polygon fill="#475569" stroke="#475569" points="647.55,-583.13 640.32,-578.72 643.22,-586.68 647.55,-583.13"/>
</g>
<!-- mem_record_assistant&#45;&gt;cm_record_assistant -->
<g id="edge50" class="edge">
<title>mem_record_assistant&#45;&gt;cm_record_assistant</title>
<path fill="none" stroke="#475569" d="M452.83,-1335C457.66,-1332.7 462.39,-1330.22 466.81,-1327.59 746.58,-1161.7 1031.34,-884.77 1116.87,-798.76"/>
<polygon fill="#475569" stroke="#475569" points="1118.67,-800.92 1122.32,-793.27 1114.69,-796.98 1118.67,-800.92"/>
</g>
<!-- mem_record_tool&#45;&gt;cm_record_tool_result -->
<g id="edge62" class="edge">
<title>mem_record_tool&#45;&gt;cm_record_tool_result</title>
<path fill="none" stroke="#475569" d="M238.49,-1245.96C281.35,-1199.89 399.88,-1078 519.45,-1004.65 587.5,-962.91 621.06,-983.86 686.05,-937.5 845.13,-824.04 826.17,-732.98 974.23,-605.48 994.32,-588.18 1019.03,-572.08 1040,-559.67"/>
<polygon fill="#475569" stroke="#475569" points="1041.32,-562.13 1046.83,-555.69 1038.5,-557.3 1041.32,-562.13"/>
</g>
<!-- mem_record_settings&#45;&gt;cm_update_settings -->
<g id="edge34" class="edge">
<title>mem_record_settings&#45;&gt;cm_update_settings</title>
<path fill="none" stroke="#475569" d="M215.06,-1328.37C233.15,-1316.37 257.33,-1300.31 278.65,-1286.06 434.57,-1181.83 487.74,-1174.15 628.82,-1050.57 769.71,-927.16 776.61,-868.38 907.99,-734.88 937.37,-705.02 973.15,-672.89 997.54,-651.57"/>
<polygon fill="#475569" stroke="#475569" points="999.07,-653.95 1003.27,-646.58 995.4,-649.73 999.07,-653.95"/>
</g>
<!-- agent_start&#45;&gt;cm_record_user -->
<!-- agent_start&#45;&gt;mem_record_user -->
<g id="edge38" class="edge">
<title>agent_start&#45;&gt;mem_record_user</title>
<path fill="none" stroke="#475569" d="M656.03,-1731.56C624.93,-1728.04 582.31,-1719.93 549.37,-1701.28 423.98,-1630.28 320.22,-1486.27 281.17,-1427.24"/>
<polygon fill="#475569" stroke="#475569" points="283.65,-1425.91 276.92,-1420.75 278.96,-1428.98 283.65,-1425.91"/>
</g>
<!-- agent_first_pass&#45;&gt;mem_prepare -->
<g id="edge42" class="edge">
<title>agent_first_pass&#45;&gt;mem_prepare</title>
<path fill="none" stroke="#475569" d="M729.71,-1527.43C688.19,-1485.45 583.83,-1385.91 477.67,-1331.65 475.16,-1330.36 472.58,-1329.13 469.95,-1327.96"/>
<polygon fill="#475569" stroke="#475569" points="471.27,-1325.48 462.81,-1324.96 469.11,-1330.64 471.27,-1325.48"/>
</g>
<!-- agent_collect&#45;&gt;cm_record_assistant -->
<!-- agent_collect&#45;&gt;mem_record_assistant -->
<g id="edge49" class="edge">
<title>agent_collect&#45;&gt;mem_record_assistant</title>
<path fill="none" stroke="#475569" d="M826.97,-1659.99C818.51,-1640.8 803.1,-1612.04 781.1,-1595.08 751.77,-1572.47 734.81,-1586.43 701.69,-1569.88 593.27,-1515.72 481.03,-1424.81 429.21,-1380.48"/>
<polygon fill="#475569" stroke="#475569" points="431.05,-1378.37 423.16,-1375.28 427.4,-1382.62 431.05,-1378.37"/>
</g>
<!-- agent_has_tools&#45;&gt;cm_completed -->
<g id="edge52" class="edge">
<title>agent_has_tools&#45;&gt;cm_completed</title>
<path fill="none" stroke="#475569" d="M896.18,-1604.15C894.51,-1563.14 890.55,-1459.95 889.21,-1373.57 884.74,-1085.16 930.31,-1003.3 1067.36,-749.5 1069.37,-745.79 1071.78,-742.1 1074.35,-738.57"/>
<polygon fill="#475569" stroke="#475569" points="1076.5,-740.36 1079.23,-732.34 1072.09,-736.91 1076.5,-740.36"/>
</g>
<!-- agent_has_tools&#45;&gt;agent_execute_tools -->
<g id="edge56" class="edge">
<title>agent_has_tools&#45;&gt;agent_execute_tools</title>
<path fill="none" stroke="#475569" d="M863.52,-1612.79C840.53,-1606.69 809.2,-1599.16 781.1,-1595.08 739.17,-1588.99 691.98,-1586 653.55,-1584.54"/>
<polygon fill="#475569" stroke="#475569" points="654.09,-1581.76 646,-1584.27 653.89,-1587.35 654.09,-1581.76"/>
</g>
<!-- agent_execute_tools&#45;&gt;tools_execute -->
<g id="edge57" class="edge">
<title>agent_execute_tools&#45;&gt;tools_execute</title>
<path fill="none" stroke="#475569" d="M581.21,-1564.85C597.95,-1488.45 661.72,-1188.14 686.05,-937.5 688.82,-909.01 687.38,-901.74 687.76,-873.13 688.03,-852.72 691.47,-847.27 687.76,-827.21 674.5,-755.6 661.58,-739.39 629.11,-674.2 628.8,-673.57 628.47,-672.94 628.14,-672.3"/>
<polygon fill="#475569" stroke="#475569" points="630.61,-670.97 624.24,-665.38 625.73,-673.73 630.61,-670.97"/>
</g>
<!-- agent_second_pass&#45;&gt;cm_record_tool_result -->
<!-- agent_second_pass&#45;&gt;mem_prepare -->
<g id="edge64" class="edge">
<title>agent_second_pass&#45;&gt;mem_prepare</title>
<path fill="none" stroke="#475569" d="M571.85,-1661.13C548.44,-1648.75 521.29,-1630.08 506.32,-1604.91 443.9,-1499.95 556.42,-1424.98 477.67,-1331.65 475.65,-1329.26 473.44,-1327.07 471.08,-1325.07"/>
<polygon fill="#475569" stroke="#475569" points="472.9,-1322.93 464.79,-1320.5 469.61,-1327.47 472.9,-1322.93"/>
</g>
<!-- agent_completed&#45;&gt;render_turn -->
<g id="edge54" class="edge">
<title>agent_completed&#45;&gt;render_turn</title>
<path fill="none" stroke="#475569" d="M777.67,-1610.78C810.26,-1606.98 854.54,-1602.43 893.73,-1600.52 1039.89,-1593.4 1211.96,-1596.67 1301.55,-1599.25"/>
<polygon fill="#475569" stroke="#475569" points="1301.42,-1602.05 1309.5,-1599.48 1301.58,-1596.45 1301.42,-1602.05"/>
</g>
<!-- tools_list&#45;&gt;model_build_body -->
<g id="edge44" class="edge">
<title>tools_list&#45;&gt;model_build_body</title>
<path fill="none" stroke="#475569" d="M589.66,-577.77C560.49,-598.2 517.97,-632.89 495.74,-674.2 466.87,-727.84 462.23,-800.76 462.11,-840.66"/>
<polygon fill="#475569" stroke="#475569" points="459.31,-840.56 462.16,-848.55 464.91,-840.53 459.31,-840.56"/>
</g>
<!-- tools_execute&#45;&gt;tools_unavailable -->
<g id="edge58" class="edge">
<title>tools_execute&#45;&gt;tools_unavailable</title>
<path fill="none" stroke="#475569" d="M593.88,-663.91C591.8,-666.11 589.64,-668.39 587.48,-670.68"/>
<polygon fill="#475569" stroke="#475569" points="585.54,-668.65 582.08,-676.39 589.61,-672.5 585.54,-668.65"/>
</g>
<!-- tools_execute&#45;&gt;tool_adapter -->
<g id="edge59" class="edge">
<title>tools_execute&#45;&gt;tool_adapter</title>
<path fill="none" stroke="#475569" d="M646.95,-663.99C654.99,-668.14 663.64,-672.6 672.05,-676.94"/>
<polygon fill="#475569" stroke="#475569" points="670.62,-679.35 679.01,-680.53 673.18,-674.37 670.62,-679.35"/>
</g>
<!-- tools_unavailable&#45;&gt;mem_record_tool -->
<g id="edge61" class="edge">
<title>tools_unavailable&#45;&gt;mem_record_tool</title>
<path fill="none" stroke="#475569" d="M533.59,-716.86C497.32,-742.91 435.08,-791.96 396.23,-846.74 302.88,-978.35 247,-1167.52 228.54,-1237.23"/>
<polygon fill="#475569" stroke="#475569" points="225.88,-1236.35 226.57,-1244.79 231.3,-1237.76 225.88,-1236.35"/>
</g>
<!-- tool_adapter&#45;&gt;mem_record_tool -->
<g id="edge60" class="edge">
<title>tool_adapter&#45;&gt;mem_record_tool</title>
<path fill="none" stroke="#475569" d="M689.7,-720.5C657.48,-743.42 605.04,-783.8 568.64,-827.21 557.19,-840.85 498.69,-951.48 488.23,-965.9 409.19,-1074.96 297,-1190.01 247.21,-1239.43"/>
<polygon fill="#475569" stroke="#475569" points="245.41,-1237.28 241.69,-1244.9 249.34,-1241.26 245.41,-1237.28"/>
</g>
<!-- tool_adapter&#45;&gt;tool_throw -->
<g id="edge72" class="edge">
<title>tool_adapter&#45;&gt;tool_throw</title>
<path fill="none" stroke="#475569" d="M719.04,-681.57C719.48,-666.45 720.08,-645.22 720.57,-628.3"/>
<polygon fill="#475569" stroke="#475569" points="723.36,-628.51 720.79,-620.43 717.76,-628.35 723.36,-628.51"/>
</g>
<!-- tool_throw&#45;&gt;unhandled_error -->
<g id="edge73" class="edge">
<title>tool_throw&#45;&gt;unhandled_error</title>
<path fill="none" stroke="#475569" d="M738.39,-618.95C770.08,-652.48 841,-725.25 907.99,-778.28 1012.4,-860.94 1147.03,-942.56 1214.49,-981.92"/>
<polygon fill="#475569" stroke="#475569" points="1212.74,-984.15 1221.06,-985.75 1215.56,-979.3 1212.74,-984.15"/>
</g>
<!-- model_build_body&#45;&gt;model_fetch -->
<g id="edge45" class="edge">
<title>model_build_body&#45;&gt;model_fetch</title>
<path fill="none" stroke="#475569" d="M526.34,-862.2C538.2,-860.8 550.61,-859.33 562.53,-857.93"/>
<polygon fill="#475569" stroke="#475569" points="562.84,-860.71 570.46,-856.99 562.18,-855.15 562.84,-860.71"/>
</g>
<!-- model_fetch&#45;&gt;model_map_events -->
<g id="edge46" class="edge">
<title>model_fetch&#45;&gt;model_map_events</title>
<path fill="none" stroke="#475569" d="M585.88,-869.84C554.8,-884.29 512.43,-904 479.51,-919.3"/>
<polygon fill="#475569" stroke="#475569" points="478.37,-916.75 472.3,-922.66 480.73,-921.82 478.37,-916.75"/>
</g>
<!-- model_fetch&#45;&gt;model_throw -->
<g id="edge70" class="edge">
<title>model_fetch&#45;&gt;model_throw</title>
<path fill="none" stroke="#475569" d="M624.09,-869.86C622.86,-875.74 621.49,-882.3 620.18,-888.58"/>
<polygon fill="#475569" stroke="#475569" points="617.53,-887.58 618.63,-895.99 623.01,-888.73 617.53,-887.58"/>
</g>
<!-- model_map_events&#45;&gt;agent_collect -->
<g id="edge47" class="edge">
<title>model_map_events&#45;&gt;agent_collect</title>
<path fill="none" stroke="#475569" d="M444.12,-962.24C499.9,-1032.85 693.04,-1285.54 795.31,-1523.96 805.03,-1546.62 820.1,-1612.33 828.48,-1650.73"/>
<polygon fill="#475569" stroke="#475569" points="825.7,-1651.16 830.13,-1658.38 831.18,-1649.97 825.7,-1651.16"/>
</g>
<!-- model_failed_event&#45;&gt;agent_collect -->
<g id="edge48" class="edge">
<title>model_failed_event&#45;&gt;agent_collect</title>
<path fill="none" stroke="#475569" d="M584.23,-1046.98C618.05,-1112.48 728.94,-1332.29 795.31,-1523.96 810.34,-1567.39 822.32,-1619.45 828.94,-1650.99"/>
<polygon fill="#475569" stroke="#475569" points="826.16,-1651.34 830.52,-1658.61 831.64,-1650.2 826.16,-1651.34"/>
</g>
<!-- model_throw&#45;&gt;unhandled_error -->
<g id="edge71" class="edge">
<title>model_throw&#45;&gt;unhandled_error</title>
<path fill="none" stroke="#475569" d="M682.64,-925.39C806.81,-942.87 1068.37,-979.7 1190.95,-996.95"/>
<polygon fill="#475569" stroke="#475569" points="1190.44,-999.71 1198.75,-998.05 1191.22,-994.16 1190.44,-999.71"/>
</g>
<!-- start -->
<g id="node1" class="node">
<title>start</title>
<ellipse fill="#0f172a" stroke="#334155" cx="1825.83" cy="-2417.04" rx="9" ry="9"/>
</g>
<!-- exit -->
<g id="node2" class="node">
<title>exit</title>
<ellipse fill="#0f172a" stroke="#334155" cx="1619.94" cy="-1223.23" rx="11.52" ry="11.52"/>
<ellipse fill="none" stroke="#334155" cx="1619.94" cy="-1223.23" rx="15.52" ry="15.52"/>
</g>
<!-- unhandled_error -->
<g id="node3" class="node">
<title>unhandled_error</title>
<path fill="#fee2e2" stroke="#b91c1c" d="M1301.21,-1025.51C1301.21,-1025.51 1212.74,-1025.51 1212.74,-1025.51 1206.74,-1025.51 1200.74,-1019.51 1200.74,-1013.51 1200.74,-1013.51 1200.74,-998.99 1200.74,-998.99 1200.74,-992.99 1206.74,-986.99 1212.74,-986.99 1212.74,-986.99 1301.21,-986.99 1301.21,-986.99 1307.21,-986.99 1313.21,-992.99 1313.21,-998.99 1313.21,-998.99 1313.21,-1013.51 1313.21,-1013.51 1313.21,-1019.51 1307.21,-1025.51 1301.21,-1025.51"/>
<text xml:space="preserve" text-anchor="middle" x="1256.98" y="-1009.3" font-family="Arial" font-size="11.00">Unhandled error</text>
<text xml:space="preserve" text-anchor="middle" x="1256.98" y="-995.8" font-family="Arial" font-size="11.00">print + set exitCode</text>
</g>
<!-- legend_app -->
<g id="node4" class="node">
<title>legend_app</title>
<path fill="#f8fafc" stroke="#334155" d="M851.13,-2382.11C851.13,-2382.11 746.91,-2382.11 746.91,-2382.11 740.91,-2382.11 734.91,-2376.11 734.91,-2370.11 734.91,-2370.11 734.91,-2358.11 734.91,-2358.11 734.91,-2352.11 740.91,-2346.11 746.91,-2346.11 746.91,-2346.11 851.13,-2346.11 851.13,-2346.11 857.13,-2346.11 863.13,-2352.11 863.13,-2358.11 863.13,-2358.11 863.13,-2370.11 863.13,-2370.11 863.13,-2376.11 857.13,-2382.11 851.13,-2382.11"/>
<text xml:space="preserve" text-anchor="middle" x="799.02" y="-2360.41" font-family="Arial" font-size="11.00">blue = app/CLI module</text>
</g>
<!-- legend_core -->
<g id="node5" class="node">
<title>legend_core</title>
<path fill="#f8fafc" stroke="#334155" d="M993.13,-2192.11C993.13,-2192.11 846.91,-2192.11 846.91,-2192.11 840.91,-2192.11 834.91,-2186.11 834.91,-2180.11 834.91,-2180.11 834.91,-2168.11 834.91,-2168.11 834.91,-2162.11 840.91,-2156.11 846.91,-2156.11 846.91,-2156.11 993.13,-2156.11 993.13,-2156.11 999.13,-2156.11 1005.13,-2162.11 1005.13,-2168.11 1005.13,-2168.11 1005.13,-2180.11 1005.13,-2180.11 1005.13,-2186.11 999.13,-2192.11 993.13,-2192.11"/>
<text xml:space="preserve" text-anchor="middle" x="920.02" y="-2170.41" font-family="Arial" font-size="11.00">green/purple/red = core module</text>
</g>
<!-- legend_adapter -->
<g id="node6" class="node">
<title>legend_adapter</title>
<path fill="#f8fafc" stroke="#334155" d="M1045.63,-2332.11C1045.63,-2332.11 896.41,-2332.11 896.41,-2332.11 890.41,-2332.11 884.41,-2326.11 884.41,-2320.11 884.41,-2320.11 884.41,-2308.11 884.41,-2308.11 884.41,-2302.11 890.41,-2296.11 896.41,-2296.11 896.41,-2296.11 1045.63,-2296.11 1045.63,-2296.11 1051.63,-2296.11 1057.63,-2302.11 1057.63,-2308.11 1057.63,-2308.11 1057.63,-2320.11 1057.63,-2320.11 1057.63,-2326.11 1051.63,-2332.11 1045.63,-2332.11"/>
<text xml:space="preserve" text-anchor="middle" x="971.02" y="-2310.41" font-family="Arial" font-size="11.00">yellow/orange = adapter module</text>
</g>
<!-- legend_depth -->
<g id="node7" class="node">
<title>legend_depth</title>
<path fill="#f8fafc" stroke="#334155" d="M917.75,-2268.12C917.75,-2268.12 736.28,-2268.12 736.28,-2268.12 730.28,-2268.12 724.28,-2262.12 724.28,-2256.12 724.28,-2256.12 724.28,-2228.1 724.28,-2228.1 724.28,-2222.1 730.28,-2216.1 736.28,-2216.1 736.28,-2216.1 917.75,-2216.1 917.75,-2216.1 923.75,-2216.1 929.75,-2222.1 929.75,-2228.1 929.75,-2228.1 929.75,-2256.12 929.75,-2256.12 929.75,-2262.12 923.75,-2268.12 917.75,-2268.12"/>
<text xml:space="preserve" text-anchor="middle" x="827.02" y="-2251.91" font-family="Arial" font-size="11.00">Depth cue: more states and</text>
<text xml:space="preserve" text-anchor="middle" x="827.02" y="-2238.41" font-family="Arial" font-size="11.00">internal transitions inside a cluster</text>
<text xml:space="preserve" text-anchor="middle" x="827.02" y="-2224.91" font-family="Arial" font-size="11.00">means more behavior is localized there</text>
</g>
<!-- parse_args -->
<g id="node8" class="node">
<title>parse_args</title>
<path fill="#f8fafc" stroke="#334155" d="M1564.06,-1726.74C1564.06,-1726.74 1496.59,-1726.74 1496.59,-1726.74 1490.59,-1726.74 1484.59,-1720.74 1484.59,-1714.74 1484.59,-1714.74 1484.59,-1702.74 1484.59,-1702.74 1484.59,-1696.74 1490.59,-1690.74 1496.59,-1690.74 1496.59,-1690.74 1564.06,-1690.74 1564.06,-1690.74 1570.06,-1690.74 1576.06,-1696.74 1576.06,-1702.74 1576.06,-1702.74 1576.06,-1714.74 1576.06,-1714.74 1576.06,-1720.74 1570.06,-1726.74 1564.06,-1726.74"/>
<text xml:space="preserve" text-anchor="middle" x="1530.32" y="-1705.04" font-family="Arial" font-size="11.00">Parse CLI args</text>
</g>
<!-- show_help -->
<g id="node9" class="node">
<title>show_help</title>
<path fill="#f8fafc" stroke="#334155" d="M1463.52,-1734.39C1463.52,-1734.39 1423.05,-1734.39 1423.05,-1734.39 1417.05,-1734.39 1411.05,-1728.39 1411.05,-1722.39 1411.05,-1722.39 1411.05,-1710.39 1411.05,-1710.39 1411.05,-1704.39 1417.05,-1698.39 1423.05,-1698.39 1423.05,-1698.39 1463.52,-1698.39 1463.52,-1698.39 1469.52,-1698.39 1475.52,-1704.39 1475.52,-1710.39 1475.52,-1710.39 1475.52,-1722.39 1475.52,-1722.39 1475.52,-1728.39 1469.52,-1734.39 1463.52,-1734.39"/>
<text xml:space="preserve" text-anchor="middle" x="1443.29" y="-1712.69" font-family="Arial" font-size="11.00">Print help</text>
</g>
<!-- prompt_user -->
<g id="node10" class="node">
<title>prompt_user</title>
<path fill="#f8fafc" stroke="#334155" d="M1498.54,-1654.32C1498.54,-1654.32 1444.57,-1654.32 1444.57,-1654.32 1438.57,-1654.32 1432.57,-1648.32 1432.57,-1642.32 1432.57,-1642.32 1432.57,-1630.32 1432.57,-1630.32 1432.57,-1624.32 1438.57,-1618.32 1444.57,-1618.32 1444.57,-1618.32 1498.54,-1618.32 1498.54,-1618.32 1504.54,-1618.32 1510.54,-1624.32 1510.54,-1630.32 1510.54,-1630.32 1510.54,-1642.32 1510.54,-1642.32 1510.54,-1648.32 1504.54,-1654.32 1498.54,-1654.32"/>
<text xml:space="preserve" text-anchor="middle" x="1471.55" y="-1632.62" font-family="Arial" font-size="11.00">Prompt user</text>
</g>
<!-- classify_input -->
<g id="node11" class="node">
<title>classify_input</title>
<path fill="#f8fafc" stroke="#334155" d="M1619.15,-1810.39C1619.15,-1810.39 1561.48,-1797.59 1561.48,-1797.59 1555.62,-1796.29 1555.62,-1793.69 1561.48,-1792.39 1561.48,-1792.39 1619.15,-1779.59 1619.15,-1779.59 1625.01,-1778.29 1636.73,-1778.29 1642.58,-1779.59 1642.58,-1779.59 1700.26,-1792.39 1700.26,-1792.39 1706.12,-1793.69 1706.12,-1796.29 1700.26,-1797.59 1700.26,-1797.59 1642.58,-1810.39 1642.58,-1810.39 1636.73,-1811.69 1625.01,-1811.69 1619.15,-1810.39"/>
<text xml:space="preserve" text-anchor="middle" x="1630.87" y="-1791.29" font-family="Arial" font-size="11.00">Classify input</text>
</g>
<!-- ignore_empty -->
<g id="node12" class="node">
<title>ignore_empty</title>
<path fill="#f8fafc" stroke="#334155" d="M1392.85,-1854.99C1392.85,-1854.99 1308.88,-1854.99 1308.88,-1854.99 1302.88,-1854.99 1296.88,-1848.99 1296.88,-1842.99 1296.88,-1842.99 1296.88,-1830.99 1296.88,-1830.99 1296.88,-1824.99 1302.88,-1818.99 1308.88,-1818.99 1308.88,-1818.99 1392.85,-1818.99 1392.85,-1818.99 1398.85,-1818.99 1404.85,-1824.99 1404.85,-1830.99 1404.85,-1830.99 1404.85,-1842.99 1404.85,-1842.99 1404.85,-1848.99 1398.85,-1854.99 1392.85,-1854.99"/>
<text xml:space="preserve" text-anchor="middle" x="1350.87" y="-1833.29" font-family="Arial" font-size="11.00">Ignore empty input</text>
</g>
<!-- exit_command -->
<g id="node13" class="node">
<title>exit_command</title>
<path fill="#f8fafc" stroke="#334155" d="M1498.38,-1806.19C1498.38,-1806.19 1435.41,-1806.19 1435.41,-1806.19 1429.41,-1806.19 1423.41,-1800.19 1423.41,-1794.19 1423.41,-1794.19 1423.41,-1782.19 1423.41,-1782.19 1423.41,-1776.19 1429.41,-1770.19 1435.41,-1770.19 1435.41,-1770.19 1498.38,-1770.19 1498.38,-1770.19 1504.38,-1770.19 1510.38,-1776.19 1510.38,-1782.19 1510.38,-1782.19 1510.38,-1794.19 1510.38,-1794.19 1510.38,-1800.19 1504.38,-1806.19 1498.38,-1806.19"/>
<text xml:space="preserve" text-anchor="middle" x="1466.9" y="-1784.49" font-family="Arial" font-size="11.00">Exit command</text>
</g>
<!-- route_new -->
<g id="node14" class="node">
<title>route_new</title>
<path fill="#f8fafc" stroke="#334155" d="M1360.73,-1667.42C1360.73,-1667.42 1310.51,-1667.42 1310.51,-1667.42 1304.51,-1667.42 1298.51,-1661.42 1298.51,-1655.42 1298.51,-1655.42 1298.51,-1643.42 1298.51,-1643.42 1298.51,-1637.42 1304.51,-1631.42 1310.51,-1631.42 1310.51,-1631.42 1360.73,-1631.42 1360.73,-1631.42 1366.73,-1631.42 1372.73,-1637.42 1372.73,-1643.42 1372.73,-1643.42 1372.73,-1655.42 1372.73,-1655.42 1372.73,-1661.42 1366.73,-1667.42 1360.73,-1667.42"/>
<text xml:space="preserve" text-anchor="middle" x="1335.62" y="-1645.72" font-family="Arial" font-size="11.00">Route /new</text>
</g>
<!-- route_resume -->
<g id="node15" class="node">
<title>route_resume</title>
<path fill="#f8fafc" stroke="#334155" d="M1605.34,-1662.02C1605.34,-1662.02 1539.37,-1662.02 1539.37,-1662.02 1533.37,-1662.02 1527.37,-1656.02 1527.37,-1650.02 1527.37,-1650.02 1527.37,-1638.02 1527.37,-1638.02 1527.37,-1632.02 1533.37,-1626.02 1539.37,-1626.02 1539.37,-1626.02 1605.34,-1626.02 1605.34,-1626.02 1611.34,-1626.02 1617.34,-1632.02 1617.34,-1638.02 1617.34,-1638.02 1617.34,-1650.02 1617.34,-1650.02 1617.34,-1656.02 1611.34,-1662.02 1605.34,-1662.02"/>
<text xml:space="preserve" text-anchor="middle" x="1572.36" y="-1640.32" font-family="Arial" font-size="11.00">Route /resume</text>
</g>
<!-- route_settings -->
<g id="node16" class="node">
<title>route_settings</title>
<path fill="#f8fafc" stroke="#334155" d="M1360.05,-1767C1360.05,-1767 1246.08,-1767 1246.08,-1767 1240.08,-1767 1234.08,-1761 1234.08,-1755 1234.08,-1755 1234.08,-1743 1234.08,-1743 1234.08,-1737 1240.08,-1731 1246.08,-1731 1246.08,-1731 1360.05,-1731 1360.05,-1731 1366.05,-1731 1372.05,-1737 1372.05,-1743 1372.05,-1743 1372.05,-1755 1372.05,-1755 1372.05,-1761 1366.05,-1767 1360.05,-1767"/>
<text xml:space="preserve" text-anchor="middle" x="1303.07" y="-1745.3" font-family="Arial" font-size="11.00">Route settings command</text>
</g>
<!-- route_turn -->
<g id="node17" class="node">
<title>route_turn</title>
<path fill="#f8fafc" stroke="#334155" d="M1532.29,-1581.03C1532.29,-1581.03 1437.82,-1581.03 1437.82,-1581.03 1431.82,-1581.03 1425.82,-1575.03 1425.82,-1569.03 1425.82,-1569.03 1425.82,-1557.03 1425.82,-1557.03 1425.82,-1551.03 1431.82,-1545.03 1437.82,-1545.03 1437.82,-1545.03 1532.29,-1545.03 1532.29,-1545.03 1538.29,-1545.03 1544.29,-1551.03 1544.29,-1557.03 1544.29,-1557.03 1544.29,-1569.03 1544.29,-1569.03 1544.29,-1575.03 1538.29,-1581.03 1532.29,-1581.03"/>
<text xml:space="preserve" text-anchor="middle" x="1485.05" y="-1559.33" font-family="Arial" font-size="11.00">Route user message</text>
</g>
<!-- render_turn -->
<g id="node18" class="node">
<title>render_turn</title>
<path fill="#f8fafc" stroke="#334155" d="M1402.11,-1620.58C1402.11,-1620.58 1323.39,-1620.58 1323.39,-1620.58 1317.39,-1620.58 1311.39,-1614.58 1311.39,-1608.58 1311.39,-1608.58 1311.39,-1594.06 1311.39,-1594.06 1311.39,-1588.06 1317.39,-1582.06 1323.39,-1582.06 1323.39,-1582.06 1402.11,-1582.06 1402.11,-1582.06 1408.11,-1582.06 1414.11,-1588.06 1414.11,-1594.06 1414.11,-1594.06 1414.11,-1608.58 1414.11,-1608.58 1414.11,-1614.58 1408.11,-1620.58 1402.11,-1620.58"/>
<text xml:space="preserve" text-anchor="middle" x="1362.75" y="-1604.37" font-family="Arial" font-size="11.00">Render streamed</text>
<text xml:space="preserve" text-anchor="middle" x="1362.75" y="-1590.87" font-family="Arial" font-size="11.00">Agent events</text>
</g>
<!-- load_config -->
<g id="node19" class="node">
<title>load_config</title>
<path fill="#f8fafc" stroke="#334155" d="M1864.67,-920.9C1864.67,-920.9 1783.7,-920.9 1783.7,-920.9 1777.7,-920.9 1771.7,-914.9 1771.7,-908.9 1771.7,-908.9 1771.7,-896.9 1771.7,-896.9 1771.7,-890.9 1777.7,-884.9 1783.7,-884.9 1783.7,-884.9 1864.67,-884.9 1864.67,-884.9 1870.67,-884.9 1876.67,-890.9 1876.67,-896.9 1876.67,-896.9 1876.67,-908.9 1876.67,-908.9 1876.67,-914.9 1870.67,-920.9 1864.67,-920.9"/>
<text xml:space="preserve" text-anchor="middle" x="1824.19" y="-899.2" font-family="Arial" font-size="11.00">Load Agent config</text>
</g>
<!-- create_runtime -->
<g id="node20" class="node">
<title>create_runtime</title>
<path fill="#f8fafc" stroke="#334155" d="M2006.28,-857.74C2006.28,-857.74 1853.31,-857.74 1853.31,-857.74 1847.31,-857.74 1841.31,-851.74 1841.31,-845.74 1841.31,-845.74 1841.31,-831.22 1841.31,-831.22 1841.31,-825.22 1847.31,-819.22 1853.31,-819.22 1853.31,-819.22 2006.28,-819.22 2006.28,-819.22 2012.28,-819.22 2018.28,-825.22 2018.28,-831.22 2018.28,-831.22 2018.28,-845.74 2018.28,-845.74 2018.28,-851.74 2012.28,-857.74 2006.28,-857.74"/>
<text xml:space="preserve" text-anchor="middle" x="1929.79" y="-841.53" font-family="Arial" font-size="11.00">Wire Agent runtime</text>
<text xml:space="preserve" text-anchor="middle" x="1929.79" y="-828.03" font-family="Arial" font-size="11.00">stores + Memory + model + tools</text>
</g>
<!-- ensure_auth -->
<g id="node21" class="node">
<title>ensure_auth</title>
<path fill="#f8fafc" stroke="#334155" d="M1896.15,-785.06C1896.15,-785.06 1808.43,-785.06 1808.43,-785.06 1802.43,-785.06 1796.43,-779.06 1796.43,-773.06 1796.43,-773.06 1796.43,-761.06 1796.43,-761.06 1796.43,-755.06 1802.43,-749.06 1808.43,-749.06 1808.43,-749.06 1896.15,-749.06 1896.15,-749.06 1902.15,-749.06 1908.15,-755.06 1908.15,-761.06 1908.15,-761.06 1908.15,-773.06 1908.15,-773.06 1908.15,-779.06 1902.15,-785.06 1896.15,-785.06"/>
<text xml:space="preserve" text-anchor="middle" x="1852.29" y="-763.36" font-family="Arial" font-size="11.00">Ensure Codex auth</text>
</g>
<!-- select_initial -->
<g id="node22" class="node">
<title>select_initial</title>
<path fill="#f8fafc" stroke="#334155" d="M2030.22,-126.8C2030.22,-126.8 1961.25,-126.8 1961.25,-126.8 1955.25,-126.8 1949.25,-120.8 1949.25,-114.8 1949.25,-114.8 1949.25,-100.28 1949.25,-100.28 1949.25,-94.28 1955.25,-88.28 1961.25,-88.28 1961.25,-88.28 2030.22,-88.28 2030.22,-88.28 2036.22,-88.28 2042.22,-94.28 2042.22,-100.28 2042.22,-100.28 2042.22,-114.8 2042.22,-114.8 2042.22,-120.8 2036.22,-126.8 2030.22,-126.8"/>
<text xml:space="preserve" text-anchor="middle" x="1995.73" y="-110.59" font-family="Arial" font-size="11.00">List/select initial</text>
<text xml:space="preserve" text-anchor="middle" x="1995.73" y="-97.09" font-family="Arial" font-size="11.00">Conversation</text>
</g>
<!-- render_history -->
<g id="node23" class="node">
<title>render_history</title>
<path fill="#f8fafc" stroke="#334155" d="M1997.73,-46.52C1997.73,-46.52 1928.01,-46.52 1928.01,-46.52 1922.01,-46.52 1916.01,-40.52 1916.01,-34.52 1916.01,-34.52 1916.01,-20 1916.01,-20 1916.01,-14 1922.01,-8 1928.01,-8 1928.01,-8 1997.73,-8 1997.73,-8 2003.73,-8 2009.73,-14 2009.73,-20 2009.73,-20 2009.73,-34.52 2009.73,-34.52 2009.73,-40.52 2003.73,-46.52 1997.73,-46.52"/>
<text xml:space="preserve" text-anchor="middle" x="1962.87" y="-30.31" font-family="Arial" font-size="11.00">Render existing</text>
<text xml:space="preserve" text-anchor="middle" x="1962.87" y="-16.81" font-family="Arial" font-size="11.00">history</text>
</g>
<!-- apply_settings_command -->
<g id="node24" class="node">
<title>apply_settings_command</title>
<path fill="#f8fafc" stroke="#334155" d="M1021.13,-1369.87C1021.13,-1369.87 904.91,-1369.87 904.91,-1369.87 898.91,-1369.87 892.91,-1363.87 892.91,-1357.87 892.91,-1357.87 892.91,-1343.35 892.91,-1343.35 892.91,-1337.35 898.91,-1331.35 904.91,-1331.35 904.91,-1331.35 1021.13,-1331.35 1021.13,-1331.35 1027.13,-1331.35 1033.13,-1337.35 1033.13,-1343.35 1033.13,-1343.35 1033.13,-1357.87 1033.13,-1357.87 1033.13,-1363.87 1027.13,-1369.87 1021.13,-1369.87"/>
<text xml:space="preserve" text-anchor="middle" x="963.02" y="-1353.66" font-family="Arial" font-size="11.00">Apply /model, /reasoning,</text>
<text xml:space="preserve" text-anchor="middle" x="963.02" y="-1340.16" font-family="Arial" font-size="11.00">/set&#45;json to Settings</text>
</g>
<!-- cm_create -->
<g id="node25" class="node">
<title>cm_create</title>
<path fill="#f8fafc" stroke="#334155" d="M1395.27,-771.1C1395.27,-771.1 1300.8,-771.1 1300.8,-771.1 1294.8,-771.1 1288.8,-765.1 1288.8,-759.1 1288.8,-759.1 1288.8,-744.58 1288.8,-744.58 1288.8,-738.58 1294.8,-732.58 1300.8,-732.58 1300.8,-732.58 1395.27,-732.58 1395.27,-732.58 1401.27,-732.58 1407.27,-738.58 1407.27,-744.58 1407.27,-744.58 1407.27,-759.1 1407.27,-759.1 1407.27,-765.1 1401.27,-771.1 1395.27,-771.1"/>
<text xml:space="preserve" text-anchor="middle" x="1348.04" y="-754.89" font-family="Arial" font-size="11.00">Create Conversation</text>
<text xml:space="preserve" text-anchor="middle" x="1348.04" y="-741.39" font-family="Arial" font-size="11.00">empty turn list</text>
</g>
<!-- cm_resume -->
<g id="node26" class="node">
<title>cm_resume</title>
<path fill="#f8fafc" stroke="#334155" d="M1269.74,-694.63C1269.74,-694.63 1175.27,-694.63 1175.27,-694.63 1169.27,-694.63 1163.27,-688.63 1163.27,-682.63 1163.27,-682.63 1163.27,-668.11 1163.27,-668.11 1163.27,-662.11 1169.27,-656.11 1175.27,-656.11 1175.27,-656.11 1269.74,-656.11 1269.74,-656.11 1275.74,-656.11 1281.74,-662.11 1281.74,-668.11 1281.74,-668.11 1281.74,-682.63 1281.74,-682.63 1281.74,-688.63 1275.74,-694.63 1269.74,-694.63"/>
<text xml:space="preserve" text-anchor="middle" x="1222.51" y="-678.42" font-family="Arial" font-size="11.00">Resume most recent</text>
<text xml:space="preserve" text-anchor="middle" x="1222.51" y="-664.92" font-family="Arial" font-size="11.00">or create</text>
</g>
<!-- cm_activate -->
<g id="node27" class="node">
<title>cm_activate</title>
<path fill="#f8fafc" stroke="#334155" d="M1279.56,-541.37C1279.56,-541.37 1174.59,-541.37 1174.59,-541.37 1168.59,-541.37 1162.59,-535.37 1162.59,-529.37 1162.59,-529.37 1162.59,-514.85 1162.59,-514.85 1162.59,-508.85 1168.59,-502.85 1174.59,-502.85 1174.59,-502.85 1279.56,-502.85 1279.56,-502.85 1285.56,-502.85 1291.56,-508.85 1291.56,-514.85 1291.56,-514.85 1291.56,-529.37 1291.56,-529.37 1291.56,-535.37 1285.56,-541.37 1279.56,-541.37"/>
<text xml:space="preserve" text-anchor="middle" x="1227.08" y="-525.16" font-family="Arial" font-size="11.00">Activate Conversation</text>
<text xml:space="preserve" text-anchor="middle" x="1227.08" y="-511.66" font-family="Arial" font-size="11.00">sync prompt + Settings</text>
</g>
<!-- cm_update_settings -->
<g id="node28" class="node">
<title>cm_update_settings</title>
<path fill="#f8fafc" stroke="#334155" d="M1061.9,-645.18C1061.9,-645.18 989.93,-645.18 989.93,-645.18 983.93,-645.18 977.93,-639.18 977.93,-633.18 977.93,-633.18 977.93,-621.18 977.93,-621.18 977.93,-615.18 983.93,-609.18 989.93,-609.18 989.93,-609.18 1061.9,-609.18 1061.9,-609.18 1067.9,-609.18 1073.9,-615.18 1073.9,-621.18 1073.9,-621.18 1073.9,-633.18 1073.9,-633.18 1073.9,-639.18 1067.9,-645.18 1061.9,-645.18"/>
<text xml:space="preserve" text-anchor="middle" x="1025.92" y="-623.48" font-family="Arial" font-size="11.00">Update Settings</text>
</g>
<!-- cm_record_user -->
<g id="node29" class="node">
<title>cm_record_user</title>
<path fill="#f8fafc" stroke="#334155" d="M1374.47,-619C1374.47,-619 1320.5,-619 1320.5,-619 1314.5,-619 1308.5,-613 1308.5,-607 1308.5,-607 1308.5,-592.48 1308.5,-592.48 1308.5,-586.48 1314.5,-580.48 1320.5,-580.48 1320.5,-580.48 1374.47,-580.48 1374.47,-580.48 1380.47,-580.48 1386.47,-586.48 1386.47,-592.48 1386.47,-592.48 1386.47,-607 1386.47,-607 1386.47,-613 1380.47,-619 1374.47,-619"/>
<text xml:space="preserve" text-anchor="middle" x="1347.48" y="-602.79" font-family="Arial" font-size="11.00">Record user</text>
<text xml:space="preserve" text-anchor="middle" x="1347.48" y="-589.29" font-family="Arial" font-size="11.00">opens turn</text>
</g>
<!-- cm_record_assistant -->
<g id="node30" class="node">
<title>cm_record_assistant</title>
<path fill="#f8fafc" stroke="#334155" d="M1202.28,-791.72C1202.28,-791.72 1083.06,-791.72 1083.06,-791.72 1077.06,-791.72 1071.06,-785.72 1071.06,-779.72 1071.06,-779.72 1071.06,-765.2 1071.06,-765.2 1071.06,-759.2 1077.06,-753.2 1083.06,-753.2 1083.06,-753.2 1202.28,-753.2 1202.28,-753.2 1208.28,-753.2 1214.28,-759.2 1214.28,-765.2 1214.28,-765.2 1214.28,-779.72 1214.28,-779.72 1214.28,-785.72 1208.28,-791.72 1202.28,-791.72"/>
<text xml:space="preserve" text-anchor="middle" x="1142.67" y="-775.51" font-family="Arial" font-size="11.00">Record assistant</text>
<text xml:space="preserve" text-anchor="middle" x="1142.67" y="-762.01" font-family="Arial" font-size="11.00">completes unless tool_call</text>
</g>
<!-- cm_record_tool_result -->
<g id="node31" class="node">
<title>cm_record_tool_result</title>
<path fill="#f8fafc" stroke="#334155" d="M1124.56,-554.5C1124.56,-554.5 1045.09,-554.5 1045.09,-554.5 1039.09,-554.5 1033.09,-548.5 1033.09,-542.5 1033.09,-542.5 1033.09,-527.98 1033.09,-527.98 1033.09,-521.98 1039.09,-515.98 1045.09,-515.98 1045.09,-515.98 1124.56,-515.98 1124.56,-515.98 1130.56,-515.98 1136.56,-521.98 1136.56,-527.98 1136.56,-527.98 1136.56,-542.5 1136.56,-542.5 1136.56,-548.5 1130.56,-554.5 1124.56,-554.5"/>
<text xml:space="preserve" text-anchor="middle" x="1084.82" y="-538.29" font-family="Arial" font-size="11.00">Record tool result</text>
<text xml:space="preserve" text-anchor="middle" x="1084.82" y="-524.79" font-family="Arial" font-size="11.00">keeps turn open</text>
</g>
<!-- cm_build_context -->
<g id="node32" class="node">
<title>cm_build_context</title>
<path fill="#f8fafc" stroke="#334155" d="M1012.16,-774.58C1012.16,-774.58 923.69,-774.58 923.69,-774.58 917.69,-774.58 911.69,-768.58 911.69,-762.58 911.69,-762.58 911.69,-750.58 911.69,-750.58 911.69,-744.58 917.69,-738.58 923.69,-738.58 923.69,-738.58 1012.16,-738.58 1012.16,-738.58 1018.16,-738.58 1024.16,-744.58 1024.16,-750.58 1024.16,-750.58 1024.16,-762.58 1024.16,-762.58 1024.16,-768.58 1018.16,-774.58 1012.16,-774.58"/>
<text xml:space="preserve" text-anchor="middle" x="967.92" y="-752.88" font-family="Arial" font-size="11.00">Build replay context</text>
</g>
<!-- cm_ready -->
<g id="node33" class="node">
<title>cm_ready</title>
<path fill="#f8fafc" stroke="#334155" d="M1231.17,-621.97C1231.17,-621.97 1173.45,-621.97 1173.45,-621.97 1167.45,-621.97 1161.45,-615.97 1161.45,-609.97 1161.45,-609.97 1161.45,-597.97 1161.45,-597.97 1161.45,-591.97 1167.45,-585.97 1173.45,-585.97 1173.45,-585.97 1231.17,-585.97 1231.17,-585.97 1237.17,-585.97 1243.17,-591.97 1243.17,-597.97 1243.17,-597.97 1243.17,-609.97 1243.17,-609.97 1243.17,-615.97 1237.17,-621.97 1231.17,-621.97"/>
<text xml:space="preserve" text-anchor="middle" x="1202.31" y="-600.27" font-family="Arial" font-size="11.00">No open turn</text>
</g>
<!-- cm_open -->
<g id="node34" class="node">
<title>cm_open</title>
<path fill="#f8fafc" stroke="#334155" d="M1265.08,-843.7C1265.08,-843.7 1222.36,-843.7 1222.36,-843.7 1216.36,-843.7 1210.36,-837.7 1210.36,-831.7 1210.36,-831.7 1210.36,-819.7 1210.36,-819.7 1210.36,-813.7 1216.36,-807.7 1222.36,-807.7 1222.36,-807.7 1265.08,-807.7 1265.08,-807.7 1271.08,-807.7 1277.08,-813.7 1277.08,-819.7 1277.08,-819.7 1277.08,-831.7 1277.08,-831.7 1277.08,-837.7 1271.08,-843.7 1265.08,-843.7"/>
<text xml:space="preserve" text-anchor="middle" x="1243.72" y="-822" font-family="Arial" font-size="11.00">Open turn</text>
</g>
<!-- cm_completed -->
<g id="node35" class="node">
<title>cm_completed</title>
<path fill="#f8fafc" stroke="#334155" d="M1132.3,-730.7C1132.3,-730.7 1063.33,-730.7 1063.33,-730.7 1057.33,-730.7 1051.33,-724.7 1051.33,-718.7 1051.33,-718.7 1051.33,-706.7 1051.33,-706.7 1051.33,-700.7 1057.33,-694.7 1063.33,-694.7 1063.33,-694.7 1132.3,-694.7 1132.3,-694.7 1138.3,-694.7 1144.3,-700.7 1144.3,-706.7 1144.3,-706.7 1144.3,-718.7 1144.3,-718.7 1144.3,-724.7 1138.3,-730.7 1132.3,-730.7"/>
<text xml:space="preserve" text-anchor="middle" x="1097.81" y="-709" font-family="Arial" font-size="11.00">Completed turn</text>
</g>
<!-- cm_invalid_transition -->
<g id="node36" class="node">
<title>cm_invalid_transition</title>
<path fill="#fee2e2" stroke="#b91c1c" d="M1378.88,-703.38C1378.88,-703.38 1312.91,-703.38 1312.91,-703.38 1306.91,-703.38 1300.91,-697.38 1300.91,-691.38 1300.91,-691.38 1300.91,-676.86 1300.91,-676.86 1300.91,-670.86 1306.91,-664.86 1312.91,-664.86 1312.91,-664.86 1378.88,-664.86 1378.88,-664.86 1384.88,-664.86 1390.88,-670.86 1390.88,-676.86 1390.88,-676.86 1390.88,-691.38 1390.88,-691.38 1390.88,-697.38 1384.88,-703.38 1378.88,-703.38"/>
<text xml:space="preserve" text-anchor="middle" x="1345.89" y="-687.17" font-family="Arial" font-size="11.00">Invalid lifecycle</text>
<text xml:space="preserve" text-anchor="middle" x="1345.89" y="-673.67" font-family="Arial" font-size="11.00">transition</text>
</g>
<!-- mem_record_user -->
<g id="node37" class="node">
<title>mem_record_user</title>
<path fill="#f8fafc" stroke="#334155" d="M316.26,-1419.09C316.26,-1419.09 212.79,-1419.09 212.79,-1419.09 206.79,-1419.09 200.79,-1413.09 200.79,-1407.09 200.79,-1407.09 200.79,-1395.09 200.79,-1395.09 200.79,-1389.09 206.79,-1383.09 212.79,-1383.09 212.79,-1383.09 316.26,-1383.09 316.26,-1383.09 322.26,-1383.09 328.26,-1389.09 328.26,-1395.09 328.26,-1395.09 328.26,-1407.09 328.26,-1407.09 328.26,-1413.09 322.26,-1419.09 316.26,-1419.09"/>
<text xml:space="preserve" text-anchor="middle" x="264.52" y="-1397.39" font-family="Arial" font-size="11.00">Record user_message</text>
</g>
<!-- mem_prepare -->
<g id="node38" class="node">
<title>mem_prepare</title>
<path fill="#f8fafc" stroke="#334155" d="M451.11,-1323.89C451.11,-1323.89 311.64,-1323.89 311.64,-1323.89 305.64,-1323.89 299.64,-1317.89 299.64,-1311.89 299.64,-1311.89 299.64,-1297.37 299.64,-1297.37 299.64,-1291.37 305.64,-1285.37 311.64,-1285.37 311.64,-1285.37 451.11,-1285.37 451.11,-1285.37 457.11,-1285.37 463.11,-1291.37 463.11,-1297.37 463.11,-1297.37 463.11,-1311.89 463.11,-1311.89 463.11,-1317.89 457.11,-1323.89 451.11,-1323.89"/>
<text xml:space="preserve" text-anchor="middle" x="381.38" y="-1307.68" font-family="Arial" font-size="11.00">Prepare turn</text>
<text xml:space="preserve" text-anchor="middle" x="381.38" y="-1294.18" font-family="Arial" font-size="11.00">filter reasoning + flatten replay</text>
</g>
<!-- mem_record_assistant -->
<g id="node39" class="node">
<title>mem_record_assistant</title>
<path fill="#f8fafc" stroke="#334155" d="M461.97,-1373.87C461.97,-1373.87 337.5,-1373.87 337.5,-1373.87 331.5,-1373.87 325.5,-1367.87 325.5,-1361.87 325.5,-1361.87 325.5,-1347.35 325.5,-1347.35 325.5,-1341.35 331.5,-1335.35 337.5,-1335.35 337.5,-1335.35 461.97,-1335.35 461.97,-1335.35 467.97,-1335.35 473.97,-1341.35 473.97,-1347.35 473.97,-1347.35 473.97,-1361.87 473.97,-1361.87 473.97,-1367.87 467.97,-1373.87 461.97,-1373.87"/>
<text xml:space="preserve" text-anchor="middle" x="399.73" y="-1357.66" font-family="Arial" font-size="11.00">Record assistant_message</text>
<text xml:space="preserve" text-anchor="middle" x="399.73" y="-1344.16" font-family="Arial" font-size="11.00">map blocks to content</text>
</g>
<!-- mem_record_tool -->
<g id="node40" class="node">
<title>mem_record_tool</title>
<path fill="#f8fafc" stroke="#334155" d="M262.95,-1282.36C262.95,-1282.36 180.48,-1282.36 180.48,-1282.36 174.48,-1282.36 168.48,-1276.36 168.48,-1270.36 168.48,-1270.36 168.48,-1258.36 168.48,-1258.36 168.48,-1252.36 174.48,-1246.36 180.48,-1246.36 180.48,-1246.36 262.95,-1246.36 262.95,-1246.36 268.95,-1246.36 274.95,-1252.36 274.95,-1258.36 274.95,-1258.36 274.95,-1270.36 274.95,-1270.36 274.95,-1276.36 268.95,-1282.36 262.95,-1282.36"/>
<text xml:space="preserve" text-anchor="middle" x="221.71" y="-1260.66" font-family="Arial" font-size="11.00">Record tool_result</text>
</g>
<!-- mem_record_settings -->
<g id="node41" class="node">
<title>mem_record_settings</title>
<path fill="#f8fafc" stroke="#334155" d="M246,-1364.62C246,-1364.62 129.03,-1364.62 129.03,-1364.62 123.03,-1364.62 117.03,-1358.62 117.03,-1352.62 117.03,-1352.62 117.03,-1340.62 117.03,-1340.62 117.03,-1334.62 123.03,-1328.62 129.03,-1328.62 129.03,-1328.62 246,-1328.62 246,-1328.62 252,-1328.62 258,-1334.62 258,-1340.62 258,-1340.62 258,-1352.62 258,-1352.62 258,-1358.62 252,-1364.62 246,-1364.62"/>
<text xml:space="preserve" text-anchor="middle" x="187.52" y="-1342.92" font-family="Arial" font-size="11.00">Record settings_changed</text>
</g>
<!-- agent_start -->
<g id="node42" class="node">
<title>agent_start</title>
<path fill="#f8fafc" stroke="#334155" d="M726.94,-1752.26C726.94,-1752.26 668.47,-1752.26 668.47,-1752.26 662.47,-1752.26 656.47,-1746.26 656.47,-1740.26 656.47,-1740.26 656.47,-1728.26 656.47,-1728.26 656.47,-1722.26 662.47,-1716.26 668.47,-1716.26 668.47,-1716.26 726.94,-1716.26 726.94,-1716.26 732.94,-1716.26 738.94,-1722.26 738.94,-1728.26 738.94,-1728.26 738.94,-1740.26 738.94,-1740.26 738.94,-1746.26 732.94,-1752.26 726.94,-1752.26"/>
<text xml:space="preserve" text-anchor="middle" x="697.7" y="-1730.56" font-family="Arial" font-size="11.00">Start runTurn</text>
</g>
<!-- agent_first_pass -->
<g id="node43" class="node">
<title>agent_first_pass</title>
<path fill="#f8fafc" stroke="#334155" d="M779.61,-1566.18C779.61,-1566.18 717.39,-1566.18 717.39,-1566.18 711.39,-1566.18 705.39,-1560.18 705.39,-1554.18 705.39,-1554.18 705.39,-1539.66 705.39,-1539.66 705.39,-1533.66 711.39,-1527.66 717.39,-1527.66 717.39,-1527.66 779.61,-1527.66 779.61,-1527.66 785.61,-1527.66 791.61,-1533.66 791.61,-1539.66 791.61,-1539.66 791.61,-1554.18 791.61,-1554.18 791.61,-1560.18 785.61,-1566.18 779.61,-1566.18"/>
<text xml:space="preserve" text-anchor="middle" x="748.5" y="-1549.97" font-family="Arial" font-size="11.00">Stream first</text>
<text xml:space="preserve" text-anchor="middle" x="748.5" y="-1536.47" font-family="Arial" font-size="11.00">assistant pass</text>
</g>
<!-- agent_collect -->
<g id="node44" class="node">
<title>agent_collect</title>
<path fill="#f8fafc" stroke="#334155" d="M886.73,-1698.82C886.73,-1698.82 782.51,-1698.82 782.51,-1698.82 776.51,-1698.82 770.51,-1692.82 770.51,-1686.82 770.51,-1686.82 770.51,-1672.3 770.51,-1672.3 770.51,-1666.3 776.51,-1660.3 782.51,-1660.3 782.51,-1660.3 886.73,-1660.3 886.73,-1660.3 892.73,-1660.3 898.73,-1666.3 898.73,-1672.3 898.73,-1672.3 898.73,-1686.82 898.73,-1686.82 898.73,-1692.82 892.73,-1698.82 886.73,-1698.82"/>
<text xml:space="preserve" text-anchor="middle" x="834.62" y="-1682.61" font-family="Arial" font-size="11.00">Collect text, reasoning,</text>
<text xml:space="preserve" text-anchor="middle" x="834.62" y="-1669.11" font-family="Arial" font-size="11.00">tool calls, failed events</text>
</g>
<!-- agent_has_tools -->
<g id="node45" class="node">
<title>agent_has_tools</title>
<path fill="#f8fafc" stroke="#334155" d="M885.34,-1637.13C885.34,-1637.13 841.43,-1625.35 841.43,-1625.35 835.64,-1623.79 835.64,-1620.69 841.43,-1619.13 841.43,-1619.13 885.34,-1607.35 885.34,-1607.35 891.14,-1605.79 902.73,-1605.79 908.52,-1607.35 908.52,-1607.35 952.43,-1619.13 952.43,-1619.13 958.23,-1620.69 958.23,-1623.79 952.43,-1625.35 952.43,-1625.35 908.52,-1637.13 908.52,-1637.13 902.73,-1638.69 891.14,-1638.69 885.34,-1637.13"/>
<text xml:space="preserve" text-anchor="middle" x="896.93" y="-1618.54" font-family="Arial" font-size="11.00">Tool calls?</text>
</g>
<!-- agent_execute_tools -->
<g id="node46" class="node">
<title>agent_execute_tools</title>
<path fill="#f8fafc" stroke="#334155" d="M632.24,-1601.21C632.24,-1601.21 522.02,-1601.21 522.02,-1601.21 516.02,-1601.21 510.02,-1595.21 510.02,-1589.21 510.02,-1589.21 510.02,-1577.21 510.02,-1577.21 510.02,-1571.21 516.02,-1565.21 522.02,-1565.21 522.02,-1565.21 632.24,-1565.21 632.24,-1565.21 638.24,-1565.21 644.24,-1571.21 644.24,-1577.21 644.24,-1577.21 644.24,-1589.21 644.24,-1589.21 644.24,-1595.21 638.24,-1601.21 632.24,-1601.21"/>
<text xml:space="preserve" text-anchor="middle" x="577.13" y="-1579.51" font-family="Arial" font-size="11.00">Execute requested tools</text>
</g>
<!-- agent_second_pass -->
<g id="node47" class="node">
<title>agent_second_pass</title>
<path fill="#f8fafc" stroke="#334155" d="M664.79,-1697.58C664.79,-1697.58 565.07,-1697.58 565.07,-1697.58 559.07,-1697.58 553.07,-1691.58 553.07,-1685.58 553.07,-1685.58 553.07,-1673.58 553.07,-1673.58 553.07,-1667.58 559.07,-1661.58 565.07,-1661.58 565.07,-1661.58 664.79,-1661.58 664.79,-1661.58 670.79,-1661.58 676.79,-1667.58 676.79,-1673.58 676.79,-1673.58 676.79,-1685.58 676.79,-1685.58 676.79,-1691.58 670.79,-1697.58 664.79,-1697.58"/>
<text xml:space="preserve" text-anchor="middle" x="614.93" y="-1675.88" font-family="Arial" font-size="11.00">Stream recovery pass</text>
</g>
<!-- agent_completed -->
<g id="node48" class="node">
<title>agent_completed</title>
<path fill="#f8fafc" stroke="#334155" d="M765.4,-1634.78C765.4,-1634.78 694.93,-1634.78 694.93,-1634.78 688.93,-1634.78 682.93,-1628.78 682.93,-1622.78 682.93,-1622.78 682.93,-1610.78 682.93,-1610.78 682.93,-1604.78 688.93,-1598.78 694.93,-1598.78 694.93,-1598.78 765.4,-1598.78 765.4,-1598.78 771.4,-1598.78 777.4,-1604.78 777.4,-1610.78 777.4,-1610.78 777.4,-1622.78 777.4,-1622.78 777.4,-1628.78 771.4,-1634.78 765.4,-1634.78"/>
<text xml:space="preserve" text-anchor="middle" x="730.16" y="-1613.08" font-family="Arial" font-size="11.00">Yield completed</text>
</g>
<!-- tools_list -->
<g id="node49" class="node">
<title>tools_list</title>
<path fill="#f8fafc" stroke="#334155" d="M650.09,-577.28C650.09,-577.28 590.87,-577.28 590.87,-577.28 584.87,-577.28 578.87,-571.28 578.87,-565.28 578.87,-565.28 578.87,-550.76 578.87,-550.76 578.87,-544.76 584.87,-538.76 590.87,-538.76 590.87,-538.76 650.09,-538.76 650.09,-538.76 656.09,-538.76 662.09,-544.76 662.09,-550.76 662.09,-550.76 662.09,-565.28 662.09,-565.28 662.09,-571.28 656.09,-577.28 650.09,-577.28"/>
<text xml:space="preserve" text-anchor="middle" x="620.48" y="-561.07" font-family="Arial" font-size="11.00">List canonical</text>
<text xml:space="preserve" text-anchor="middle" x="620.48" y="-547.57" font-family="Arial" font-size="11.00">tool catalog</text>
</g>
<!-- tools_execute -->
<g id="node50" class="node">
<title>tools_execute</title>
<path fill="#f8fafc" stroke="#334155" d="M651.71,-663.57C651.71,-663.57 570.74,-663.57 570.74,-663.57 564.74,-663.57 558.74,-657.57 558.74,-651.57 558.74,-651.57 558.74,-639.57 558.74,-639.57 558.74,-633.57 564.74,-627.57 570.74,-627.57 570.74,-627.57 651.71,-627.57 651.71,-627.57 657.71,-627.57 663.71,-633.57 663.71,-639.57 663.71,-639.57 663.71,-651.57 663.71,-651.57 663.71,-657.57 657.71,-663.57 651.71,-663.57"/>
<text xml:space="preserve" text-anchor="middle" x="611.23" y="-641.87" font-family="Arial" font-size="11.00">Dispatch by name</text>
</g>
<!-- tools_unavailable -->
<g id="node51" class="node">
<title>tools_unavailable</title>
<path fill="#f8fafc" stroke="#334155" d="M613.41,-716.42C613.41,-716.42 511.44,-716.42 511.44,-716.42 505.44,-716.42 499.44,-710.42 499.44,-704.42 499.44,-704.42 499.44,-689.9 499.44,-689.9 499.44,-683.9 505.44,-677.9 511.44,-677.9 511.44,-677.9 613.41,-677.9 613.41,-677.9 619.41,-677.9 625.41,-683.9 625.41,-689.9 625.41,-689.9 625.41,-704.42 625.41,-704.42 625.41,-710.42 619.41,-716.42 613.41,-716.42"/>
<text xml:space="preserve" text-anchor="middle" x="562.42" y="-700.21" font-family="Arial" font-size="11.00">Structured unavailable</text>
<text xml:space="preserve" text-anchor="middle" x="562.42" y="-686.71" font-family="Arial" font-size="11.00">tool result</text>
</g>
<!-- tool_adapter -->
<g id="node52" class="node">
<title>tool_adapter</title>
<path fill="#f8fafc" stroke="#334155" d="M763.1,-720.15C763.1,-720.15 673.88,-720.15 673.88,-720.15 667.88,-720.15 661.88,-714.15 661.88,-708.15 661.88,-708.15 661.88,-693.63 661.88,-693.63 661.88,-687.63 667.88,-681.63 673.88,-681.63 673.88,-681.63 763.1,-681.63 763.1,-681.63 769.1,-681.63 775.1,-687.63 775.1,-693.63 775.1,-693.63 775.1,-708.15 775.1,-708.15 775.1,-714.15 769.1,-720.15 763.1,-720.15"/>
<text xml:space="preserve" text-anchor="middle" x="718.49" y="-703.94" font-family="Arial" font-size="11.00">Tool adapter</text>
<text xml:space="preserve" text-anchor="middle" x="718.49" y="-690.44" font-family="Arial" font-size="11.00">executes side effect</text>
</g>
<!-- tool_throw -->
<g id="node53" class="node">
<title>tool_throw</title>
<path fill="#fee2e2" stroke="#b91c1c" d="M746.09,-618.67C746.09,-618.67 696.62,-618.67 696.62,-618.67 690.62,-618.67 684.62,-612.67 684.62,-606.67 684.62,-606.67 684.62,-594.67 684.62,-594.67 684.62,-588.67 690.62,-582.67 696.62,-582.67 696.62,-582.67 746.09,-582.67 746.09,-582.67 752.09,-582.67 758.09,-588.67 758.09,-594.67 758.09,-594.67 758.09,-606.67 758.09,-606.67 758.09,-612.67 752.09,-618.67 746.09,-618.67"/>
<text xml:space="preserve" text-anchor="middle" x="721.35" y="-596.97" font-family="Arial" font-size="11.00">Tool throws</text>
</g>
<!-- model_build_body -->
<g id="node54" class="node">
<title>model_build_body</title>
<path fill="#f8fafc" stroke="#334155" d="M513.9,-888.96C513.9,-888.96 411.93,-888.96 411.93,-888.96 405.93,-888.96 399.93,-882.96 399.93,-876.96 399.93,-876.96 399.93,-862.44 399.93,-862.44 399.93,-856.44 405.93,-850.44 411.93,-850.44 411.93,-850.44 513.9,-850.44 513.9,-850.44 519.9,-850.44 525.9,-856.44 525.9,-862.44 525.9,-862.44 525.9,-876.96 525.9,-876.96 525.9,-882.96 519.9,-888.96 513.9,-888.96"/>
<text xml:space="preserve" text-anchor="middle" x="462.91" y="-872.75" font-family="Arial" font-size="11.00">Build Responses body</text>
<text xml:space="preserve" text-anchor="middle" x="462.91" y="-859.25" font-family="Arial" font-size="11.00">prefix, input, tools</text>
</g>
<!-- model_fetch -->
<g id="node55" class="node">
<title>model_fetch</title>
<path fill="#f8fafc" stroke="#334155" d="M672.06,-869.43C672.06,-869.43 584.34,-869.43 584.34,-869.43 578.34,-869.43 572.34,-863.43 572.34,-857.43 572.34,-857.43 572.34,-842.91 572.34,-842.91 572.34,-836.91 578.34,-830.91 584.34,-830.91 584.34,-830.91 672.06,-830.91 672.06,-830.91 678.06,-830.91 684.06,-836.91 684.06,-842.91 684.06,-842.91 684.06,-857.43 684.06,-857.43 684.06,-863.43 678.06,-869.43 672.06,-869.43"/>
<text xml:space="preserve" text-anchor="middle" x="628.2" y="-853.22" font-family="Arial" font-size="11.00">POST streaming</text>
<text xml:space="preserve" text-anchor="middle" x="628.2" y="-839.72" font-family="Arial" font-size="11.00">Responses request</text>
</g>
<!-- model_map_events -->
<g id="node56" class="node">
<title>model_map_events</title>
<path fill="#f8fafc" stroke="#334155" d="M472.53,-962.2C472.53,-962.2 384.81,-962.2 384.81,-962.2 378.81,-962.2 372.81,-956.2 372.81,-950.2 372.81,-950.2 372.81,-935.68 372.81,-935.68 372.81,-929.68 378.81,-923.68 384.81,-923.68 384.81,-923.68 472.53,-923.68 472.53,-923.68 478.53,-923.68 484.53,-929.68 484.53,-935.68 484.53,-935.68 484.53,-950.2 484.53,-950.2 484.53,-956.2 478.53,-962.2 472.53,-962.2"/>
<text xml:space="preserve" text-anchor="middle" x="428.67" y="-945.99" font-family="Arial" font-size="11.00">Map SSE events to</text>
<text xml:space="preserve" text-anchor="middle" x="428.67" y="-932.49" font-family="Arial" font-size="11.00">ModelStreamEvent</text>
</g>
<!-- model_failed_event -->
<g id="node57" class="node">
<title>model_failed_event</title>
<path fill="#f8fafc" stroke="#334155" d="M613.12,-1046.87C613.12,-1046.87 535.15,-1046.87 535.15,-1046.87 529.15,-1046.87 523.15,-1040.87 523.15,-1034.87 523.15,-1034.87 523.15,-1020.35 523.15,-1020.35 523.15,-1014.35 529.15,-1008.35 535.15,-1008.35 535.15,-1008.35 613.12,-1008.35 613.12,-1008.35 619.12,-1008.35 625.12,-1014.35 625.12,-1020.35 625.12,-1020.35 625.12,-1034.87 625.12,-1034.87 625.12,-1040.87 619.12,-1046.87 613.12,-1046.87"/>
<text xml:space="preserve" text-anchor="middle" x="574.13" y="-1030.66" font-family="Arial" font-size="11.00">failed event</text>
<text xml:space="preserve" text-anchor="middle" x="574.13" y="-1017.16" font-family="Arial" font-size="11.00">returned to Agent</text>
</g>
<!-- model_throw -->
<g id="node58" class="node">
<title>model_throw</title>
<path fill="#fee2e2" stroke="#b91c1c" d="M670.35,-933.8C670.35,-933.8 558.63,-933.8 558.63,-933.8 552.63,-933.8 546.63,-927.8 546.63,-921.8 546.63,-921.8 546.63,-909.8 546.63,-909.8 546.63,-903.8 552.63,-897.8 558.63,-897.8 558.63,-897.8 670.35,-897.8 670.35,-897.8 676.35,-897.8 682.35,-903.8 682.35,-909.8 682.35,-909.8 682.35,-921.8 682.35,-921.8 682.35,-927.8 676.35,-933.8 670.35,-933.8"/>
<text xml:space="preserve" text-anchor="middle" x="614.49" y="-912.1" font-family="Arial" font-size="11.00">Transport/protocol throw</text>
</g>
<g id="edge-labels" class="edge-labels">
<polygon fill="white" stroke="none" points="1456.02,-1712.81 1456.02,-1728.81 1484.02,-1728.81 1484.02,-1712.81 1456.02,-1712.81"/>
<text xml:space="preserve" text-anchor="start" x="1458.02" y="-1717.06" font-family="Arial" font-size="10.00">&#45;&#45;help</text>
<polygon fill="white" stroke="none" points="1615.83,-1306.71 1615.83,-1322.71 1675.33,-1322.71 1675.33,-1306.71 1615.83,-1306.71"/>
<text xml:space="preserve" text-anchor="start" x="1617.83" y="-1310.96" font-family="Arial" font-size="10.00">chat session</text>
<polygon fill="white" stroke="none" points="1465.61,-1815.7 1465.61,-1831.7 1492.86,-1831.7 1492.86,-1815.7 1465.61,-1815.7"/>
<text xml:space="preserve" text-anchor="start" x="1467.61" y="-1819.95" font-family="Arial" font-size="10.00">blank</text>
<polygon fill="white" stroke="none" points="1512.85,-1791.04 1512.85,-1807.04 1535.6,-1807.04 1535.6,-1791.04 1512.85,-1791.04"/>
<text xml:space="preserve" text-anchor="start" x="1514.85" y="-1795.29" font-family="Arial" font-size="10.00">/exit</text>
<polygon fill="white" stroke="none" points="1436.86,-1752.89 1436.86,-1768.89 1461.86,-1768.89 1461.86,-1752.89 1436.86,-1752.89"/>
<text xml:space="preserve" text-anchor="start" x="1438.86" y="-1757.14" font-family="Arial" font-size="10.00">/new</text>
<polygon fill="white" stroke="none" points="1562.62,-1720.17 1562.62,-1736.17 1601.87,-1736.17 1601.87,-1720.17 1562.62,-1720.17"/>
<text xml:space="preserve" text-anchor="start" x="1564.62" y="-1724.42" font-family="Arial" font-size="10.00">/resume</text>
<polygon fill="white" stroke="none" points="1400.11,-1762.17 1400.11,-1778.17 1484.36,-1778.17 1484.36,-1762.17 1400.11,-1762.17"/>
<text xml:space="preserve" text-anchor="start" x="1402.11" y="-1766.42" font-family="Arial" font-size="10.00">settings command</text>
<polygon fill="white" stroke="none" points="1496.91,-1678.36 1496.91,-1694.36 1562.41,-1694.36 1562.41,-1678.36 1496.91,-1678.36"/>
<text xml:space="preserve" text-anchor="start" x="1498.91" y="-1682.61" font-family="Arial" font-size="10.00">user message</text>
<polygon fill="white" stroke="none" points="1481.38,-954.25 1481.38,-970.25 1542.38,-970.25 1542.38,-954.25 1481.38,-954.25"/>
<text xml:space="preserve" text-anchor="start" x="1483.38" y="-958.5" font-family="Arial" font-size="10.00">invalid config</text>
<polygon fill="white" stroke="none" points="1504.09,-886.07 1504.09,-902.07 1556.09,-902.07 1556.09,-886.07 1504.09,-886.07"/>
<text xml:space="preserve" text-anchor="start" x="1506.09" y="-890.32" font-family="Arial" font-size="10.00">auth failure</text>
<polygon fill="white" stroke="none" points="1621.57,-430.99 1621.57,-446.99 1673.57,-446.99 1673.57,-430.99 1621.57,-430.99"/>
<text xml:space="preserve" text-anchor="start" x="1623.57" y="-435.24" font-family="Arial" font-size="10.00">new / none</text>
<polygon fill="white" stroke="none" points="1536.36,-363.29 1536.36,-379.29 1578.61,-379.29 1578.61,-363.29 1536.36,-363.29"/>
<text xml:space="preserve" text-anchor="start" x="1538.36" y="-367.54" font-family="Arial" font-size="10.00">&#45;&#45;resume</text>
<polygon fill="white" stroke="none" points="1533.84,-314.86 1533.84,-330.86 1611.34,-330.86 1611.34,-314.86 1533.84,-314.86"/>
<text xml:space="preserve" text-anchor="start" x="1535.84" y="-319.11" font-family="Arial" font-size="10.00">manual selection</text>
<polygon fill="white" stroke="none" points="1048.13,-1178.58 1048.13,-1194.58 1109.88,-1194.58 1109.88,-1178.58 1048.13,-1178.58"/>
<text xml:space="preserve" text-anchor="start" x="1050.13" y="-1182.83" font-family="Arial" font-size="10.00">invalid JSON</text>
<polygon fill="white" stroke="none" points="1260.42,-713.69 1260.42,-729.69 1285.42,-729.69 1285.42,-713.69 1260.42,-713.69"/>
<text xml:space="preserve" text-anchor="start" x="1262.42" y="-717.94" font-family="Arial" font-size="10.00">none</text>
<polygon fill="white" stroke="none" points="1188.67,-598.08 1188.67,-614.08 1248.92,-614.08 1248.92,-598.08 1188.67,-598.08"/>
<text xml:space="preserve" text-anchor="start" x="1190.67" y="-602.33" font-family="Arial" font-size="10.00">recent exists</text>
<polygon fill="white" stroke="none" points="1272.94,-641.84 1272.94,-657.84 1346.69,-657.84 1346.69,-641.84 1272.94,-641.84"/>
<text xml:space="preserve" text-anchor="start" x="1274.94" y="-646.09" font-family="Arial" font-size="10.00">open turn exists</text>
<polygon fill="white" stroke="none" points="886.17,-1153.88 886.17,-1169.88 900.67,-1169.88 900.67,-1153.88 886.17,-1153.88"/>
<text xml:space="preserve" text-anchor="start" x="888.17" y="-1158.13" font-family="Arial" font-size="10.00">no</text>
<polygon fill="white" stroke="none" points="734.75,-1591.68 734.75,-1607.68 754.5,-1607.68 754.5,-1591.68 734.75,-1591.68"/>
<text xml:space="preserve" text-anchor="start" x="736.75" y="-1595.93" font-family="Arial" font-size="10.00">yes</text>
<polygon fill="white" stroke="none" points="549.93,-670.46 549.93,-686.46 587.68,-686.46 587.68,-670.46 549.93,-670.46"/>
<text xml:space="preserve" text-anchor="start" x="551.93" y="-674.71" font-family="Arial" font-size="10.00">missing</text>
<polygon fill="white" stroke="none" points="635.73,-672.65 635.73,-688.65 663.73,-688.65 663.73,-672.65 635.73,-672.65"/>
<text xml:space="preserve" text-anchor="start" x="637.73" y="-676.9" font-family="Arial" font-size="10.00">found</text>
<polygon fill="white" stroke="none" points="549.73,-883.54 549.73,-899.54 621.23,-899.54 621.23,-883.54 549.73,-883.54"/>
<text xml:space="preserve" text-anchor="start" x="551.73" y="-887.79" font-family="Arial" font-size="10.00">transport failure</text>
</g>
</g>
</svg>
